<svg width="48" height="40" viewBox="0 0 48 40" fill="none" xmlns="http://www.w3.org/2000/svg">
<path d="M48.0002 19.3231C46.2446 20.9169 45.0892 22.851 42.6439 23.8449C41.4347 24.3374 40.2345 24.1493 38.9268 24.3105C37.1354 24.5343 35.9621 25.6357 35.1739 26.943C33.9468 28.9756 32.4958 30.7127 29.4504 30.5157C26.3603 30.3276 23.9867 30.8291 22.6253 33.3631C21.846 34.8047 20.9414 36.488 18.8455 36.7119C18.0214 36.8014 13.7132 37.1686 11.8949 38.8071L5.77734 31.035C5.7863 30.9544 9.51237 27.5608 10.7932 27.1042C12.1815 26.6206 13.6236 26.7729 15.0388 26.5311C17.0541 26.1729 18.2722 25.4029 19.4904 24.015C20.6906 22.6629 21.3713 20.9617 23.6643 20.6931C25.5363 20.4692 27.1843 20.8632 28.9309 19.9678C30.5432 19.144 30.9641 17.6487 32.1912 16.5563C33.6064 15.2848 35.7471 15.2758 37.7087 15.043C39.6792 14.8192 42.7693 12.9746 44.2203 11.9001C45.0892 14.5953 47.0686 17.1383 48.0002 19.3231Z" fill="#CC5552"/>
<path opacity="0.5" d="M35.2095 18.5978C35.4961 18.5441 35.7649 18.6067 36.0873 18.4993C36.5172 18.356 36.9292 18.159 37.3592 18.0158C37.9682 17.8098 38.6221 17.7471 39.2222 17.5143C39.7686 17.3084 40.1985 16.9144 40.6822 16.61C41.13 16.3324 41.3987 16.4578 41.8645 16.1623C42.4556 15.7773 42.9572 15.3295 43.6021 15.0251C44.1306 14.7654 44.7038 14.5058 45.2591 14.2282C45.1517 14.0073 45.0472 13.7835 44.9457 13.5566C44.453 13.879 44.0231 14.2192 43.7634 14.3804C43.2439 14.6849 42.7691 15.1147 42.2317 15.3475C41.766 15.5534 41.7481 15.4818 41.5241 15.1236C40.6553 15.437 39.9208 16.2339 39.0789 16.6727C38.6221 16.9055 38.1295 17.1562 37.6279 17.2815C37.4129 17.3353 37.2517 17.4248 37.0278 17.3263C36.9024 17.2726 36.9382 17.0666 36.8576 17.0308C36.3291 16.7891 35.2453 17.1293 34.9587 17.6039C34.7527 17.9531 34.7706 18.2128 34.4213 18.5082C34.072 18.8037 33.6779 19.0724 33.2032 19.0007C33.2838 18.7231 33.66 18.5172 33.7495 18.2217C32.9882 18.0874 32.0567 19.0903 31.5282 19.538C30.9729 20.0125 30.4445 20.4871 29.8891 20.9617C28.1515 22.457 25.8854 21.8392 23.888 22.5734C21.5771 23.424 20.4665 25.582 18.5228 26.9251C17.0628 27.9279 15.3521 27.5966 13.7219 27.8921C11.8768 28.2234 10.4616 29.2263 8.91207 30.1575C8.22239 30.5694 6.84303 31.0798 6.38623 31.8588L7.36254 33.1034C7.64917 32.8795 7.92683 32.6557 8.21345 32.4587C10.1392 31.1156 12.4411 29.3158 14.8595 29.2084C16.6956 29.1367 18.1466 28.1339 19.5976 27.0594C20.3769 26.4863 21.2278 26.0476 22.0429 25.5282C22.6072 25.1611 23.0819 24.6686 23.6462 24.2926C24.6314 23.6121 25.769 23.3882 26.9244 23.1285C28.1873 22.842 29.2263 22.9495 30.3549 22.1346C31.2864 21.4541 32.1284 20.3528 33.2928 20.8005C33.8929 21.0333 34.3497 20.9885 34.9946 20.7915C36.356 20.3796 37.6906 19.7529 39.0072 19.2156C39.3476 19.0724 42.3482 18.1501 41.9988 17.4606C41.8018 17.0845 39.6074 18.2038 39.2849 18.3113C37.9235 18.7769 36.6337 19.2872 35.3081 19.8514C34.8692 20.0304 34.0093 20.2812 34.1257 19.5738C34.2063 19.0992 34.7975 18.6784 35.2095 18.5978Z" fill="#FFB7A4"/>
<path opacity="0.5" d="M46.773 16.9504C46.6834 17.0042 46.6118 17.0489 46.5849 17.0758C45.8504 17.6936 45.322 18.4995 44.5338 19.0636C43.5664 19.762 42.617 20.353 41.4795 20.6932C39.4552 21.3021 37.834 22.8601 35.7112 23.1914C34.9678 23.3078 34.0273 23.4063 33.3645 23.7824C32.7465 24.1316 32.7196 24.5166 32.6838 25.1434C32.639 25.7613 32.0926 26.594 31.3671 26.5492C30.9014 26.5134 30.7402 26.0478 30.3998 25.8329C29.6474 25.3494 27.3813 25.5911 26.7275 26.1731C25.787 26.988 28.7607 26.4507 28.9936 26.4507C29.5758 26.4597 30.0684 26.8447 29.8803 27.4804C29.7101 28.0983 28.8234 28.4833 28.2412 28.4654C27.6411 28.4475 27.1932 27.964 26.6379 27.946C26.0736 27.9371 25.4914 28.3221 24.8734 28.3221C23.3059 28.3221 21.9445 28.5907 20.789 29.7727C20.3591 30.2114 20.2248 30.7487 19.6963 31.1337C19.132 31.5456 18.5946 31.5904 17.9766 31.7873C17.3675 31.9843 17.0361 32.4947 16.3554 32.5395C15.8717 32.5663 15.5761 32.5037 15.1731 32.8171C14.2863 33.4886 14.143 34.9571 13.1578 35.3779C12.7278 35.566 12.3248 35.6018 11.9396 35.3063C11.5634 35.0198 11.447 34.8496 10.9991 35.2436C10.6498 35.566 10.399 36.1748 10.2468 36.6225C10.2289 36.6584 10.2169 36.6972 10.2109 36.739L10.9185 37.6433C11.026 37.5627 11.1245 37.509 11.1962 37.4821C11.644 37.3657 12.1546 37.5269 12.5845 37.3031C13.2563 36.9538 13.8385 36.1122 14.3311 35.566C14.7431 35.1093 14.7969 35.0287 15.4059 35.0645C15.9344 35.0914 16.4808 35.0735 16.8928 34.6885C17.3048 34.3034 17.1705 33.9453 17.3854 33.5244C17.5466 33.1931 18.1199 32.8797 18.4513 32.7365C19.3291 32.3425 20.1621 32.8977 21.0577 32.6738C21.4071 32.5843 22.1953 32.4052 21.5862 32.0739C21.2727 31.9127 20.6726 32.1992 20.6905 31.6441C20.7174 30.9815 22.3117 30.0682 22.8402 29.7816C23.5746 29.3877 24.3449 29.1638 25.1779 29.1638C26.2438 29.1728 27.2828 29.3339 28.3307 29.1638C28.8323 29.0832 29.2891 28.8683 29.7191 28.5728C30.149 28.2684 30.6058 28.0535 30.6595 27.6237C30.7043 27.1849 30.6148 27.0148 31.179 26.9701C31.5731 26.9342 31.8956 27.1133 32.3076 27.0238C32.7286 26.9342 33.2839 26.6298 33.4183 26.209C33.5705 25.7433 33.3466 25.4479 33.7586 25.0449C34.2065 24.6062 34.8334 24.3555 35.4067 24.1137C36.2128 23.7645 37.001 23.3347 37.8161 23.0482C39.3925 22.4841 40.9331 21.9379 42.3931 21.1141C43.7097 20.3799 44.8652 19.3859 45.9221 18.3562C46.2177 18.0697 46.558 17.819 46.8805 17.5683C46.9253 17.5325 46.988 17.4877 47.0596 17.4429C46.9641 17.2817 46.8685 17.1176 46.773 16.9504Z" fill="#FFB7A4"/>
<path opacity="0.3" d="M19.4904 23.9969C18.2722 25.3848 17.0541 26.1548 15.0388 26.513C13.6236 26.7547 12.1815 26.6025 10.7932 27.086C9.51237 27.5427 5.7863 30.9363 5.77734 31.0169L11.8949 38.789C13.7132 37.1504 18.0214 36.7833 18.8455 36.6938C19.5351 36.6221 18.6126 34.0523 18.8455 33.1211C19.15 31.9033 20.5562 30.4975 20.5831 29.235C20.5921 28.3307 20.4756 26.3608 20.6727 25.8235C21.6042 23.2447 22.2043 21.2032 22.1416 21.1584C20.9772 21.821 20.3681 23.003 19.4904 23.9969Z" fill="#7C3333"/>
<path d="M25.966 0C24.0672 1.4237 21.9444 2.1848 20.5113 4.40541C19.7947 5.4978 19.7589 6.7066 19.3559 7.96017C18.7916 9.68831 17.4928 10.6195 16.0597 11.1478C13.8294 11.9716 11.85 13.073 11.4559 16.0994C11.0618 19.1617 10.1303 21.4002 7.38049 22.2509C5.81304 22.7434 3.98583 23.3164 3.3678 25.3311C3.12596 26.128 1.9526 30.2827 0 31.7601L6.47584 39.2368C6.55645 39.2368 10.596 36.2282 11.2857 35.0463C12.0291 33.7837 12.1456 32.3332 12.6561 30.999C13.3906 29.0828 14.3758 28.0263 15.9612 27.095C17.5197 26.1817 19.32 25.8325 20.0187 23.6298C20.5919 21.839 20.5203 20.1377 21.7294 18.5976C22.8401 17.1739 24.3896 17.0486 25.6973 16.0457C27.2111 14.8906 27.6231 12.7864 28.2232 10.9061C28.8143 9.02571 31.2058 6.33053 32.5404 5.12173C30.0593 3.75176 27.9366 1.3252 25.966 0Z" fill="#DB5F56"/>
<path d="M27.265 1.01172C26.4679 1.42361 25.8409 2.29215 25.0706 2.75776C24.0226 3.40246 22.8582 3.53677 22.1686 4.62021C21.5237 5.64993 21.4072 6.87664 21.1744 8.04962C20.9415 9.24947 20.3145 9.87625 19.3024 10.5209C18.7112 10.8881 17.9857 11.1925 17.4931 11.685C17.1348 12.0431 17.0363 12.5356 16.7855 12.9565C15.9256 14.4339 14.1969 14.8995 12.9967 15.9919C12.0652 16.8425 12.0741 17.5947 11.9667 18.7677C11.8771 19.7884 11.3845 20.8271 10.641 21.5255C10.0768 22.0628 8.39286 23.0029 8.46451 23.8983C8.81383 23.8536 9.2169 23.4865 9.52143 23.3432C8.6974 26.0115 4.98924 26.0384 3.44865 28.0709C2.80376 28.9216 2.61567 30.005 2.14096 30.9273C1.97078 31.2586 1.39754 32.5122 0.976562 32.9599L2.31113 34.491C2.35293 34.3776 2.39175 34.2761 2.42757 34.1866C2.81272 33.2106 3.32327 32.0376 4.29061 31.5183C5.02508 31.1243 5.85807 31.0616 6.52984 30.5064C7.08516 30.0498 7.57778 29.5036 8.13311 29.038C8.47347 28.7514 8.85863 28.4381 9.10943 28.062C9.34231 27.7128 9.50352 27.274 8.87654 27.3636C8.47348 27.4173 8.15103 27.8292 7.8465 28.053C7.55987 28.2769 6.07304 29.7991 6.06408 28.7246C6.05513 27.8919 7.55987 27.1039 8.07042 26.6293C8.53618 26.1816 8.97506 25.8324 9.53934 25.528C9.87074 25.3489 10.2469 25.1609 10.5067 24.8833C11.071 24.2834 11.3039 23.4327 11.5457 22.6806C11.8234 21.8299 12.5489 21.5166 12.9609 20.7644C13.2117 20.2988 13.0684 20.0212 13.0415 19.5467C13.0057 18.9557 13.3102 18.5348 13.6685 18.0871C14.6448 16.8694 16.0689 16.1441 17.0183 14.9622C17.6812 14.1474 18.2634 13.3325 19.177 12.7953C20.216 12.1954 20.825 11.3268 21.3624 10.2255C21.9536 9.00771 22.6791 7.79891 22.921 6.44684C23.0822 5.51562 23.8525 5.12164 24.6049 4.5844C25.4558 3.97552 26.2708 3.31292 27.0859 2.65031C27.3725 2.42646 27.8293 2.08621 28.098 1.737C27.8174 1.48628 27.5397 1.24452 27.265 1.01172Z" fill="#FFB7A4"/>
<path d="M27.5964 5.12175C26.7723 5.68585 25.8946 5.78435 25.4288 6.80511C24.9899 7.79902 25.2497 8.80187 24.4704 9.67937C23.9151 10.3151 23.0463 10.8703 22.6522 11.6403C22.4551 12.0164 22.4909 12.4283 22.3566 12.8133C22.2401 13.1625 21.9983 13.5028 21.7565 13.7893C21.5505 14.049 19.8755 15.7323 19.983 14.9712C20.0815 14.2728 21.5684 13.9415 21.5594 13.2341C21.5594 12.2223 20.0099 14.228 19.8307 14.434C19.2665 15.0787 18.6842 15.6249 18.0035 16.1353C17.6721 16.377 17.2064 16.6994 17.2064 17.156C17.2064 17.5948 17.69 17.8724 17.6811 18.3201C17.6721 18.714 17.4572 19.1886 17.2512 19.502C16.7943 20.2094 16.2659 21.0331 15.7195 21.6599C15.0746 22.4031 14.3581 21.3644 13.8207 22.1614C13.6326 22.4479 13.6326 22.8598 13.4713 23.2C13.2653 23.6388 12.9429 23.979 12.6204 24.3372C11.9845 25.0535 11.5277 25.6355 11.3486 26.5578C11.1336 27.6502 11.2769 28.6262 10.7484 29.6828C9.96023 31.2408 8.52713 32.1272 6.89697 32.5929C5.73258 32.9242 4.73836 33.5689 4.29947 34.7597C4.10242 35.288 4.11139 35.9059 4.1293 36.5058L5.03395 37.5445C5.03395 37.052 4.94439 36.5506 5.21309 36.1029C6.0013 34.7777 7.69414 33.9449 8.96602 33.157C10.0229 32.4944 10.6857 31.393 11.4202 30.417C11.8501 29.844 12.1457 29.1634 12.289 28.474C12.504 27.4801 12.7817 26.5399 13.4982 25.734C14.0356 25.1431 14.994 24.7401 15.1463 23.9522C15.2179 23.603 15.1642 23.1105 15.4419 22.8329C15.7106 22.5643 16.1942 22.5643 16.4988 22.2957C17.1078 21.7495 17.5646 21.0511 18.1021 20.4422C18.8186 19.6184 18.5857 19.117 18.4155 18.1947C18.2991 17.5411 18.5947 16.6456 19.1858 16.2875C19.8397 15.8845 20.7264 16.1174 21.4251 15.6786C22.2939 15.1235 22.4372 13.9684 22.8402 13.0909C23.0015 12.7327 23.1717 12.3298 23.4762 12.0701C23.7807 11.8194 24.1121 11.8104 24.3719 11.4971C24.9003 10.8703 25.187 9.79578 25.3482 9.01677C25.4915 8.36312 25.6706 7.37818 26.0558 6.82302C26.4409 6.24996 27.2112 5.90971 27.7934 5.56945C28.0084 5.43514 28.492 5.19338 28.3935 4.85313C28.2592 4.36065 27.8203 4.97848 27.5964 5.12175Z" fill="#FFB7A4"/>
<path opacity="0.2" d="M23.718 15.2398C22.5805 15.0876 21.4519 15.2398 20.2965 15.195C19.8666 15.1771 18.9798 15.1861 18.6126 14.9712C18.1737 14.7294 18.4335 14.5593 18.5589 14.1743C17.5467 14.1116 16.9287 14.1026 16.1315 13.4669C15.4956 12.9655 14.8059 12.8133 14.0267 12.9476L13.6505 13.1804C12.9071 13.1625 12.3517 14.4071 13.131 14.8548C13.543 15.0965 14.0715 14.9891 14.5283 15.007C15.0119 15.0339 15.4687 15.1324 15.9345 15.2309C16.866 15.4189 17.69 15.8935 18.5768 16.2158C19.3202 16.4844 20.2696 16.9769 21.0578 16.9769C21.8102 16.9769 22.8492 16.8068 23.5299 16.4755C24.2734 16.1084 24.963 15.4099 23.718 15.2398Z" fill="#FFB7A4"/>
<path opacity="0.2" d="M28.4563 6.25885C27.5517 5.24704 25.4558 5.13959 25.3572 3.54577C25.3214 3.02643 25.5543 2.48023 25.2229 2.03253C24.9004 1.60273 24.4615 1.6296 24.0406 1.8624L23.6644 2.09521C22.8851 2.33697 21.6401 4.01138 22.7687 4.57549C23.2524 4.81725 23.8973 4.76352 24.4168 4.93365C24.9094 5.10378 25.3214 5.3724 25.7245 5.68579C26.4321 6.22304 27.077 6.87668 27.8025 7.37811C28.1428 7.61987 28.4832 7.74523 28.7609 7.28857C29.0116 6.86773 28.734 6.57225 28.4563 6.25885Z" fill="#FFB7A4"/>
<path opacity="0.2" d="M12.9513 26.3876C12.2437 26.1817 11.0435 26.5936 10.6046 26.0563C10.327 25.7161 10.2284 25.5191 9.71789 25.34C9.27004 25.1788 8.8222 25.1609 8.35644 25.1162C7.4518 25.0266 6.9144 25.0893 6.24263 24.4267C5.98288 24.176 5.03343 23.7104 4.52289 24.1849C4.52289 24.1849 3.58242 25.6982 4.4781 26.1101C5.01552 26.3608 5.63355 26.1996 6.20679 26.1459C6.86064 26.0832 7.44284 26.1817 8.06983 26.3876C9.61041 26.9159 11.5809 28.4471 13.238 27.7487C14.1874 27.3457 13.8649 26.6652 12.9513 26.3876Z" fill="#FFB7A4"/>
</svg>
