<svg width="48" height="23" viewBox="0 0 48 23" fill="none" xmlns="http://www.w3.org/2000/svg">
<path d="M6.05429 15.7368C6.05429 15.7368 5.2171 14.3131 6.03505 13.6685C7.09357 12.8508 7.9885 12.4564 7.9885 12.4564L7.35338 10.4459L3.71594 9.94563C3.71594 9.94563 2.49383 8.64695 3.18668 7.04043C4.00463 5.12607 6.05429 4.01978 7.47848 3.41373C9.124 2.71148 11.2988 2.9616 12.1263 3.64461C13.6853 4.93367 13.5313 7.07891 13.5313 7.07891L15.5617 7.19434C15.5617 7.19434 16.8993 4.94329 18.1407 4.30838C19.5071 3.60613 21.2489 3.63499 22.548 4.38534C23.5584 4.97216 25.2424 6.70373 24.6939 8.56036C24.1261 10.494 21.8647 11.3501 21.8647 11.3501L17.7076 10.821C17.7076 10.821 17.1399 11.86 17.1976 12.0331C17.2553 12.2063 18.1599 12.8123 17.5152 14.5632C16.8704 16.3236 19.7573 14.2746 19.7573 14.2746L22.5672 12.1678L25.5503 9.41653L26.0796 5.55897L23.5584 2.50947L19.3435 1.4609L15.0132 3.56766L13.7238 1.86493L10.5674 0.700928L5.88109 1.86493L2.84025 4.79899L1.31982 8.36796L3.01346 9.94563L5.06315 10.7633L3.54272 13.5723L6.05429 15.7368Z" fill="#E0433B"/>
<path d="M26.8401 4.61603C25.2427 2.49966 24.7904 2.69205 24.7904 2.69205L25.6083 7.07873L23.6164 10.8208L19.8731 11.4654L18.4104 14.8612L12.5019 17.7856L8.46031 17.497L5.06345 15.7943L3.54303 13.5721L5.06345 10.7631L6.05459 9.77229L2.13807 9.35863L0.377077 7.48276C0.377077 7.66553 0.030667 9.71456 0.030667 9.71456C0.030667 9.71456 -0.315767 10.59 1.32013 11.8213C2.4845 12.6967 3.6585 12.6967 3.6585 12.6967C3.6585 12.6967 2.72507 12.5813 2.59998 14.1012C2.4845 15.6212 1.97449 17.0545 2.59998 17.9588C3.42755 19.1324 5.60231 20.9794 8.98957 21.2969C12.7329 21.6528 16.1298 21.6528 18.5836 19.6038C21.2973 17.3431 21.4512 15.2652 21.4512 15.2652C21.4512 15.2652 23.0679 15.2749 24.5017 14.6303C26.3108 13.803 27.6003 11.9945 27.9563 10.59C28.3027 9.18548 28.476 6.79974 26.8401 4.61603Z" fill="#E22727"/>
<path fill-rule="evenodd" clip-rule="evenodd" d="M25.9068 11.0132C23.9148 14.005 20.3447 13.0815 20.3447 13.0815C20.3447 13.0815 19.9117 16.1503 17.5349 17.4682C15.4178 18.6418 9.27843 19.6038 4.63056 17.1122C0.454225 14.89 4.10131 10.792 4.10131 10.792C4.10131 10.792 1.90727 10.9748 0.675543 8.86801C-0.556189 6.76125 2.39805 3.79833 4.10131 2.27839C6.46854 0.171639 9.22069 -0.242015 11.5591 0.11392C13.6472 0.421756 15.4275 2.46117 15.4275 2.46117C15.4275 2.46117 18.7666 -0.347836 23.5973 1.75892C28.1874 3.75985 27.8314 8.11765 25.9068 11.0132ZM20.8066 2.39383C17.6985 2.03789 15.6969 4.56792 15.6969 4.56792L13.8012 4.50058C13.8012 4.50058 13.8397 2.39383 11.2704 1.69158C8.44123 0.921992 5.53511 2.92292 3.94733 4.32742C2.36917 5.73192 1.92652 7.95412 2.72523 8.82953C3.5143 9.71455 6.65137 9.04116 6.65137 9.04116L7.35383 10.4457C7.35383 10.4457 4.83263 11.5616 4.83263 13.6298C4.83263 15.5634 7.98894 16.8525 11.4436 16.9102C15.0137 16.9679 17.5541 14.8516 18.1796 13.5144C18.9975 11.754 17.7081 10.8208 17.7081 10.8208L18.9975 9.5895C18.9975 9.5895 21.3263 11.0806 23.2509 10.1955C24.1843 9.77227 24.7713 8.90648 24.9253 7.30958C25.1755 4.80841 22.8563 2.6247 20.8066 2.39383Z" fill="#F46451"/>
<path d="M7.98868 12.4563C7.98868 12.4563 9.50909 11.8406 9.78816 11.4077C10.0576 10.9748 9.23966 9.07007 9.23966 9.07007L7.71923 9.3779L7.35356 10.4457L6.69922 11.2153L7.13225 11.4847L6.69922 12.2639L7.44018 11.9175L7.05526 12.6198L7.98868 12.4563Z" fill="#D6A374"/>
<path d="M9.23966 9.07003C9.0472 8.56017 6.65111 9.04116 6.65111 9.04116L5.84277 9.57026L6.46826 9.69532L5.99675 10.1186C5.99675 10.1186 6.54525 10.234 6.66072 10.234C6.77619 10.234 6.23732 10.6669 6.23732 10.6669L7.35356 10.4457C7.35356 10.4457 9.43212 9.57026 9.23966 9.07003Z" fill="#F2B981"/>
<path d="M16.6112 9.22388C16.6112 9.22388 15.8317 10.2724 15.9472 10.7438C16.0723 11.2152 17.0057 11.802 17.1982 12.0329C17.4003 12.2638 17.9777 12.5812 17.9777 12.5812L17.7082 11.7539L18.0161 12.0329L17.6697 11.1767L18.0161 11.4845V10.7823L16.6112 9.22388Z" fill="#D6A374"/>
<path d="M19.3436 10.7823L19.0742 10.234L19.6996 10.4745L18.9972 9.58944C18.9972 9.58944 17.6692 8.63706 16.8128 9.03148C15.9467 9.41627 17.7077 10.8208 17.7077 10.8208L18.5257 11.6385L18.1792 10.8977L19.0357 11.2152C19.0357 11.2152 18.6796 10.6669 18.5641 10.6284C18.4487 10.5899 19.3436 10.7823 19.3436 10.7823Z" fill="#F2B981"/>
<path d="M13.6375 5.02976C13.6375 5.02976 13.4354 7.10766 13.4642 7.36739C13.4931 7.63675 13.7818 8.33899 14.3399 8.27165C14.8981 8.21393 15.3792 7.63675 15.562 7.19423C15.7449 6.75172 15.6871 4.67383 15.6871 4.67383L13.6375 5.02976Z" fill="#D6A374"/>
<path d="M15.2927 4.2313L15.1676 3.68297L14.8596 4.26978L14.7057 3.56753L14.4651 4.15434L14.1572 3.52905L13.8011 4.50066C13.8011 4.50066 13.2237 5.90516 14.4266 5.98212C15.6391 6.05908 15.6968 4.56799 15.6968 4.56799L15.7546 3.64449L15.2927 4.2313Z" fill="#F2B981"/>
<path d="M24.3379 13.1777C24.3379 13.1777 24.2417 11.5231 25.2617 11.3307C26.58 11.0902 27.552 11.1479 27.552 11.1479L27.908 9.07002L24.9057 6.95365C24.9057 6.95365 24.4149 5.25093 25.7717 4.13502C27.3787 2.80748 29.7075 2.75938 31.2471 2.87482C33.0274 2.99988 34.8461 4.22161 35.2695 5.21246C36.0682 7.06909 34.9423 8.90649 34.9423 8.90649L36.6937 9.93581C36.6937 9.93581 38.9166 8.55055 40.3119 8.55055C41.842 8.55055 43.3816 9.37786 44.1899 10.6381C44.8251 11.6289 45.5275 13.9281 44.1899 15.3326C42.7946 16.7948 40.3889 16.5158 40.3889 16.5158L36.9439 14.1493C36.9439 14.1493 35.9624 14.8035 35.9335 14.9862C35.9046 15.169 36.4243 16.1214 35.0482 17.3816C33.6721 18.6514 37.1749 18.1512 37.1749 18.1512L40.6391 17.5644L44.5556 16.4966L46.7978 13.3028L45.9509 9.4452L42.6888 6.57847L37.8773 6.46304L37.5117 4.3659L35.231 1.87435L30.5351 0.768066L26.4838 1.98018L23.5007 4.45248L24.2802 6.63619L25.7332 8.30043L23.0869 10.0993L24.3379 13.1777Z" fill="#E86C10"/>
<path d="M47.9045 12.8216C47.4618 10.205 46.9614 10.1569 46.9614 10.1569L45.6816 14.4378L42.1981 16.8524L38.5703 15.7076L35.7123 18.0548L29.1206 17.949L25.666 15.8423L23.4238 12.7735L23.087 10.0992L25.7333 8.30029L27.0709 7.87701L23.7702 5.71254L23.0678 3.24023C22.9908 3.40377 21.7398 5.05839 21.7398 5.05839C21.7398 5.05839 21.0277 5.68368 21.913 7.52108C22.5578 8.839 23.597 9.37771 23.597 9.37771C23.597 9.37771 22.8176 8.839 22.0189 10.1377C21.2106 11.4364 20.0943 12.4753 20.2483 13.572C20.4311 14.9861 21.5281 17.6316 24.3861 19.4593C27.552 21.4891 30.5736 23.0476 33.7011 22.3549C37.1365 21.5853 38.2335 19.8153 38.2335 19.8153C38.2335 19.8153 39.6673 20.556 41.2358 20.6426C43.2181 20.7388 45.2005 19.7191 46.1531 18.632C47.1058 17.545 48.3568 15.5056 47.9045 12.8216Z" fill="#DD4D05"/>
<path fill-rule="evenodd" clip-rule="evenodd" d="M44.1322 18.0743C40.9952 19.8155 38.2526 17.3624 38.2526 17.3624C38.2526 17.3624 36.4532 19.8925 33.7395 19.979C31.3242 20.0464 25.4253 18.0839 22.4326 13.7454C19.7478 9.85892 24.8576 7.88684 24.8576 7.88684C24.8576 7.88684 22.8271 7.0403 22.702 4.60647C22.5769 2.17264 26.5512 0.893197 28.7644 0.325625C31.8342 -0.463205 34.4708 0.431443 36.3858 1.81671C38.0987 3.04805 38.753 5.66466 38.753 5.66466C38.753 5.66466 43.0063 4.70267 46.3262 8.7815C49.4922 12.6679 47.1827 16.3812 44.1322 18.0743ZM43.5645 8.07924C40.9567 6.33804 38.0217 7.66559 38.0217 7.66559L36.3665 6.74209C36.3665 6.74209 37.3673 4.88545 35.4042 3.08654C33.2487 1.10484 29.7364 1.54735 27.6963 2.06682C25.6466 2.59591 24.2321 4.36597 24.5304 5.51074C24.8287 6.6555 27.9273 7.49243 27.9273 7.49243L27.908 9.07009C27.908 9.07009 25.1559 8.90656 24.2032 10.744C23.3179 12.4563 25.5408 15.0537 28.5816 16.689C31.7283 18.3725 34.9616 17.651 36.126 16.7564C37.656 15.5731 36.9439 14.1494 36.9439 14.1494L38.6472 13.6492C38.6472 13.6492 40.0329 16.0349 42.1499 16.1311C43.1796 16.1792 44.0937 15.6886 44.9694 14.3322C46.3359 12.2254 45.2774 9.22401 43.5645 8.07924Z" fill="#F29D36"/>
<path d="M27.5522 11.1479C27.5522 11.1479 29.1881 11.2922 29.6307 11.0421C30.0734 10.7823 30.2177 8.70442 30.2177 8.70442L28.7262 8.29077L27.9082 9.06998L26.9844 9.45477L27.2346 9.88767L26.4937 10.3879L27.3212 10.4168L26.6476 10.8593L27.5522 11.1479Z" fill="#D6A374"/>
<path d="M30.2175 8.70453C30.2753 8.16582 27.9273 7.49243 27.9273 7.49243L26.965 7.59825L27.4654 7.99267L26.8591 8.15621C26.8591 8.15621 27.2922 8.51215 27.3884 8.56986C27.4943 8.61796 26.811 8.75263 26.811 8.75263L27.908 9.07009C27.908 9.07009 30.1598 9.24325 30.2175 8.70453Z" fill="#F2B981"/>
<path d="M36.7032 12.2253C36.7032 12.2253 35.5292 12.8025 35.4137 13.2739C35.3079 13.7453 35.866 14.688 35.9333 14.9862C36.0007 15.2845 36.376 15.8328 36.376 15.8328L36.5107 14.9766L36.6647 15.3614L36.7417 14.4379L36.9149 14.8804L37.2324 14.2551L36.7032 12.2253Z" fill="#D6A374"/>
<path d="M38.4163 14.8612L38.4259 14.2551L38.8686 14.7458L38.6473 13.6491C38.6473 13.6491 37.9063 12.1869 36.9632 12.1388C36.0202 12.0907 36.944 14.1493 36.944 14.1493L37.2904 15.246L37.3193 14.4283L37.9448 15.1017C37.9448 15.1017 37.8774 14.4572 37.7908 14.3706C37.7042 14.2744 38.4163 14.8612 38.4163 14.8612Z" fill="#F2B981"/>
<path d="M35.9816 7.13647C35.9816 7.13647 34.8461 8.88729 34.7499 9.1374C34.6536 9.3779 34.5959 10.1379 35.1155 10.3399C35.6352 10.5419 36.328 10.2437 36.6937 9.93586C37.0594 9.63764 37.9639 7.76177 37.9639 7.76177L35.9816 7.13647Z" fill="#D6A374"/>
<path d="M37.8101 7.17494L37.9641 6.63622L37.4156 7.0114L37.5984 6.31877L37.1173 6.73242L37.1269 6.03979L36.3667 6.74205C36.3667 6.74205 35.2023 7.72327 36.2416 8.34857C37.2809 8.96424 38.0219 7.66556 38.0219 7.66556L38.4934 6.87672L37.8101 7.17494Z" fill="#F2B981"/>
</svg>
