<svg width="48" height="27" viewBox="0 0 48 27" fill="none" xmlns="http://www.w3.org/2000/svg">
<path d="M0.222046 18.3944C0.222046 18.3944 2.42293 26.7901 24.1832 26.9282C45.8146 27.0571 47.8866 18.1274 47.8866 18.1274C47.8866 18.1274 48.1076 14.6292 47.9326 13.1746C47.4077 8.82027 43.8623 0.10232 23.8517 0.00105577C5.39737 -0.0910028 1.07846 7.66954 0.166796 12.4106C-0.23839 14.4911 0.222046 18.3944 0.222046 18.3944Z" fill="#FFA944"/>
<path d="M38.899 5.58882C38.8714 5.69929 39.3779 6.11355 39.5805 6.15958C39.866 6.23323 40.5934 6.08594 40.5658 5.90182C40.5382 5.7177 40.1514 5.35867 39.866 5.28503C39.6081 5.22059 38.9635 5.29423 38.899 5.58882Z" fill="#EAE8A9"/>
<path opacity="0.7" d="M2.78226 19.8673C2.97565 20.7971 5.54489 22.1779 7.4511 23.1814C9.34811 24.194 16.3283 25.9892 17.2308 25.7866C18.8423 25.4368 18.5016 21.644 17.6912 20.1066C17.0098 18.7994 13.7223 15.0066 11.0149 14.5371C8.30752 14.0584 3.41767 13.3495 2.90198 14.5923C2.38629 15.8351 2.44154 18.1458 2.78226 19.8673Z" fill="#FFC050"/>
<path d="M47.7943 12.9443C47.1681 8.52549 43.4017 0.102126 23.7411 0.000861162C5.89448 -0.0911974 1.36377 7.21826 0.249512 11.9869C0.378434 12.2815 0.415269 12.4932 0.525774 12.6589C1.15197 13.5887 1.85183 14.362 2.85559 14.8315C4.8631 15.7613 7.22054 14.8867 9.23726 15.8902C11.3 16.9304 12.6905 18.9373 14.8086 20.0236C17.6264 21.4873 20.5824 21.4229 23.4832 20.1617C26.1998 18.9833 28.6309 18.9189 31.5132 19.4897C33.972 19.9776 37.3884 20.1893 39.5525 18.4218C40.326 17.7866 40.4273 16.7187 41.0996 15.9914C41.8178 15.2089 42.9321 14.8315 43.9451 14.5553C45.575 14.1134 46.9195 13.9017 47.7943 12.9443Z" fill="#F68D32"/>
<path d="M10.9502 11.1123C11.0423 11.186 11.6225 10.919 11.7606 10.7533C11.9632 10.5324 12.1658 9.7959 11.9908 9.73146C11.8251 9.67622 11.337 9.86955 11.1436 10.0905C10.9687 10.293 10.7292 10.919 10.9502 11.1123Z" fill="#EAE8A9"/>
<path d="M7.95757 7.49433C8.04045 7.57719 8.62981 7.30101 8.76794 7.14451C8.97054 6.91437 9.17313 6.1779 8.99816 6.12266C8.8324 6.05822 8.34434 6.25154 8.15096 6.48169C7.97599 6.68422 7.73656 7.31022 7.95757 7.49433Z" fill="#EAE8A9"/>
<path d="M19.5421 4.162C19.5329 4.28168 20.0854 4.6223 20.2972 4.64992C20.5827 4.68674 21.2918 4.43818 21.2365 4.26327C21.1905 4.07915 20.7577 3.78456 20.463 3.74774C20.2051 3.71092 19.5697 3.86742 19.5421 4.162Z" fill="#EAE8A9"/>
<path d="M14.5598 2.99291C14.4678 3.06656 14.6427 3.70176 14.7809 3.87668C14.965 4.10682 15.6465 4.41982 15.7294 4.25412C15.8122 4.08841 15.7017 3.57288 15.5083 3.34274C15.3426 3.131 14.7716 2.79959 14.5598 2.99291Z" fill="#EAE8A9"/>
<path d="M19.7724 0.949079C19.7264 0.838608 19.091 0.783373 18.8884 0.85702C18.6121 0.958284 18.0872 1.50143 18.2069 1.63952C18.3358 1.77761 18.8515 1.85125 19.1278 1.74999C19.3764 1.65793 19.8737 1.22525 19.7724 0.949079Z" fill="#EAE8A9"/>
<path d="M17.369 7.81647C17.3138 7.92694 17.7097 8.45168 17.8939 8.55294C18.1518 8.70024 18.8977 8.73706 18.9161 8.55294C18.9253 8.35962 18.6398 7.92694 18.382 7.77965C18.1425 7.65077 17.4979 7.55871 17.369 7.81647Z" fill="#EAE8A9"/>
<path d="M10.8122 2.65216C10.8306 2.78105 11.4384 2.96516 11.6502 2.93754C11.9448 2.90072 12.571 2.48646 12.4789 2.32996C12.3869 2.16425 11.8988 1.98014 11.6041 2.01696C11.3463 2.05378 10.7661 2.36678 10.8122 2.65216Z" fill="#EAE8A9"/>
<path d="M29.3956 1.91566C29.4601 1.8144 29.1286 1.25284 28.9536 1.12396C28.7142 0.958253 27.9775 0.838578 27.9407 1.0227C27.9038 1.20681 28.1525 1.67631 28.3919 1.84202C28.6129 1.99852 29.2391 2.16422 29.3956 1.91566Z" fill="#EAE8A9"/>
<path d="M23.0045 1.74068C22.94 1.84195 23.2623 2.41271 23.4373 2.5416C23.6767 2.71651 24.4042 2.84539 24.4411 2.66127C24.4871 2.47715 24.2477 2.00765 24.0082 1.83274C23.7964 1.66704 23.161 1.49213 23.0045 1.74068Z" fill="#EAE8A9"/>
<path d="M36.6335 11.7109C36.7348 11.6464 36.7163 10.9928 36.6243 10.7903C36.4953 10.5233 35.9152 10.0446 35.8047 10.1827C35.685 10.33 35.6665 10.8547 35.7955 11.1309C35.906 11.3795 36.3756 11.8398 36.6335 11.7109Z" fill="#EAE8A9"/>
<path d="M24.1924 6.66574C24.2753 6.74859 24.8647 6.47242 25.0028 6.30671C25.2054 6.08577 25.408 5.3493 25.233 5.29407C25.0673 5.22963 24.5792 5.42295 24.3858 5.64389C24.2109 5.84642 23.9714 6.47242 24.1924 6.66574Z" fill="#EAE8A9"/>
<path d="M22.0005 12.4011C22.0926 12.4747 22.6728 12.2078 22.8201 12.0421C23.0135 11.8211 23.2253 11.0847 23.0503 11.0294C22.8754 10.965 22.3965 11.1583 22.1939 11.3792C22.019 11.5818 21.7795 12.2078 22.0005 12.4011Z" fill="#EAE8A9"/>
<path d="M31.1267 5.92933C31.1912 5.82807 30.8597 5.26651 30.6755 5.13763C30.4361 4.97193 29.6994 4.85225 29.6717 5.03637C29.6349 5.22048 29.8743 5.68998 30.123 5.86489C30.3348 6.01219 30.9702 6.17789 31.1267 5.92933Z" fill="#EAE8A9"/>
<path d="M30.9054 9.76835C30.8686 9.64867 30.2332 9.5474 30.0306 9.61185C29.7451 9.68549 29.1834 10.1918 29.3031 10.3391C29.4136 10.4864 29.9201 10.5969 30.2056 10.514C30.4542 10.4404 30.9883 10.0445 30.9054 9.76835Z" fill="#EAE8A9"/>
<path d="M36.1364 3.13998C36.1825 3.02951 35.7681 2.5324 35.5747 2.43113C35.3076 2.30225 34.5709 2.30225 34.5617 2.49557C34.5525 2.67969 34.8656 3.10316 35.1327 3.23204C35.3721 3.35172 36.0167 3.41616 36.1364 3.13998Z" fill="#EAE8A9"/>
<path opacity="0.2" d="M22.7008 3.35176C21.7247 3.00193 20.7025 2.74417 19.6619 2.68894C18.5292 2.62449 17.3873 3.00194 16.3283 3.23208C14.1735 3.70158 11.9726 4.71422 9.86377 5.51513C8.18778 6.15034 6.41049 6.84078 5.18573 8.29531C4.91867 8.61751 4.70687 8.97654 4.51348 9.31716V9.79586C4.09909 11.0479 4.99234 11.3885 6.0053 11.8488C6.64071 12.1434 7.2669 12.1802 7.92072 12.3459C8.69426 12.53 9.43096 12.8706 10.1677 13.1744C11.5121 13.7084 12.5343 14.5737 13.7775 15.2641C14.6155 15.7244 15.6008 16.3504 16.5401 16.3688C19.2751 16.4333 19.2107 12.8706 20.3986 11.1583C20.9972 10.3022 21.8352 9.48286 22.7008 8.89369C23.6493 8.24007 24.9477 7.76136 25.6844 6.8776C27.1026 5.17452 23.8519 3.76602 22.7008 3.35176Z" fill="#FFC050"/>
</svg>
