<svg width="47" height="26" viewBox="0 0 47 26" fill="none" xmlns="http://www.w3.org/2000/svg">
<path d="M2.37752 6.70462C0.904118 7.73568 -0.504824 15.1648 0.176624 17.2822C0.701523 18.9208 2.27622 25.3741 23.2077 25.5398C47.1689 25.7331 46.8742 16.5273 46.8742 15.2477C46.8742 13.968 46.7085 8.2328 43.6604 6.28116C41.9752 5.21328 10.7207 0.904932 2.37752 6.70462Z" fill="#FFA944"/>
<path d="M22.0289 0.0213367C6.66867 0.426395 1.09737 5.45279 0.784276 11.6483C0.480387 17.8531 6.83442 22.189 24.3587 22.0325C41.5699 21.8853 45.2073 16.5274 45.7506 13.1949C46.8188 6.63114 39.857 -0.438956 22.0289 0.0213367Z" fill="#FFEAB7"/>
<path d="M3.13299 12.937C3.85127 12.937 4.60639 12.9554 5.29705 12.6884C5.68382 12.5411 5.51806 11.7954 5.13129 11.9427C4.48668 12.1821 3.79602 12.1637 3.13299 12.1637C2.72781 12.1637 2.72781 12.937 3.13299 12.937Z" fill="#FFD38D"/>
<path d="M8.18854 11.1789C8.69502 11.0592 9.19229 10.9672 9.71719 10.9579C10.2145 10.9487 10.2145 10.1754 9.71719 10.1847C9.12783 10.1939 8.55689 10.2951 7.98595 10.4332C7.49788 10.5529 7.70968 11.2986 8.18854 11.1789Z" fill="#FFD38D"/>
<path d="M4.85471 9.71519C5.1985 9.71519 5.53922 9.71519 5.87688 9.71519C6.18997 9.71519 6.44782 9.54028 6.44782 9.32854C6.44782 9.11681 6.18997 8.94189 5.87688 8.94189C5.53922 8.94189 5.1985 8.94189 4.85471 8.94189C4.55082 8.94189 4.29297 9.11681 4.29297 9.32854C4.29297 9.54028 4.55082 9.71519 4.85471 9.71519Z" fill="#FFD38D"/>
<path d="M12.1571 7.58866C12.8938 7.58866 13.6213 7.57025 14.358 7.45978C14.8461 7.38613 14.6343 6.63125 14.1462 6.71411C13.4924 6.81537 12.8202 6.81537 12.1571 6.81537C11.6599 6.81537 11.6599 7.58866 12.1571 7.58866Z" fill="#FFD38D"/>
<path d="M7.85698 6.42883C8.17008 6.42883 8.45555 6.39201 8.75023 6.25392C8.94362 6.17107 8.98966 5.89489 8.88837 5.72918C8.77786 5.53586 8.54764 5.49904 8.35426 5.59109C8.19771 5.66474 8.03195 5.65554 7.85698 5.65554C7.64518 5.65554 7.47021 5.83044 7.47021 6.04218C7.47021 6.25391 7.64518 6.42883 7.85698 6.42883Z" fill="#FFD38D"/>
<path d="M13.1703 3.93368C13.3269 3.86004 13.5847 3.86924 13.7873 3.86924C14.2846 3.86924 14.2846 3.09595 13.7873 3.09595C13.4374 3.09595 13.0967 3.11436 12.7743 3.26166C12.581 3.35372 12.5349 3.62068 12.6362 3.7956C12.7559 3.98892 12.9769 4.01654 13.1703 3.93368Z" fill="#FFD38D"/>
<path d="M22.038 6.07896C22.658 6.07896 23.2781 6.07896 23.8982 6.07896C24.4046 6.07896 24.4046 5.30566 23.8982 5.30566C23.2781 5.30566 22.658 5.30566 22.038 5.30566C21.5407 5.30566 21.5407 6.07896 22.038 6.07896Z" fill="#FFD38D"/>
<path d="M17.2773 10.0279C17.8206 10.0279 18.3547 10.0003 18.8889 9.89904C19.3769 9.80698 19.1743 9.0613 18.6863 9.15336C18.2166 9.23622 17.747 9.25462 17.2773 9.25462C16.7708 9.25462 16.7708 10.0279 17.2773 10.0279Z" fill="#FFD38D"/>
<path d="M17.9312 4.97426C18.143 4.8822 18.5297 4.82696 18.7968 4.90061C19.2757 5.0387 19.4874 4.29302 19.0086 4.15493C18.5389 4.01684 17.9772 4.1089 17.5444 4.31143C17.0932 4.52317 17.4799 5.18599 17.9312 4.97426Z" fill="#FFD38D"/>
<path d="M20.2978 2.47007C20.6477 2.47007 20.9976 2.47007 21.3476 2.47007C21.8448 2.47007 21.8448 1.69678 21.3476 1.69678C20.9976 1.69678 20.6477 1.69678 20.2978 1.69678C19.8005 1.69678 19.8005 2.47007 20.2978 2.47007Z" fill="#FFD38D"/>
<path d="M28.9175 4.90058C29.7003 5.13993 30.5383 5.04787 31.3486 5.14914C31.8367 5.21358 31.8367 4.43108 31.3486 4.37584C30.6027 4.27458 29.8384 4.36664 29.1201 4.1549C28.6413 4.00761 28.4387 4.75329 28.9175 4.90058Z" fill="#FFD38D"/>
<path d="M27.2783 9.67832C27.6221 9.67832 27.9689 9.67832 28.3189 9.67832C28.8162 9.67832 28.8162 8.90503 28.3189 8.90503C27.9689 8.90503 27.6221 8.90503 27.2783 8.90503C26.7718 8.90503 26.7718 9.67832 27.2783 9.67832Z" fill="#FFD38D"/>
<path d="M20.998 14.9073C21.4216 14.9073 21.8483 14.9073 22.278 14.9073C22.7753 14.9073 22.7753 14.134 22.278 14.134C21.8483 14.134 21.4216 14.134 20.998 14.134C20.4915 14.134 20.4915 14.9073 20.998 14.9073Z" fill="#FFD38D"/>
<path d="M9.48687 15.4964C9.64035 15.4964 9.79383 15.4964 9.9473 15.4964C10.1591 15.4964 10.3341 15.3122 10.3341 15.1097C10.3341 14.898 10.1591 14.7139 9.9473 14.7139C9.79383 14.7139 9.64035 14.7139 9.48687 14.7139C9.27507 14.7139 9.1001 14.898 9.1001 15.1097C9.1001 15.3122 9.27507 15.4964 9.48687 15.4964Z" fill="#FFD38D"/>
<path d="M13.7875 13.9774C14.2848 13.9774 14.2848 13.2041 13.7875 13.2041C13.2902 13.2041 13.2902 13.9774 13.7875 13.9774Z" fill="#FFD38D"/>
<path d="M17.038 19.7955C17.3879 19.7955 17.7379 19.7955 18.0878 19.7955C18.5851 19.7955 18.5851 19.0222 18.0878 19.0222C17.7379 19.0222 17.3879 19.0222 17.038 19.0222C16.5407 19.0222 16.5407 19.7955 17.038 19.7955Z" fill="#FFD38D"/>
<path d="M30.5287 19.0959C31.072 19.0867 31.6154 18.9855 32.1587 18.9763C32.6559 18.9763 32.6559 18.1938 32.1587 18.203C31.6154 18.2122 31.072 18.3134 30.5287 18.3226C30.0314 18.3318 30.0314 19.1051 30.5287 19.0959Z" fill="#FFD38D"/>
<path d="M27.9687 14.097C28.3186 14.097 28.6685 14.097 29.0185 14.097C29.5157 14.097 29.5157 13.3237 29.0185 13.3237C28.6685 13.3237 28.3186 13.3237 27.9687 13.3237C27.4714 13.3237 27.4714 14.097 27.9687 14.097Z" fill="#FFD38D"/>
<path d="M38.1903 15.5976C39.0375 15.4779 39.9031 15.4779 40.7503 15.3583C41.2384 15.2938 41.0358 14.5481 40.5385 14.6126C39.6913 14.7323 38.8349 14.7323 37.9877 14.8519C37.4904 14.9164 37.7022 15.6621 38.1903 15.5976Z" fill="#FFD38D"/>
<path d="M33.1902 11.759C33.6138 11.6485 34.0374 11.5472 34.4794 11.538C34.9859 11.5288 34.9859 10.7555 34.4794 10.7647C33.9729 10.7739 33.4757 10.8936 32.9876 11.0133C32.4996 11.133 32.7021 11.8786 33.1902 11.759Z" fill="#FFD38D"/>
<path d="M40.1796 10.4976C40.4927 10.4976 40.8027 10.4976 41.1097 10.4976C41.607 10.4976 41.607 9.71509 41.1097 9.71509C40.8027 9.71509 40.4927 9.71509 40.1796 9.71509C39.6823 9.71509 39.6823 10.4976 40.1796 10.4976Z" fill="#FFD38D"/>
<path d="M35.1515 7.03627C35.7224 6.89818 36.2842 6.87057 36.8459 6.94421C37.2327 6.99024 37.3432 6.22615 36.9564 6.17092C36.3394 6.09727 35.7132 6.12489 35.0962 6.27218C34.7095 6.37345 34.7555 7.13754 35.1515 7.03627Z" fill="#FFD38D"/>
<path d="M27.619 2.23992C27.969 2.23992 28.3097 2.22151 28.632 2.07422C28.8254 1.98216 28.8714 1.70599 28.7701 1.54028C28.6596 1.34696 28.4294 1.31934 28.2452 1.40219C28.0795 1.47584 27.8216 1.46663 27.619 1.46663C27.1218 1.46663 27.1218 2.23992 27.619 2.23992Z" fill="#FFD38D"/>
<path d="M36.2289 4.21909C36.499 4.21909 36.7692 4.21909 37.0393 4.21909C37.5458 4.21909 37.5458 3.4458 37.0393 3.4458C36.7692 3.4458 36.499 3.4458 36.2289 3.4458C35.7316 3.4458 35.7316 4.21909 36.2289 4.21909Z" fill="#FFD38D"/>
<path d="M18.6588 11.7308C18.6588 11.7676 18.6343 11.8013 18.5852 11.832C18.6128 11.8228 18.5391 11.8504 18.576 11.8412C18.5575 11.8412 18.5207 11.8596 18.576 11.8412C18.5882 11.8412 18.6036 11.8412 18.622 11.8412C18.7233 11.8412 18.8154 11.7584 18.8154 11.6479C18.8154 11.5466 18.7233 11.4546 18.622 11.4546C18.5483 11.4546 18.4747 11.4638 18.4102 11.4914C18.3181 11.5374 18.2721 11.6295 18.2721 11.7308C18.2629 11.832 18.3642 11.9241 18.4654 11.9241C18.576 11.9241 18.6496 11.832 18.6588 11.7308Z" fill="#EAC083"/>
<path d="M23.5029 10.5251C23.6318 10.5251 23.7607 10.5251 23.8896 10.5251C24.1383 10.5251 24.1383 10.1384 23.8896 10.1384C23.7607 10.1384 23.6318 10.1384 23.5029 10.1384C23.2542 10.1384 23.2542 10.5251 23.5029 10.5251Z" fill="#EAC083"/>
<path d="M20.8502 7.83687C20.8778 7.82767 20.8225 7.85528 20.8502 7.83687C20.8686 7.82767 20.9054 7.81846 20.9146 7.81846C20.9791 7.80926 21.0343 7.80925 21.0988 7.80925C21.3474 7.80925 21.3474 7.42261 21.0988 7.42261C20.9146 7.42261 20.7212 7.43181 20.5739 7.5607C20.491 7.62514 20.5002 7.76322 20.5739 7.83687C20.6568 7.91052 20.7673 7.90131 20.8502 7.83687Z" fill="#EAC083"/>
<path d="M30.0132 7.03606C30.1176 7.03606 30.2219 7.03606 30.3263 7.03606C30.4276 7.03606 30.5197 6.95321 30.5197 6.84273C30.5197 6.74147 30.4276 6.64941 30.3263 6.64941C30.2219 6.64941 30.1176 6.64941 30.0132 6.64941C29.9119 6.64941 29.8198 6.74147 29.8198 6.84273C29.8198 6.95321 29.9119 7.03606 30.0132 7.03606Z" fill="#EAC083"/>
<path d="M26.7622 3.5468C26.8912 3.5468 27.0201 3.5468 27.149 3.5468C27.3976 3.5468 27.3976 3.16016 27.149 3.16016C27.0201 3.16016 26.8912 3.16016 26.7622 3.16016C26.5044 3.16016 26.5044 3.5468 26.7622 3.5468Z" fill="#EAC083"/>
<path d="M32.1035 3.62981C32.1342 3.62981 32.1619 3.62981 32.1864 3.62981C32.2877 3.62981 32.3798 3.53775 32.3798 3.43648C32.3798 3.32601 32.2877 3.24316 32.1864 3.24316C32.1619 3.24316 32.1342 3.24316 32.1035 3.24316C32.0023 3.24316 31.9102 3.32601 31.9102 3.43648C31.9102 3.53775 32.0023 3.62981 32.1035 3.62981Z" fill="#EAC083"/>
<path d="M12.0283 5.10271C12.1327 5.10271 12.2371 5.10271 12.3414 5.10271C12.4427 5.10271 12.5348 5.01065 12.5348 4.90939C12.5348 4.79891 12.4427 4.71606 12.3414 4.71606C12.2371 4.71606 12.1327 4.71606 12.0283 4.71606C11.927 4.71606 11.835 4.79891 11.835 4.90939C11.835 5.01065 11.927 5.10271 12.0283 5.10271Z" fill="#EAC083"/>
<path d="M16.1539 2.98534C16.2736 2.93011 16.4025 2.9301 16.5222 2.9301C16.7709 2.9301 16.7709 2.54346 16.5222 2.54346C16.3288 2.54346 16.1447 2.56187 15.9605 2.64472C15.8684 2.69075 15.8408 2.82884 15.896 2.91169C15.9513 3.01296 16.0618 3.02217 16.1539 2.98534Z" fill="#EAC083"/>
<path d="M9.31197 3.2431C9.53298 3.2431 9.75399 3.22469 9.95658 3.13263C10.0487 3.09581 10.0763 2.95772 10.0302 2.87487C9.96579 2.7736 9.85528 2.75519 9.7632 2.80122C9.62507 2.86566 9.45931 2.85646 9.31197 2.85646C9.06333 2.85646 9.06333 3.2431 9.31197 3.2431Z" fill="#EAC083"/>
<path d="M4.21965 6.9348C4.33937 6.87956 4.45908 6.87957 4.588 6.87957C4.83664 6.87957 4.83664 6.49292 4.588 6.49292C4.38541 6.49292 4.21045 6.51133 4.02627 6.60339C3.92497 6.64021 3.90655 6.7783 3.9526 6.86115C4.00785 6.96242 4.12756 6.98083 4.21965 6.9348Z" fill="#EAC083"/>
<path d="M7.76467 7.42255C7.82913 7.42255 7.88438 7.40414 7.94885 7.38573C7.9734 7.37959 8.00103 7.37038 8.03173 7.35811C8.04401 7.35811 8.05935 7.35504 8.07777 7.3489C8.12381 7.33969 8.03173 7.3489 8.07777 7.3489C8.17907 7.33969 8.27115 7.26605 8.27115 7.15558C8.27115 7.05432 8.17907 6.95305 8.07777 6.96225C8.01331 6.96225 7.94885 6.98067 7.8936 6.99908C7.86904 7.00522 7.84141 7.01442 7.81071 7.0267C7.79844 7.03283 7.78309 7.0359 7.76467 7.0359C7.81071 7.0359 7.71863 7.04511 7.76467 7.0359C7.66337 7.04511 7.57129 7.11876 7.57129 7.22923C7.57129 7.33049 7.66337 7.43175 7.76467 7.42255Z" fill="#EAC083"/>
<path d="M2.88423 10.1384C3.0592 10.1384 3.20654 10.1108 3.36309 10.0371C3.46438 9.99107 3.4828 9.85298 3.43676 9.77013C3.3815 9.66887 3.26179 9.65046 3.1697 9.69649C3.0592 9.75172 3.00395 9.75172 2.88423 9.75172C2.63559 9.75172 2.63559 10.1384 2.88423 10.1384Z" fill="#EAC083"/>
<path d="M26.5229 12.9277C26.6518 12.9277 26.7808 12.9277 26.9097 12.9277C27.1675 12.9277 27.1675 12.541 26.9097 12.541C26.7808 12.541 26.6518 12.541 26.5229 12.541C26.2743 12.541 26.2743 12.9277 26.5229 12.9277Z" fill="#EAC083"/>
<path d="M33.3008 13.0749C33.5218 13.1486 33.7428 13.1578 33.973 13.1578C34.2217 13.1578 34.2217 12.7711 33.973 12.7711C33.7704 12.7711 33.5863 12.7619 33.4021 12.6975C33.1627 12.6238 33.0614 13.0013 33.3008 13.0749Z" fill="#EAC083"/>
<path d="M34.5898 9.05193C34.774 9.05193 34.9674 9.05193 35.1147 8.91384C35.1884 8.8494 35.1884 8.71131 35.1147 8.64687C35.0318 8.56402 34.9213 8.57323 34.8384 8.64687C34.8661 8.61926 34.8108 8.65608 34.8384 8.64687C34.82 8.64687 34.7832 8.65608 34.774 8.65608C34.7095 8.66528 34.6543 8.66528 34.5898 8.66528C34.3412 8.66528 34.3412 9.05193 34.5898 9.05193Z" fill="#EAC083"/>
<path d="M40.3728 9.35556C40.5846 9.29112 40.8056 9.28191 41.0266 9.28191C41.2752 9.28191 41.2752 8.89526 41.0266 8.89526C40.7688 8.89526 40.5201 8.90447 40.2715 8.97812C40.0321 9.05177 40.1334 9.4292 40.3728 9.35556Z" fill="#EAC083"/>
<path d="M38.1538 6.57561C38.2827 6.57561 38.4116 6.57561 38.5405 6.57561C38.7892 6.57561 38.7892 6.18896 38.5405 6.18896C38.4116 6.18896 38.2827 6.18896 38.1538 6.18896C37.9051 6.18896 37.9051 6.57561 38.1538 6.57561Z" fill="#EAC083"/>
<path d="M38.5405 4.63323C38.5712 4.63323 38.5989 4.63323 38.6234 4.63323C38.6326 4.63323 38.7247 4.64244 38.6695 4.63323C38.6787 4.64244 38.7339 4.66085 38.6879 4.63323C38.694 4.63937 38.7002 4.6455 38.7063 4.65164C38.7524 4.67005 38.6787 4.62402 38.7155 4.65164C38.7892 4.72529 38.9089 4.73449 38.9918 4.65164C39.0655 4.5872 39.0655 4.45832 38.9918 4.38467C38.8629 4.26499 38.7063 4.24658 38.5405 4.24658C38.4393 4.24658 38.3472 4.33864 38.3472 4.43991C38.3472 4.55038 38.4393 4.63323 38.5405 4.63323Z" fill="#EAC083"/>
<path d="M42.6474 8.43523C42.8561 8.43523 43.0649 8.43523 43.2736 8.43523C43.5222 8.43523 43.5222 8.04858 43.2736 8.04858C43.0649 8.04858 42.8561 8.04858 42.6474 8.04858C42.3988 8.04858 42.3988 8.43523 42.6474 8.43523Z" fill="#EAC083"/>
<path d="M41.5054 6.00487C41.662 5.93122 41.8646 5.94963 42.0303 5.94963C42.279 5.94963 42.279 5.56299 42.0303 5.56299C41.7817 5.56299 41.5423 5.56298 41.3121 5.67345C41.22 5.71028 41.1923 5.84837 41.2476 5.93122C41.3028 6.03249 41.4133 6.0509 41.5054 6.00487Z" fill="#EAC083"/>
<path d="M2.72749 14.787C2.85642 14.787 2.98534 14.787 3.11426 14.787C3.3629 14.787 3.3629 14.4004 3.11426 14.4004C2.98534 14.4004 2.85642 14.4004 2.72749 14.4004C2.47886 14.4004 2.47886 14.787 2.72749 14.787Z" fill="#EAC083"/>
<path d="M8.30806 12.4581C8.49223 12.4581 8.68561 12.4581 8.83295 12.3292C8.91583 12.2556 8.90662 12.1267 8.83295 12.0531C8.75928 11.9794 8.63957 11.9886 8.55669 12.0531C8.58432 12.0346 8.52907 12.0623 8.55669 12.0531C8.53827 12.0623 8.50144 12.0715 8.49223 12.0715C8.43698 12.0807 8.37252 12.0715 8.30806 12.0715C8.05942 12.0715 8.05942 12.4581 8.30806 12.4581Z" fill="#EAC083"/>
<path d="M12.4981 9.05193C12.6761 9.05193 12.8572 9.05193 13.0414 9.05193C13.29 9.05193 13.29 8.66528 13.0414 8.66528C12.8572 8.66528 12.6761 8.66528 12.4981 8.66528C12.2402 8.66528 12.2402 9.05193 12.4981 9.05193Z" fill="#EAC083"/>
<path d="M15.8316 5.25913C15.8807 5.25913 15.9298 5.25913 15.9789 5.25913C16.0894 5.25913 16.1723 5.16708 16.1723 5.06581C16.1723 4.95534 16.0894 4.86328 15.9789 4.86328C15.9298 4.86328 15.8807 4.86328 15.8316 4.86328C15.7211 4.86328 15.6382 4.95534 15.6382 5.06581C15.6382 5.16708 15.7211 5.25913 15.8316 5.25913Z" fill="#EAC083"/>
<path d="M18.2354 1.22699C18.4472 1.22699 18.6682 1.21779 18.8708 1.12573C18.9721 1.0797 18.9905 0.941607 18.9445 0.858755C18.88 0.75749 18.7695 0.73908 18.6774 0.785109C18.5393 0.84955 18.3735 0.840342 18.2354 0.840342C17.9775 0.840342 17.9775 1.22699 18.2354 1.22699Z" fill="#EAC083"/>
<path d="M24.4326 1.07048C24.537 1.07048 24.6414 1.07048 24.7457 1.07048C24.847 1.07048 24.9391 0.978423 24.9391 0.877159C24.9391 0.766688 24.847 0.683838 24.7457 0.683838C24.6414 0.683838 24.537 0.683838 24.4326 0.683838C24.3313 0.683838 24.2393 0.766688 24.2393 0.877159C24.2393 0.978423 24.3313 1.07048 24.4326 1.07048Z" fill="#EAC083"/>
<path d="M12.8018 18.1198C12.9061 18.1198 13.0105 18.1198 13.1149 18.1198C13.2162 18.1198 13.3083 18.0277 13.3083 17.9265C13.3083 17.8252 13.2162 17.7332 13.1149 17.7332C13.0105 17.7332 12.9061 17.7332 12.8018 17.7332C12.7005 17.7332 12.6084 17.8252 12.6084 17.9265C12.6084 18.0277 12.7005 18.1198 12.8018 18.1198Z" fill="#EAC083"/>
<path d="M26.4492 19.4362C26.4738 19.4362 26.4983 19.4362 26.5229 19.4362C26.6334 19.4362 26.7163 19.3534 26.7163 19.2429C26.7163 19.1416 26.6334 19.0496 26.5229 19.0496C26.4983 19.0496 26.4738 19.0496 26.4492 19.0496C26.3387 19.0496 26.2559 19.1416 26.2559 19.2429C26.2559 19.3534 26.3387 19.4362 26.4492 19.4362Z" fill="#EAC083"/>
<path d="M34.1479 15.4592C34.2584 15.404 34.3874 15.404 34.5071 15.404C34.7649 15.404 34.7649 15.0173 34.5071 15.0173C34.3137 15.0173 34.1295 15.0357 33.9454 15.1278C33.8533 15.1646 33.8256 15.3027 33.8809 15.3856C33.9361 15.4868 34.0466 15.5052 34.1479 15.4592Z" fill="#EAC083"/>
<path d="M36.8369 18.0461C36.8615 18.0461 36.8861 18.0461 36.9106 18.0461C37.0211 18.0461 37.104 17.954 37.104 17.8528C37.104 17.7423 37.0211 17.6594 36.9106 17.6594C36.8861 17.6594 36.8615 17.6594 36.8369 17.6594C36.7356 17.6594 36.6436 17.7423 36.6436 17.8528C36.6436 17.954 36.7356 18.0461 36.8369 18.0461Z" fill="#EAC083"/>
<path d="M42.9789 12.1267C43.1262 12.053 43.292 12.0438 43.4485 11.9702C43.5406 11.9241 43.5682 11.786 43.513 11.7032C43.4577 11.6111 43.3472 11.5927 43.2551 11.6388C43.0986 11.7032 42.9328 11.7216 42.7855 11.7953C42.6934 11.8321 42.6658 11.9702 42.7118 12.053C42.7763 12.1543 42.8868 12.1727 42.9789 12.1267Z" fill="#EAC083"/>
<path d="M46.8745 15.2479C46.8745 14.9257 46.8561 14.2997 46.7916 13.5264C46.4878 14.18 46.2483 15.0453 46.1931 15.4228C45.9997 16.684 45.309 17.6874 44.6552 18.7829C44.0751 19.7403 42.7398 20.6977 41.7729 21.2409C40.3639 22.0326 38.6603 22.7691 37.0764 23.1005C33.7428 23.7817 30.5198 23.8093 27.0757 23.9842C23.5579 24.1499 19.8929 24.0395 16.3935 23.708C14.4413 23.5239 12.4338 23.1741 10.5552 22.5389C8.75948 21.9405 6.71513 21.9773 5.16806 20.9003C3.89725 20.0073 2.27651 19.7035 1.37405 18.3779C1.17146 18.0925 0.591314 16.9325 0.00195312 16.1684C0.0295794 16.6195 0.0756221 16.997 0.16771 17.2824C0.692609 18.921 2.27651 25.3743 23.208 25.54C47.16 25.7333 46.8745 16.5275 46.8745 15.2479Z" fill="#F68D32"/>
</svg>
