<svg width="48" height="30" viewBox="0 0 48 30" fill="none" xmlns="http://www.w3.org/2000/svg">
<path d="M46.3847 0.112793C45.3894 0.732612 40.723 4.12531 40.723 4.12531C38.039 5.35679 34.8328 3.79909 32.1815 3.04878C30.1664 2.46974 26.2342 -0.17265 24.1865 1.47476C23.8928 1.71127 23.746 2.39634 23.5094 2.54314C23.232 2.7144 22.457 2.641 22.1062 2.66547C21.0294 2.76334 20.3523 2.89382 19.5691 3.6686C18.7288 4.50862 18.4025 4.55755 17.1788 4.61464C15.6532 4.67988 15.5961 4.9327 14.6008 5.95214C14.0053 6.55565 14.1113 6.49856 13.2139 6.42516C12.4063 6.36807 11.5578 6.22127 10.7339 6.37623C9.49384 6.60458 7.6338 7.77082 7.29116 9.08386C6.3693 9.00231 5.4719 9.18173 4.72951 9.74446C3.73423 10.5111 3.7995 11.3593 3.28554 12.3216C2.87763 13.0882 1.77629 13.2676 1.08286 14.0343C0.169151 15.0455 -0.0347974 16.5217 0.536268 17.7532C0.781011 18.2833 1.09102 18.2914 1.33576 18.6829C1.72735 19.2864 -0.181655 21.8146 0.0141391 22.4997C0.487308 24.1389 2.54316 24.7425 4.23188 24.9627C4.63979 25.0197 6.54877 23.5925 6.8343 23.9269C7.05457 24.1879 6.90773 25.2073 7.10352 25.6151C8.01723 27.4582 10.6197 27.9802 12.4634 28.1107C13.3363 28.1678 14.25 28.1678 15.1066 27.9476C15.49 27.8416 16.3548 27.2625 16.7627 27.3685C17.3419 27.5235 17.8396 28.5592 18.484 28.9099C20.703 30.1251 23.3136 30.0028 25.0839 27.9557C25.5897 27.3767 25.9242 26.3654 26.6584 26.0147C27.36 25.664 27.6537 26.0718 28.3635 26.1044C30.0604 26.1941 30.5091 24.7995 30.9659 23.4539C32.2794 24.0166 32.4425 24.3673 34.1394 23.9024C36.0158 23.3886 36.7418 22.4508 37.4189 20.7055C37.9003 19.4821 37.5413 18.9683 38.8793 18.9928C40.0866 19.0091 40.4782 18.9113 40.9759 17.6472C41.4164 16.5462 41.3593 15.4044 41.2859 14.2626C41.2533 13.6428 41.0248 12.5255 41.4735 11.9546C41.6693 11.7099 42.2159 11.7996 42.4688 11.5061C42.7543 11.1717 42.7217 10.7721 42.6972 10.3643C42.6401 9.41824 42.3383 8.82288 42.5341 7.86053C42.8849 6.18865 44.3044 4.74513 45.6097 3.61151C46.1073 3.17927 47.5513 2.5676 47.6002 1.83361C47.6329 1.32796 46.6947 0.422703 46.3847 0.112793Z" fill="#89ED29"/>
<path d="M46.0503 0.00688872C46.0503 0.00688872 37.933 6.66179 27.711 11.2044C14.862 16.9051 7.82972 18.4465 8.54763 18.8543C9.26554 19.2621 16.6975 16.6034 25.3451 13.4472C43.8966 6.68626 48.0001 1.95606 48.0001 1.95606C48.0001 1.95606 47.7962 1.13235 47.0783 0.520687C46.3603 -0.0991327 46.0503 0.00688872 46.0503 0.00688872Z" fill="#DBFF81"/>
<path opacity="0.4" d="M10.0322 19.1642L9.93427 19.2621C9.63242 19.5394 9.41215 19.9471 9.1103 20.2407C8.76766 20.5751 8.40055 20.8769 8.07423 21.2194C7.5929 21.7169 6.43445 22.3367 7.31552 23.0544C8.02527 23.6253 8.48214 22.247 8.81662 21.7332C9.24084 21.0808 9.89348 20.3957 10.179 19.678C10.2606 19.4741 10.4319 19.0011 10.0322 19.1642Z" fill="#DBFF81"/>
<path opacity="0.4" d="M17.3829 22.1572C17.3829 20.6566 17.0974 18.9602 16.4937 17.6309C16.4447 17.6472 16.4611 17.6879 16.404 17.7287C16.4203 19.9389 16.2326 22.2143 15.7024 24.351C15.4658 25.2726 15.4087 25.8842 16.3469 26.3165C16.6895 26.4714 17.0892 26.5204 17.3666 26.8221C17.644 27.1239 17.8969 27.915 18.1579 27.1239C18.3537 26.5204 18.0111 25.4846 17.8479 24.9137C17.5706 23.9595 17.3829 23.1603 17.3829 22.1572Z" fill="#DBFF81"/>
<path opacity="0.4" d="M14.5602 18.9032C14.1522 19.4251 14.0951 20.3059 13.8259 20.9094C13.4099 21.8228 12.847 22.6384 12.3901 23.5273C12.0475 24.1716 10.3995 26.6264 11.0767 27.3197C11.1746 27.3278 11.1175 27.2626 11.1664 27.23L11.4764 27.5317C12.2759 27.7927 13.4996 27.4257 13.883 26.6101C14.2991 25.7049 13.6954 24.4897 13.7851 23.5192C13.883 22.459 14.2338 21.3906 14.6173 20.3956C14.7723 19.996 15.0823 19.5393 15.1231 19.1152C15.1802 18.5362 14.8865 18.4872 14.5602 18.9032Z" fill="#DBFF81"/>
<path opacity="0.4" d="M26.2669 21.2357C25.6795 19.8656 25.2634 18.4791 25.345 16.9704C25.4021 15.9265 25.7529 14.6868 25.5408 13.6755C25.4103 13.7326 25.4348 13.7979 25.3287 13.9202C24.3253 15.0946 24.6924 17.4434 24.6271 18.9195C24.57 20.1755 24.6679 21.4314 24.7821 22.6711C24.8963 23.9352 24.8637 25.1585 25.2961 26.3492L25.5 26.2513C25.5816 26.2269 25.6632 26.0311 25.7937 25.8762C26.1282 25.4847 26.4464 25.3053 26.9358 25.2237C27.3927 25.1503 27.719 25.2156 27.7109 24.6447C27.7027 24.1798 27.3682 23.6171 27.1561 23.2175C26.8217 22.5732 26.5606 21.9045 26.2669 21.2357Z" fill="#DBFF81"/>
<path opacity="0.4" d="M30.9987 16.7501C30.9497 15.747 31.0966 14.6949 31.2516 13.7163C31.3169 13.3167 31.9777 11.4735 31.7656 11.3022C30.7621 12.1504 30.7539 14.3443 30.5255 15.5676C30.2889 16.7828 30.1176 18.0224 30.1258 19.2783C30.1258 20.5832 30.3052 21.7576 30.4847 23.0136L30.7947 22.9157C30.9008 23.0788 31.8063 23.2664 31.9613 23.0054C32.2632 22.4998 31.4392 20.7056 31.3576 20.1428C31.1863 19.0174 31.0558 17.8919 30.9987 16.7501Z" fill="#DBFF81"/>
<path opacity="0.4" d="M39.5729 8.6844C39.6871 8.31741 39.7768 7.73836 39.2547 8.05643C38.9937 8.21954 38.7979 8.77411 38.6918 9.04325C38.3655 9.82618 38.0555 10.6254 37.8189 11.4165C37.46 12.6072 37.2152 13.8876 37.1663 15.1191C37.1173 16.1304 36.9541 17.5739 37.5252 18.4466H37.8271C38.39 18.4629 39.0345 18.2427 39.0671 17.5168C39.0916 16.6687 38.8223 15.6411 38.7081 14.7847C38.5776 13.8061 38.4389 12.7622 38.5858 11.7672C38.7571 10.6662 39.2711 9.73647 39.5729 8.6844Z" fill="#DBFF81"/>
<path opacity="0.4" d="M6.96498 17.5166C6.04311 17.4758 5.05598 17.59 4.16675 17.378C3.62832 17.2475 3.1062 17.011 2.53513 17.0681C2.23329 17.1007 1.27878 17.5655 1.71116 17.9325L1.97222 18.0875C2.44538 18.4545 3.2041 18.4627 3.78333 18.5361C4.4686 18.6258 5.20283 18.7726 5.87995 18.6013C6.67128 18.3974 8.1479 18.3974 8.75976 17.7776C8.44159 17.4432 7.42999 17.5411 6.96498 17.5166Z" fill="#DBFF81"/>
<path opacity="0.4" d="M16.1592 15.4127C15.5637 14.9234 14.2747 14.8174 13.516 14.5482C12.3738 14.1486 11.3704 13.5451 10.3017 12.9987C9.78773 12.7296 9.20851 12.4604 8.75982 12.0771C8.38455 11.7509 8.30296 11.3594 8.0419 10.9435C7.62584 10.2666 6.45107 9.46735 5.6271 9.77726C5.38236 9.87513 5.08868 10.128 4.90104 10.3318C4.73788 10.5031 4.50946 10.9761 4.43604 11.0006L4.54207 11.1474C4.58286 12.2321 6.5245 13.2515 7.34847 13.6185C8.44165 14.1078 9.66535 14.3688 10.8075 14.7114C11.8028 15.0049 12.7736 15.2904 13.7852 15.4617C14.3644 15.5677 15.7758 16.0815 16.1592 15.4127Z" fill="#DBFF81"/>
<path opacity="0.4" d="M24.0074 11.6774C23.4934 11.5714 22.9632 11.4653 22.4329 11.343C20.2547 10.8537 17.742 10.1441 15.8819 8.88819C14.9682 8.27652 14.1769 7.33048 13.1735 6.89009C12.2434 6.48231 10.726 6.43338 9.88574 6.93902V7.09397C9.96732 8.1705 11.7295 9.06761 12.5698 9.44276C13.7282 9.97287 15.0009 10.3725 16.2001 10.7884C18.0275 11.4327 19.9528 11.9139 21.8537 12.1259C22.4982 12.1993 23.8442 12.5011 24.4235 12.1912C25.0435 11.8568 24.4153 11.7589 24.0074 11.6774Z" fill="#DBFF81"/>
<path opacity="0.4" d="M22.9302 9.41833C21.4128 8.62725 20.2136 7.7546 18.9736 6.58021C18.5004 6.13166 17.2522 4.79415 16.5588 5.14484L16.1998 5.03882C15.8735 5.153 15.6695 5.67495 15.7348 6.01748C15.8245 6.47419 16.2732 6.65361 16.6648 6.84934C17.5948 7.32236 18.5167 7.75461 19.3896 8.3418C20.9804 9.41018 22.8894 10.6906 24.8311 10.8945C25.3858 10.9597 27.3601 11.2941 27.719 10.8374C27.1235 10.4133 25.9732 10.4459 25.2553 10.2665C24.4395 10.0626 23.6971 9.81795 22.9302 9.41833Z" fill="#DBFF81"/>
<path opacity="0.4" d="M33.7314 7.00419C33.1685 7.02866 32.6056 7.04497 32.0345 7.00419C30.7618 6.89817 29.2934 6.62088 28.0778 6.18049C27.1233 5.8298 25.8017 5.34047 25.1409 4.52492C24.6106 3.86432 24.0314 3.22003 23.1911 2.93459C22.7424 2.77964 21.894 2.92643 21.4943 3.08954L21.2903 3.29343C19.8137 4.96531 27.3028 7.0205 28.2247 7.35488C29.375 7.76266 30.5171 7.8279 31.7163 7.70557C32.1813 7.66479 32.6464 7.61586 33.1032 7.55061C33.4295 7.50984 34.0577 7.62401 34.3351 7.41197C34.898 6.99604 34.074 6.98788 33.7314 7.00419Z" fill="#DBFF81"/>
<path d="M8.8655 22.0104C8.65339 22.4915 8.38418 22.8993 8.05786 23.3234C7.72338 23.7557 7.29101 24.0737 7.20943 24.6528C7.14416 25.1258 7.30731 25.8761 7.82943 25.9984V26.2186C8.13128 26.4225 8.60446 26.9934 8.81657 26.3573C8.97157 25.8679 8.84104 25.1176 8.89815 24.612C8.98789 23.9025 9.05314 23.1848 9.27341 22.5079C9.44473 21.9614 9.75475 21.4884 9.69764 20.8931C9.22447 21.0888 9.05314 21.5781 8.8655 22.0104Z" fill="#69CC2F"/>
<path d="M19.4387 23.1441C18.9084 22.1491 18.835 21.0889 18.5821 20.0287C18.476 19.6209 18.4026 19.2294 18.2966 18.8298C18.2313 18.5607 18.215 18.0877 18.0844 17.8512C18.0681 17.8104 18.0437 17.6799 18.0355 17.631C17.905 17.6146 17.8724 17.6717 17.8152 17.7533V17.6228C17.6602 18.683 17.9784 19.7595 18.0844 20.8116C18.2231 22.1736 18.3537 23.5519 18.6147 24.8894C18.7697 25.7212 18.9737 26.5368 19.2837 27.3034C19.6182 28.1353 19.92 28.5512 20.8174 28.6898C21.2661 28.7551 21.9677 28.959 22.3756 28.7225C22.653 27.8743 21.829 27.1484 21.3558 26.5042C20.6298 25.501 20.0261 24.2451 19.4387 23.1441Z" fill="#69CC2F"/>
<path d="M27.0013 15.5594C27.0176 15.2577 27.5152 13.1862 26.8626 13.5043L26.732 13.4553C26.2589 15.1272 25.6307 17.0193 26.0141 18.7972C26.1039 19.2294 26.7484 21.6435 27.4499 21.2112C28.0047 20.8605 27.3684 19.3028 27.2705 18.8624C27.0257 17.7941 26.9441 16.6768 27.0013 15.5594Z" fill="#69CC2F"/>
<path d="M7.9928 19.4905C8.09885 19.2295 7.86226 19.0093 7.60121 19.099L7.42173 19.0093C6.5325 19.2621 5.58616 19.5312 4.64798 19.5965C4.24824 19.6209 3.84034 19.6699 3.44875 19.6291C3.10611 19.5965 2.73084 19.4497 2.36372 19.5068C1.58055 19.6209 1.4174 20.4446 1.09107 21.0645C0.84633 21.5293 0.103929 22.8261 1.31948 22.5814C1.95581 22.4591 2.59216 21.668 3.13059 21.3418C3.90561 20.8687 4.76219 20.4773 5.64327 20.2652C6.23065 20.1266 6.85067 20.0532 7.42173 19.8493C7.59305 19.7922 7.91938 19.6862 7.9928 19.4905Z" fill="#69CC2F"/>
<path d="M15.6208 19.0989C15.0905 18.9603 14.96 20.7626 14.911 21.0236C14.7642 21.8555 14.291 22.6302 14.136 23.4458C14.0055 24.1798 14.1605 24.8893 14.2339 25.5988C14.2584 25.868 14.3644 27.7682 14.9028 27.2055L15.2618 27.1647C16.3468 27.287 15.3924 26.2268 15.1639 25.819C14.8213 25.2155 14.7479 24.3918 14.8702 23.7068C14.96 23.193 16.2734 19.262 15.6208 19.0989Z" fill="#69CC2F"/>
<path d="M42.224 7.01245C42.3382 6.76779 42.844 6.07457 42.8114 6.02563L42.3627 6.24583C41.7998 6.42526 41.2287 7.59149 41.0084 8.1216C40.7147 8.81482 40.5189 9.69562 40.7066 10.4622C40.886 11.1881 42.2729 11.5388 41.8813 10.7151C41.6937 10.3073 41.449 10.2665 41.4245 9.74455C41.4082 9.34493 41.4571 8.99424 41.5469 8.61909C41.6937 8.0482 41.9629 7.54256 42.224 7.01245Z" fill="#69CC2F"/>
<path d="M22.8488 14.8091C22.8324 14.8308 22.8161 14.8526 22.7998 14.8743L22.8324 14.8906C22.8324 14.8499 22.9222 14.8254 22.8488 14.8091Z" fill="#69CC2F"/>
<path d="M22.7016 22.6385C22.5466 21.8148 22.1958 20.9666 22.1305 20.1347C22.0326 19.099 22.0897 18.0877 22.261 17.0846C22.3589 16.5137 22.465 15.3882 22.7995 14.8744L22.6526 14.801C22.0734 15.5758 21.8205 16.5708 21.7144 17.5331C21.5594 18.9767 21.4371 20.4039 21.486 21.88C21.535 23.1278 21.8694 24.4735 22.31 25.6479C22.5629 26.3411 22.8239 27.7765 23.6805 27.9233C25.663 28.2739 23.9742 25.289 23.5827 24.6692C23.1584 23.9923 22.8484 23.4133 22.7016 22.6385Z" fill="#69CC2F"/>
<path d="M33.8783 21.8719C33.3562 21.0319 33.4459 19.7759 33.4948 18.7646C33.5193 18.2998 33.7396 17.5169 33.4948 17.0846C33.1277 16.4485 33.0217 17.4353 32.9646 17.8268C32.8014 18.9278 32.4669 19.9309 32.418 21.0482C32.4017 21.5538 32.7851 23.8292 33.6988 23.2012H33.968C34.3433 23.3236 34.5472 22.9158 34.433 22.5243C34.3759 22.3041 34.0006 22.0758 33.8783 21.8719Z" fill="#69CC2F"/>
<path d="M37.8515 8.96167C37.5905 9.02691 37.4191 9.26342 37.256 9.49178C35.9996 11.2778 36.4646 13.9365 36.1954 16.008C36.0241 17.3537 35.6978 18.6912 35.6488 20.045C35.6325 20.3957 35.5591 21.4967 36.122 21.3907C36.4973 21.3173 36.7257 20.2326 36.7176 20.045L37.0602 19.5068C36.7094 19.2702 36.8889 17.7044 36.8562 17.0846C36.8155 16.1875 36.791 15.2496 36.791 14.328C36.791 13.382 36.7747 12.3462 37.0031 11.4409C37.207 10.6662 37.9657 9.75276 37.8515 8.96167Z" fill="#69CC2F"/>
</svg>
