<svg width="48" height="27" viewBox="0 0 48 27" fill="none" xmlns="http://www.w3.org/2000/svg">
<path fill-rule="evenodd" clip-rule="evenodd" d="M47.8964 9.60126C47.8494 10.8153 45.1663 11.4835 43.8672 12.2929C40.3651 14.4669 35.545 18.6549 31.2239 22.25C28.8421 24.2357 28.9551 26.438 27.317 26.5509C26.3944 26.6168 21.8097 24.6687 16.6507 22.25C17.0367 21.6194 17.3191 20.9606 17.4227 20.3865C17.7239 18.6643 16.3777 17.8267 14.7019 17.9867C13.431 18.109 12.1884 18.7678 11.1622 19.596C5.5231 16.8009 0.495918 14.0622 0.0346218 13.3469C-0.972698 11.7564 20.3222 -0.167615 22.0074 0.00178749C25.773 0.378237 47.9435 8.02017 47.8964 9.60126ZM11.0869 9.74242C10.3432 9.81771 8.14966 10.2036 7.63188 11.5306C7.38711 12.1705 8.84631 12.5752 11.0398 12.6223C13.2333 12.6693 15.0315 11.7658 15.3327 11.2953C15.794 10.5706 13.6946 9.4695 11.0869 9.74242ZM20.7647 8.95188C20.6894 8.51896 19.0325 8.19898 18.1005 8.51896C17.5074 8.7166 16.6319 9.3848 16.9708 9.81772C17.3003 10.26 18.3641 10.1283 19.0984 10.0059C19.8327 9.88359 20.8306 9.3848 20.7647 8.95188ZM26.9498 6.21321C28.8138 6.21321 29.7458 4.2839 27.6841 3.28631C26.0367 2.49577 24.022 1.73346 23.0241 2.23225C22.657 2.41107 21.9603 3.09809 22.5534 3.90745C23.1559 4.71682 25.0858 6.21321 26.9498 6.21321ZM29.294 15.3704C28.136 15.0598 25.3965 15.0315 24.0691 16.2456C22.7323 17.4596 23.8149 19.7466 26.1873 19.2572C28.0889 18.8713 30.2166 18.222 30.4802 17.1303C30.5837 16.735 30.4519 15.6809 29.294 15.3704ZM36.3923 8.03899C34.6977 7.65313 34.0952 8.35897 33.7845 9.40362C33.5868 10.0624 33.5492 11.2765 34.34 11.6247C35.7427 12.2458 36.5429 11.7094 37.6067 10.5706C38.4634 9.6389 37.3996 8.26486 36.3923 8.03899ZM41.796 8.38721C41.7395 7.95429 40.2992 7.64372 39.499 7.95429C38.9906 8.15192 38.2375 8.82953 38.5199 9.26245C38.8117 9.69537 39.7343 9.57302 40.3651 9.45068C40.9958 9.31892 41.8525 8.82953 41.796 8.38721Z" fill="#FFDD33"/>
<path d="M48 9.6295C48 9.50715 47.8776 9.34716 47.6329 9.15894C47.4822 9.3001 47.6611 9.73302 47.4916 9.87419C46.1925 10.9941 44.7427 11.3329 43.1988 12.1894C39.4707 14.2504 36.1758 16.9985 32.9184 19.7278C31.6381 20.8006 30.6402 21.8076 29.4823 23.0782C28.8609 23.7558 28.635 25.4969 26.9875 25.8168C26.7616 25.8639 26.2814 25.7604 24.6904 25.7604C26.1214 26.325 26.4697 26.6168 27.4205 26.5791C29.0586 26.5039 28.9457 24.2546 31.3274 22.2782C35.6486 18.6831 40.4781 14.4951 43.9707 12.3211C45.2699 11.5117 47.9624 10.8435 48 9.6295Z" fill="#EF9C07"/>
<path d="M7.83906 11.8413C8.34742 10.5144 10.5409 10.1285 11.2847 10.0532C13.1769 9.85558 14.8056 10.3826 15.3798 10.9567C15.1727 10.2791 13.3181 9.50736 11.087 9.74264C10.3432 9.81793 8.14973 10.2038 7.63195 11.5308C7.56605 11.7096 7.63195 11.8696 7.81082 12.0108C7.80454 11.9543 7.81395 11.8978 7.83906 11.8413Z" fill="#EF9C07"/>
<path d="M18.364 8.76381C19.0794 8.52853 20.228 8.65087 20.7552 8.9238C20.6234 8.50029 19.0135 8.20854 18.1004 8.51911C17.5073 8.71675 16.6317 9.38495 16.9707 9.81787C17.0177 9.89316 17.093 9.94962 17.1872 9.99668C16.9989 9.56376 17.8085 8.95203 18.364 8.76381Z" fill="#EF9C07"/>
<path d="M39.8284 8.25527C40.4026 8.0294 41.297 8.12352 41.7865 8.3588C41.6924 7.93529 40.2802 7.63413 39.4895 7.9447C38.9811 8.14234 38.2279 8.81054 38.5198 9.25286C38.5857 9.34698 38.6798 9.42227 38.8022 9.46932C38.661 9.03641 39.3482 8.43409 39.8284 8.25527Z" fill="#EF9C07"/>
<path d="M33.9824 9.74255C34.2931 8.6979 34.8956 7.99206 36.5902 8.37792C37.0044 8.47203 37.4374 8.75437 37.7293 9.13082C37.4845 8.55673 36.8914 8.06735 36.3266 7.93559C34.632 7.54973 34.0295 8.26498 33.7188 9.30963C33.5494 9.87431 33.4929 10.8343 33.9824 11.3236C33.7941 10.8248 33.86 10.1661 33.9824 9.74255Z" fill="#EF9C07"/>
<path d="M22.7887 4.12401C22.1862 3.31464 22.8828 2.62762 23.25 2.4488C24.2479 1.95001 26.2719 2.71232 27.91 3.50286C28.1046 3.59698 28.274 3.69736 28.4184 3.80402C28.2301 3.58757 27.9477 3.37111 27.5805 3.19229C25.933 2.40175 23.9184 1.63944 22.9205 2.13823C22.5439 2.31705 21.8567 3.00407 22.4498 3.81343C22.6004 4.01107 22.8263 4.25576 23.1182 4.50046C22.9864 4.3687 22.8734 4.23694 22.7887 4.12401Z" fill="#EF9C07"/>
<path d="M24.2953 16.5751C25.6321 15.3611 28.3717 15.3893 29.5296 15.6999C29.8779 15.794 30.1321 15.954 30.311 16.1422C30.1415 15.8034 29.8214 15.4834 29.266 15.3328C28.0986 15.0223 25.3685 14.9846 24.0317 16.2081C23.2597 16.9045 23.2974 17.968 23.9281 18.6362C23.5798 17.9868 23.6646 17.1586 24.2953 16.5751Z" fill="#EF9C07"/>
<path opacity="0.5" d="M11.8874 5.81787C11.5673 5.81787 10.9742 6.24138 10.8612 6.19432L10.4187 6.60842C9.60912 6.8437 8.88423 7.55895 8.15934 7.96364C7.10495 8.55654 6.16353 9.37532 5.0809 9.97764C4.12065 10.5141 0.49618 12.3587 2.38844 13.6198C2.80266 13.8927 3.37692 13.9962 3.83821 14.1656C4.46897 14.4009 5.08089 14.7021 5.67398 14.9844C6.7472 15.4926 7.81101 15.9444 8.78067 16.6032C9.07251 16.8008 10.607 18.0243 10.8236 17.2714C10.9742 16.7349 9.60913 15.9444 9.21373 15.7467C8.27231 15.2574 7.4721 14.5892 6.54951 14.0809C5.86227 13.7139 4.72315 13.3092 4.90202 12.4152C5.03382 11.7846 5.69282 10.8999 6.16353 10.467C6.92608 9.74236 7.88632 9.26239 8.78067 8.6883C9.86331 7.99187 10.9554 7.34249 12.0097 6.63665C12.5087 6.29784 12.6593 5.81787 11.8874 5.81787Z" fill="#F9ED98"/>
</svg>
