<svg width="48" height="29" viewBox="0 0 48 29" fill="none" xmlns="http://www.w3.org/2000/svg">
<path d="M21.3475 2.32373C14.8829 2.21326 9.79968 2.5999 7.93951 4.62519C7.44224 5.17754 7.20279 6.50319 7.18438 7.18442C7.09229 11.7321 12.0098 14.052 20.5371 14.052C32.2322 14.052 36.1551 11.3455 36.9471 8.95194C37.3523 7.71836 37.3523 5.30642 36.0262 4.1649C34.295 2.69196 29.7458 2.45261 21.3475 2.32373Z" fill="#608E43"/>
<path d="M21.1448 0.00393701C12.9306 -0.124945 7.38693 2.93139 7.60794 6.09821C7.81053 9.26502 11.8071 11.7322 20.316 11.7322C32.0295 11.7322 36.6339 8.80473 36.5419 6.33756C36.4314 3.85198 36.0261 0.224878 21.1448 0.00393701Z" fill="#C1E476"/>
<path fill-rule="evenodd" clip-rule="evenodd" d="M36.5419 6.33756C36.6339 8.80473 32.0295 11.7322 20.316 11.7322C11.8071 11.7322 7.81053 9.26502 7.60794 6.09821C7.38693 2.93139 12.9306 -0.124945 21.1448 0.00393701C36.0261 0.224878 36.4314 3.85198 36.5419 6.33756ZM35.5473 6.22709C35.4552 3.98086 34.5712 0.777224 21.0527 0.574696C13.612 0.445814 8.58408 3.22598 8.76825 6.09821C8.95243 8.97044 12.7648 10.9037 20.4818 10.9037C31.1087 10.9037 35.6394 8.47332 35.5473 6.22709Z" fill="#85D353"/>
<path d="M21.6791 1.97389C18.1245 1.9923 12.3598 3.02336 11.7889 5.19594C11.2916 7.07393 14.4042 9.37539 21.9922 9.37539C29.5986 9.3938 33.3926 6.5584 32.8769 5.01182C32.2139 2.9313 28.8435 1.95548 21.6791 1.97389Z" fill="#DDF49F"/>
<path d="M20.0948 2.1582L20.0211 2.17661C19.7449 2.74737 19.9291 3.52067 20.2606 4.10984C20.5552 4.66219 21.0157 5.3066 21.5682 5.73007C21.6235 5.06725 21.6603 4.27554 21.3472 3.66795C21.1078 3.17084 20.7579 2.43438 20.0948 2.1582Z" fill="white"/>
<path d="M22.0836 5.60115C23.3359 4.9015 24.5331 3.57587 24.4226 2.34229C23.0044 3.11558 21.8257 4.31233 21.8257 5.6748L22.1388 5.54592C22.1204 5.56433 22.0836 5.56433 22.0836 5.60115Z" fill="white"/>
<path d="M17.1295 5.76679C15.9876 5.89567 14.1643 6.09821 13.4092 6.76103C13.5565 6.92673 15.1404 7.12926 15.4535 7.12926C16.0429 7.11085 16.6138 7.09244 17.1848 7.00038C18.3819 6.81626 19.5238 6.50326 20.4263 5.9325C19.3581 5.67474 18.1977 5.63791 17.1295 5.76679Z" fill="white"/>
<path d="M17.3506 8.7679C17.4243 8.80473 18.4925 8.65743 18.6767 8.58379C19.0819 8.41808 19.5423 8.16032 19.8738 7.90255C20.1869 7.6632 20.4263 7.33179 20.6105 7.01879C20.7394 6.77944 20.721 6.50327 20.8499 6.26392C20.279 6.42962 17.5348 7.29497 17.3506 8.7679Z" fill="white"/>
<path d="M25.8409 6.7428C25.3252 6.5771 22.5073 6.04316 22.3784 6.19045C22.581 6.55868 24.1465 7.51609 24.6622 7.71862C25.933 8.25256 27.6643 8.25256 28.051 8.45509C27.8668 7.6818 26.7618 7.0558 25.8409 6.7428Z" fill="white"/>
<path d="M27.9041 4.82798C27.02 4.80957 26.0623 4.84638 25.2335 5.0305C24.6442 5.1778 23.5207 5.47238 23.1523 5.76697C23.1523 5.76697 23.9627 5.82221 24.2022 5.84062C25.3625 5.98792 26.5228 6.09838 27.7199 6.09838C29.5616 6.07997 30.7035 5.6565 31.3481 5.52762C30.1878 5.12256 29.1565 4.8648 27.9041 4.82798Z" fill="white"/>
<path d="M11.3471 11.6399C11.5128 11.6768 11.6601 11.732 11.8259 11.8056C11.9917 11.8609 12.1758 11.824 12.2863 11.6952C12.36 11.5847 12.3232 11.419 12.1574 11.3453C11.9487 11.2594 11.7338 11.1858 11.5128 11.1244C11.3471 11.0876 11.1629 11.1796 11.1076 11.3085C11.0524 11.4558 11.1629 11.5847 11.3286 11.6399H11.3471Z" fill="#85D353"/>
<path d="M12.9126 12.7262C13.0968 12.7631 13.281 12.8367 13.4651 12.8735C13.6309 12.9103 13.8151 12.8183 13.8703 12.6894C13.9072 12.5421 13.8151 12.3948 13.6309 12.358C13.4467 12.3212 13.281 12.2659 13.0968 12.2291C12.9126 12.1923 12.7285 12.2659 12.6916 12.4132C12.6364 12.5421 12.7469 12.6894 12.9126 12.7262Z" fill="#85D353"/>
<path d="M13.7049 12.1558C13.9443 12.1558 14.1837 12.1926 14.4232 12.211C14.6073 12.2294 14.7547 12.0821 14.7547 11.9532C14.7547 11.8059 14.6073 11.7139 14.4232 11.6955C14.1837 11.6771 13.9443 11.6218 13.7049 11.6218C13.2813 11.6218 13.2813 12.1374 13.7049 12.1558Z" fill="#85D353"/>
<path d="M15.6937 13.4445C15.9147 13.4445 16.1357 13.4629 16.3752 13.4629C16.7988 13.4629 16.7988 12.9474 16.3752 12.9474C16.1357 12.9474 15.9147 12.929 15.6937 12.929C15.2701 12.929 15.2701 13.4445 15.6937 13.4445Z" fill="#85D353"/>
<path d="M16.7991 12.5054C16.7745 12.5423 16.7377 12.5668 16.6886 12.5791C16.7623 12.5607 16.6149 12.5791 16.6886 12.5791C16.7377 12.5791 16.7868 12.5791 16.836 12.5791C16.928 12.5791 17.0201 12.5975 17.1122 12.5975C17.2964 12.5975 17.4437 12.487 17.4437 12.3397C17.4437 12.1924 17.2964 12.082 17.1122 12.082C16.7991 12.0636 16.4492 11.9899 16.2466 12.2477C16.1361 12.3581 16.2097 12.5238 16.3571 12.5975C16.5228 12.6711 16.707 12.6159 16.7991 12.5054Z" fill="#85D353"/>
<path d="M18.6038 13.5917C18.8248 13.5917 19.0827 13.4997 19.3037 13.5549C19.7089 13.6101 19.8931 13.113 19.4694 13.0394C19.1748 12.9841 18.8985 13.0762 18.6038 13.0762C18.1802 13.0578 18.1802 13.5733 18.6038 13.5917Z" fill="#85D353"/>
<path d="M19.211 12.5607C19.3951 12.5975 19.6162 12.5791 19.7819 12.5423C19.9477 12.487 20.0582 12.3581 20.0029 12.2109C19.9661 12.082 19.7819 11.9899 19.6161 12.0267C19.5793 12.039 19.5486 12.0451 19.524 12.0451C19.4872 12.0574 19.4934 12.0574 19.5425 12.0451C19.5179 12.0451 19.4933 12.0451 19.4688 12.0451C19.4442 12.0574 19.4197 12.0574 19.3951 12.0451C19.4504 12.0636 19.303 12.0451 19.3951 12.0451C19.211 12.0083 19.0268 12.1004 18.99 12.2293C18.9347 12.3766 19.0452 12.5239 19.211 12.5607Z" fill="#85D353"/>
<path d="M24.1841 12.579C24.4051 12.579 24.6261 12.579 24.8655 12.5421C25.0313 12.5053 25.1418 12.3396 25.0865 12.2107C25.0313 12.0634 24.8655 12.0082 24.6813 12.0266C24.5156 12.0634 24.3498 12.0634 24.1841 12.0634C23.9999 12.0634 23.8525 12.1739 23.8525 12.3212C23.8525 12.4685 23.9999 12.579 24.1841 12.579Z" fill="#85D353"/>
<path d="M21.5689 13.2235C21.7163 13.2235 21.8636 13.2235 22.0109 13.2235C22.1951 13.2235 22.3425 13.1131 22.3425 12.9658C22.3425 12.8185 22.1951 12.708 22.0109 12.708C21.8636 12.708 21.7163 12.708 21.5689 12.708C21.4032 12.708 21.2559 12.8185 21.2559 12.9658C21.2559 13.1131 21.4032 13.2235 21.5689 13.2235Z" fill="#85D353"/>
<path d="M28.2541 13.2603C28.2663 13.2603 28.2847 13.2603 28.3093 13.2603C28.2172 13.2787 28.3093 13.2603 28.3277 13.2603C28.4014 13.248 28.475 13.2418 28.5487 13.2418C28.7329 13.205 28.825 13.0393 28.7882 12.9104C28.7329 12.7631 28.5487 12.7079 28.383 12.7263C28.3646 12.7263 28.2725 12.7447 28.3645 12.7263C28.34 12.7386 28.3154 12.7447 28.2909 12.7447C28.2172 12.7447 28.1436 12.7509 28.0699 12.7631C27.9041 12.8 27.7936 12.9473 27.8488 13.0946C27.9041 13.2234 28.0699 13.2971 28.2541 13.2603Z" fill="#85D353"/>
<path d="M7.84767 9.66992C7.87223 9.6822 7.89065 9.70061 7.90293 9.72516C7.84768 9.66992 7.9029 9.72515 7.92132 9.74356C7.95816 9.78039 7.98885 9.81722 8.01341 9.85404C8.1055 9.98292 8.30812 10.0197 8.45546 9.9461C8.62121 9.89087 8.67646 9.72516 8.58437 9.59627C8.49228 9.4858 8.41861 9.39375 8.30811 9.30169C8.17918 9.19122 7.97659 9.20963 7.84767 9.30169C7.71875 9.39375 7.71875 9.55945 7.84767 9.66992Z" fill="#85D353"/>
<path d="M9.17416 10.388C9.30308 10.4248 9.39516 10.4801 9.48725 10.5537C9.63459 10.6274 9.85563 10.5721 9.9293 10.4433C9.98455 10.388 9.98454 10.3144 9.96612 10.2591C9.94771 10.1855 9.89244 10.1303 9.81877 10.0934C9.72669 10.0382 9.63461 9.98297 9.50569 9.94615C9.43202 9.90932 9.35834 9.89091 9.26625 9.90932C9.17416 9.92773 9.10047 9.96456 9.06364 10.0382C8.98997 10.1487 9.0084 10.3328 9.17416 10.388Z" fill="#85D353"/>
<path d="M13.9808 12.708C7.58988 12.5791 2.58029 13.0579 0.738544 15.5618C0.241271 16.2431 0.0202612 17.9001 0.0018437 18.7287C-0.108661 24.3811 4.75356 27.2533 13.1704 27.2533C24.7181 27.2533 28.5858 23.9208 29.3778 20.9381C29.7829 19.4099 29.7829 16.4088 28.4569 14.9911C26.7625 13.1683 22.2686 12.8553 13.9808 12.708Z" fill="#608E43"/>
<path d="M13.7779 9.8358C5.67423 9.6701 0.204219 13.4629 0.406811 17.403C0.609404 21.3247 4.55078 24.3811 12.9676 24.3811C24.5154 24.3811 29.0645 20.754 28.9724 17.6792C28.8619 14.6229 28.4567 10.112 13.7779 9.8358Z" fill="#C1E476"/>
<path fill-rule="evenodd" clip-rule="evenodd" d="M12.9676 24.3811C4.55078 24.3811 0.609404 21.3247 0.406811 17.403C0.204219 13.4629 5.67423 9.6701 13.7779 9.8358C28.4567 10.112 28.8619 14.6229 28.9724 17.6792C29.0645 20.754 24.5154 24.3811 12.9676 24.3811ZM27.9778 17.5503C27.8858 14.7701 27.0201 10.7932 13.6858 10.5355C6.33726 10.3882 1.36456 13.8312 1.54873 17.403C1.73291 20.9749 5.49006 23.3684 13.1333 23.3684C23.6129 23.3684 28.0699 20.3305 27.9778 17.5503Z" fill="#85D353"/>
<path d="M14.3124 12.2845C10.7947 12.3029 5.08526 13.5917 4.53273 16.2798C4.05388 18.5997 7.11117 21.4535 14.6071 21.472C22.1214 21.472 25.8602 17.9737 25.3629 16.0405C24.6999 13.4628 21.3663 12.2477 14.3124 12.2845Z" fill="#DDF49F"/>
<path d="M12.7472 12.5054L12.6735 12.5422C12.3788 13.2234 12.563 14.1993 12.8945 14.9357C13.1892 15.5985 13.6496 16.4087 14.1838 16.9242C14.239 16.1141 14.2759 15.1382 13.9812 14.3834C13.7418 13.7574 13.3918 12.8552 12.7472 12.5054Z" fill="white"/>
<path d="M14.6994 16.777C15.9334 15.8933 17.1121 14.2546 17.02 12.7449C15.6019 13.7023 14.46 15.1752 14.46 16.8875L14.7547 16.7218C14.7362 16.7402 14.6994 16.7402 14.6994 16.777Z" fill="white"/>
<path d="M9.80032 16.9792C8.67685 17.1449 6.87195 17.3843 6.13525 18.2128C6.28259 18.4337 7.84806 18.6731 8.14274 18.6731C8.7321 18.6547 9.30307 18.6179 9.87402 18.5074C11.0527 18.2865 12.1762 17.8814 13.0603 17.1817C12.0105 16.8687 10.8685 16.8319 9.80032 16.9792Z" fill="white"/>
<path d="M10.04 20.7169C10.0953 20.7537 11.1635 20.5696 11.3477 20.4776C11.7345 20.275 12.1949 19.9436 12.508 19.6306C12.8211 19.336 13.079 18.931 13.2447 18.5443C13.3736 18.2313 13.3552 17.8999 13.4841 17.5869C12.9316 17.8079 10.2058 18.8757 10.04 20.7169Z" fill="white"/>
<path d="M18.4014 18.1946C17.9041 17.9736 15.1231 17.3108 14.9941 17.5133C15.1967 17.9736 16.7438 19.152 17.2411 19.4097C18.4935 20.0726 20.2063 20.0726 20.593 20.3303C20.4089 19.3545 19.3223 18.5812 18.4014 18.1946Z" fill="white"/>
<path d="M20.4455 15.8195C19.5614 15.8011 18.6406 15.8379 17.8118 16.0773C17.2224 16.243 16.1174 16.6112 15.749 16.9795C15.749 16.9795 16.541 17.0531 16.7988 17.0899C17.9407 17.2556 19.0826 17.4029 20.2613 17.3845C22.0846 17.3661 23.2081 16.8322 23.8343 16.6849C22.7109 16.1877 21.6795 15.8747 20.4455 15.8195Z" fill="white"/>
<path d="M4.09036 24.2705C4.25611 24.3257 4.42189 24.381 4.56923 24.473C4.73499 24.5467 4.91914 24.5099 5.01123 24.3441C5.10332 24.2153 5.06651 23.9943 4.90075 23.9023C4.69202 23.8041 4.47715 23.7181 4.25614 23.6445C4.09038 23.5893 3.90619 23.6997 3.86935 23.8654C3.8141 24.0496 3.9246 24.2153 4.09036 24.2705Z" fill="#85D353"/>
<path d="M5.63824 25.6146C5.82242 25.6699 6.00659 25.7435 6.19077 25.7988C6.35653 25.8356 6.54067 25.7435 6.57751 25.5778C6.63276 25.3937 6.52227 25.2096 6.35651 25.1728C6.17233 25.1175 6.00659 25.0439 5.82242 25.007C5.65666 24.9518 5.47249 25.0623 5.41724 25.228C5.38041 25.3937 5.47249 25.5778 5.63824 25.6146Z" fill="#85D353"/>
<path d="M6.42952 24.8966C6.66895 24.8966 6.88992 24.9703 7.12935 24.9887C7.31352 25.0071 7.46087 24.823 7.46087 24.6572C7.46087 24.4731 7.31352 24.3627 7.12935 24.3443C6.88992 24.3074 6.66895 24.2522 6.42952 24.2522C6.00592 24.2522 6.00592 24.8966 6.42952 24.8966Z" fill="#85D353"/>
<path d="M8.38201 26.5167C8.62144 26.5167 8.84244 26.5352 9.06345 26.5352C9.46864 26.5536 9.46864 25.8907 9.06345 25.8907C8.84244 25.8907 8.62144 25.8723 8.38201 25.8723C7.97683 25.8723 7.97683 26.5167 8.38201 26.5167Z" fill="#85D353"/>
<path d="M9.48719 25.3384C9.46263 25.3875 9.42582 25.4182 9.37671 25.4305C9.43196 25.4121 9.30304 25.4489 9.37671 25.4305C9.42582 25.4305 9.4749 25.4305 9.52402 25.4305C9.6161 25.4489 9.70819 25.4673 9.80028 25.4673C9.96604 25.4673 10.1134 25.32 10.1134 25.1359C10.1134 24.9518 9.96604 24.8229 9.80028 24.8229C9.48718 24.8045 9.13726 24.694 8.93466 25.0254C8.84258 25.1727 8.89785 25.3753 9.04519 25.4673C9.21094 25.5594 9.3951 25.4857 9.48719 25.3384Z" fill="#85D353"/>
<path d="M11.2551 26.701C11.4945 26.701 11.7339 26.5905 11.9549 26.6458C12.3601 26.7194 12.5259 26.0934 12.1207 26.0198C11.826 25.9461 11.5497 26.0566 11.2551 26.0382C10.8499 26.0198 10.8499 26.6826 11.2551 26.701Z" fill="#85D353"/>
<path d="M11.8629 25.412C12.047 25.4488 12.2496 25.4304 12.4338 25.3935C12.5995 25.3383 12.71 25.1542 12.6548 24.9885C12.5995 24.8228 12.4154 24.7123 12.2496 24.7675C12.225 24.7675 12.2005 24.7737 12.1759 24.786C12.1391 24.786 12.1452 24.786 12.1943 24.786C12.1698 24.786 12.1452 24.786 12.1207 24.786C12.0961 24.786 12.0716 24.786 12.047 24.786C12.1023 24.8044 11.9549 24.786 12.047 24.786C11.8629 24.7307 11.6786 24.8412 11.6418 25.0069C11.5866 25.1726 11.6971 25.3567 11.8629 25.412Z" fill="#85D353"/>
<path d="M16.7623 25.4488C17.0017 25.4488 17.2227 25.4303 17.4437 25.3935C17.6095 25.3567 17.7016 25.1542 17.6648 24.9885C17.6095 24.8043 17.4437 24.7307 17.2596 24.7675C17.0938 24.7859 16.9281 24.7859 16.7623 24.7859C16.5965 24.7859 16.4492 24.9332 16.4492 25.1173C16.4492 25.3014 16.5965 25.4488 16.7623 25.4488Z" fill="#85D353"/>
<path d="M14.2016 26.2406C14.349 26.2406 14.4902 26.2406 14.6253 26.2406C14.8094 26.2406 14.9567 26.0933 14.9567 25.9092C14.9567 25.7435 14.8094 25.5962 14.6253 25.5962C14.4902 25.5962 14.349 25.5962 14.2016 25.5962C14.0175 25.5962 13.8701 25.7435 13.8701 25.9092C13.8701 26.0933 14.0175 26.2406 14.2016 26.2406Z" fill="#85D353"/>
<path d="M20.7771 26.2958C20.8017 26.2835 20.8262 26.2774 20.8508 26.2774C20.8324 26.2774 20.7587 26.2958 20.8508 26.2774C20.9367 26.2774 21.0166 26.2651 21.0902 26.2406C21.256 26.2221 21.3665 26.0012 21.3112 25.8539C21.256 25.6698 21.0902 25.5962 20.9245 25.633C20.9061 25.633 20.814 25.633 20.906 25.633C20.8815 25.633 20.857 25.633 20.8324 25.633C20.7587 25.6453 20.6851 25.6575 20.6114 25.6698C20.4456 25.7066 20.3351 25.9092 20.3903 26.0749C20.4272 26.2406 20.6114 26.3326 20.7771 26.2958Z" fill="#85D353"/>
<path d="M0.646497 21.8217C0.671053 21.8462 0.68948 21.8708 0.701758 21.8954C0.646506 21.8217 0.701776 21.8953 0.720194 21.9138C0.74475 21.9629 0.775446 22.012 0.812281 22.0611C0.904369 22.2084 1.10694 22.2636 1.25428 22.1715C1.40162 22.0979 1.45689 21.8953 1.36481 21.7296C1.29114 21.6008 1.21744 21.4719 1.10693 21.3614C0.978012 21.2509 0.775419 21.2509 0.646497 21.3614C0.517574 21.4903 0.517574 21.6928 0.646497 21.8217Z" fill="#85D353"/>
<path d="M1.95448 22.724C2.0834 22.7608 2.17548 22.8345 2.26757 22.9081C2.41491 23.0186 2.6359 22.9449 2.70957 22.7976C2.74641 22.724 2.76486 22.6319 2.74644 22.5399C2.70961 22.4662 2.65435 22.411 2.59909 22.3558C2.48859 22.2821 2.39651 22.2085 2.28601 22.1532C2.21234 22.1164 2.13866 22.098 2.04657 22.1348C1.95448 22.1532 1.88079 22.2085 1.84396 22.2821C1.77029 22.411 1.80714 22.6503 1.95448 22.724Z" fill="#85D353"/>
<path d="M36.0449 12.4502C30.4092 9.41225 25.7496 7.57108 22.9501 8.95196C22.195 9.3386 21.2373 10.7011 20.8505 11.4375C18.18 16.4271 21.2004 21.1957 28.6779 25.0254C38.9365 30.3095 43.9277 29.0944 45.972 26.8113C47.0402 25.633 48.4031 22.9633 47.8874 21.1037C47.206 18.6918 43.3383 16.3719 36.0449 12.4502Z" fill="#608E43"/>
<path d="M37.1682 9.79899C30.0407 5.95095 23.4288 6.85311 21.8264 10.425C20.2057 14.0153 22.3237 18.5446 29.8012 22.3926C40.0782 27.6584 45.7876 26.4984 47.0952 23.7182C48.4213 20.9565 50.1157 16.7586 37.1682 9.79899Z" fill="#C1E476"/>
<path fill-rule="evenodd" clip-rule="evenodd" d="M29.8012 22.3926C22.3237 18.5446 20.2057 14.0153 21.8264 10.425C23.4288 6.85311 30.0407 5.95095 37.1682 9.79899C50.1157 16.7586 48.4213 20.9565 47.0952 23.7182C45.7876 26.4984 40.0782 27.6584 29.8012 22.3926ZM46.2849 23.1659C47.482 20.6435 48.5318 16.7034 36.7814 10.3882C30.2985 6.90835 24.3128 7.70006 22.8394 10.9589C21.3844 14.2178 23.6314 18.0658 30.409 21.5457C39.7467 26.3327 45.1062 25.6699 46.2849 23.1659Z" fill="#85D353"/>
<path d="M36.5235 12.2294C33.3925 10.6459 27.7383 9.17302 26.007 11.3272C24.5152 13.1684 25.9334 17.1085 32.6005 20.533C39.2677 23.976 44.2036 22.5583 44.6456 20.6251C45.235 18.0106 42.8222 15.4146 36.5235 12.2294Z" fill="#DDF49F"/>
<path d="M35.0324 11.7139H34.9588C34.3878 12.1926 34.1116 13.1316 34.0747 13.9417C34.0195 14.6782 34.0563 15.5987 34.2957 16.3168C34.7193 15.5987 35.1982 14.7518 35.2719 13.9601C35.3455 13.2789 35.456 12.3215 35.0324 11.7139Z" fill="white"/>
<path d="M34.829 16.409C36.3208 16.188 38.1073 15.2675 38.7335 13.8682C37.0391 14.0891 35.3447 14.8624 34.5527 16.3906H34.9026C34.8842 16.3906 34.8474 16.3722 34.829 16.409Z" fill="white"/>
<path d="M30.3725 14.3467C29.3043 13.9784 27.5914 13.3708 26.5601 13.7759C26.5785 14.0337 27.8493 14.9727 28.144 15.1015C28.6597 15.3409 29.1754 15.5802 29.7279 15.7459C30.8882 16.0774 32.0669 16.2431 33.172 16.0221C32.38 15.2672 31.4039 14.6965 30.3725 14.3467Z" fill="white"/>
<path d="M28.8804 17.7713C28.9172 17.8449 29.9486 18.1764 30.1328 18.1764C30.5932 18.1764 31.1457 18.0843 31.5693 17.9554C31.9929 17.8265 32.3981 17.5872 32.7112 17.311C32.9875 17.0901 33.1164 16.7771 33.3742 16.5745C32.7664 16.5193 29.8565 16.2247 28.8804 17.7713Z" fill="white"/>
<path d="M37.4814 19.3547C37.1315 18.9312 34.9582 17.0716 34.7556 17.2005C34.7187 17.6976 35.5476 19.4651 35.8791 19.9254C36.7079 21.0669 38.2181 21.8586 38.4391 22.2453C38.7153 21.3063 38.126 20.1095 37.4814 19.3547Z" fill="white"/>
<path d="M40.3727 18.1763C39.5992 17.7528 38.752 17.3662 37.9048 17.2005C37.3154 17.09 36.1735 16.9059 35.6763 17.0716C35.6763 17.0716 36.3393 17.4951 36.5419 17.6424C37.4812 18.3052 38.4389 18.968 39.5071 19.4835C41.1279 20.2937 42.3619 20.3489 42.9881 20.4962C42.2145 19.5388 41.4594 18.7839 40.3727 18.1763Z" fill="white"/>
<path d="M21.9741 18.2315C22.0846 18.3603 22.1951 18.4892 22.3056 18.6365C22.4161 18.7654 22.6003 18.8206 22.7476 18.7286C22.8949 18.6365 22.9502 18.4156 22.8581 18.2867C22.7231 18.0903 22.5696 17.9123 22.3977 17.7527C22.2872 17.6239 22.0661 17.6423 21.9556 17.7712C21.8267 17.9 21.8452 18.1026 21.9741 18.2315Z" fill="#85D353"/>
<path d="M22.729 20.1463C22.8764 20.2752 22.9869 20.4225 23.1342 20.5514C23.2631 20.6618 23.4657 20.6618 23.5946 20.533C23.7051 20.4041 23.7051 20.1831 23.5762 20.0727C23.4289 19.9438 23.3184 19.7965 23.171 19.6676C23.0421 19.5571 22.8395 19.5571 22.7106 19.686C22.6001 19.8149 22.6001 20.0358 22.729 20.1463Z" fill="#85D353"/>
<path d="M23.7601 19.8516C23.9627 19.9621 24.1468 20.1278 24.3494 20.2566C24.4968 20.3487 24.6994 20.2566 24.7731 20.1278C24.8651 19.9436 24.7915 19.7779 24.6441 19.6859C24.4415 19.557 24.2574 19.3913 24.0548 19.2808C23.6864 19.0783 23.3917 19.6675 23.7601 19.8516Z" fill="#85D353"/>
<path d="M24.7552 22.19C24.9578 22.3004 25.142 22.4109 25.3446 22.5214C25.7129 22.7055 26.0076 22.1347 25.6392 21.9506C25.4366 21.8402 25.2525 21.7297 25.0499 21.6192C24.6815 21.4167 24.3869 22.0059 24.7552 22.19Z" fill="#85D353"/>
<path d="M26.2837 21.656C26.2346 21.6806 26.1793 21.6867 26.118 21.6744C26.1916 21.6929 26.0627 21.656 26.1364 21.6744C26.1732 21.699 26.2162 21.7235 26.2653 21.7481C26.339 21.8033 26.4126 21.8586 26.4863 21.8954C26.6521 21.969 26.8546 21.9138 26.9283 21.7481C27.002 21.6008 26.9468 21.3983 26.781 21.3246C26.5232 21.1773 26.2469 20.9196 25.9338 21.1037C25.768 21.1957 25.7312 21.4167 25.8233 21.5455C25.9338 21.7113 26.1179 21.7481 26.2837 21.656Z" fill="#85D353"/>
<path d="M27.2415 23.6628C27.4257 23.7732 27.702 23.7917 27.8862 23.9205C28.1993 24.1967 28.6412 23.718 28.3097 23.4418C28.0887 23.2577 27.794 23.2209 27.5362 23.092C27.1679 22.8711 26.8732 23.4603 27.2415 23.6628Z" fill="#85D353"/>
<path d="M28.3647 22.7976C28.4936 22.9081 28.6962 23.0001 28.8804 23.037C29.0461 23.0554 29.2119 22.9633 29.2487 22.7792C29.2856 22.6135 29.175 22.4294 29.0093 22.3926C28.9725 22.3926 28.9418 22.3864 28.9172 22.3741C28.8804 22.3619 28.8865 22.3619 28.9356 22.3741C28.9111 22.3741 28.8927 22.368 28.8804 22.3557C28.8558 22.3434 28.8313 22.3312 28.8067 22.3189C28.8436 22.3557 28.7146 22.2637 28.8067 22.3189C28.6778 22.19 28.4568 22.2084 28.3463 22.3373C28.2174 22.4662 28.2358 22.6687 28.3647 22.7976Z" fill="#85D353"/>
<path d="M32.7116 25.0623C32.9142 25.1544 33.1168 25.2464 33.3378 25.3201C33.5035 25.3569 33.6877 25.228 33.7061 25.0623C33.743 24.8782 33.6324 24.7309 33.4667 24.6756C33.3009 24.6388 33.1536 24.5652 33.0062 24.4915C32.8405 24.3995 32.6563 24.4731 32.5642 24.6204C32.4906 24.7861 32.5458 24.9702 32.7116 25.0623Z" fill="#85D353"/>
<path d="M30.0592 24.6019C30.182 24.6633 30.3109 24.7247 30.446 24.786C30.5933 24.8781 30.7959 24.8044 30.8696 24.6571C30.9617 24.4914 30.888 24.2889 30.7407 24.2152C30.6056 24.1539 30.4767 24.0864 30.3539 24.0127C30.1882 23.9391 30.004 23.9943 29.9119 24.16C29.8382 24.3257 29.8935 24.5098 30.0592 24.6019Z" fill="#85D353"/>
<path d="M35.8975 27.6583C35.9098 27.6583 35.9282 27.6644 35.9527 27.6767C35.9343 27.6583 35.8606 27.6399 35.9527 27.6767C36.0264 27.7013 36.1001 27.7258 36.1738 27.7504C36.3579 27.8056 36.5237 27.6583 36.5605 27.4926C36.5973 27.3085 36.4868 27.1612 36.3211 27.1244C36.3026 27.1059 36.2106 27.0875 36.3027 27.106C36.2781 27.106 36.2535 27.0998 36.229 27.0875C36.1676 27.063 36.1001 27.0384 36.0264 27.0139C35.8607 26.9771 35.6765 27.106 35.6396 27.2717C35.6028 27.4374 35.7317 27.6031 35.8975 27.6583Z" fill="#85D353"/>
<path d="M20.0214 14.4756C20.0214 14.5124 20.0276 14.5431 20.0399 14.5676C20.0215 14.4756 20.0399 14.5676 20.0399 14.5861C20.0399 14.6474 20.046 14.7088 20.0583 14.7702C20.0583 14.9543 20.224 15.0832 20.3898 15.0832C20.574 15.0648 20.7029 14.9175 20.7029 14.7333C20.6845 14.5861 20.6661 14.4388 20.6292 14.2915C20.574 14.1258 20.3898 14.0153 20.224 14.0705C20.0583 14.1258 19.9662 14.3099 20.0214 14.4756Z" fill="#85D353"/>
<path d="M20.7766 15.8748C20.8502 15.9669 20.9055 16.0774 20.9607 16.1878C21.0344 16.3535 21.2738 16.372 21.4027 16.2983C21.4764 16.2431 21.5317 16.1694 21.5501 16.0774C21.5685 15.9853 21.5501 15.9301 21.5133 15.838C21.458 15.7276 21.4028 15.6171 21.3291 15.525C21.2738 15.4698 21.2186 15.4146 21.1265 15.3961C21.0344 15.3777 20.9423 15.3961 20.8687 15.433C20.7397 15.525 20.6661 15.746 20.7766 15.8748Z" fill="#85D353"/>
<path d="M24.5527 22.7241L24.9947 25.3754C24.9947 25.3754 25.5841 25.1177 26.0998 24.7862C26.6155 24.4732 27.0759 24.2707 27.0759 24.2707L24.5527 22.7241Z" fill="#507538"/>
</svg>
