<svg width="48" height="29" viewBox="0 0 48 29" fill="none" xmlns="http://www.w3.org/2000/svg">
<path d="M45.6681 14.0847C44.5545 13.1401 43.126 12.7916 42.0237 11.9145C40.8427 10.9812 40.269 11.2848 39.8978 10.0142C38.5818 5.53889 31.0907 2.93018 27.3001 2.30049C24.3868 1.82822 20.9787 1.96315 18.2679 2.75027L15.8384 3.23377C13.5438 3.12132 10.2369 3.9759 8.25723 5.21279C5.67019 6.83199 5.59145 8.83352 4.34292 11.3073C2.93692 14.1072 0.0349381 16.0075 0.349882 19.5495C0.777306 24.2946 5.45647 24.8794 9.22455 25.7114C10.8105 26.06 12.0928 26.4086 13.7013 26.4761C15.8721 26.566 17.6156 27.2857 19.7189 27.6455C23.2171 28.2414 27.2888 28.7812 30.8545 28.7475C36.3097 28.68 45.803 27.1845 47.6477 21.0225C48.4688 18.2564 47.8727 15.9513 45.6681 14.0847Z" fill="#E2CFAC"/>
<path d="M45.3531 13.039C44.2283 12.0833 42.8111 11.7347 41.6975 10.8688C40.5277 9.92431 40.764 9.10347 40.3928 7.83284C39.0768 3.3463 30.7757 1.87328 26.9852 1.25483C24.0607 0.782566 20.6525 0.917499 17.9418 1.70461L15.5235 2.18813C13.2176 2.07568 9.9107 2.93026 7.93106 4.16715C5.35527 5.77511 5.26528 7.78786 4.01675 10.2616C2.61075 13.0503 -0.291234 14.9506 0.0237101 18.4926C0.451134 23.249 5.1303 23.8337 8.89838 24.6546C10.4843 25.0031 11.7666 25.363 13.3863 25.4304C15.546 25.5204 17.3006 26.24 19.3928 26.5998C22.8909 27.1846 26.9627 27.7355 30.5283 27.6906C35.9836 27.6343 45.4769 26.1388 47.3215 19.9769C48.1539 17.1995 47.5465 14.9056 45.3531 13.039Z" fill="#F9F1B7"/>
<path opacity="0.9" d="M40.3025 7.56281C38.6378 3.39112 30.8767 1.40085 27.1986 0.793651C24.2741 0.321384 20.866 0.456318 18.1552 1.24343L15.7369 1.72693C13.4311 1.61449 10.1242 2.46908 8.1445 3.70597C6.53604 4.70673 5.8949 5.8649 5.34375 7.20299C6.43481 5.6625 7.40213 4.7292 8.38071 4.36938C10.9003 3.42485 12.0813 3.52606 14.0497 3.42486C18.4702 3.21121 22.7556 3.04254 27.1199 2.8289C30.6405 2.64898 34.0486 2.96382 37.0856 4.81916C37.8505 5.28018 39.3577 6.31468 40.3025 7.56281Z" fill="#EDE3B7"/>
<path d="M12.5316 8.15896C12.5991 9.37336 15.4449 12.9154 23.1048 13.0053C31.2596 13.084 34.5665 9.68821 34.4877 7.75416C34.409 5.82011 33.1155 -0.22941 23.1048 0.00672373C15.996 0.186635 12.2954 3.23388 12.5316 8.15896Z" fill="#FFBE00"/>
<path d="M34.4086 7.67548C34.3636 6.59602 33.9362 4.24593 31.8553 2.41309C32.6426 3.76242 32.8451 5.08926 32.8788 5.82015C32.9576 7.7542 29.6507 11.15 21.4959 11.0601C16.9854 11.0151 14.1509 9.76696 12.5537 8.50758C13.1274 9.96936 14.6346 13.264 23.0256 13.4102C32.7889 13.5676 34.4873 9.60953 34.4086 7.67548Z" fill="#FFA21A"/>
<path d="M20.9564 1.24345C20.9564 1.24345 18.9092 1.14225 16.9183 2.75021C14.9387 4.35817 14.5 5.87616 14.5 5.87616L16.9746 6.84319C16.9746 6.84319 16.8621 5.44888 18.583 3.71723C20.1465 2.1655 21.9799 1.78318 21.9799 1.78318L20.9564 1.24345Z" fill="#FFDD33"/>
<path d="M33.2614 20.3481C31.6642 19.8533 29.4146 19.3361 28.9984 17.4358C28.8522 16.8061 32.1478 15.423 30.1344 14.7821C28.2785 14.1861 24.9603 16.4687 16.7268 14.1524C14.466 13.5115 11.5415 13.1516 10.8441 10.5767C10.5742 9.60964 10.5404 7.93421 9.29189 7.61936C7.73967 7.22581 7.73967 8.87874 7.43597 9.76705C7.31224 9.74456 7.42473 9.67711 7.36849 9.60964V10.2618C7.57095 13.354 2.09317 16.019 4.11781 19.2124C5.00641 20.6292 6.81733 20.9441 8.33581 21.1352C9.2694 21.2477 10.1355 21.1577 11.0578 21.1465C12.3739 21.1465 14.466 20.4605 15.7707 20.5955C21.0235 21.1352 24.5442 24.2949 29.8195 24.7109C31.8329 24.8571 35.286 25.8579 36.0059 23.5078C36.647 21.4051 34.8811 20.8429 33.2614 20.3481Z" fill="white"/>
</svg>
