<svg width="48" height="32" viewBox="0 0 48 32" fill="none" xmlns="http://www.w3.org/2000/svg">
<path d="M24.4595 8.83766C22.8019 9.89939 21.1741 10.8123 19.5661 11.9137C17.71 13.1937 16.0027 13.3525 13.4319 12.8266C12.2805 12.5884 11.1391 12.4198 9.96783 12.2114C9.28294 12.0923 7.06948 11.1695 6.56326 11.6061C6.47724 11.5995 6.40113 11.6193 6.33496 11.6656C7.19851 12.6777 10.1564 13.1143 11.4865 13.4418L15.6752 14.2753C20.9756 15.3073 22.2461 22.2929 25.1146 25.6467C25.9385 26.6192 27.4671 28.4846 26.7127 25.5872C26.4745 24.6942 25.5712 23.6225 25.1047 22.7791C24.3901 21.4693 19.9929 16.9644 21.4222 16.2003C22.0773 15.8431 24.5191 17.401 25.1246 18.0261C26.3256 19.2763 26.9013 20.2389 27.3182 21.767C27.9236 23.9698 28.2512 25.746 29.5019 27.7404C29.9584 28.4747 31.9833 30.102 32.559 29.8936C32.9362 29.7647 31.8146 27.0161 31.5168 26.2619C30.683 24.2079 29.2537 22.3325 28.2413 20.3282C27.8542 19.5641 24.9459 16.0019 28.2413 17.6589C29.2537 18.165 30.1868 18.3833 30.7625 18.9191C33.8692 21.767 35.7154 31.7194 36.9859 31.1141C38.8222 30.2409 33.1645 19.8419 33.3134 19.4649C33.76 18.3238 35.6956 20.3678 36.1819 20.864C37.4127 22.1341 38.5443 22.9279 39.9637 24.0194C41.6511 25.3094 43.7951 26.5596 45.9192 26.6489C50.3263 26.8474 46.7133 23.553 44.4105 22.5707C42.6338 21.8166 35.0206 19.2565 33.8395 17.6292C33.4524 17.0934 34.5839 16.7857 35.8048 16.5079C36.3507 16.3888 45.1351 14.9897 43.7851 14.057C40.8272 12.6281 34.2563 16.6171 30.693 16.5377C29.9783 16.5278 26.1668 15.9225 26.2561 14.9004C26.3256 14.0471 29.4522 13.8189 30.1371 13.6601C31.4275 13.3624 35.646 11.8442 36.1621 11.1993C37.512 9.49255 31.0801 11.0802 30.2959 11.4275C28.142 12.3801 26.3752 13.2433 23.993 13.7891C23.5166 13.9082 21.323 14.5829 21.1046 13.6303C20.9061 12.7869 22.7622 11.6458 23.3181 11.4771C24.6283 11.0802 27.4373 9.2941 28.2413 7.95453C29.3232 6.15852 25.2437 8.34152 24.4595 8.83766Z" fill="#5F8C3B"/>
<path d="M12.7769 2.82438C12.0225 4.44178 11.2086 5.8905 10.5138 7.52775C9.71975 9.42299 8.45916 10.1573 6.18615 10.4946C5.16378 10.6435 4.18113 10.8519 3.15877 11.0503C2.56322 11.1595 -0.384747 10.5641 0.0420635 11.7251C0.687243 13.8882 3.76425 11.8838 4.9752 11.7548L8.6676 11.1793C13.3427 10.4153 17.8887 16.9146 21.8293 19.2663C22.9707 19.951 24.1023 20.0899 23.0501 18.671C22.4447 17.8474 21.1642 17.1131 20.3702 16.4284C19.1394 15.3766 13.4221 12.38 14.1367 11.1495C14.4742 10.574 17.174 11.2984 17.9681 11.7151C19.5463 12.5387 20.4793 13.3028 21.591 14.682C23.1792 16.6566 24.7078 18.413 26.6929 19.9808C27.4274 20.5563 28.549 21.3997 28.8567 20.3777C29.095 19.5938 27.7748 18.3733 27.1495 17.7283C25.4621 15.972 23.3876 14.5927 21.5712 12.9456C20.8863 12.3204 16.7969 9.76036 20.2213 10.2962C21.2635 10.4549 22.1072 10.3656 22.8318 10.703C26.7028 12.4792 26.7624 14.9698 29.095 17.0635C29.899 17.7878 33.77 22.0745 33.8892 20.6952C34.048 18.8694 25.1743 10.8122 25.1048 10.3756C24.8666 9.09554 28.1719 10.3855 28.8071 10.7229C30.4151 11.5663 36.5691 12.7868 38.4451 12.5288C43.1103 11.864 38.1473 10.5046 35.5766 9.74052C33.2341 9.04593 30.2761 8.66886 27.7649 8.75816C26.8517 8.78793 22.3057 9.35353 25.5515 6.61486C25.9187 6.30726 31.368 3.07245 30.9511 1.91149C26.9014 1.32605 24.4 7.24992 21.5613 8.37118C21.0054 8.58948 17.71 9.27415 17.2634 8.23226C16.8862 7.36899 19.2088 6.08895 19.6654 5.70197C20.529 4.96769 23.0501 2.05041 23.1295 1.22683C23.3181 -0.906556 19.0897 2.82439 18.6629 3.42967C17.452 5.10661 16.5189 6.55533 14.9308 7.89489C14.6132 8.17273 13.2434 9.58175 12.5883 8.70855C12.0027 7.9445 12.8761 6.17826 13.2236 5.83096C14.0474 4.99746 15.3378 2.28856 15.2881 0.681078C15.2187 -1.46223 13.1342 2.07026 12.7769 2.82438Z" fill="#5EB53E"/>
<path d="M0.895581 12.3999C1.38195 12.5289 2.33483 12.0724 2.78149 11.993C3.40682 11.8839 3.89318 11.5168 4.51851 11.4274C5.84857 11.2488 7.16872 11.0405 8.49878 10.8519C11.2681 10.4649 14.1267 10.336 16.9556 10.1276C19.6157 9.92912 22.2957 9.80012 25.0154 9.83982C27.7847 9.88943 30.5937 10.1772 33.3928 10.5344C35.2092 10.7726 37.0554 10.9809 38.852 11.5168C38.9909 11.5564 40.1026 11.8442 40.1126 11.745C40.1324 11.6557 39.0108 11.2885 38.8619 11.2389C36.2415 10.4649 33.5913 10.1375 30.951 9.85966C28.1619 9.56198 25.4124 9.3933 22.6729 9.43299C19.9532 9.4826 17.2732 9.68105 14.6032 9.89935C13.1937 10.0085 11.7842 10.078 10.3847 10.2169C9.02485 10.3558 7.7047 10.5741 6.37464 10.7626C5.48131 10.8916 4.57806 11.0008 3.69466 11.1298C2.95022 11.2389 1.51099 11.2588 0.776476 11.3878C0.498553 11.4274 0.895581 12.3999 0.895581 12.3999Z" fill="#80CE36"/>
<path d="M8.51848 10.7227C8.92543 10.9013 9.2927 10.5143 9.52099 10.3258C9.91803 9.98843 10.2555 9.60145 10.6227 9.23431C11.7245 8.13289 13.1141 4.95762 13.1439 3.36006C13.1539 3.10207 12.6278 4.88816 12.4193 5.3446C11.8337 6.63456 11.387 7.64667 10.4739 8.7084C10.1959 9.03585 9.88825 9.33354 9.59047 9.63122C9.42504 9.78998 9.25629 9.94543 9.08424 10.0976C9.01476 10.1571 8.24055 10.6036 8.51848 10.7227Z" fill="#80CE36"/>
<path d="M11.4466 10.425C11.9826 10.9807 12.5682 11.4967 13.1936 11.973C13.4318 12.1516 15.943 13.898 15.7048 13.7095C15.1092 13.2629 12.3002 10.7525 11.794 10.2266C11.5856 10.0182 11.2382 10.2167 11.4466 10.425Z" fill="#80CE36"/>
<path d="M16.5188 10.2564C17.0746 10.5343 17.5808 10.8816 18.1069 11.2189C18.355 11.3777 20.6281 12.628 20.3799 12.4593C19.8241 12.112 17.2632 10.1969 16.6677 9.90914C16.3997 9.77022 16.2408 10.1175 16.5188 10.2564Z" fill="#80CE36"/>
<path d="M14.6726 10.3061C15.8836 9.64131 17.1839 7.58731 17.4122 6.29735C17.4519 6.04928 16.9357 6.8431 16.6975 7.23009C16.0424 8.23228 15.5064 9.34362 14.3848 9.94891C14.1565 10.0779 14.4443 10.4252 14.6726 10.3061Z" fill="#80CE36"/>
<path d="M21.1543 9.85941C22.3255 9.15489 24.2412 7.41842 24.9757 6.33684C25.1147 6.13839 24.0725 6.95205 23.9335 7.15051C23.2089 8.21224 22.0079 8.82744 20.8565 9.51211C20.6381 9.64111 20.926 9.9884 21.1543 9.85941Z" fill="#80CE36"/>
<path d="M22.8812 9.9091C23.4668 10.4648 24.2609 10.8021 24.8068 11.3975C24.8961 11.5067 26.0674 12.6577 26.1468 12.6081C26.2361 12.5585 25.1741 11.4074 25.0748 11.2983C24.4991 10.6731 23.7547 10.2068 23.1393 9.63126C22.9209 9.42289 22.6628 9.71064 22.8812 9.9091Z" fill="#80CE36"/>
</svg>
