<svg width="48" height="23" viewBox="0 0 48 23" fill="none" xmlns="http://www.w3.org/2000/svg">
<path d="M33.9049 0.635595C33.9049 0.635595 29.3825 3.11525 29.345 3.22796C29.3074 3.34067 30.1592 5.56985 30.1592 5.56985L30.5225 6.63435C30.5225 6.63435 29.4452 8.37513 29.4702 8.48784C29.4953 8.60055 31.3118 11.8441 31.4245 11.8817C31.5372 11.9193 36.7362 14.2988 36.8238 14.2737C36.9115 14.2487 39.8555 13.0715 39.8931 12.9838C39.9181 12.8961 40.8702 11.2681 40.8702 11.2681L44.1274 11.6688C44.1274 11.6688 46.044 10.7045 46.1067 10.6168C46.1693 10.5417 47.0713 7.99942 47.0713 7.99942L45.4678 5.20668L43.2254 3.84162L39.7678 3.91675L38.5025 1.72514L35.8217 0.5354L33.9049 0.635595Z" fill="#709137"/>
<path d="M47.7728 7.78642C47.184 5.90789 46.8208 5.92041 46.8208 5.92041L46.2946 9.20157L43.977 11.318L41.2084 10.8296L39.3418 12.8459L34.4812 13.422L31.7377 12.2072L29.7834 10.1784L29.2698 8.24978L31.0361 6.67182L31.9757 6.22098L29.3324 4.95611L28.5807 3.21533C28.5306 3.34057 27.779 4.68058 27.779 4.68058C27.779 4.68058 27.3155 5.20657 28.1548 6.47145C28.7561 7.37314 29.5704 7.66118 29.5704 7.66118C29.5704 7.66118 28.9441 7.34809 28.4931 8.38754C28.0295 9.41447 27.3155 10.2911 27.5285 11.0801C27.8041 12.107 28.8689 13.9355 31.1489 15C33.6794 16.1772 36.0596 17.0163 38.277 16.2022C40.7324 15.288 41.3588 13.8854 41.3588 13.8854C41.3588 13.8854 42.4862 14.2861 43.6513 14.1859C45.117 14.0732 46.47 13.1214 47.0588 12.2323C47.6601 11.3306 48.3741 9.71504 47.7728 7.78642Z" fill="#709137"/>
<path fill-rule="evenodd" clip-rule="evenodd" d="M45.5306 12.0194C43.3884 13.6099 41.1334 12.082 41.1334 12.082C41.1334 12.082 40.0561 14.1108 38.0767 14.449C36.3103 14.737 31.7754 13.8854 29.1572 10.9925C26.7895 8.40009 30.3598 6.44642 30.3598 6.44642C30.3598 6.44642 28.7813 6.03314 28.4431 4.2548C28.1048 2.47646 30.8985 1.13644 32.4769 0.497739C34.6442 -0.378908 36.6736 0.00933076 38.2145 0.835884C39.5925 1.57477 40.3442 3.44077 40.3442 3.44077C40.3442 3.44077 43.3633 2.30113 46.2196 4.98117C48.9255 7.51092 47.5976 10.479 45.5306 12.0194ZM44.1149 4.7307C42.0229 3.71629 39.9934 4.98117 39.9934 4.98117L38.6905 4.46771C38.6905 4.46771 39.2418 3.00244 37.6257 1.87533C35.8468 0.635498 33.3037 1.31178 31.8631 1.88786C30.4099 2.47647 29.5455 3.92919 29.8837 4.7307C30.2094 5.54473 32.5646 5.85782 32.5646 5.85782L32.715 7.00997C32.715 7.00997 30.673 7.16026 30.1594 8.61299C29.6833 9.96553 31.5624 11.6437 33.9677 12.5454C36.4481 13.4721 38.7407 12.6205 39.5048 11.8441C40.5196 10.8171 39.8556 9.85282 39.8556 9.85282L41.0583 9.31431C41.0583 9.31431 42.311 10.9298 43.8769 10.7921C44.6411 10.7169 45.2549 10.2661 45.7686 9.18907C46.5578 7.4984 45.4804 5.40697 44.1149 4.7307Z" fill="#B7C94B"/>
<path d="M32.6522 8.5753C32.6522 8.5753 33.8799 8.52522 34.168 8.28727C34.4687 8.06185 34.3684 6.52145 34.3684 6.52145L33.2284 6.35864L32.7148 7.00986L32.0634 7.38557L32.3014 7.68613L31.8003 8.12446L32.4142 8.06184L31.9632 8.45007L32.6522 8.5753Z" fill="#D6A374"/>
<path d="M34.3681 6.52166C34.3556 6.12091 32.5642 5.85791 32.5642 5.85791L31.8751 6.03324L32.276 6.27119L31.8501 6.44651C31.8501 6.44651 32.2009 6.67193 32.276 6.69698C32.3637 6.72203 31.8751 6.88483 31.8751 6.88483L32.7145 7.01007C32.7145 7.01007 34.3806 6.92242 34.3681 6.52166Z" fill="#F2B981"/>
<path d="M39.4795 8.46265C39.4795 8.46265 38.6777 9.00116 38.6401 9.35181C38.6026 9.715 39.1162 10.3537 39.1913 10.5666C39.279 10.7795 39.6048 11.1427 39.6048 11.1427L39.6173 10.504L39.7676 10.767L39.73 10.0782L39.9054 10.3913L40.0808 9.90285L39.4795 8.46265Z" fill="#D6A374"/>
<path d="M41.0079 10.2286L40.9452 9.77778L41.3336 10.1034L41.058 9.3144C41.058 9.3144 40.369 8.31251 39.6674 8.37513C38.9784 8.42523 39.8553 9.85291 39.8553 9.85291L40.2186 10.6294L40.156 10.0157L40.6822 10.454C40.6822 10.454 40.5694 9.97815 40.4942 9.92805C40.4316 9.86544 41.0079 10.2286 41.0079 10.2286Z" fill="#F2B981"/>
<path d="M38.4522 4.79321C38.4522 4.79321 37.7882 6.19584 37.7381 6.38369C37.7005 6.57155 37.7256 7.13511 38.1264 7.2353C38.5399 7.33549 39.0159 7.03493 39.2539 6.78446C39.4919 6.52146 39.968 5.0562 39.968 5.0562L38.4522 4.79321Z" fill="#D6A374"/>
<path d="M39.8053 4.64292L39.8554 4.22964L39.4921 4.56777L39.5547 4.02927L39.2415 4.37992L39.1789 3.86646L38.6903 4.46759C38.6903 4.46759 37.9387 5.29414 38.7655 5.65733C39.5923 6.00798 39.9932 4.98105 39.9932 4.98105L40.2688 4.35488L39.8053 4.64292Z" fill="#F2B981"/>
<path d="M38.352 5.20676C37.8133 5.26937 33.6292 5.6075 33.6668 6.49667C33.7169 7.39836 38.9158 9.30194 39.6048 9.18923C40.5694 9.02642 39.9054 6.12096 39.3918 5.63254C38.8782 5.1316 38.9533 5.13161 38.352 5.20676Z" fill="#F2B981"/>
<path d="M33.817 6.85962L33.6792 8.43758C33.6792 8.43758 34.3056 8.96357 35.9467 9.5146C37.5753 10.0531 39.041 10.2785 39.041 10.2785L39.6047 9.18899C39.6047 9.18899 38.6401 8.88843 36.6983 8.29982C34.744 7.6987 33.817 6.85962 33.817 6.85962Z" fill="#D6A374"/>
<path d="M32.0883 4.05448C32.0883 4.05448 31.9631 4.90609 32.7899 5.51974C33.2659 5.8704 34.3683 6.12086 34.3683 6.12086C34.3683 6.12086 34.2681 5.3945 33.8672 4.95618C32.9527 3.96682 32.0883 4.05448 32.0883 4.05448Z" fill="#F2B981"/>
<path d="M38.164 8.82593C38.164 8.82593 37.4625 9.31435 37.5753 10.3288C37.6504 10.9299 38.2141 11.8942 38.2141 11.8942C38.2141 11.8942 38.6777 11.3306 38.7278 10.742C38.828 9.40202 38.164 8.82593 38.164 8.82593Z" fill="#F2B981"/>
<path d="M34.4185 7.24797C34.4185 7.24797 33.5917 7.01003 32.8651 7.7364C32.4517 8.14967 32.0508 9.20164 32.0508 9.20164C32.0508 9.20164 32.7774 9.21417 33.2659 8.87603C34.3684 8.12462 34.4185 7.24797 34.4185 7.24797Z" fill="#F2B981"/>
<path d="M36.2852 8.18726C36.2852 8.18726 35.3205 8.17474 34.7443 9.17663C34.4186 9.76523 34.2808 11.0426 34.2808 11.0426C34.2808 11.0426 35.0825 10.8422 35.5085 10.3288C36.4981 9.1641 36.2852 8.18726 36.2852 8.18726Z" fill="#F2B981"/>
<path d="M35.2199 7.74904C35.2199 7.74904 34.3555 7.61129 33.7416 8.42532C33.3783 8.90121 33.1152 9.99076 33.1152 9.99076C33.1152 9.99076 33.8418 9.90309 34.2803 9.51486C35.2825 8.61316 35.2199 7.74904 35.2199 7.74904Z" fill="#F2B981"/>
<path d="M37.5378 8.53784C37.5378 8.53784 36.686 8.66307 36.3352 9.62738C36.1222 10.1784 36.1849 11.3055 36.1849 11.3055C36.1849 11.3055 36.8614 11.005 37.162 10.504C37.8636 9.35187 37.5378 8.53784 37.5378 8.53784Z" fill="#F2B981"/>
<path d="M33.4915 3.62853C33.4915 3.62853 33.3788 4.49267 34.2056 5.09379C34.6816 5.44445 35.7715 5.69492 35.7715 5.69492C35.7715 5.69492 35.6838 4.96856 35.2829 4.53024C34.3684 3.5534 33.4915 3.62853 33.4915 3.62853Z" fill="#F2B981"/>
<path d="M35.2952 2.87744C35.2952 2.87744 34.8567 3.62885 35.3954 4.5055C35.7086 5.00644 36.6231 5.64515 36.6231 5.64515C36.6231 5.64515 36.811 4.94384 36.6106 4.3928C36.1346 3.12792 35.2952 2.87744 35.2952 2.87744Z" fill="#F2B981"/>
<path d="M36.5858 2.95215C36.5858 2.95215 36.2476 3.74112 36.874 4.54263C37.2373 5.01852 38.2144 5.55703 38.2144 5.55703C38.2144 5.55703 38.3271 4.83067 38.0641 4.30468C37.4502 3.10242 36.5858 2.95215 36.5858 2.95215Z" fill="#F2B981"/>
<path d="M39.4922 5.85784C39.4922 5.85784 40.1561 6.20851 41.2084 5.95804C41.8223 5.80775 42.6867 5.39448 42.6867 5.39448C42.6867 5.39448 42.0603 4.9812 41.4465 5.01877C40.0434 5.09391 39.4922 5.85784 39.4922 5.85784Z" fill="#F2B981"/>
<path d="M40.0059 8.04949C40.0059 8.04949 40.2564 8.90109 41.3087 9.10147C41.9226 9.22671 43.1001 8.97624 43.1001 8.97624C43.1001 8.97624 42.6993 8.33753 42.123 8.11211C40.8202 7.59864 40.0059 8.04949 40.0059 8.04949Z" fill="#F2B981"/>
<path d="M39.7178 7.37319C39.7178 7.37319 40.269 7.73638 41.3463 7.77395C42.0354 7.799 43.0501 7.34815 43.0501 7.34815C43.0501 7.34815 42.2233 6.87226 41.6094 6.90983C40.1938 6.98497 39.7178 7.37319 39.7178 7.37319Z" fill="#F2B981"/>
<path d="M39.6675 6.49643C39.6675 6.49643 40.2187 6.87214 41.2961 6.90971C41.9725 6.93476 42.9873 6.48391 42.9873 6.48391C42.9873 6.48391 42.173 5.9955 41.5466 6.03307C40.1435 6.10821 39.6675 6.49643 39.6675 6.49643Z" fill="#F2B981"/>
<path d="M17.9948 2.53916C17.9948 2.53916 13.4724 5.01881 13.4348 5.13152C13.3972 5.24424 14.2491 7.46091 14.2491 7.46091L14.6124 8.52541C14.6124 8.52541 13.535 10.2662 13.5601 10.3914C13.5851 10.5041 15.4016 13.7477 15.5143 13.7853C15.6271 13.8229 20.826 16.1898 20.9137 16.1773C21.0014 16.1522 23.9453 14.9625 23.9829 14.8874C24.008 14.7997 24.9601 13.1591 24.9601 13.1591L28.2297 13.5599C28.2297 13.5599 30.1339 12.5955 30.1965 12.5204C30.2592 12.4327 31.1612 9.903 31.1612 9.903L29.5576 7.11025L27.3278 5.74518L23.8576 5.82032L22.5924 3.6287L19.9115 2.43896L17.9948 2.53916Z" fill="#709137"/>
<path d="M31.8627 9.67771C31.2739 7.8117 30.9106 7.82422 30.9106 7.82422L30.397 11.0929L28.0668 13.2219L25.2983 12.7335L23.4317 14.7372L18.571 15.3133L15.8275 14.111L13.8732 12.0822L13.3596 10.1536L15.126 8.56311L16.0655 8.11227L13.4348 6.85991L12.6706 5.11914C12.6205 5.23185 11.8688 6.5844 11.8688 6.5844C11.8688 6.5844 11.4053 7.11038 12.2447 8.37526C12.846 9.27695 13.6603 9.56499 13.6603 9.56499C13.6603 9.56499 13.0339 9.25191 12.5829 10.2788C12.1194 11.3183 11.4053 12.1949 11.6183 12.9839C11.9064 13.9983 12.9587 15.8393 15.2513 16.8913C17.7693 18.0685 20.1495 18.9201 22.3668 18.0935C24.8222 17.1918 25.4486 15.7892 25.4486 15.7892C25.4486 15.7892 26.5761 16.1899 27.7411 16.0897C29.2069 15.9645 30.5598 15.0253 31.1486 14.1236C31.7499 13.2344 32.464 11.6189 31.8627 9.67771Z" fill="#709137"/>
<path fill-rule="evenodd" clip-rule="evenodd" d="M29.6204 13.9232C27.4907 15.5137 25.2232 13.9733 25.2232 13.9733C25.2232 13.9733 24.1584 16.0146 22.1666 16.3402C20.4002 16.6408 15.8778 15.7892 13.247 12.8963C10.8793 10.3039 14.4496 8.35023 14.4496 8.35023C14.4496 8.35023 12.8712 7.92443 12.5329 6.14609C12.1947 4.38027 14.9883 3.04025 16.5668 2.40155C18.7466 1.52491 20.7635 1.91313 22.3169 2.73968C23.6949 3.47857 24.434 5.34458 24.434 5.34458C24.434 5.34458 27.4531 4.20494 30.3094 6.87245C33.0153 9.41472 31.6874 12.3703 29.6204 13.9232ZM28.2048 6.6345C26.1252 5.60757 24.0958 6.87245 24.0958 6.87245L22.7929 6.35899C22.7929 6.35899 23.3441 4.90626 21.7156 3.76662C19.9367 2.52679 17.4061 3.20306 15.9529 3.79166C14.4997 4.38027 13.6353 5.82047 13.9736 6.6345C14.2993 7.44853 16.667 7.76161 16.667 7.76161L16.8048 8.91379C16.8048 8.91379 14.7628 9.06406 14.2492 10.5043C13.7732 11.8568 15.6523 13.5475 18.0575 14.4367C20.538 15.3759 22.8305 14.5243 23.5947 13.7479C24.6094 12.7209 23.9455 11.7441 23.9455 11.7441L25.1481 11.2056C25.1481 11.2056 26.4008 12.8211 27.9668 12.6834C28.731 12.6207 29.3448 12.1699 29.8584 11.0929C30.6476 9.40221 29.5703 7.31077 28.2048 6.6345Z" fill="#B7C94B"/>
<path d="M16.7417 10.4791C16.7417 10.4791 17.9694 10.4165 18.2575 10.1911C18.5582 9.95313 18.4579 8.41274 18.4579 8.41274L17.318 8.26245L16.8043 8.91368L16.1529 9.28939L16.3909 9.57742L15.9023 10.0157L16.5037 9.96566L16.0527 10.3539L16.7417 10.4791Z" fill="#D6A374"/>
<path d="M18.4579 8.41271C18.4579 8.01195 16.6665 7.76147 16.6665 7.76147L15.965 7.92429L16.3784 8.16224L15.9399 8.35009C15.9399 8.35009 16.2907 8.56299 16.3784 8.60056C16.4536 8.62561 15.965 8.78841 15.965 8.78841L16.8043 8.91365C16.8043 8.91365 18.4705 8.82598 18.4579 8.41271Z" fill="#F2B981"/>
<path d="M23.5818 10.354C23.5818 10.354 22.7675 10.905 22.7299 11.2557C22.7049 11.6189 23.2059 12.2576 23.2811 12.4705C23.3688 12.6834 23.6945 13.0466 23.6945 13.0466L23.7071 12.3953L23.8574 12.6709L23.8323 11.9821L23.9952 12.2826L24.1706 11.7942L23.5818 10.354Z" fill="#D6A374"/>
<path d="M25.0977 12.1323L25.0351 11.6814L25.4234 11.9945L25.1478 11.2055C25.1478 11.2055 24.4588 10.2162 23.7573 10.2662C23.0683 10.3289 23.9452 11.744 23.9452 11.744L24.3085 12.5205L24.2458 11.9194L24.772 12.3452C24.772 12.3452 24.6593 11.8818 24.5841 11.8192C24.5215 11.7691 25.0977 12.1323 25.0977 12.1323Z" fill="#F2B981"/>
<path d="M22.5422 6.68457C22.5422 6.68457 21.8782 8.08721 21.8406 8.28759C21.7905 8.47544 21.8156 9.03899 22.229 9.13918C22.6299 9.22684 23.1059 8.93881 23.3439 8.67581C23.5819 8.42534 24.058 6.9601 24.058 6.9601L22.5422 6.68457Z" fill="#D6A374"/>
<path d="M23.8949 6.54672L23.945 6.13343L23.5817 6.45906L23.6444 5.93306L23.3312 6.28373L23.2686 5.77026L22.7925 6.35886C22.7925 6.35886 22.0283 7.19794 22.8551 7.5486C23.682 7.91178 24.0954 6.87233 24.0954 6.87233L24.3584 6.24615L23.8949 6.54672Z" fill="#F2B981"/>
<path d="M22.4418 7.11035C21.9031 7.17297 17.7189 7.49858 17.769 8.40028C17.8066 9.30197 23.0055 11.2055 23.6945 11.0928C24.6591 10.9175 23.9952 8.02457 23.4815 7.52363C22.9679 7.03521 23.0556 7.03521 22.4418 7.11035Z" fill="#F2B981"/>
<path d="M17.9069 8.75098L17.769 10.3289C17.769 10.3289 18.3954 10.8675 20.0365 11.406C21.6776 11.957 23.1308 12.1699 23.1308 12.1699L23.6945 11.0929C23.6945 11.0929 22.7299 10.7923 20.7882 10.1912C18.8339 9.60258 17.9069 8.75098 17.9069 8.75098Z" fill="#D6A374"/>
<path d="M16.1782 5.95829C16.1782 5.95829 16.0529 6.80988 16.8797 7.41101C17.3558 7.76167 18.4582 8.01213 18.4582 8.01213C18.4582 8.01213 18.3579 7.28577 17.9571 6.85997C17.0425 5.87062 16.1782 5.95829 16.1782 5.95829Z" fill="#F2B981"/>
<path d="M22.2539 10.7173C22.2539 10.7173 21.5524 11.2182 21.6651 12.2326C21.7403 12.8212 22.304 13.7981 22.304 13.7981C22.304 13.7981 22.7675 13.2345 22.8176 12.6459C22.9178 11.3059 22.2539 10.7173 22.2539 10.7173Z" fill="#F2B981"/>
<path d="M18.5083 9.15159C18.5083 9.15159 17.6815 8.90111 16.9549 9.62748C16.5415 10.0533 16.1406 11.1053 16.1406 11.1053C16.1406 11.1053 16.8672 11.1178 17.3558 10.7797C18.4707 10.0157 18.5083 9.15159 18.5083 9.15159Z" fill="#F2B981"/>
<path d="M20.375 10.0911C20.375 10.0911 19.4104 10.0661 18.8341 11.0805C18.5084 11.6691 18.3706 12.934 18.3706 12.934C18.3706 12.934 19.1724 12.7336 19.6108 12.2201C20.588 11.068 20.375 10.0911 20.375 10.0911Z" fill="#F2B981"/>
<path d="M19.3097 9.63999C19.3097 9.63999 18.4578 9.51475 17.8315 10.3288C17.4807 10.7922 17.2051 11.8942 17.2051 11.8942C17.2051 11.8942 17.9442 11.8066 18.3827 11.4058C19.3723 10.5166 19.3097 9.63999 19.3097 9.63999Z" fill="#F2B981"/>
<path d="M21.6277 10.4417C21.6277 10.4417 20.7758 10.5669 20.4251 11.5187C20.2121 12.0822 20.2873 13.1968 20.2873 13.1968C20.2873 13.1968 20.9513 12.9088 21.2644 12.3953C21.9535 11.2557 21.6277 10.4417 21.6277 10.4417Z" fill="#F2B981"/>
<path d="M17.5937 5.53226C17.5937 5.53226 17.4684 6.38385 18.2952 6.99751C18.7713 7.34817 19.8737 7.59864 19.8737 7.59864C19.8737 7.59864 19.7735 6.87227 19.3726 6.43395C18.4581 5.44459 17.5937 5.53226 17.5937 5.53226Z" fill="#F2B981"/>
<path d="M19.3856 4.78101C19.3856 4.78101 18.9471 5.53242 19.4858 6.39654C19.7989 6.91001 20.726 7.5487 20.726 7.5487C20.726 7.5487 20.9014 6.83486 20.7009 6.28383C20.2249 5.03148 19.3856 4.78101 19.3856 4.78101Z" fill="#F2B981"/>
<path d="M20.6757 4.84351C20.6757 4.84351 20.3374 5.645 20.9638 6.44651C21.3271 6.90988 22.3168 7.44839 22.3168 7.44839C22.3168 7.44839 22.417 6.72203 22.1539 6.19604C21.5401 5.0063 20.6757 4.84351 20.6757 4.84351Z" fill="#F2B981"/>
<path d="M23.582 7.76141C23.582 7.76141 24.2585 8.11207 25.2983 7.84908C25.9121 7.6988 26.7765 7.29804 26.7765 7.29804C26.7765 7.29804 26.1501 6.88477 25.5363 6.92234C24.1332 6.99748 23.582 7.76141 23.582 7.76141Z" fill="#F2B981"/>
<path d="M24.0957 9.95322C24.0957 9.95322 24.3463 10.8048 25.3986 11.0052C26.025 11.1179 27.19 10.8674 27.19 10.8674C27.19 10.8674 26.7891 10.2413 26.2129 10.0158C24.91 9.48985 24.0957 9.95322 24.0957 9.95322Z" fill="#F2B981"/>
<path d="M23.8076 9.2645C23.8076 9.2645 24.3588 9.64021 25.4362 9.67778C26.1252 9.70283 27.1399 9.25198 27.1399 9.25198C27.1399 9.25198 26.3131 8.76356 25.6993 8.80113C24.2962 8.87627 23.8076 9.2645 23.8076 9.2645Z" fill="#F2B981"/>
<path d="M23.7573 8.40031C23.7573 8.40031 24.3085 8.77601 25.3859 8.80105C26.0749 8.8261 27.0771 8.37525 27.0771 8.37525C27.0771 8.37525 26.2628 7.89936 25.6364 7.93693C24.2334 8.01207 23.7573 8.40031 23.7573 8.40031Z" fill="#F2B981"/>
<path d="M34.2675 5.71997C34.2675 5.71997 29.1438 6.30858 29.0561 6.39624C28.9809 6.48391 28.9308 8.87589 28.9308 8.87589L28.8682 9.99049C28.8682 9.99049 27.2145 11.1927 27.1895 11.318C27.1644 11.4307 27.6279 15.1126 27.7156 15.2003C27.8033 15.2754 31.7244 19.4332 31.8121 19.4458C31.8998 19.4583 35.0693 19.4833 35.1319 19.4207C35.1945 19.3581 36.6978 18.1934 36.6978 18.1934L39.5541 19.7964C39.5541 19.7964 41.6963 19.6336 41.784 19.5835C41.8716 19.5209 43.6631 17.5171 43.6631 17.5171L43.2372 14.3361L41.6838 12.2197L38.4517 10.9799L38.1134 8.47515L36.0714 6.35867L34.2675 5.71997Z" fill="#709137"/>
<path d="M44.3898 17.5798C44.5652 15.6261 44.2144 15.5009 44.2144 15.5009L42.4982 18.3312L39.5542 19.4207L37.1615 17.9304L34.6685 19.0826L29.9582 17.7676L27.8786 15.6136L26.8388 12.9962L27.1019 11.0174L29.3318 10.2159L30.3716 10.1659L28.4048 7.99927L28.3546 6.0957C28.2795 6.19589 27.0643 7.14768 27.0643 7.14768C27.0643 7.14768 26.4379 7.46076 26.7386 8.95106C26.9516 10.0156 27.5905 10.5917 27.5905 10.5917C27.5905 10.5917 27.1395 10.0657 26.3252 10.8421C25.4984 11.6311 24.5087 12.1696 24.4085 12.9836C24.2832 14.0356 24.5713 16.1271 26.2876 17.9805C28.1792 20.0219 30.0584 21.7 32.4261 21.7877C35.0443 21.8753 36.1593 20.8109 36.1593 20.8109C36.1593 20.8109 37.0487 21.6124 38.1511 21.9505C39.5667 22.4013 41.1703 22.0382 42.0597 21.437C42.9492 20.8359 44.2144 19.5961 44.3898 17.5798Z" fill="#709137"/>
<path fill-rule="evenodd" clip-rule="evenodd" d="M40.7194 20.6605C38.1387 21.3242 36.6229 19.0449 36.6229 19.0449C36.6229 19.0449 34.869 20.5352 32.9022 20.0844C31.1484 19.6836 27.2899 17.1789 25.9495 13.5095C24.7469 10.2284 28.7807 9.765 28.7807 9.765C28.7807 9.765 27.4779 8.77564 27.8412 6.9973C28.2044 5.23148 31.2987 5.05615 32.9899 5.05615C35.3451 5.06868 37.0614 6.1958 38.1888 7.54834C39.1785 8.7506 39.166 10.7544 39.166 10.7544C39.166 10.7544 42.3981 10.8545 44.0141 14.3987C45.5675 17.7675 43.2123 20.0092 40.7194 20.6605ZM42.16 13.3718C40.6191 11.6435 38.264 12.0443 38.264 12.0443L37.2493 11.08C37.2493 11.08 38.3141 9.94034 37.2368 8.27471C36.0592 6.4588 33.466 6.12066 31.9 6.10813C30.3341 6.10813 28.9811 7.12253 28.9937 7.99918C28.9937 8.87583 31.0607 10.053 31.0607 10.053L30.7475 11.1676C30.7475 11.1676 28.8058 10.5415 27.7785 11.6811C26.8264 12.7581 27.9288 15.0249 29.808 16.7657C31.7622 18.569 34.2051 18.6442 35.2073 18.2184C36.5352 17.6548 36.2847 16.5027 36.2847 16.5027L37.6 16.4526C37.6 16.4526 38.1512 18.4313 39.6545 18.8947C40.3811 19.1201 41.1328 18.9322 42.0097 18.1307C43.3752 16.8658 43.1747 14.5239 42.16 13.3718Z" fill="#B7C94B"/>
<path d="M30.1085 12.6081C30.1085 12.6081 31.2485 13.0088 31.6118 12.9086C31.9751 12.8084 32.4762 11.3432 32.4762 11.3432L31.474 10.7671L30.7474 11.1679L30.0082 11.2806L30.1085 11.6437L29.4946 11.8566L30.0709 12.032L29.5071 12.2324L30.1085 12.6081Z" fill="#D6A374"/>
<path d="M32.4759 11.3428C32.6137 10.9671 31.0603 10.0528 31.0603 10.0528L30.3462 9.95264L30.6343 10.3158L30.1583 10.3283C30.1583 10.3283 30.4089 10.6665 30.4715 10.7166C30.5341 10.7792 30.0205 10.7416 30.0205 10.7416L30.7471 11.1674C30.7471 11.1674 32.3256 11.7185 32.4759 11.3428Z" fill="#F2B981"/>
<path d="M36.4722 15.075C36.4722 15.075 35.5202 15.2753 35.3573 15.5884C35.1819 15.9015 35.4074 16.6905 35.4074 16.9159C35.3949 17.1413 35.5703 17.6047 35.5703 17.6047L35.8208 17.0161L35.8584 17.3167L36.0839 16.678L36.1215 17.0161L36.4722 16.6279V15.075Z" fill="#D6A374"/>
<path d="M37.2118 17.2916L37.3245 16.8533L37.5625 17.2916L37.6001 16.4525C37.6001 16.4525 37.3371 15.2753 36.6731 15.0624C36.0091 14.8495 36.2847 16.5026 36.2847 16.5026L36.3348 17.3542L36.4977 16.7781L36.8234 17.3667C36.8234 17.3667 36.8986 16.8908 36.8485 16.8157C36.8109 16.7405 37.2118 17.2916 37.2118 17.2916Z" fill="#F2B981"/>
<path d="M36.8982 11.2927C36.8982 11.2927 35.7582 12.3322 35.6454 12.495C35.5327 12.6578 35.3448 13.1838 35.683 13.4342C36.0213 13.6722 36.5725 13.5845 36.8857 13.4342C37.2114 13.284 38.2011 12.1068 38.2011 12.1068L36.8982 11.2927Z" fill="#D6A374"/>
<path d="M38.2013 11.6563L38.4143 11.3056L37.9508 11.4685L38.2139 11.0051L37.7879 11.218L37.9257 10.717L37.2492 11.0802C37.2492 11.0802 36.2345 11.5686 36.8609 12.2073C37.4998 12.846 38.264 12.0445 38.264 12.0445L38.7525 11.5686L38.2013 11.6563Z" fill="#F2B981"/>
<path d="M36.6481 11.631C36.1345 11.4933 32.1257 10.2159 31.8376 11.0675C31.5369 11.9066 35.6209 15.6386 36.3099 15.7889C37.262 16.0018 37.738 13.0713 37.4499 12.42C37.1617 11.7563 37.2369 11.8064 36.6481 11.631Z" fill="#F2B981"/>
<path d="M31.8374 11.4556L31.1108 12.8582C31.1108 12.8582 31.4867 13.5846 32.802 14.7117C34.1049 15.8388 35.3702 16.5902 35.3702 16.5902L36.3097 15.7887C36.3097 15.7887 35.533 15.15 33.9546 13.8726C32.3761 12.5827 31.8374 11.4556 31.8374 11.4556Z" fill="#D6A374"/>
<path d="M31.2863 8.19971C31.2863 8.19971 30.8604 8.95112 31.3865 9.81525C31.6997 10.3287 32.6142 10.9674 32.6142 10.9674C32.6142 10.9674 32.8021 10.2661 32.6017 9.70253C32.1257 8.45018 31.2863 8.19971 31.2863 8.19971Z" fill="#F2B981"/>
<path d="M35.1196 14.9121C35.1196 14.9121 34.2677 15.1125 33.9921 16.0893C33.8418 16.6654 33.9921 17.78 33.9921 17.78C33.9921 17.78 34.6435 17.4293 34.9066 16.9033C35.4954 15.7011 35.1196 14.9121 35.1196 14.9121Z" fill="#F2B981"/>
<path d="M32.2385 12.0319C32.2385 12.0319 31.5621 11.5059 30.6225 11.8941C30.0713 12.132 29.3071 12.9461 29.3071 12.9461C29.3071 12.9461 29.9836 13.2341 30.5599 13.1089C31.8627 12.8334 32.2385 12.0319 32.2385 12.0319Z" fill="#F2B981"/>
<path d="M33.6163 13.6222C33.6163 13.6222 32.7144 13.234 31.8124 13.9478C31.2862 14.3736 30.6724 15.5008 30.6724 15.5008C30.6724 15.5008 31.4992 15.6135 32.088 15.3004C33.4409 14.5991 33.6163 13.6222 33.6163 13.6222Z" fill="#F2B981"/>
<path d="M32.7897 12.7957C32.7897 12.7957 32.0506 12.3573 31.1737 12.8708C30.66 13.1714 29.9961 14.0856 29.9961 14.0856C29.9961 14.0856 30.7101 14.2859 31.2613 14.0856C32.5266 13.6347 32.7897 12.7957 32.7897 12.7957Z" fill="#F2B981"/>
<path d="M34.6436 14.4113C34.6436 14.4113 33.8042 14.1984 33.1152 14.9623C32.7144 15.4007 32.3511 16.4526 32.3511 16.4526C32.3511 16.4526 33.0776 16.4401 33.5537 16.0894C34.6311 15.2879 34.6436 14.4113 34.6436 14.4113Z" fill="#F2B981"/>
<path d="M32.7516 8.3374C32.7516 8.3374 32.3257 9.08881 32.8519 9.96546C33.165 10.4664 34.0795 11.1176 34.0795 11.1176C34.0795 11.1176 34.2675 10.4038 34.067 9.85275C33.591 8.60039 32.7516 8.3374 32.7516 8.3374Z" fill="#F2B981"/>
<path d="M34.7063 8.32495C34.7063 8.32495 34.0173 8.86347 34.1802 9.86535C34.2804 10.454 34.8942 11.3932 34.8942 11.3932C34.8942 11.3932 35.3327 10.8046 35.3452 10.216C35.3828 8.876 34.7063 8.32495 34.7063 8.32495Z" fill="#F2B981"/>
<path d="M35.8713 8.87598C35.8713 8.87598 35.2575 9.47712 35.5331 10.4665C35.6959 11.03 36.3975 11.9067 36.3975 11.9067C36.3975 11.9067 36.7733 11.2805 36.7232 10.6919C36.6104 9.35187 35.8713 8.87598 35.8713 8.87598Z" fill="#F2B981"/>
<path d="M37.4619 12.6705C37.4619 12.6705 37.9505 13.2591 39.0153 13.4094C39.6417 13.497 40.5938 13.4469 40.5938 13.4469C40.5938 13.4469 40.1679 12.8333 39.5791 12.6329C38.2512 12.1695 37.4619 12.6705 37.4619 12.6705Z" fill="#F2B981"/>
<path d="M37.099 14.8997C37.099 14.8997 37.0113 15.7764 37.9133 16.365C38.4394 16.7031 39.6295 16.916 39.6295 16.916C39.6295 16.916 39.4918 16.1772 39.0533 15.7514C38.026 14.7745 37.099 14.8997 37.099 14.8997Z" fill="#F2B981"/>
<path d="M37.0986 14.1607C37.0986 14.1607 37.4619 14.7117 38.4516 15.1501C39.078 15.4256 40.1929 15.4005 40.1929 15.4005C40.1929 15.4005 39.6041 14.6366 39.0279 14.4362C37.6874 13.9729 37.0986 14.1607 37.0986 14.1607Z" fill="#F2B981"/>
<path d="M37.3745 13.3341C37.3745 13.3341 37.7503 13.8851 38.7275 14.3235C39.3539 14.599 40.4688 14.5739 40.4688 14.5739C40.4688 14.5739 39.88 13.81 39.3038 13.6096C37.9633 13.1588 37.3745 13.3341 37.3745 13.3341Z" fill="#F2B981"/>
<path d="M16.2409 15.0752C16.2409 15.0752 16.1156 15.4133 15.9277 15.8892C15.7273 16.3526 15.2763 16.9287 15.3389 16.9287C15.4141 16.9412 16.4664 17.4296 16.4664 17.4296L16.4288 15.2255L16.2409 15.0752Z" fill="#475923"/>
<path d="M24.6342 14.8247L24.1206 17.1917C24.1206 17.1917 24.296 17.0414 24.6092 16.8285C24.9224 16.6156 25.1604 16.2399 25.1604 16.2399L24.6342 14.8247Z" fill="#475923"/>
<path d="M44.3148 12.6458L44.0016 14.1486C44.0016 14.1486 44.0016 13.8731 43.6508 13.4473C43.3126 13.034 43.0996 12.7209 43.0996 12.7209L44.3148 12.6458Z" fill="#475923"/>
<path d="M16.4287 15.2255L16.7419 14.4991C16.7419 14.4991 17.5937 14.4365 18.3579 14.0859C20.2871 13.1967 20.688 11.6312 20.688 11.6312C20.688 11.6312 20.8759 10.5793 20.0616 10.1785C19.2599 9.76524 15.1634 12.6832 15.1634 12.6832L15.1509 14.9375L16.4287 15.2255Z" fill="#475923"/>
<path d="M3.50034 6.10848C3.50034 6.10848 0.681654 10.4416 0.706709 10.5543C0.719236 10.667 2.52319 12.22 2.52319 12.22L3.35002 12.9964C3.35002 12.9964 3.22472 15.0378 3.29989 15.1254C3.37505 15.2131 6.50693 17.2168 6.63221 17.1918C6.74495 17.1668 12.4575 16.8036 12.5201 16.741C12.5828 16.6783 14.6122 14.2488 14.6122 14.1611C14.5997 14.0734 14.6623 12.1824 14.6623 12.1824L17.719 10.9927C17.719 10.9927 18.9467 9.23936 18.9718 9.13917C18.9843 9.03898 18.5834 6.38399 18.5834 6.38399L15.8524 4.66827L13.2342 4.53052L10.215 6.23371L8.06033 4.90622L5.12891 5.11912L3.50034 6.10848Z" fill="#709137"/>
<path d="M19.097 5.85803C17.6939 4.48044 17.3807 4.66829 17.3807 4.66829L18.4706 7.79918L17.4183 10.7547L14.75 11.6439L14.061 14.2989L10.0522 17.1042L7.05809 17.3421L4.37723 16.4655L3.01171 15.0127L3.81349 12.7835L4.43986 11.9445L1.52096 12.0822L0.0176617 10.905C0.0427167 11.0303 0.00512202 12.5706 0.00512202 12.5706C0.00512202 12.5706 -0.145189 13.2594 1.18272 13.9733C2.14734 14.4867 2.99921 14.349 2.99921 14.349C2.99921 14.349 2.29765 14.374 2.38534 15.5011C2.47303 16.6283 2.24756 17.7429 2.81129 18.3315C3.55041 19.0954 5.35438 20.21 7.85987 20.0597C10.6535 19.9094 13.1339 19.5337 14.7124 17.7554C16.4412 15.8017 16.3284 14.2613 16.3284 14.2613C16.3284 14.2613 17.5185 14.086 18.4957 13.4473C19.7359 12.6458 20.475 11.1805 20.5753 10.1035C20.6755 9.03901 20.5377 7.27319 19.097 5.85803Z" fill="#709137"/>
<path fill-rule="evenodd" clip-rule="evenodd" d="M19.1221 10.6545C17.9947 13.0591 15.2762 12.7835 15.2762 12.7835C15.2762 12.7835 15.3013 15.0753 13.7103 16.3027C12.2821 17.4047 7.88497 18.7948 4.2019 17.4799C0.907173 16.3152 3.11201 12.9088 3.11201 12.9088C3.11201 12.9088 1.53356 13.2845 0.393559 11.8818C-0.74644 10.4667 1.08256 7.9745 2.17245 6.67206C3.67575 4.86867 5.64256 4.25501 7.3964 4.25501C8.96233 4.25501 10.4907 5.54494 10.4907 5.54494C10.4907 5.54494 12.6204 3.11537 16.3911 4.11725C19.9865 5.06904 20.212 8.31265 19.1221 10.6545ZM14.4243 4.89372C12.1067 4.98139 10.9166 7.06028 10.9166 7.06028L9.52607 7.2231C9.52607 7.2231 9.32566 5.67017 7.35884 5.44475C5.20412 5.19428 3.28742 6.98514 2.28522 8.1874C1.28302 9.38966 1.20783 11.0678 1.88432 11.6314C2.5608 12.1824 4.79071 11.3433 4.79071 11.3433L5.45464 12.2951C5.45464 12.2951 3.73839 13.3847 3.96389 14.9125C4.17685 16.3277 6.64478 16.9163 9.17533 16.5782C11.8061 16.215 13.4221 14.3865 13.7353 13.3346C14.1362 11.957 13.0964 11.4185 13.0964 11.4185L13.8982 10.379C13.8982 10.379 15.7648 11.2056 17.0801 10.3415C17.719 9.92818 18.0573 9.22686 17.9947 8.03713C17.8944 6.18364 15.9527 4.84363 14.4243 4.89372Z" fill="#B7C94B"/>
<path d="M6.15629 13.6976C6.15629 13.6976 7.19607 13.0714 7.3464 12.7333C7.49673 12.3826 6.69498 11.0676 6.69498 11.0676L5.60509 11.4684L5.45474 12.2949L5.06641 12.9336L5.41718 13.0839L5.19168 13.6976L5.69278 13.3594L5.47982 13.923L6.15629 13.6976Z" fill="#D6A374"/>
<path d="M6.69481 11.0679C6.49437 10.7172 4.79064 11.3434 4.79064 11.3434L4.25195 11.8193L4.728 11.8443L4.42733 12.2075C4.42733 12.2075 4.84073 12.2325 4.92842 12.22C5.01612 12.2075 4.66537 12.5832 4.66537 12.5832L5.45457 12.2952C5.45457 12.2952 6.88272 11.4185 6.69481 11.0679Z" fill="#F2B981"/>
<path d="M12.1065 10.3662C12.1065 10.3662 11.6555 11.2303 11.7933 11.5559C11.9311 11.8816 12.6827 12.2072 12.8581 12.3575C13.021 12.5077 13.4845 12.6705 13.4845 12.6705L13.1963 12.107L13.4594 12.2698L13.0961 11.6812L13.3968 11.869L13.3216 11.3556L12.1065 10.3662Z" fill="#D6A374"/>
<path d="M14.2862 11.2055L14.0232 10.8423L14.5117 10.9425L13.8979 10.3789C13.8979 10.3789 12.8205 9.81536 12.2317 10.2036C11.6429 10.5793 13.0961 11.4184 13.0961 11.4184L13.7851 11.9318L13.4469 11.4184L14.1109 11.5561C14.1109 11.5561 13.7851 11.193 13.6974 11.1804C13.6098 11.1679 14.2862 11.2055 14.2862 11.2055Z" fill="#F2B981"/>
<path d="M9.46338 7.62392C9.46338 7.62392 9.55108 9.16432 9.60119 9.36469C9.6513 9.55255 9.93942 10.0284 10.3403 9.92825C10.7412 9.82806 11.0293 9.33964 11.117 9.00151C11.2047 8.65085 10.9291 7.1355 10.9291 7.1355L9.46338 7.62392Z" fill="#D6A374"/>
<path d="M10.5783 6.85976L10.4405 6.47153L10.2776 6.9349L10.0772 6.43396L9.97698 6.8848L9.67634 6.47153L9.52598 7.22294C9.52598 7.22294 9.25038 8.31249 10.1524 8.23735C11.0418 8.16221 10.9165 7.06013 10.9165 7.06013L10.8664 6.37134L10.5783 6.85976Z" fill="#F2B981"/>
<path d="M9.57637 8.03715C9.13791 8.35024 5.60516 10.617 6.06868 11.3935C6.5322 12.1574 12.0067 11.3809 12.5579 10.9551C13.3346 10.354 11.3678 8.1123 10.6913 7.91192C10.0023 7.72407 10.0775 7.6865 9.57637 8.03715Z" fill="#F2B981"/>
<path d="M6.36914 11.6311L6.983 13.0838C6.983 13.0838 7.79729 13.2592 9.4885 12.9711C11.1922 12.6706 12.5702 12.1821 12.5702 12.1821L12.5577 10.9548C12.5577 10.9548 11.5681 11.1427 9.57618 11.5434C7.57179 11.9317 6.36914 11.6311 6.36914 11.6311Z" fill="#D6A374"/>
<path d="M3.5127 9.99077C3.5127 9.99077 3.81337 10.7923 4.81557 10.9426C5.40436 11.0177 6.49424 10.7171 6.49424 10.7171C6.49424 10.7171 6.06832 10.1285 5.50458 9.94068C4.23931 9.50235 3.5127 9.99077 3.5127 9.99077Z" fill="#F2B981"/>
<path d="M11.117 11.3059C11.117 11.3059 10.7412 12.0824 11.3174 12.9214C11.6557 13.4099 12.6203 13.9985 12.6203 13.9985C12.6203 13.9985 12.7581 13.2721 12.5201 12.7336C11.9689 11.5063 11.117 11.3059 11.117 11.3059Z" fill="#F2B981"/>
<path d="M7.07052 11.6938C7.07052 11.6938 6.23118 11.8692 5.94305 12.8585C5.76767 13.4221 5.90546 14.5367 5.90546 14.5367C5.90546 14.5367 6.55688 14.1986 6.83248 13.6726C7.44633 12.4828 7.07052 11.6938 7.07052 11.6938Z" fill="#F2B981"/>
<path d="M9.16265 11.644C9.16265 11.644 8.29824 12.0824 8.27319 13.2471C8.26066 13.9108 8.74924 15.1005 8.74924 15.1005C8.74924 15.1005 9.35055 14.5495 9.50088 13.8858C9.81407 12.3955 9.16265 11.644 9.16265 11.644Z" fill="#F2B981"/>
<path d="M8.01036 11.7563C8.01036 11.7563 7.19607 12.0444 7.03321 13.0463C6.94552 13.6349 7.23366 14.7244 7.23366 14.7244C7.23366 14.7244 7.82244 14.3112 8.03541 13.7476C8.4864 12.4827 8.01036 11.7563 8.01036 11.7563Z" fill="#F2B981"/>
<path d="M10.4406 11.356C10.4406 11.356 9.73902 11.8694 9.87682 12.8838C9.96451 13.4724 10.5533 14.4242 10.5533 14.4242C10.5533 14.4242 11.0043 13.8481 11.0419 13.2595C11.1045 11.9195 10.4406 11.356 10.4406 11.356Z" fill="#F2B981"/>
<path d="M4.55273 8.95121C4.55273 8.95121 4.85339 9.75273 5.86812 9.90301C6.45691 9.97815 7.53428 9.67758 7.53428 9.67758C7.53428 9.67758 7.10834 9.08898 6.55713 8.90113C5.27933 8.46281 4.55273 8.95121 4.55273 8.95121Z" fill="#F2B981"/>
<path d="M5.78035 7.43594C5.78035 7.43594 5.7553 8.30007 6.63222 8.81353C7.14585 9.1141 8.26079 9.23934 8.26079 9.23934C8.26079 9.23934 8.09792 8.52549 7.64693 8.13726C6.6322 7.26061 5.78035 7.43594 5.78035 7.43594Z" fill="#F2B981"/>
<path d="M6.95752 6.88505C6.95752 6.88505 7.02016 7.73666 7.95972 8.14994C8.4984 8.40041 9.62588 8.40041 9.62588 8.40041C9.62588 8.40041 9.37534 7.71161 8.88677 7.37347C7.78435 6.60954 6.95752 6.88505 6.95752 6.88505Z" fill="#F2B981"/>
<path d="M10.8916 8.07456C10.8916 8.07456 11.6432 8.07457 12.445 7.3482C12.9085 6.9224 13.4848 6.14595 13.4848 6.14595C13.4848 6.14595 12.7457 6.08332 12.207 6.40894C11.0043 7.14782 10.8916 8.07456 10.8916 8.07456Z" fill="#F2B981"/>
<path d="M12.3823 9.76524C12.3823 9.76524 12.9962 10.3914 14.0234 10.0658C14.6248 9.87796 15.5392 9.10151 15.5392 9.10151C15.5392 9.10151 14.8878 8.73832 14.274 8.81346C12.8709 8.97626 12.3823 9.76524 12.3823 9.76524Z" fill="#F2B981"/>
<path d="M11.8057 9.30176C11.8057 9.30176 12.4571 9.36438 13.4342 8.88848C14.0481 8.57539 14.7245 7.71128 14.7245 7.71128C14.7245 7.71128 13.7725 7.6737 13.2463 7.99931C12.0437 8.72568 11.8057 9.30176 11.8057 9.30176Z" fill="#F2B981"/>
<path d="M11.3423 8.56324C11.3423 8.56324 12.0062 8.62587 12.9709 8.14997C13.5847 7.83688 14.2612 6.97276 14.2612 6.97276C14.2612 6.97276 13.3091 6.93518 12.7829 7.26079C11.5803 7.98715 11.3423 8.56324 11.3423 8.56324Z" fill="#F2B981"/>
</svg>
