<svg width="20" height="48" viewBox="0 0 20 48" fill="none" xmlns="http://www.w3.org/2000/svg">
<path d="M0.413574 47.9715L18.8787 47.9992L18.9016 32.4188C18.9046 30.8583 18.3047 29.3475 17.2076 28.1492L15.0132 25.755C14.5381 25.2359 14.2783 24.5818 14.2795 23.907L14.3127 1.67249L5.46138 1.51855L5.02408 23.2101C5.00195 24.3287 4.56485 25.408 3.78471 26.2717L2.09774 28.1399C1.02574 29.3269 0.439266 30.8153 0.437093 32.3532L0.413574 47.9715Z" fill="#FF4A4A"/>
<path d="M17.5914 46.9921L0.896179 46.967L0.206543 47.9713L18.6217 47.9991L17.5914 46.9921Z" fill="#D83535"/>
<path d="M10.2839 23.9009L11.0174 1.66759L5.69732 1.5188L5.33668 22.9611C5.32087 24.0802 4.75436 25.4086 4.25343 26.2724L3.17095 28.1415C0.569887 32.312 13.9759 31.8253 11.6575 28.1733C10.241 25.7622 10.2819 25.2492 10.2839 23.9009Z" fill="#FF7F61"/>
<path d="M5.05808 23.2104L5.8888 1.52918L5.27129 1.51831L4.81621 23.21C4.7925 24.3288 4.33642 25.408 3.52091 26.2713L1.75907 28.1399C0.639245 29.3267 0.0258898 30.8152 0.0235186 32.353L0 47.9711L0.670484 47.9719L0.436311 32.3536C0.443228 27.6976 4.98892 27.0441 5.05808 23.2104Z" fill="#D83535"/>
<path d="M17.5448 28.1498L15.2524 25.7559C14.756 25.2367 14.4843 24.5827 14.4855 23.9075L14.5191 1.67334L12.5178 2.27011L12.2344 25.0093C12.2302 27.7281 16.0733 27.7356 16.0663 32.3205L15.1141 47.9939L19.2922 48.0002L19.3159 32.4197C19.3179 30.8592 18.6909 29.3487 17.5448 28.1498Z" fill="#D83535"/>
<path d="M14.1907 10.2222C12.4897 9.18502 7.33146 9.04215 5.21631 9.54941L5.49335 8.13929L14.2978 7.25244L14.1907 10.2222Z" fill="#D83535"/>
<path d="M14.9249 1.89713C14.929 -0.73378 4.49456 -0.573124 4.46314 2.03645L4.39555 7.81995C4.39081 8.21299 4.74651 8.53805 5.19704 8.55109C8.4174 7.96223 10.7896 8.03632 14.1574 8.82674C14.3554 8.83306 14.5485 8.76805 14.6921 8.64811C14.8346 8.52796 14.9158 8.36238 14.916 8.18829L14.9249 1.89713Z" fill="#FF7F61"/>
<path d="M12.946 0.34082C12.9677 0.389036 12.9946 0.435678 13.0078 0.48666C13.369 1.87523 10.1943 3.68845 5.91642 4.53459C5.41213 4.63458 4.91594 4.7154 4.43043 4.77903L4.39507 7.81958C4.39032 8.21262 4.74602 8.53767 5.19655 8.55071C8.41691 7.96185 10.7891 8.03596 14.1569 8.82638C14.3549 8.8327 14.548 8.76769 14.6916 8.64774C14.8341 8.5276 14.9153 8.362 14.9155 8.18791L14.9246 1.89696C14.926 1.16384 14.1154 0.647898 12.946 0.34082Z" fill="#FF4A4A"/>
<path opacity="0.5" d="M6.53689 9.88159L7.31167 10.0628C7.31167 10.0628 7.27869 25.2837 6.76452 25.361C6.25095 25.4378 6.53689 9.88159 6.53689 9.88159Z" fill="#FFF8DC"/>
<path d="M14.0854 28.6907C13.656 28.3925 12.6417 29.541 13.7244 30.2934C14.1947 30.6195 14.8371 30.8082 14.9845 30.5867C15.3582 30.0275 14.5555 29.0171 14.0854 28.6907Z" fill="#FF7F61"/>
<path d="M1.6837 31.264C1.87972 31.5899 3.01535 31.0544 2.52036 30.2304C2.30536 29.8729 1.91766 29.5668 1.7331 29.683C1.26517 29.9761 1.4689 30.9062 1.6837 31.264Z" fill="#FF7F61"/>
<path d="M1.10466 33.1515L1.08594 45.6318L16.9907 45.6557L17.0094 33.1754L1.10466 33.1515Z" fill="#D83535"/>
<path d="M1.14385 33.0365L1.12549 45.2764L18.1833 45.302L18.2016 33.0621L1.14385 33.0365Z" fill="#F7D5B0"/>
<path d="M15.0482 33.0535C15.1549 34.1907 15.2124 35.3747 15.2104 36.594C15.2057 39.8266 14.796 42.8219 14.103 45.2919L18.1792 45.2981L18.1978 33.0586L15.0482 33.0535Z" fill="#EFC295"/>
<path d="M12.6454 0.239258C12.8739 1.33063 12.9977 2.91878 12.9946 5.20981C12.9894 8.54064 11.0662 6.97818 6.42208 7.78085C5.67592 7.90968 4.66834 7.83835 4.40276 7.28881L4.39507 7.97272C4.39032 8.37386 4.75272 8.70525 5.21255 8.71829C8.49594 8.11816 10.9144 8.19285 14.3478 9.00007C14.5501 9.0056 14.7471 8.9398 14.8932 8.81728C15.0386 8.69536 15.1216 8.52582 15.1216 8.34936L15.1311 1.9349C15.1323 1.09311 14.0844 0.531516 12.6454 0.239258Z" fill="#E23D3D"/>
<path d="M11.8784 7.96937L11.9579 1.08423C11.9579 1.08423 12.5101 5.13473 12.3659 7.97036L11.8784 7.96937Z" fill="#E23D3D"/>
<path d="M10.7622 7.96767L10.8422 1.08252C10.8422 1.08252 11.3939 5.13322 11.2501 7.96846L10.7622 7.96767Z" fill="#E23D3D"/>
<path d="M9.29688 7.96553L9.3773 1.08057C9.3773 1.08057 9.929 5.13087 9.78514 7.96591L9.29688 7.96553Z" fill="#E23D3D"/>
<path d="M7.90234 7.96312L7.98257 1.07837C7.98257 1.07837 8.53349 5.12888 8.39003 7.96411L7.90234 7.96312Z" fill="#E23D3D"/>
<path d="M6.78662 7.9618L6.86666 1.07666C6.86666 1.07666 7.41797 5.12735 7.27431 7.96239L6.78662 7.9618Z" fill="#E23D3D"/>
<path d="M5.32227 7.95937L5.40151 1.07422C5.40151 1.07422 5.95361 5.12473 5.81015 7.95996L5.32227 7.95937Z" fill="#E23D3D"/>
<path opacity="0.4" d="M13.5762 7.64119C13.5787 6.05126 13.5864 0.861572 13.5864 0.861572C13.5864 0.861572 14.5142 1.01333 14.6849 1.58322C14.8564 2.15371 14.9217 7.58666 14.6754 7.97396C14.4294 8.35989 13.5762 7.64119 13.5762 7.64119Z" fill="#FF7F61"/>
<path d="M1.85624 41.5707L1.85596 41.759L17.4677 41.7825L17.468 41.5941L1.85624 41.5707Z" fill="#B23926"/>
<path opacity="0.5" d="M5.11123 28.2203C5.40487 27.7235 5.39995 27.2554 5.10137 27.1736C4.8016 27.092 4.32141 27.4287 4.02757 27.9245C3.73472 28.4214 3.73947 28.8897 4.03845 28.9714C4.33821 29.0534 4.81838 28.7169 5.11123 28.2203Z" fill="#FFF8DC"/>
<path opacity="0.3" d="M1.54736 44.9677L17.7712 33.3624L1.56473 33.3379L1.54736 44.9677Z" fill="#F7D5B0"/>
<path d="M3.63436 37.2973L4.40007 37.2985L4.39988 37.5773L4.10051 38.3581L4.45994 39.2679L4.45975 39.5473L3.6565 39.5461L3.44052 38.675L3.29311 38.6744L3.29193 39.5455L2.48926 39.5445L2.49242 37.2952L3.29528 37.2963L3.29388 38.1125L3.4417 38.1131L3.63436 37.2973Z" fill="#B23926"/>
<path d="M4.6792 39.5475L4.68255 37.2983L6.40684 37.3007L6.40645 37.5797L6.27721 37.8659L5.48503 37.8645L5.48481 38.1156L6.27682 38.117L6.27583 38.679L5.48363 38.6778L5.48344 38.9869L6.40428 38.9883L6.40329 39.55L4.6792 39.5475Z" fill="#B23926"/>
<path d="M6.51465 37.8665L6.51544 37.3018L8.32056 37.3045L8.31996 37.5833L8.19112 37.8693L7.80402 37.8687L7.80144 39.5527L6.99503 39.5517L6.99778 37.8673L6.51465 37.8665Z" fill="#B23926"/>
<path d="M10.2273 37.3069L10.2269 37.5859L10.1014 37.8719L9.30921 37.8705L9.30723 38.9929L10.2245 38.9941L10.2237 39.556L8.82448 39.5539C8.63261 39.5535 8.5002 39.4379 8.5 39.2739L8.50277 37.5832C8.50297 37.4191 8.63617 37.3043 8.82764 37.3049L10.2273 37.3069Z" fill="#B23926"/>
<path d="M11.5735 38.1254L11.5746 37.3091L12.3775 37.3105L12.3739 39.5596L11.5713 39.5584L11.5727 38.6872L11.2484 38.6866L11.2472 39.5579L10.4434 39.5565L10.4467 37.3071L11.2502 37.3085L11.249 38.1248L11.5735 38.1254Z" fill="#B23926"/>
<path d="M14.6052 37.3136L14.6016 39.5629L12.9916 39.5601C12.7999 39.5601 12.6675 39.4441 12.6675 39.2801L12.6709 37.3108L13.4781 37.3122L13.4755 38.9989L13.7956 38.9995L13.7982 37.3126L14.6052 37.3136Z" fill="#B23926"/>
<path d="M15.7022 38.8644L15.7011 39.5641L14.894 39.5629L14.8976 37.314L16.5075 37.3165C16.699 37.3167 16.8316 37.4319 16.831 37.5958L16.83 38.5826C16.8294 38.7462 16.6966 38.866 16.5051 38.8656L15.7022 38.8644ZM15.703 38.3018L16.0238 38.3026L16.0243 37.8809L15.7038 37.8801L15.703 38.3018Z" fill="#B23926"/>
<path d="M9.03223 35.7971C9.03203 36.1016 9.3146 36.3488 9.66337 36.3494C10.0123 36.3496 10.2959 36.1036 10.2963 35.7993C10.2965 35.4952 10.0141 35.247 9.66494 35.2466C9.31597 35.246 9.03282 35.4928 9.03223 35.7971Z" fill="#B23926"/>
<path d="M1.67236 33.5587C1.67217 33.683 1.78738 33.7837 1.93044 33.7837C2.07311 33.7841 2.18852 33.6836 2.18852 33.5597C2.18871 33.435 2.07391 33.3344 1.93124 33.334C1.78817 33.334 1.67256 33.4346 1.67236 33.5587Z" fill="#B23926"/>
<path d="M17.3022 33.5826C17.302 33.7068 17.4174 33.8072 17.5597 33.8074C17.7018 33.8076 17.8176 33.7078 17.8178 33.5831C17.818 33.4588 17.7028 33.3577 17.5601 33.3577C17.4176 33.3571 17.3024 33.4581 17.3022 33.5826Z" fill="#B23926"/>
<path d="M1.65527 44.651C1.65508 44.7759 1.77067 44.8763 1.91374 44.8765C2.05621 44.8767 2.17121 44.7765 2.1714 44.6518C2.172 44.5277 2.05679 44.4268 1.91412 44.4268C1.77145 44.4262 1.65587 44.5269 1.65527 44.651Z" fill="#B23926"/>
<path d="M17.2856 44.6749C17.2856 44.7994 17.4005 44.8999 17.5429 44.9001C17.6856 44.9005 17.8008 44.8002 17.801 44.6757C17.8014 44.5514 17.686 44.4502 17.5435 44.4502C17.4014 44.4498 17.286 44.5506 17.2856 44.6749Z" fill="#B23926"/>
</svg>
