<svg width="48" height="26" viewBox="0 0 48 26" fill="none" xmlns="http://www.w3.org/2000/svg">
<path d="M23.0294 0.00760253C21.3741 -0.302103 -0.83434 8.94483 0.0242578 10.5199C0.900559 12.1127 3.31703 11.7056 6.25573 13.0595C10.5399 15.0416 16.7802 19.3333 21.4361 21.8198C24.0296 23.209 23.7198 25.2885 25.9504 25.3504C27.5879 25.3946 27.6676 23.3152 30.2168 21.6782C34.8196 18.705 39.9889 15.2186 43.6534 13.5019C45.0166 12.8648 47.7428 12.4755 47.8933 11.3428C48.088 9.8651 26.747 0.706653 23.0294 0.00760253Z" fill="#FFBE00"/>
<path opacity="0.5" d="M27.0215 18.112C25.7115 16.9882 23.5694 16.5723 22.0381 15.7671C19.7987 14.5725 17.4796 13.5106 15.1782 12.4046C14.293 11.9887 13.5053 11.5197 12.6821 11.033C12.0448 10.6525 10.9295 10.2897 10.478 9.73224C9.55748 8.59075 11.1154 7.43156 12.0625 6.75021C13.7177 5.54678 13.1246 4.54687 11.1331 5.25477C10.4426 5.49368 8.99098 5.96267 8.83166 6.29892L7.57474 6.89179C6.37094 7.45811 5.30875 8.14831 4.16691 8.84736C3.67122 9.14822 2.67099 9.42253 3.17553 10.0154C3.43222 10.3251 5.06976 10.6083 5.51233 10.7321C7.53048 11.3073 9.00869 11.8294 10.8321 12.8558C12.0359 13.5283 13.4699 13.8557 14.7356 14.4398C15.9571 14.9884 17.0459 15.7228 18.1789 16.4042C20.1882 17.6253 22.1178 18.7933 23.6137 20.4923C24.1359 21.094 24.6051 21.7046 25.0919 22.324C25.8531 23.3062 26.0036 23.1735 26.6498 22.2178C27.5349 20.9082 28.5706 19.4481 27.0215 18.112Z" fill="#FFD84D"/>
<path opacity="0.5" d="M41.5113 8.6617C39.8118 8.20157 38.192 7.76798 36.5722 6.99814C35.8109 6.63534 35.032 6.33448 34.2708 5.97169C33.6246 5.66198 33.1289 5.06026 32.4739 4.83904L32.1995 4.54704C31.394 3.90993 31.0134 4.62668 31.4117 5.29033C31.6773 5.74162 32.3411 6.18405 32.8014 6.47606C33.9344 7.21051 35.1913 7.6087 36.2269 8.52897C37.8733 9.98901 37.1829 10.75 36.8554 12.4667C36.4394 14.6081 38.9178 13.4754 40.1128 12.9179C40.9537 12.5198 41.5556 12.3693 42.4053 12.2012C43.0426 12.0685 43.9897 11.8561 44.273 11.2013C44.7952 10.0067 42.5027 8.92716 41.5113 8.6617Z" fill="#FFD84D"/>
<path d="M8.80489 6.82114L8.52165 6.97157C7.62764 7.42285 6.76905 7.93608 5.9016 8.42276C5.47672 8.66167 3.43202 9.63503 4.98988 9.76777C6.02551 9.8474 6.99033 8.77671 7.6896 8.25463C8.34461 7.7591 9.35368 7.38746 9.82281 6.73265C9.56612 6.45834 9.03503 6.55567 8.80489 6.82114Z" fill="#F9ED98"/>
<path d="M47.9994 11.3782C48.0082 11.2631 47.8932 11.1039 47.6719 10.9092C47.5126 11.0242 47.6542 11.4401 47.4683 11.564C46.0875 12.4931 44.6181 12.6789 43.0071 13.3426C39.1213 14.9354 35.5984 17.2095 32.1198 19.4748C30.7566 20.3596 29.6679 21.2091 28.411 22.2887C27.7294 22.8727 27.1718 24.2885 25.5077 24.4389C25.2775 24.4566 24.2331 24.3681 23.7285 23.846C24.3481 24.6778 24.7995 25.3503 26.0476 25.3857C27.694 25.43 27.7737 23.3505 30.314 21.7135C34.9257 18.7403 40.0861 15.2539 43.7595 13.5373C45.1226 12.8913 47.8489 12.5108 47.9994 11.3782Z" fill="#EF9C07"/>
</svg>
