<svg width="48" height="28" viewBox="0 0 48 28" fill="none" xmlns="http://www.w3.org/2000/svg">
<path d="M1.87766 8.39862C2.62471 6.01591 5.90939 5.58916 8.25728 4.29704C9.84625 3.41982 11.8858 2.47148 13.7238 2.06844C14.6962 1.86691 15.6329 1.67725 16.629 1.67725C17.3286 1.6891 18.0283 1.86691 18.6923 1.85506L21.3604 1.74837C22.9138 3.37241 21.0995 4.88975 19.2259 5.93293C18.0164 6.62048 17.7793 5.76697 17.1389 5.77883C16.3681 5.79068 15.9768 6.19373 15.7397 6.84571C15.4076 7.73478 17.803 7.97187 18.5856 8.28008C19.3326 8.56458 20.4592 8.89651 20.7793 9.59591C21.2536 10.6035 20.1746 11.4807 19.2971 12.0023C18.4433 12.5002 17.3287 12.9388 16.1666 13.0099C15.0638 13.0929 14.7555 12.8321 13.961 12.3342C12.6447 11.5163 11.8028 10.8288 10.368 10.2005C10.368 10.3901 9.26519 10.7102 9.15847 11.054C9.05175 11.3859 9.95296 11.7652 9.86995 11.9549C9.51421 12.8677 6.86987 14.1242 4.73542 13.8397C3.75121 13.7093 1.29661 13.7568 0.241248 11.3148C-0.173783 10.3309 1.56935 9.40624 1.87766 8.39862Z" fill="#634E40"/>
<path d="M3.77494 8.09036C5.11489 5.74321 7.78293 4.13102 10.6051 3.07599C12.5617 2.34103 15.2416 1.00149 17.3879 1.60606C18.0164 1.79573 18.7753 2.25804 19.0718 2.76778C19.2734 3.0997 19.2971 3.96507 18.965 4.10732L18.716 4.45109C18.301 4.33254 17.6488 4.35625 17.1982 4.56963C17.0796 4.6289 16.7713 4.92526 16.6409 5.00824C16.4037 5.16235 16.2614 5.16235 16.048 5.35202C15.8938 5.49427 15.8938 5.73136 15.6567 5.88546C15.4314 6.03957 15.0756 6.01585 14.8385 6.20552C14.3523 6.59671 14.6962 7.04718 14.1744 7.36725C13.7119 7.6636 12.8819 7.54506 12.4906 7.90069C12.3127 8.0548 12.455 8.30373 12.2653 8.48155C12.0874 8.64751 11.6605 8.74234 11.4234 8.82532C10.8897 9.02685 10.3087 9.14539 9.90553 9.50102C9.7158 9.65512 9.70393 9.89221 9.45492 10.0345C9.21776 10.1767 8.82645 10.1056 8.57743 10.2241C8.29284 10.3782 8.26913 10.556 8.04382 10.722C7.73552 10.9354 7.55765 10.888 7.21376 11.0421C6.95289 11.1606 6.82245 11.374 6.53786 11.4925C6.26513 11.6111 5.88567 11.5755 5.58922 11.6466C4.64058 11.8719 3.85795 12.2275 3.15833 11.3977C2.28083 10.3427 3.18204 9.13353 3.77494 8.09036Z" fill="#8C735B"/>
<path d="M20.6013 9.37059C19.712 7.61616 13.2968 6.06325 13.4747 5.2453C13.6407 4.43921 16.4273 3.09967 17.8147 3.44345C19.2139 3.77537 16.8305 4.73556 18.0519 5.3994C18.5855 5.69576 23.8149 2.70848 20.4946 0.977756C17.6131 -0.527738 12.2415 -0.741114 5.47052 3.60941C-0.387336 7.37907 -0.992112 10.4612 1.0949 11.9667C4.69974 14.5746 9.22951 11.5281 9.11093 11.2436C8.86191 10.639 6.50215 12.1801 5.30449 10.722C4.75903 10.07 7.14249 8.1496 9.07535 8.57635C10.4627 8.89642 14.9688 12.9506 16.3206 12.512C17.6606 12.0615 21.1942 10.5442 20.6013 9.37059Z" fill="#A5896A"/>
<g opacity="0.6">
<path d="M19.5815 1.35718C19.6052 1.36898 19.6052 1.36898 19.5815 1.35718Z" fill="#D1AC88"/>
<path d="M3.65591 6.53746C4.3081 5.79064 5.35161 5.10309 6.18167 4.52223C8.13824 3.12343 10.1304 2.12766 12.5138 1.45197C14.506 0.894818 17.6483 0.527337 19.4389 1.29787C19.4626 1.30972 19.5457 1.34528 19.5812 1.35714L19.7591 1.99726C19.8777 2.83892 17.0673 2.62554 16.427 2.69667C15.2293 2.81521 13.498 2.99303 12.5613 3.70428C11.328 4.62892 11.5889 5.67209 12.6324 6.46633C13.1186 6.82196 13.9842 7.21315 13.5218 7.85328C13.1779 8.35116 12.2648 8.35116 11.6956 8.30375C10.3438 8.1852 9.21731 7.16574 7.82992 7.31984C6.58483 7.45024 5.86148 8.446 4.67568 8.57639C3.18157 8.74235 2.95628 7.35541 3.65591 6.53746Z" fill="#D1AC88"/>
</g>
<path d="M45.6334 14.4798C44.4002 11.3977 40.7123 11.4925 37.9138 10.2241C36.0166 9.37062 33.6094 8.50525 31.5105 8.33929C30.4077 8.25631 29.3405 8.18519 28.2496 8.41042C27.4788 8.55267 26.7436 8.94386 26.0202 9.06241L23.0676 9.46545C21.6209 11.9786 23.8858 13.6619 26.1151 14.705C27.5737 15.3807 27.6804 14.1835 28.3918 14.0649C29.2456 13.9227 29.7437 14.3731 30.1231 15.2148C30.633 16.3646 28.0361 17.1707 27.2298 17.7397C26.4472 18.285 25.2732 18.9726 25.0361 19.9802C24.6803 21.4501 26.0202 22.3985 27.0875 22.9201C28.1073 23.4298 29.4117 23.7854 30.6923 23.6669C31.9256 23.5365 32.2101 23.1216 33.0165 22.2799C34.3209 20.9048 35.1272 19.8024 36.5976 18.6525C36.6332 18.9252 37.902 19.1148 38.0799 19.5653C38.2577 20.0039 37.3209 20.6915 37.4395 20.9404C37.9968 22.1021 41.1155 23.252 43.416 22.434C44.4832 22.0547 47.1868 21.6161 47.922 18.0835C48.2185 16.661 46.1433 15.7838 45.6334 14.4798Z" fill="#634E40"/>
<path d="M43.4992 14.4559C41.6138 11.5398 38.4003 9.91575 35.1274 9.06225C32.8507 8.45768 29.6609 7.18926 27.4079 8.45767C26.7438 8.83701 25.9968 9.63125 25.7478 10.3662C25.5818 10.876 25.7122 12.0495 26.1035 12.1799L26.4237 12.583C26.8624 12.334 27.5976 12.2392 28.1312 12.4407C28.2617 12.4881 28.653 12.8319 28.8071 12.9149C29.1036 13.0808 29.2577 13.0453 29.5305 13.2587C29.7202 13.4128 29.7558 13.7328 30.0404 13.8988C30.3131 14.0648 30.7044 13.9581 31.0009 14.1714C31.5938 14.5982 31.2973 15.2739 31.9258 15.6058C32.495 15.9022 33.3843 15.5702 33.8705 15.9733C34.0958 16.1511 33.9891 16.5186 34.2144 16.7083C34.4397 16.8979 34.9259 16.9453 35.2104 17.0165C35.8271 17.1824 36.4911 17.218 36.9891 17.6092C37.2263 17.787 37.2856 18.1071 37.582 18.2493C37.8666 18.3916 38.2817 18.2138 38.5663 18.3204C38.922 18.4627 38.9694 18.7116 39.254 18.8776C39.6216 19.1147 39.8114 19.0198 40.2146 19.1502C40.5229 19.2569 40.7007 19.5177 41.0327 19.6244C41.3529 19.7311 41.7679 19.6126 42.1 19.6481C43.1909 19.7548 44.1158 20.0749 44.7324 18.8065C45.5269 17.1943 44.3293 15.7362 43.4992 14.4559Z" fill="#8C735B"/>
<path d="M25.1905 19.6482C25.8782 17.0758 32.661 13.65 32.3409 12.5831C32.0088 11.5162 28.7242 10.2952 27.2419 11.0301C25.7715 11.7651 28.5581 12.5831 27.3249 13.7329C26.7913 14.2427 20.5184 11.2791 23.8861 8.24439C26.8032 5.61274 32.661 4.22579 40.8668 8.73042C47.9579 12.6305 49.1437 16.6846 47.1041 19.1503C43.5823 23.4179 38.0801 20.2172 38.1632 19.8023C38.3292 18.937 41.1988 20.5491 42.266 18.3324C42.7522 17.3248 39.7996 15.2147 37.7481 16.1986C36.2777 16.9099 32.0088 23.3349 30.4436 23.003C28.8902 22.6829 24.7399 21.3552 25.1905 19.6482Z" fill="#A5896A"/>
<g opacity="0.6">
<path d="M24.953 8.57626V8.56445C24.9176 8.58806 24.9294 8.58806 24.953 8.57626Z" fill="#D1AC88"/>
<path d="M43.3568 12.3223C42.5149 11.4332 41.246 10.7338 40.2381 10.1055C37.8428 8.62376 35.4712 7.67542 32.7439 7.24867C30.4553 6.90489 26.9334 7.04714 25.0954 8.46966C25.0717 8.48151 24.9887 8.54078 24.9531 8.57634L24.8701 9.46541C24.8701 10.639 27.9413 9.77363 28.641 9.73807C29.9809 9.65509 31.9256 9.5484 33.064 10.3071C34.5818 11.3147 34.487 12.7846 33.4672 14.0649C32.9929 14.6457 32.1154 15.357 32.7201 16.1394C33.1944 16.7321 34.1905 16.5543 34.819 16.3646C36.2775 15.926 37.3566 14.3138 38.8982 14.2308C40.2855 14.1479 41.2579 15.3688 42.5978 15.2977C44.258 15.2029 44.2698 13.2944 43.3568 12.3223Z" fill="#D1AC88"/>
</g>
<path d="M3.97656 18.2968C5.2928 15.5703 8.56561 15.926 11.1507 14.9776C12.9056 14.3256 15.1112 13.7092 16.9848 13.7092C17.969 13.7211 18.9177 13.7329 19.8782 14.0174C20.5422 14.2071 21.1707 14.622 21.811 14.7761L24.4079 15.3688C25.487 17.7871 23.3526 19.1622 21.2893 19.9446C19.9375 20.4662 19.9375 19.3637 19.309 19.1978C18.5619 19.0081 18.0876 19.3874 17.6963 20.1224C17.1508 21.1419 19.392 22.0784 20.0679 22.6592C20.7201 23.2164 21.7043 23.9276 21.8466 24.876C22.0363 26.2511 20.7794 27.0334 19.7951 27.4246C18.8465 27.8158 17.6607 28.0529 16.5342 27.8395C15.4551 27.638 15.2179 27.235 14.5776 26.4052C13.5223 25.0419 12.8938 23.975 11.6724 22.8133C11.625 23.0504 10.4747 23.1334 10.285 23.5246C10.0953 23.9158 10.8661 24.6152 10.7475 24.8404C10.1665 25.8717 7.30865 26.6897 5.32836 25.7769C4.40344 25.3383 2.04369 24.7337 1.65238 21.4501C1.49822 20.1224 3.40738 19.4586 3.97656 18.2968Z" fill="#634E40"/>
<path d="M5.87403 18.4389C7.77131 15.9021 10.7358 14.6456 13.7122 14.1003C15.7873 13.7209 18.7163 12.7963 20.6135 14.124C21.1709 14.527 21.7875 15.3094 21.9416 15.997C22.0602 16.483 21.8468 17.5499 21.5029 17.6329L21.1709 17.9885C20.8033 17.7158 20.1629 17.5854 19.6767 17.7277C19.5463 17.7633 19.1787 18.0478 19.0364 18.1189C18.7637 18.2374 18.6332 18.2019 18.3724 18.3797C18.1826 18.5101 18.1352 18.7946 17.8625 18.925C17.6135 19.0554 17.2696 18.925 16.985 19.1028C16.4277 19.4466 16.6411 20.0867 16.0601 20.3475C15.5383 20.5846 14.7676 20.2171 14.3051 20.549C14.0916 20.6913 14.1628 21.035 13.9375 21.201C13.724 21.3551 13.2853 21.3551 13.0363 21.4025C12.4789 21.5092 11.8861 21.4974 11.3999 21.8174C11.1864 21.9715 11.1034 22.2442 10.8307 22.3627C10.5698 22.4694 10.2141 22.2679 9.94133 22.3627C9.63302 22.4576 9.56186 22.6828 9.30098 22.825C8.94524 23.0028 8.7911 22.908 8.4235 22.991C8.13891 23.0621 7.96105 23.2992 7.6646 23.3703C7.36815 23.4415 7.0124 23.2992 6.70409 23.3111C5.73173 23.3348 4.8898 23.56 4.4392 22.339C3.85815 20.798 5.03211 19.5532 5.87403 18.4389Z" fill="#8C735B"/>
<path d="M21.7277 24.5558C21.3127 22.1493 15.5497 18.5101 15.9291 17.5499C16.2967 16.6015 19.3087 15.7125 20.5656 16.4948C21.8226 17.2891 19.2731 17.8344 20.281 18.9724C20.7198 19.4821 26.5183 17.218 23.7673 14.1833C21.3838 11.5516 16.273 9.84458 8.63647 13.3772C2.04341 16.4356 0.679723 20.063 2.30427 22.4813C5.10276 26.6658 10.2373 24.129 10.1899 23.7497C10.1068 22.9436 7.4388 24.2001 6.66803 22.0901C6.31229 21.1299 9.08706 19.411 10.842 20.466C12.0871 21.2247 15.3955 27.4482 16.8066 27.2585C18.2059 27.0689 22.0004 26.1561 21.7277 24.5558Z" fill="#A5896A"/>
<g opacity="0.6">
<path d="M22.7949 14.4087C22.8196 14.4334 22.8072 14.421 22.7949 14.4087Z" fill="#D1AC88"/>
<path d="M6.15833 16.495C6.97654 15.7482 8.15049 15.191 9.09913 14.6932C11.3403 13.5077 13.5103 12.8083 15.9768 12.6187C18.0282 12.4764 21.1469 12.8676 22.6766 14.302C22.6884 14.3138 22.7596 14.3849 22.7951 14.4086V15.2384C22.7003 16.3172 20.0441 15.2977 19.4275 15.2029C18.2417 15.0251 16.5341 14.788 15.455 15.4044C14.0202 16.2105 14.0083 17.5737 14.8147 18.8184C15.1823 19.3993 15.9175 20.1106 15.3127 20.7744C14.8503 21.296 13.9728 21.0589 13.4273 20.8337C12.1704 20.3239 11.3403 18.771 9.96477 18.5695C8.74339 18.4035 7.78289 19.4467 6.60894 19.2808C5.13855 19.0792 5.26898 17.313 6.15833 16.495Z" fill="#D1AC88"/>
</g>
</svg>
