<svg width="23" height="48" viewBox="0 0 23 48" fill="none" xmlns="http://www.w3.org/2000/svg">
<path d="M12.5902 1.88403H10.2951L9.69629 11.5891H13.1893L12.5902 1.88403Z" fill="#FFCF48"/>
<path d="M10.1452 7.62815C10.1452 4.85474 10.6369 4.55792 11.2429 4.55792C11.8491 4.55792 12.3408 4.85474 12.3408 7.62815C12.3408 9.72271 12.2477 10.9127 12.0924 11.5893H13.1893L12.5902 1.88403H10.2951L9.69629 11.5893H10.3937C10.2386 10.9125 10.1452 9.72271 10.1452 7.62815Z" fill="#EFA233"/>
<path d="M22.8866 23.4158C22.8866 21.2286 22.0332 19.1264 20.5053 17.5494C19.9015 16.9264 19.0676 16.574 18.1959 16.574H5.15491C4.06788 16.574 3.02505 17.0027 2.25632 17.766C0.81121 19.2012 0 21.1464 0 23.1748V46.4732C0 47.3163 0.688722 48.0001 1.5382 48.0001H21.4975C22.2645 48.0001 22.8866 47.3832 22.8866 46.6216V23.4158Z" fill="#FFCF48"/>
<path d="M16.183 18.6703C16.183 17.9487 16.2422 17.2476 16.3509 16.574H5.15479C4.06775 16.574 3.02491 17.0027 2.25593 17.766C1.01776 18.9957 0.248795 20.6019 0.0537109 22.3132C0.119644 22.2428 0.180381 22.167 0.249031 22.0981C1.16074 21.1925 2.39743 20.6846 3.68696 20.6846H16.338C16.2378 20.0359 16.183 19.362 16.183 18.6703Z" fill="#FFE266"/>
<path d="M20.5051 17.2657C19.3835 16.0967 14.413 16.0031 14.6859 16.3656C15.8779 17.9574 16.3775 20.0794 16.3775 22.287V45.9419C16.3775 46.7101 15.9498 47.2001 15.4218 47.2001L2.44473 47.142C1.7812 47.142 0.581559 46.6057 0.581559 45.7549L0.315596 22.3833C0.315596 21.1612 0.814672 19.6104 1.61304 18.5609C0.465496 19.6107 0 21.366 0 22.9432V46.4592C0 47.3102 0.688722 47.9999 1.5382 47.9999H21.4975C22.2645 47.9999 22.8866 47.3769 22.8866 46.6089V23.1864C22.8863 20.9785 22.0327 18.8565 20.5051 17.2657Z" fill="#EFA233"/>
<path d="M17.4807 10.7931C17.4807 10.5125 17.3056 10.2607 17.0384 10.1555C13.5496 8.78 10.2176 8.73579 5.78624 10.2073C5.5593 10.2829 5.40596 10.4903 5.40596 10.7234L5.13086 16.5905L17.8802 16.6155L17.4807 10.7931Z" fill="#E58229"/>
<path d="M18.2958 9.27681C18.2958 8.95801 18.0971 8.67031 17.7938 8.55054C13.8346 6.98394 10.0514 6.93332 5.02247 8.60981C4.76442 8.69599 4.59082 8.93232 4.59082 9.19779V16.0129H18.2958V9.27681Z" fill="#FFCF48"/>
<path d="M11.4264 11.3498C11.4264 9.93728 11.605 8.5912 11.9282 7.36711C9.82403 7.35205 7.58549 7.75233 5.02198 8.60009C4.76393 8.68553 4.59033 8.92013 4.59033 9.18362V15.9466H12.1075C11.6724 14.5633 11.4264 13.0031 11.4264 11.3498Z" fill="#FFE266"/>
<path d="M18.2909 9.51034C18.2929 9.51109 18.2941 9.51232 18.2958 9.51306V9.31328C18.2958 8.98855 18.0971 8.69544 17.7938 8.5732C13.8346 6.97672 10.0514 6.9251 5.02247 8.63345C4.76442 8.72111 4.59082 8.96213 4.59082 9.23278V9.48861C9.95662 7.71408 14.0319 7.79237 18.2909 9.51034Z" fill="#FFE266"/>
<path d="M17.7933 8.57328C16.5984 8.0915 15.4197 7.75318 14.2176 7.55859C16.3391 8.06137 19.9257 15.699 8.18334 15.699C6.75848 15.699 5.57711 15.6566 4.59033 15.5783V16.1784H18.2954V9.31361C18.2956 8.98839 18.0968 8.69552 17.7933 8.57328Z" fill="#EFA233"/>
<path d="M17.8797 46.9437H22.138C22.138 46.9437 22.138 24.6285 22.138 21.8556C22.138 19.0824 19.8755 16.9373 17.1812 16.9373C18.3457 19.0168 17.8797 46.9437 17.8797 46.9437Z" fill="#F9B843"/>
<path d="M9.79639 3.86482H13.1894C13.1894 -0.146013 12.633 0.0520371 11.384 0.00240174C10.1354 -0.0469867 9.79639 0.646177 9.79639 3.86482Z" fill="#EFA233"/>
<path d="M21.173 20.519C21.173 18.6538 18.8776 17.1682 18.3788 17.4655C17.8644 17.7715 18.645 18.8188 18.5951 20.519C19.7429 20.519 20.4245 20.519 21.173 20.519Z" fill="#FFC95C"/>
<path d="M9.94141 3.66053H12.5123C12.5123 0.172719 12.0905 0.344599 11.1443 0.301384C10.1977 0.258663 9.94141 0.86144 9.94141 3.66053Z" fill="#FFCF48"/>
<path d="M1.64648 22.4496V45.9531H4.50706V21.7896C4.50706 21.7896 2.3115 21.5913 1.64648 22.4496Z" fill="#FFE266"/>
<path d="M1.6626 19.5115C2.26143 18.6207 3.75841 17.0853 4.35724 17.2339C4.95608 17.3826 3.85817 19.1154 3.85817 19.1154L1.6626 19.5115Z" fill="#FFF278"/>
<path d="M9.05176 16.0128L9.43427 10.2524L9.81655 16.0457L9.05176 16.0128Z" fill="#EFA233"/>
<path d="M10.9077 16.0128L11.29 10.2524L11.6725 16.0457L10.9077 16.0128Z" fill="#EFA233"/>
<path d="M12.7637 16.0128L13.1464 10.2524L13.5294 16.0457L12.7637 16.0128Z" fill="#EFA233"/>
<path d="M14.6201 16.0128L15.0026 10.2524L15.3851 16.0457L14.6201 16.0128Z" fill="#EFA233"/>
<path d="M16.7153 16.0128L17.0983 10.2524L17.4808 16.0457L16.7153 16.0128Z" fill="#F9B843"/>
<path d="M7.19531 16.0128L7.57831 10.2524L7.96083 16.0457L7.19531 16.0128Z" fill="#EFA233"/>
<path d="M5.33887 16.0128L5.72162 10.2524L6.10438 16.0457L5.33887 16.0128Z" fill="#EFA233"/>
<path d="M21.2061 28.4578H2.11182V41.662H21.2061V28.4578Z" fill="#EFA233"/>
<path d="M20.7954 28.5442H2.52295V41.1795H20.7954V28.5442Z" fill="#FFEEA6"/>
<path d="M16.4824 28.5442C16.8254 32.5553 16.9002 36.857 16.6592 41.1795H20.795V28.5442H16.4824Z" fill="#F9D093"/>
<path d="M20.7954 28.5442H2.52295V28.9309H20.7954V28.5442Z" fill="#FFEEA6"/>
<path d="M5.45508 21.938H11.9422C11.9422 21.938 9.79657 23.1601 5.45508 23.3737C5.45508 22.4267 5.45508 21.938 5.45508 21.938Z" fill="#FFE266"/>
<path d="M5.47674 38.5264C5.47674 38.2387 5.27079 38.0063 5.01743 38.0063C4.76308 38.0063 4.55713 38.2387 4.55713 38.5264C4.55713 38.8131 4.76308 39.046 5.01743 39.046C5.27079 39.046 5.47674 38.8131 5.47674 38.5264Z" fill="#DD4A28"/>
<path d="M18.8776 38.5264C18.8776 38.2387 18.6719 38.0063 18.4178 38.0063C18.164 38.0063 17.958 38.2387 17.958 38.5264C17.958 38.8131 18.164 39.046 18.4178 39.046C18.6719 39.046 18.8776 38.8131 18.8776 38.5264Z" fill="#DD4A28"/>
<path d="M12.1772 38.5264C12.1772 38.2387 11.971 38.0063 11.7171 38.0063C11.4635 38.0063 11.2573 38.2387 11.2573 38.5264C11.2573 38.8131 11.4635 39.046 11.7171 39.046C11.971 39.046 12.1772 38.8131 12.1772 38.5264Z" fill="#DD4A28"/>
<path d="M5.47674 31.2307C5.47674 30.9436 5.27079 30.7109 5.01743 30.7109C4.76308 30.7109 4.55713 30.9436 4.55713 31.2307C4.55713 31.5177 4.76308 31.7503 5.01743 31.7503C5.27079 31.7503 5.47674 31.5177 5.47674 31.2307Z" fill="#DD4A28"/>
<path d="M18.8776 31.2307C18.8776 30.9436 18.6719 30.7109 18.4178 30.7109C18.164 30.7109 17.958 30.9436 17.958 31.2307C17.958 31.5177 18.164 31.7503 18.4178 31.7503C18.6719 31.7503 18.8776 31.5177 18.8776 31.2307Z" fill="#DD4A28"/>
<path d="M12.1772 31.2307C12.1772 30.9436 11.971 30.7109 11.7171 30.7109C11.4635 30.7109 11.2573 30.9436 11.2573 31.2307C11.2573 31.5177 11.4635 31.7503 11.7171 31.7503C11.971 31.7503 12.1772 31.5177 12.1772 31.2307Z" fill="#DD4A28"/>
<path d="M4.92893 35.0055H4.86571V36.2436H4.0708V35.9231L4.33824 33.6643H5.24403L5.44108 34.6812H5.49714L5.69395 33.6643H6.60369L6.86718 35.9231V36.2436H6.07573V35.0055H6.0093L5.80829 36.2436H5.12944L4.92893 35.0055Z" fill="#DD4A28"/>
<path d="M9.03749 33.6641V36.2434H7.41434C7.22172 36.2434 7.08789 36.111 7.08789 35.9228V33.6641H7.90106V35.5988H8.22406V33.6641H9.03749Z" fill="#DD4A28"/>
<path d="M9.25903 34.5264V33.9851C9.25903 33.7967 9.39214 33.6641 9.58549 33.6641H10.9963V33.9809L10.8706 34.3125H10.0725V34.4308L10.7775 34.899C10.9555 35.0168 10.9963 35.1307 10.9963 35.3373V35.9231C10.9963 36.1113 10.8627 36.2436 10.6733 36.2436H9.25879V35.5991H10.1833V35.4297L9.47782 34.9647C9.29953 34.8434 9.25903 34.7326 9.25903 34.5264Z" fill="#DD4A28"/>
<path d="M11.1069 34.3125V33.6641H12.9264V33.9851L12.7965 34.3125H12.4068V36.2434H11.5934V34.3125H11.1069Z" fill="#DD4A28"/>
<path d="M14.5666 33.6641L14.9311 35.9228V36.2434H14.1171L14.069 35.7238H13.7124L13.661 36.2434H12.8516V35.9228L13.2156 33.6641H14.5666ZM14.0095 35.079L13.9351 34.3125H13.846L13.7719 35.079H14.0095Z" fill="#DD4A28"/>
<path d="M16.7777 33.6641C16.9674 33.6641 17.101 33.7967 17.101 33.9851V34.9983C17.101 35.1195 17.0086 35.2561 16.8856 35.2892L17.142 35.9231V36.2436H16.347L16.1285 35.4406H15.9645V36.2436H15.1519V33.6643L16.7777 33.6641ZM15.9645 34.3125V34.7953H16.288V34.3125H15.9645Z" fill="#DD4A28"/>
<path d="M17.3638 36.2434V33.6641H18.9862C19.1753 33.6641 19.3089 33.7967 19.3089 33.9851V35.9231C19.3089 36.1113 19.1753 36.2436 18.9862 36.2436L17.3638 36.2434ZM18.173 35.5988H18.4997V34.3125H18.173V35.5988Z" fill="#DD4A28"/>
</svg>
