<svg width="48" height="27" viewBox="0 0 48 27" fill="none" xmlns="http://www.w3.org/2000/svg">
<path d="M41.4948 3.42779L34.6882 0.909423L25.0113 0.521973L18.0109 2.02331L14.1353 5.36499L14.983 7.90758C14.983 7.90758 14.8135 6.61208 16.2669 5.32868C17.7323 4.04528 19.5369 2.36233 24.7448 2.3139C30.8368 2.26547 35.4997 2.60448 38.0915 3.56098C40.3321 4.37219 42.8755 6.29729 42.8997 6.58787C42.9361 6.86634 43.6022 5.93406 43.6022 5.93406L41.4948 3.42779Z" fill="#994575"/>
<path d="M44.4983 5.76465L42.5241 10.0386L35.5601 13.5377H25.9073L18.362 11.431L15.1282 9.42112L13.3357 6.39424L12.7544 8.82787C12.7544 8.82787 12.4879 10.0749 15.0676 12.2906C17.2356 14.1673 26.1253 16.9278 32.6291 16.274C46.5693 14.8574 45.334 8.45252 45.334 8.45252L44.4983 5.76465Z" fill="#994575"/>
<path fill-rule="evenodd" clip-rule="evenodd" d="M44.4495 8.47671C42.8751 11.8063 35.3539 15.3538 26.9002 14.2036C20.2147 13.2955 13.5777 11.0193 13.3475 6.78165C13.1053 2.05971 21.2805 0.170923 26.0645 0.025632C39.9078 -0.398132 46.3268 4.51754 44.4495 8.47671ZM26.4763 0.897385C22.0193 1.03057 14.5102 2.25343 14.7404 6.66058C14.9584 10.6076 20.8082 12.1695 27.0455 12.7749C35.366 13.574 41.131 11.322 42.5965 8.21034C44.3405 4.52964 39.3628 0.497835 26.4763 0.897385Z" fill="#ECCEED"/>
<path d="M17.0417 11.7701C17.0902 12.2181 16.7874 12.6177 16.8358 13.0778C16.8601 13.2594 17.1628 13.223 17.1386 13.0414C17.0902 12.5934 17.393 12.1939 17.3445 11.7338C17.3324 11.5522 17.0175 11.6006 17.0417 11.7701Z" fill="#C1599A"/>
<path d="M19.2582 12.7146C19.1492 13.1142 19.0039 13.5016 18.8828 13.9012C18.8222 14.0707 19.1129 14.1675 19.1735 13.998C19.2946 13.6106 19.4399 13.2231 19.5489 12.8236C19.5973 12.6541 19.3067 12.5451 19.2582 12.7146Z" fill="#C1599A"/>
<path d="M21.0022 13.3318C20.9538 13.7797 20.9538 14.2398 20.7963 14.6636C20.7358 14.8331 21.0265 14.93 21.087 14.7726C21.2566 14.3125 21.2687 13.8403 21.3171 13.3681C21.3292 13.1865 21.0264 13.1623 21.0022 13.3318Z" fill="#C1599A"/>
<path d="M24.987 14.2158C24.9991 14.6396 25.0112 15.0634 24.9627 15.4871C24.9506 15.6687 25.2655 15.693 25.2776 15.5234C25.314 15.0997 25.3019 14.6759 25.2897 14.2522C25.2897 14.0705 24.9748 14.0342 24.987 14.2158Z" fill="#C1599A"/>
<path d="M29.6382 14.797C29.8198 15.0876 29.7351 15.463 29.8319 15.7778C29.8804 15.9473 30.1953 15.9109 30.1347 15.7414C30.0378 15.4024 30.1226 15.015 29.9288 14.6881C29.832 14.5307 29.5413 14.6396 29.6382 14.797Z" fill="#C1599A"/>
<path d="M33.5375 14.5427C33.5011 14.8818 33.4527 15.2329 33.5496 15.584C33.598 15.7535 33.9129 15.7172 33.8645 15.5356C33.7676 15.2208 33.816 14.8939 33.8402 14.5791C33.8645 14.3975 33.5496 14.3611 33.5375 14.5427Z" fill="#C1599A"/>
<path d="M36.602 14.0825C36.6504 14.3973 36.5898 14.7121 36.6262 15.0269C36.6383 15.2085 36.9411 15.16 36.929 14.9905C36.9047 14.6757 36.9532 14.361 36.9047 14.0462C36.8805 13.8646 36.5777 13.9009 36.602 14.0825Z" fill="#C1599A"/>
<path d="M40.6712 12.3271C40.6308 12.7307 40.5864 13.1343 40.538 13.5379C40.5258 13.7074 40.8286 13.7437 40.8529 13.5742C40.8932 13.1706 40.9376 12.767 40.9861 12.3635C40.9982 12.1818 40.6954 12.1576 40.6712 12.3271Z" fill="#C1599A"/>
<path d="M13.2994 8.65827C13.251 9.08204 13.142 9.49368 13.0451 9.90534C12.9966 10.087 13.3115 10.1112 13.3479 9.94167C13.4569 9.53001 13.5659 9.11835 13.6143 8.69459C13.6385 8.52508 13.3237 8.48877 13.2994 8.65827Z" fill="#C1599A"/>
<path d="M14.5472 10.4142C14.5229 10.7048 14.4866 11.0075 14.4018 11.2981C14.3412 11.4676 14.6319 11.5766 14.6925 11.4071C14.7894 11.0923 14.8257 10.7654 14.862 10.4384C14.8863 10.2689 14.5714 10.2326 14.5472 10.4142Z" fill="#C1599A"/>
<path d="M15.8552 11.3463C15.9642 11.6369 15.8189 12.0243 15.7826 12.3149C15.7705 12.4965 16.0732 12.5329 16.0975 12.3512C16.1338 11.988 16.267 11.5885 16.1338 11.2373C16.0732 11.0678 15.7947 11.1768 15.8552 11.3463Z" fill="#C1599A"/>
<path d="M18.2772 12.4964C18.1803 12.8354 18.1319 13.1744 18.0956 13.5134C18.0835 13.695 18.3863 13.7313 18.4105 13.5497C18.4468 13.2349 18.4831 12.908 18.5679 12.6053C18.6164 12.4358 18.3257 12.3269 18.2772 12.4964Z" fill="#C1599A"/>
<path d="M20.0816 13.2107C20.1664 13.5618 20.1301 13.9251 20.1543 14.2762C20.1664 14.4578 20.4692 14.4094 20.4571 14.2398C20.4328 13.8766 20.4692 13.5255 20.3844 13.1744C20.3481 13.0049 20.0453 13.0412 20.0816 13.2107Z" fill="#C1599A"/>
<path d="M21.7898 13.6832C21.8625 14.0948 21.7656 14.5065 21.7656 14.9181C21.7777 15.0877 22.0805 15.124 22.0805 14.9545C22.0805 14.5065 22.1653 14.0706 22.0926 13.6347C22.0684 13.4652 21.7535 13.5016 21.7898 13.6832Z" fill="#C1599A"/>
<path d="M22.8794 13.9253C22.8309 14.3612 22.7946 14.797 22.8673 15.245C22.9036 15.4145 23.2064 15.3782 23.1701 15.1966C23.0974 14.7849 23.1458 14.3732 23.1943 13.9616C23.2064 13.78 22.9036 13.7558 22.8794 13.9253Z" fill="#C1599A"/>
<path d="M23.4853 14.1553C23.449 14.5549 23.4611 14.9665 23.4853 15.3661C23.4974 15.5356 23.8002 15.4993 23.7881 15.3177C23.776 14.9423 23.7518 14.567 23.7881 14.1917C23.8123 14.0222 23.4974 13.9858 23.4853 14.1553Z" fill="#C1599A"/>
<path d="M34.3854 1.66008C34.3612 1.92645 34.3854 2.20493 34.3612 2.4834C34.337 2.66501 34.6519 2.68922 34.664 2.51971C34.6882 2.24124 34.664 1.96278 34.6882 1.6843C34.7124 1.5148 34.3975 1.47847 34.3854 1.66008Z" fill="#C1599A"/>
<path d="M35.0033 1.96301C35.0759 2.14462 35.0638 2.35045 35.1123 2.54417C35.1486 2.72579 35.4514 2.67735 35.4151 2.50784C35.3666 2.28991 35.3666 2.05986 35.2818 1.85403C35.2213 1.68453 34.9306 1.7935 35.0033 1.96301Z" fill="#C1599A"/>
<path d="M35.7782 2.14446C35.754 2.30589 35.7338 2.46732 35.7176 2.62876C35.7055 2.81037 36.0083 2.8467 36.0325 2.66509C36.0487 2.50365 36.0648 2.33819 36.081 2.16868C36.1052 1.99917 35.7903 1.96284 35.7782 2.14446Z" fill="#C1599A"/>
<path d="M37.486 2.54401C37.4618 2.72563 37.4497 2.90724 37.4982 3.08885C37.5345 3.25836 37.8373 3.22203 37.8009 3.04042C37.7646 2.89513 37.7767 2.73773 37.7888 2.58033C37.813 2.41082 37.4981 2.37451 37.486 2.54401Z" fill="#C1599A"/>
<path d="M38.5878 2.96789C38.6725 3.1495 38.7089 3.35533 38.7573 3.56116C38.8057 3.73067 39.1085 3.69434 39.0601 3.51273C39.0116 3.29479 38.9632 3.06475 38.8663 2.85892C38.8057 2.68941 38.5151 2.79838 38.5878 2.96789Z" fill="#C1599A"/>
<path d="M39.6541 3.39167C39.6299 3.56118 39.6299 3.71857 39.6662 3.87597C39.7025 4.05759 40.0174 4.00915 39.969 3.83964C39.9327 3.69435 39.9448 3.57327 39.9569 3.42798C39.9811 3.25848 39.6662 3.22216 39.6541 3.39167Z" fill="#C1599A"/>
<path d="M40.9621 4.36027C41.0106 4.42081 40.9985 4.59032 40.9621 4.66296C40.8773 4.83247 41.168 4.94144 41.2528 4.77193C41.3255 4.60243 41.3376 4.34816 41.2044 4.19077C41.0954 4.04547 40.8531 4.21498 40.9621 4.36027Z" fill="#C1599A"/>
<path d="M33.0896 1.40602C33.0654 1.65624 33.0412 1.91051 33.017 2.1688C32.9927 2.35042 33.3076 2.38673 33.3197 2.20512C33.352 1.94682 33.3803 1.69257 33.4045 1.44235C33.4287 1.26074 33.1138 1.22441 33.0896 1.40602Z" fill="#C1599A"/>
<path d="M31.9028 1.56337C31.8786 1.53916 31.8907 1.56337 31.8907 1.57548C31.8907 1.62391 31.8786 1.67233 31.8786 1.70866C31.8544 1.80552 31.818 1.90238 31.7817 1.99924C31.7211 2.16875 32.0118 2.27772 32.0724 2.10821C32.145 1.89028 32.3267 1.51494 32.0845 1.33333C31.927 1.22436 31.7454 1.4423 31.9028 1.56337Z" fill="#C1599A"/>
<path d="M31.1152 1.26078C31.0062 1.52714 30.9941 1.81771 31.0183 2.09619C31.0304 2.2778 31.3453 2.24149 31.3211 2.05987C31.2969 1.82983 31.3211 1.58767 31.4059 1.36973C31.4664 1.20023 31.1757 1.09127 31.1152 1.26078Z" fill="#C1599A"/>
<path d="M29.9648 1.39382C29.9527 1.56333 30.0011 1.72072 30.0375 1.87812C30.0859 2.05974 30.3887 2.0113 30.3403 1.84179C30.3039 1.70861 30.2555 1.56332 30.2676 1.43013C30.2918 1.24852 29.9769 1.21221 29.9648 1.39382Z" fill="#C1599A"/>
<path d="M29.0202 1.45437C28.9959 1.64809 28.9717 1.85392 29.0202 2.04764C29.0565 2.21715 29.3593 2.18082 29.3229 2.01131C29.2866 1.8297 29.3108 1.66019 29.3229 1.49068C29.3472 1.30907 29.0323 1.27275 29.0202 1.45437Z" fill="#C1599A"/>
<path d="M27.99 6.03104L20.9411 4.04541L11.2884 4.78397L4.49394 7.33866L1.00586 11.5763L2.1201 14.3247C2.1201 14.3247 1.81732 12.8839 3.12535 11.2736C4.43338 9.6512 6.05629 7.53238 11.2278 6.84225C17.2714 6.03105 21.9464 5.84943 24.623 6.6001C26.9363 7.2418 29.6734 9.08215 29.734 9.39694C29.7946 9.71174 30.3517 8.58574 30.3517 8.58574L27.99 6.03104Z" fill="#994575"/>
<path d="M31.2239 8.28296L29.7342 13.3197L23.194 18.1264L13.5897 19.3008L5.86265 17.8721L2.43516 16.0076L0.31567 12.8233L0.00076298 15.6322C0.00076298 15.6322 -0.120357 17.0609 2.68948 19.2403C5.0512 21.0806 14.1832 23.0905 20.578 21.5528C34.288 18.2475 32.3502 11.2009 32.3502 11.2009L31.2239 8.28296Z" fill="#994575"/>
<path fill-rule="evenodd" clip-rule="evenodd" d="M31.4784 11.3342C30.2673 15.2692 23.1943 20.1728 14.6557 19.9306C7.92183 19.7369 1.06681 17.9934 0.37646 13.2593C-0.386556 7.98045 7.54636 4.8567 12.2819 4.10604C25.992 1.92668 32.9076 6.66072 31.4784 11.3342ZM12.7785 5.03831C8.36995 5.74055 1.04256 8.02888 1.74502 12.9445C2.38692 17.3638 8.36995 18.405 14.6557 18.3082C23.0005 18.1871 28.4869 14.9302 29.6133 11.2737C30.9455 6.91498 25.556 3.00424 12.7785 5.03831Z" fill="#ECCEED"/>
<path d="M4.59129 18.4172C4.68818 18.9136 4.43384 19.3979 4.53073 19.9065C4.56706 20.1002 4.86985 20.0154 4.83351 19.8217C4.73662 19.3253 4.99096 18.841 4.89407 18.3325C4.85774 18.1266 4.55495 18.2114 4.59129 18.4172Z" fill="#C1599A"/>
<path d="M6.89222 19.2043C6.83166 19.6644 6.72266 20.1124 6.64999 20.5725C6.61366 20.7662 6.91644 20.8509 6.95278 20.6572C7.02545 20.1971 7.13445 19.7491 7.195 19.2891C7.23134 19.0832 6.92855 18.9985 6.89222 19.2043Z" fill="#C1599A"/>
<path d="M8.69676 19.6763C8.70888 20.1848 8.7573 20.6933 8.6483 21.1897C8.59986 21.3956 8.90266 21.4682 8.93899 21.2745C9.06011 20.7539 9.01164 20.2211 9.01164 19.6763C9.01164 19.4826 8.69676 19.4826 8.69676 19.6763Z" fill="#C1599A"/>
<path d="M12.7543 20.1726C12.8149 20.6569 12.8754 21.1291 12.8754 21.6134C12.8754 21.8072 13.1903 21.8072 13.1903 21.6134C13.1782 21.1291 13.1176 20.6569 13.0571 20.1726C13.0329 19.9789 12.7301 19.9789 12.7543 20.1726Z" fill="#C1599A"/>
<path d="M17.4416 20.2575C17.6597 20.5723 17.6112 20.9961 17.7444 21.3351C17.8171 21.5288 18.1078 21.4441 18.0472 21.2625C17.9019 20.8871 17.9503 20.4392 17.7202 20.1001C17.5991 19.9306 17.3326 20.088 17.4416 20.2575Z" fill="#C1599A"/>
<path d="M21.2928 19.4947C21.2928 19.8821 21.2807 20.2817 21.4139 20.657C21.4865 20.8386 21.7893 20.766 21.7167 20.5723C21.5956 20.2333 21.5956 19.8579 21.5956 19.4947C21.5956 19.2889 21.2928 19.2889 21.2928 19.4947Z" fill="#C1599A"/>
<path d="M24.2844 18.5987C24.3692 18.9498 24.3449 19.313 24.4055 19.6521C24.4418 19.8579 24.7446 19.7731 24.7083 19.5794C24.6477 19.2283 24.6598 18.8651 24.5872 18.514C24.5387 18.3202 24.248 18.405 24.2844 18.5987Z" fill="#C1599A"/>
<path d="M28.1479 16.1287C28.1479 16.5808 28.1479 17.0368 28.1479 17.4969C28.1479 17.7027 28.4629 17.7027 28.4629 17.4969C28.4629 17.0368 28.4629 16.5808 28.4629 16.1287C28.4629 15.9229 28.1479 15.9229 28.1479 16.1287Z" fill="#C1599A"/>
<path d="M0.534063 15.378C0.534063 15.8623 0.473506 16.3344 0.412949 16.8066C0.388726 17.0125 0.703633 17.0125 0.727856 16.8066C0.788413 16.3344 0.84897 15.8623 0.84897 15.378C0.84897 15.1842 0.534063 15.1842 0.534063 15.378Z" fill="#C1599A"/>
<path d="M1.9752 17.1824C1.96309 17.5214 1.9752 17.8725 1.91464 18.1994C1.87831 18.4053 2.18109 18.49 2.21743 18.2842C2.27798 17.921 2.27798 17.5577 2.27798 17.1824C2.27798 16.9887 1.9752 16.9887 1.9752 17.1824Z" fill="#C1599A"/>
<path d="M3.35568 18.0783C3.50101 18.3931 3.40414 18.8411 3.40414 19.1801C3.40414 19.3859 3.70691 19.3859 3.71902 19.1801C3.71902 18.7684 3.8038 18.3083 3.63424 17.9209C3.54946 17.7393 3.28301 17.8967 3.35568 18.0783Z" fill="#C1599A"/>
<path d="M5.89942 19.0711C5.83887 19.4585 5.83887 19.846 5.83887 20.2455C5.83887 20.4392 6.14165 20.4392 6.14165 20.2455C6.14165 19.8823 6.14165 19.5191 6.20221 19.1558C6.22643 18.9621 5.93576 18.8774 5.89942 19.0711Z" fill="#C1599A"/>
<path d="M7.77632 19.6521C7.88532 20.0395 7.89743 20.4512 7.95799 20.8386C7.99432 21.0444 8.28499 20.9597 8.26077 20.7539C8.20021 20.3664 8.18812 19.9548 8.06701 19.5794C8.00645 19.3857 7.71576 19.4704 7.77632 19.6521Z" fill="#C1599A"/>
<path d="M9.52056 19.9671C9.62956 20.4272 9.58111 20.8994 9.62955 21.3595C9.65377 21.5532 9.96868 21.5653 9.94446 21.3595C9.89601 20.8752 9.94445 20.3667 9.81122 19.8824C9.76278 19.6886 9.47212 19.7734 9.52056 19.9671Z" fill="#C1599A"/>
<path d="M10.6348 20.1123C10.6348 20.6087 10.6347 21.1051 10.768 21.5894C10.8164 21.7832 11.1192 21.6984 11.0587 21.5047C10.9375 21.0567 10.9496 20.5845 10.9496 20.1123C10.9496 19.9186 10.6348 19.9186 10.6348 20.1123Z" fill="#C1599A"/>
<path d="M11.2524 20.306C11.2646 20.754 11.3251 21.2019 11.3857 21.6499C11.4099 21.8557 11.7127 21.771 11.6885 21.5652C11.6279 21.1535 11.5673 20.7297 11.5673 20.306C11.5673 20.1002 11.2524 20.1002 11.2524 20.306Z" fill="#C1599A"/>
<path d="M20.7236 4.91731C20.7357 5.22 20.7842 5.53479 20.7963 5.84959C20.7963 6.04331 21.1112 6.04331 21.0991 5.84959C21.0991 5.53479 21.0506 5.22 21.0385 4.91731C21.0385 4.71148 20.7236 4.71148 20.7236 4.91731Z" fill="#C1599A"/>
<path d="M21.3778 5.18374C21.4626 5.37746 21.4747 5.61962 21.5473 5.82545C21.6079 6.01917 21.9107 5.93442 21.8501 5.7407C21.7653 5.51066 21.7411 5.24429 21.6442 5.02635C21.5594 4.84474 21.293 5.00213 21.3778 5.18374Z" fill="#C1599A"/>
<path d="M22.1646 5.29255C22.1646 5.4782 22.1646 5.66385 22.1646 5.8495C22.1646 6.04322 22.4673 6.04322 22.4673 5.8495C22.4673 5.66385 22.4673 5.4782 22.4673 5.29255C22.4673 5.08673 22.1646 5.08673 22.1646 5.29255Z" fill="#C1599A"/>
<path d="M23.9092 5.53469C23.9092 5.74052 23.9092 5.94635 23.9697 6.14007C24.0303 6.33379 24.3331 6.24905 24.2725 6.05533C24.2241 5.88582 24.2241 5.71631 24.2241 5.53469C24.2241 5.34097 23.9092 5.34097 23.9092 5.53469Z" fill="#C1599A"/>
<path d="M25.0472 5.86149C25.1441 6.06732 25.2168 6.29735 25.2894 6.51528C25.35 6.6969 25.6528 6.62426 25.5801 6.43054C25.5074 6.18839 25.4348 5.93413 25.3136 5.70408C25.2289 5.52247 24.9624 5.67987 25.0472 5.86149Z" fill="#C1599A"/>
<path d="M26.1494 6.22493C26.1494 6.40654 26.1615 6.58814 26.2221 6.75765C26.2827 6.95137 26.5854 6.86662 26.5249 6.6729C26.4764 6.52761 26.4643 6.38233 26.4643 6.22493C26.4643 6.0191 26.1494 6.0191 26.1494 6.22493Z" fill="#C1599A"/>
<path d="M27.5665 7.14501C27.6149 7.19344 27.6149 7.38715 27.5907 7.48401C27.5301 7.67773 27.8329 7.76249 27.8935 7.56877C27.954 7.36295 27.9298 7.08447 27.7845 6.92707C27.6512 6.76967 27.4333 6.98761 27.5665 7.14501Z" fill="#C1599A"/>
<path d="M19.4155 4.78396C19.4155 5.07454 19.4155 5.36512 19.4155 5.6557C19.4155 5.86153 19.7304 5.86153 19.7304 5.6557C19.7304 5.36512 19.7304 5.07454 19.7304 4.78396C19.7304 4.59024 19.4155 4.59024 19.4155 4.78396Z" fill="#C1599A"/>
<path d="M18.253 5.11113C18.2288 5.09902 18.2409 5.11114 18.2409 5.13535C18.253 5.18378 18.2409 5.23221 18.2409 5.28064C18.2288 5.40171 18.2046 5.51069 18.1804 5.61966C18.144 5.81338 18.4347 5.89812 18.4832 5.7044C18.5316 5.45014 18.6769 5.01428 18.4105 4.84477C18.2409 4.7358 18.0835 5.00216 18.253 5.11113Z" fill="#C1599A"/>
<path d="M17.4295 4.86893C17.3568 5.18373 17.3689 5.51064 17.4295 5.82543C17.4658 6.01915 17.7686 5.93441 17.7322 5.74069C17.6838 5.48643 17.6717 5.22006 17.7322 4.9537C17.7807 4.75997 17.4779 4.67521 17.4295 4.86893Z" fill="#C1599A"/>
<path d="M16.3032 5.15945C16.3032 5.35317 16.3759 5.52268 16.4364 5.70429C16.497 5.8859 16.7998 5.81326 16.7392 5.61954C16.6787 5.47425 16.6181 5.32896 16.6181 5.15945C16.606 4.96573 16.3032 4.96573 16.3032 5.15945Z" fill="#C1599A"/>
<path d="M15.3706 5.3531C15.3706 5.57104 15.3706 5.80108 15.4312 6.01902C15.4917 6.20063 15.7945 6.12799 15.7339 5.93427C15.6855 5.74055 15.6855 5.54682 15.6855 5.3531C15.6855 5.14727 15.3706 5.14727 15.3706 5.3531Z" fill="#C1599A"/>
<path d="M45.7939 14.2155L39.9683 9.79625L30.7031 6.96308L23.4363 6.86621L18.6523 9.54198L18.6887 12.5083C18.6887 12.5083 18.9188 11.0554 20.7355 10.0263C22.5401 8.99714 24.817 7.61688 29.8917 8.86396C35.8141 10.3048 40.2348 11.8424 42.4633 13.5133C44.3769 14.9541 46.2541 17.6662 46.1936 17.981C46.1451 18.2957 47.0777 17.4603 47.0777 17.4603L45.7939 14.2155Z" fill="#994575"/>
<path d="M47.9979 17.4849L44.7641 21.6378L36.916 23.7203L27.5539 21.323L20.8805 17.1701L18.3735 14.1917L17.5499 10.4504L16.2419 12.9567C16.2419 12.9567 15.6 14.2401 17.4167 17.2912C18.9548 19.8701 26.7303 25.0643 33.2341 25.9602C47.2106 27.8853 47.9737 20.6208 47.9737 20.6208L47.9979 17.4849Z" fill="#994575"/>
<path fill-rule="evenodd" clip-rule="evenodd" d="M47.1137 20.4148C44.5582 23.6475 36.1771 25.6331 28.3169 22.2915C22.1159 19.652 16.363 15.5476 17.453 10.8861C18.6641 5.692 27.1905 5.66778 31.8776 6.69692C45.4423 9.66327 50.1537 16.5888 47.1137 20.4148ZM31.9987 7.75028C27.6386 6.79379 19.9721 6.24895 18.8458 11.092C17.8284 15.4386 23.0242 18.5865 28.8982 20.7901C36.7222 23.708 43.008 22.691 45.3939 19.6762C48.228 16.1166 44.6309 10.5108 31.9987 7.75028Z" fill="#ECCEED"/>
<path d="M19.5001 17.2187C19.4032 17.7151 18.9914 18.0783 18.8945 18.5868C18.8582 18.7805 19.1731 18.8169 19.2094 18.611C19.2942 18.1146 19.7181 17.7514 19.8029 17.2429C19.8392 17.0492 19.5364 17.0128 19.5001 17.2187Z" fill="#C1599A"/>
<path d="M21.3529 18.7926C21.1228 19.1921 20.8685 19.5795 20.6263 19.9791C20.5173 20.1486 20.7716 20.3302 20.8685 20.1607C21.1107 19.7612 21.3771 19.3858 21.6073 18.9742C21.7042 18.8047 21.4619 18.6109 21.3529 18.7926Z" fill="#C1599A"/>
<path d="M22.8548 19.8943C22.6853 20.3665 22.5399 20.8629 22.2492 21.2867C22.1402 21.4441 22.3946 21.6378 22.5036 21.4683C22.8064 21.0203 22.9638 20.5118 23.1455 20.0033C23.2182 19.8217 22.9275 19.7006 22.8548 19.8943Z" fill="#C1599A"/>
<path d="M26.4517 21.8314C26.3305 22.3035 26.2216 22.7636 26.0399 23.2116C25.9672 23.3932 26.2579 23.5143 26.3305 23.3206C26.5001 22.8726 26.6212 22.4125 26.7424 21.9403C26.7908 21.7587 26.5001 21.6376 26.4517 21.8314Z" fill="#C1599A"/>
<path d="M30.7997 23.6112C30.8723 23.9865 30.6786 24.3619 30.6786 24.7372C30.6665 24.9309 30.9813 24.9673 30.9813 24.7614C30.9935 24.3619 31.1872 23.9623 31.1025 23.5628C31.054 23.3691 30.7512 23.4175 30.7997 23.6112Z" fill="#C1599A"/>
<path d="M34.6514 24.3015C34.5061 24.6647 34.3607 25.0401 34.3486 25.4396C34.3486 25.6333 34.6514 25.6697 34.6635 25.4638C34.6635 25.1006 34.8089 24.7616 34.9421 24.4226C35.0147 24.2289 34.7241 24.1199 34.6514 24.3015Z" fill="#C1599A"/>
<path d="M37.7641 24.5678C37.7156 24.919 37.5703 25.2459 37.4976 25.597C37.4613 25.7907 37.7641 25.827 37.8125 25.6333C37.8731 25.2822 38.0184 24.9553 38.079 24.6041C38.1032 24.3983 37.8004 24.3741 37.7641 24.5678Z" fill="#C1599A"/>
<path d="M42.2571 23.6717C42.0957 24.0995 41.9301 24.5233 41.7606 24.943C41.6879 25.1367 41.9786 25.2457 42.0512 25.0641C42.2208 24.6363 42.3863 24.2085 42.5478 23.7807C42.6205 23.5991 42.3298 23.4901 42.2571 23.6717Z" fill="#C1599A"/>
<path d="M16.8232 12.9082C16.6416 13.3562 16.4115 13.7799 16.1813 14.2037C16.0966 14.3732 16.3872 14.4943 16.472 14.3127C16.7021 13.8889 16.9322 13.4773 17.1139 13.0293C17.1866 12.8356 16.8959 12.7266 16.8232 12.9082Z" fill="#C1599A"/>
<path d="M17.5013 15.1118C17.3802 15.4387 17.259 15.7535 17.0774 16.0441C16.9684 16.2136 17.2227 16.4073 17.3317 16.2257C17.5255 15.923 17.6587 15.5719 17.7919 15.2329C17.8646 15.0392 17.5739 14.9302 17.5013 15.1118Z" fill="#C1599A"/>
<path d="M18.4706 16.4559C18.4827 16.807 18.2405 17.1823 18.1073 17.4971C18.0346 17.6787 18.3253 17.7998 18.3979 17.6061C18.5554 17.2307 18.7976 16.8312 18.7855 16.4074C18.7734 16.2016 18.4706 16.25 18.4706 16.4559Z" fill="#C1599A"/>
<path d="M20.4687 18.308C20.2749 18.647 20.1296 19.0102 19.9842 19.3735C19.9116 19.5551 20.2022 19.664 20.2749 19.4824C20.4081 19.1434 20.5414 18.8044 20.723 18.5017C20.8199 18.3201 20.5777 18.1385 20.4687 18.308Z" fill="#C1599A"/>
<path d="M22.0068 19.5312C21.9704 19.9308 21.8372 20.3182 21.7403 20.7056C21.704 20.8994 22.0068 20.9357 22.0552 20.742C22.14 20.3424 22.2853 19.9671 22.3096 19.5675C22.3217 19.3617 22.0189 19.3375 22.0068 19.5312Z" fill="#C1599A"/>
<path d="M23.5091 20.4635C23.4607 20.9236 23.2426 21.3474 23.1215 21.7954C23.061 21.9891 23.3517 22.1102 23.4122 21.9164C23.5333 21.4321 23.7634 20.9842 23.824 20.4877C23.8482 20.294 23.5333 20.2577 23.5091 20.4635Z" fill="#C1599A"/>
<path d="M24.5019 20.9961C24.3202 21.4683 24.1385 21.9284 24.078 22.4248C24.0659 22.6185 24.3686 22.6548 24.3929 22.449C24.4534 21.9889 24.623 21.553 24.7925 21.1172C24.8652 20.9234 24.5746 20.8145 24.5019 20.9961Z" fill="#C1599A"/>
<path d="M25.0107 21.4077C24.8532 21.8314 24.7442 22.2673 24.6473 22.7032C24.5989 22.8969 24.9017 22.9332 24.9501 22.7395C25.047 22.3278 25.156 21.9162 25.3013 21.5166C25.374 21.3229 25.0833 21.2139 25.0107 21.4077Z" fill="#C1599A"/>
<path d="M39.4474 10.5229C39.3384 10.8135 39.2778 11.1283 39.1688 11.4189C39.0961 11.6005 39.3868 11.7216 39.4474 11.5279C39.5685 11.2373 39.6291 10.9346 39.7381 10.644C39.8107 10.4503 39.52 10.3413 39.4474 10.5229Z" fill="#C1599A"/>
<path d="M39.9441 11.0074C39.9562 11.2253 39.8835 11.4553 39.8714 11.6733C39.8593 11.8791 40.1742 11.9033 40.1863 11.7096C40.1985 11.4553 40.2711 11.2132 40.259 10.9589C40.2469 10.7531 39.932 10.8136 39.9441 11.0074Z" fill="#C1599A"/>
<path d="M40.6462 11.3948C40.5735 11.5724 40.5049 11.746 40.4403 11.9155C40.3676 12.1092 40.6583 12.2182 40.731 12.0366C40.7956 11.859 40.8642 11.6814 40.9369 11.5038C41.0095 11.3222 40.7189 11.2132 40.6462 11.3948Z" fill="#C1599A"/>
<path d="M42.1725 12.2664C42.0999 12.448 42.0393 12.6418 42.0272 12.8476C42.003 13.0534 42.3179 13.0776 42.33 12.8839C42.3421 12.7023 42.4027 12.5449 42.4632 12.3754C42.5359 12.1938 42.2573 12.0727 42.1725 12.2664Z" fill="#C1599A"/>
<path d="M43.117 12.9808C43.1412 13.2109 43.1169 13.453 43.1048 13.671C43.0927 13.8768 43.4076 13.9131 43.4197 13.7073C43.4319 13.453 43.444 13.1867 43.4319 12.9324C43.4198 12.7387 43.1048 12.7871 43.117 12.9808Z" fill="#C1599A"/>
<path d="M44.0129 13.7196C43.9524 13.8891 43.8918 14.0586 43.8797 14.2523C43.8676 14.446 44.1825 14.4823 44.1946 14.2765C44.2067 14.1191 44.2552 13.9859 44.3036 13.8285C44.3763 13.6469 44.0856 13.5379 44.0129 13.7196Z" fill="#C1599A"/>
<path d="M45.0063 15.0876C45.0305 15.1603 44.9578 15.3419 44.8973 15.4266C44.7762 15.584 45.0184 15.7657 45.1395 15.6083C45.2727 15.4388 45.3575 15.1724 45.2848 14.9666C45.2243 14.7728 44.9336 14.906 45.0063 15.0876Z" fill="#C1599A"/>
<path d="M38.2728 9.92993C38.1678 10.2044 38.0628 10.4748 37.9579 10.7411C37.8852 10.9348 38.1759 11.0438 38.2485 10.8622C38.3535 10.5878 38.4585 10.3174 38.5634 10.051C38.6361 9.85728 38.3454 9.74832 38.2728 9.92993Z" fill="#C1599A"/>
<path d="M37.0613 9.80877C37.0492 9.78456 37.0613 9.80877 37.0492 9.82088C37.0371 9.86931 37.0128 9.91773 36.9886 9.96616C36.9402 10.063 36.8796 10.1599 36.8191 10.2567C36.7101 10.4263 36.9523 10.6079 37.0613 10.4384C37.1945 10.2325 37.4973 9.86932 37.3156 9.61506C37.1945 9.44555 36.9523 9.63927 37.0613 9.80877Z" fill="#C1599A"/>
<path d="M36.3953 9.28824C36.2015 9.55461 36.1046 9.8573 36.044 10.1721C36.0077 10.3658 36.3105 10.4021 36.3468 10.2084C36.4074 9.94204 36.4921 9.68779 36.6375 9.46985C36.7586 9.30035 36.5043 9.11873 36.3953 9.28824Z" fill="#C1599A"/>
<path d="M35.2327 9.14282C35.1721 9.32443 35.1721 9.50604 35.16 9.69976C35.1479 9.89348 35.4628 9.9298 35.4749 9.72397C35.4749 9.56657 35.4749 9.40919 35.5233 9.26389C35.596 9.07017 35.3053 8.96121 35.2327 9.14282Z" fill="#C1599A"/>
<path d="M34.3002 8.97314C34.2154 9.19108 34.1306 9.39691 34.1185 9.62695C34.1064 9.82067 34.4092 9.85699 34.4213 9.65116C34.4455 9.45744 34.5182 9.27583 34.5909 9.09422C34.6635 8.9005 34.3729 8.79153 34.3002 8.97314Z" fill="#C1599A"/>
<path d="M19.5 19.5308L19.718 21.7101C19.718 21.7101 20.3236 21.6375 20.8322 21.4922C21.3409 21.3348 21.8133 21.2137 21.8133 21.2137C21.8133 21.2137 20.9897 20.7657 20.5295 20.4267C20.0571 20.0998 19.5 19.5308 19.5 19.5308Z" fill="#703459"/>
</svg>
