<svg width="48" height="23" viewBox="0 0 48 23" fill="none" xmlns="http://www.w3.org/2000/svg">
<path d="M43.4719 4.1589C40.0247 2.48166 7.58806 1.99591 3.59995 4.45219C-0.0856195 6.7985 -0.0856218 11.6561 0.0335632 13.5258C0.152748 15.4047 2.4356 23.2409 23.8614 22.8926C45.2872 22.5444 46.9374 16.1654 47.57 14.9922C48.3952 13.4708 48.5052 6.62435 43.4719 4.1589Z" fill="#893C29"/>
<path d="M21.927 0.00720398C7.76229 0.181343 0.96875 4.69064 0.96875 9.49322C0.96875 13.9475 9.165 17.2195 21.3402 17.5678C33.5246 17.9161 45.4064 14.6441 46.2865 9.77734C47.1392 5.05725 40.5473 -0.221927 21.927 0.00720398Z" fill="#C25739"/>
<path d="M1.78471 9.72239C1.84888 11.7112 3.83835 14.0575 9.04582 15.4048C19.4699 18.0902 32.727 16.9629 32.3511 16.3947C31.8835 15.6889 26.7402 17.9161 11.0995 14.9924C8.55074 14.5158 6.41458 13.6818 5.06688 12.5911C3.59998 11.3996 3.03156 9.94235 3.0224 9.25496C2.95822 6.38624 5.01186 5.62552 4.25091 5.27725C3.82002 5.07561 1.68386 6.2121 1.78471 9.72239Z" fill="#F9735D"/>
<path d="M12.3094 1.50097C11.7685 1.53763 10.4758 2.93076 8.21126 5.72615C5.93758 8.53072 3.83809 11.0695 4.7549 11.3811C5.67171 11.6836 8.04624 8.42989 9.50396 6.44104C10.9617 4.45218 13.923 1.40015 12.3094 1.50097Z" fill="#893C29"/>
<path d="M19.2314 1.05204C18.6538 1.10703 15.7934 4.65397 13.4189 7.62351C11.0443 10.5839 8.56895 13.6634 9.57744 13.9567C10.5768 14.25 13.3272 10.4281 14.8399 8.32923C16.3618 6.23039 20.9917 0.905397 19.2314 1.05204Z" fill="#893C29"/>
<path d="M26.9053 1.006C26.3185 1.07016 23.3297 5.4603 21.0927 8.50316C18.8557 11.5552 15.8944 15.1755 17.3613 15.1755C18.4157 15.1755 21.1294 11.3169 22.5505 9.16306C23.9715 7.00923 29.3073 0.740211 26.9053 1.006Z" fill="#893C29"/>
<path d="M34.8813 1.74844C34.3037 1.70262 31.2599 5.64366 28.9312 8.6407C26.6117 11.6377 23.5496 15.1847 25.0164 15.2213C26.0708 15.2397 28.8854 11.4453 30.3706 9.32809C31.8558 7.21092 36.5774 1.89509 34.8813 1.74844Z" fill="#893C29"/>
<path d="M41.6107 3.80169C41.134 3.7742 38.7778 6.95453 36.9808 9.36499C35.1747 11.7846 32.8002 14.6442 33.9737 14.6442C34.8263 14.6442 37.0083 11.5921 38.1544 9.8874C39.3004 8.18267 42.9768 3.88418 41.6107 3.80169Z" fill="#893C29"/>
<path d="M5.08531 6.63385C5.24117 6.56053 5.41536 6.52387 5.57122 6.46888C5.75458 6.41389 5.67207 6.12977 5.49787 6.18476C5.30535 6.24892 5.11281 6.29474 4.93862 6.37723C4.76443 6.45972 4.91112 6.70717 5.08531 6.63385Z" fill="#893C29"/>
<path d="M5.30504 5.35994C5.45173 5.36911 5.58926 5.42409 5.72678 5.47909C5.91014 5.53408 5.98348 5.24996 5.80929 5.19497C5.64426 5.13997 5.47924 5.07582 5.30504 5.06665C5.11251 5.06665 5.11251 5.35994 5.30504 5.35994Z" fill="#893C29"/>
<path d="M6.60702 4.26937C6.73538 4.39769 6.9004 4.48018 7.07459 4.53517C7.25795 4.59932 7.3313 4.3152 7.15711 4.26021C7.02875 4.21438 6.90957 4.15938 6.80872 4.05857C6.6712 3.93025 6.4695 4.13189 6.60702 4.26937Z" fill="#893C29"/>
<path d="M6.64387 5.71735C6.8364 5.71735 7.01976 5.71736 7.19395 5.63487C7.2673 5.60737 7.27647 5.49738 7.23979 5.43323C7.20312 5.3599 7.11144 5.35074 7.03809 5.3874C6.92808 5.43323 6.77222 5.42406 6.64387 5.42406C6.46051 5.42406 6.46051 5.71735 6.64387 5.71735Z" fill="#893C29"/>
<path d="M8.14707 4.36104C8.35793 4.28772 8.53213 4.17773 8.71549 4.05858C8.87135 3.9486 8.72466 3.70115 8.55963 3.80196C8.40377 3.90278 8.24792 4.02193 8.07372 4.07692C7.89953 4.14108 7.97287 4.4252 8.14707 4.36104Z" fill="#893C29"/>
<path d="M8.00967 3.01358C8.23887 3.0869 8.44057 3.12357 8.67894 3.07774C8.8623 3.03192 8.77979 2.7478 8.59643 2.79362C8.42224 2.83029 8.25721 2.79362 8.09219 2.73862C7.90883 2.67447 7.83548 2.95859 8.00967 3.01358Z" fill="#893C29"/>
<path d="M9.87081 2.72913C9.92582 2.72913 9.98083 2.71997 10.0267 2.70164C10.1 2.66498 10.1275 2.59166 10.1275 2.5275C10.1367 2.44501 10.0633 2.38086 9.98083 2.38086C9.89831 2.38086 9.84331 2.44501 9.83414 2.5275C9.84025 2.49695 9.85859 2.46945 9.88915 2.44501C9.87081 2.45418 9.93499 2.42668 9.89832 2.43585C9.94416 2.42668 9.91665 2.43585 9.89832 2.43585C9.88609 2.43585 9.87692 2.43585 9.87081 2.43585C9.7883 2.43585 9.72412 2.5 9.72412 2.58249C9.72412 2.66498 9.7883 2.72913 9.87081 2.72913Z" fill="#893C29"/>
<path d="M4.10429 8.78751C4.10429 8.96165 4.20514 9.07164 4.35183 9.14496C4.41601 9.18162 4.50768 9.16329 4.55352 9.09913C4.5902 9.02581 4.57186 8.93416 4.49852 8.8975C4.48018 8.88528 4.45879 8.87306 4.43434 8.86084C4.43434 8.86084 4.39767 8.83334 4.42518 8.86084C4.41906 8.84862 4.41295 8.83945 4.40684 8.83334C4.42517 8.86083 4.37933 8.80584 4.40684 8.83334C4.39767 8.82417 4.3885 8.79668 4.39767 8.82417C4.39767 8.81806 4.39461 8.80891 4.3885 8.79668C4.39767 8.83335 4.39767 8.79668 4.39767 8.78751C4.3885 8.70502 4.32432 8.64087 4.25098 8.64087C4.16847 8.64087 4.09512 8.70502 4.10429 8.78751Z" fill="#893C29"/>
<path d="M4.31518 7.54081C4.39769 7.6233 4.48937 7.64163 4.59939 7.64163C4.6819 7.64163 4.74608 7.57747 4.74608 7.49498C4.74608 7.42166 4.6819 7.34834 4.59939 7.34834C4.58717 7.34834 4.578 7.34834 4.57189 7.34834C4.56272 7.34834 4.51688 7.34834 4.56272 7.34834C4.55355 7.34834 4.50771 7.33001 4.54438 7.34834C4.53827 7.34834 4.53216 7.34529 4.52605 7.33918C4.53827 7.3514 4.53827 7.3514 4.52605 7.33918C4.47104 7.28419 4.37936 7.27502 4.31518 7.33918C4.26017 7.39417 4.26017 7.48582 4.31518 7.54081Z" fill="#893C29"/>
<path d="M9.5775 8.05427C9.69363 8.05427 9.80976 8.05427 9.92589 8.05427C10.1184 8.05427 10.1184 7.76099 9.92589 7.76099C9.80976 7.76099 9.69363 7.76099 9.5775 7.76099C9.38497 7.76099 9.38497 8.05427 9.5775 8.05427Z" fill="#893C29"/>
<path d="M10.3202 6.64303C10.4852 6.58804 10.6686 6.57887 10.8428 6.53304C11.0262 6.46889 10.9436 6.19393 10.7695 6.24892C10.5953 6.30391 10.4119 6.31308 10.2377 6.3589C10.0635 6.42306 10.1369 6.69802 10.3202 6.64303Z" fill="#893C29"/>
<path d="M13.346 6.12039C13.5018 6.17538 13.676 6.23954 13.8502 6.23954C14.0427 6.24871 14.0336 5.95541 13.8502 5.94625C13.7035 5.94625 13.5568 5.8821 13.4193 5.83627C13.2359 5.77211 13.1626 6.05623 13.346 6.12039Z" fill="#893C29"/>
<path d="M12.4016 5.02987C12.4566 5.08486 12.5147 5.14291 12.5758 5.20401C12.6308 5.259 12.7225 5.259 12.7775 5.20401C12.8417 5.14902 12.8417 5.04821 12.7775 4.99322C12.7225 4.93823 12.6644 4.88018 12.6033 4.81908C12.5483 4.76408 12.4566 4.76408 12.4016 4.81908C12.3466 4.87407 12.3466 4.97488 12.4016 5.02987Z" fill="#893C29"/>
<path d="M11.5671 4.59902C11.6863 4.59902 11.7688 4.5257 11.8421 4.44321C11.8971 4.38822 11.8971 4.2874 11.8421 4.23241C11.7871 4.17741 11.6955 4.17741 11.6404 4.23241C11.616 4.25685 11.5915 4.27823 11.5671 4.29656C11.5549 4.30878 11.5549 4.30878 11.5671 4.29656C11.561 4.30267 11.5549 4.30878 11.5488 4.3149C11.5365 4.32101 11.5396 4.31795 11.5579 4.30573C11.5396 4.31184 11.5426 4.31184 11.5671 4.30573C11.4846 4.3149 11.4204 4.36989 11.4204 4.45237C11.4204 4.53486 11.4846 4.60818 11.5671 4.59902Z" fill="#893C29"/>
<path d="M12.5574 3.49007C12.8508 3.49007 13.1442 3.49007 13.4376 3.49007C13.6301 3.49007 13.6301 3.19678 13.4376 3.19678C13.1442 3.19678 12.8508 3.19678 12.5574 3.19678C12.3741 3.19678 12.3741 3.49007 12.5574 3.49007Z" fill="#893C29"/>
<path d="M13.3822 2.14289C13.5289 2.14289 13.6664 2.15207 13.8131 2.19789C13.9873 2.25288 14.0698 1.96875 13.8864 1.91376C13.7214 1.85877 13.5564 1.84961 13.3822 1.84961C13.1897 1.84961 13.1897 2.14289 13.3822 2.14289Z" fill="#893C29"/>
<path d="M14.9593 1.20808C15.1549 1.20808 15.3505 1.20808 15.5461 1.20808C15.7386 1.20808 15.7386 0.914795 15.5461 0.914795C15.3505 0.914795 15.1549 0.914795 14.9593 0.914795C14.7759 0.914795 14.7759 1.20808 14.9593 1.20808Z" fill="#893C29"/>
<path d="M16.0872 1.92274C16.1972 2.03272 16.3256 2.11521 16.4356 2.21602C16.5731 2.3535 16.784 2.14271 16.6465 2.01439C16.5364 1.90441 16.4081 1.82192 16.2981 1.7211C16.1606 1.58362 15.9497 1.79443 16.0872 1.92274Z" fill="#893C29"/>
<path d="M14.9135 2.50957C15.0418 2.63788 15.1427 2.79369 15.271 2.922C15.3994 3.05948 15.6103 2.84869 15.4727 2.71121C15.3444 2.5829 15.2527 2.43625 15.1244 2.30794C14.996 2.17046 14.7851 2.37209 14.9135 2.50957Z" fill="#893C29"/>
<path d="M14.1434 4.42487C14.2962 4.42487 14.4521 4.42487 14.611 4.42487C14.8035 4.42487 14.8035 4.13159 14.611 4.13159C14.4521 4.13159 14.2962 4.13159 14.1434 4.13159C13.9509 4.13159 13.9509 4.42487 14.1434 4.42487Z" fill="#893C29"/>
<path d="M15.7845 3.72859C15.919 3.72859 16.0535 3.72859 16.1879 3.72859C16.3805 3.72859 16.3805 3.4353 16.1879 3.4353C16.0535 3.4353 15.919 3.4353 15.7845 3.4353C15.592 3.4353 15.592 3.72859 15.7845 3.72859Z" fill="#893C29"/>
<path d="M17.3157 2.53673C17.4074 2.49091 17.4991 2.49091 17.6 2.49091C17.7833 2.49091 17.7833 2.20679 17.6 2.20679C17.4441 2.20679 17.3066 2.21595 17.169 2.2801C17.0957 2.31676 17.0774 2.41759 17.114 2.48174C17.1599 2.55507 17.2424 2.56423 17.3157 2.53673Z" fill="#893C29"/>
<path d="M17.4163 1.20808C17.5936 1.20808 17.7708 1.20808 17.9481 1.20808C18.1406 1.20808 18.1406 0.914795 17.9481 0.914795C17.7708 0.914795 17.5936 0.914795 17.4163 0.914795C17.233 0.914795 17.233 1.20808 17.4163 1.20808Z" fill="#893C29"/>
<path d="M20.286 0.621408C20.451 0.621408 20.5977 0.630571 20.7444 0.722224C20.9002 0.823041 21.0469 0.566421 20.8911 0.465604C20.7077 0.346455 20.506 0.328125 20.286 0.328125C20.1026 0.328125 20.1026 0.621408 20.286 0.621408Z" fill="#893C29"/>
<path d="M20.3316 1.657C20.46 1.72115 20.5517 1.83114 20.6525 1.92279C20.79 2.06027 20.9917 1.84946 20.8634 1.72115C20.7442 1.602 20.625 1.48285 20.4783 1.40037C20.3133 1.31788 20.1666 1.56534 20.3316 1.657Z" fill="#893C29"/>
<path d="M19.0023 3.54524C19.149 3.54524 19.2865 3.5544 19.4332 3.60023C19.6074 3.65522 19.6899 3.38026 19.5066 3.31611C19.3415 3.27028 19.1765 3.25195 19.0023 3.25195C18.8098 3.25195 18.8098 3.54524 19.0023 3.54524Z" fill="#893C29"/>
<path d="M17.233 5.51572C17.343 5.57071 17.4714 5.57988 17.5814 5.63487C17.6547 5.67153 17.7373 5.65319 17.7831 5.57987C17.8198 5.51571 17.8014 5.4149 17.7281 5.3874C17.6181 5.33241 17.4897 5.31409 17.3797 5.26826C17.3064 5.2316 17.2238 5.24076 17.178 5.31409C17.1413 5.37824 17.1597 5.48822 17.233 5.51572Z" fill="#893C29"/>
<path d="M20.2031 5.21316C20.2031 5.45146 20.2123 5.67142 20.2673 5.90055C20.304 6.08386 20.5882 6.00138 20.5515 5.81808C20.4965 5.62561 20.4965 5.42396 20.4965 5.21316C20.4965 5.02986 20.2031 5.02986 20.2031 5.21316Z" fill="#893C29"/>
<path d="M19.2041 4.51667C19.2041 4.61443 19.2041 4.7122 19.2041 4.80996C19.2041 4.99327 19.4975 4.99327 19.4975 4.80996C19.4975 4.7122 19.4975 4.61443 19.4975 4.51667C19.4975 4.3242 19.2041 4.3242 19.2041 4.51667Z" fill="#893C29"/>
<path d="M18.4616 6.45953C18.6266 6.54201 18.8099 6.58783 19.0025 6.58783C19.1858 6.597 19.1858 6.30371 19.0025 6.30371C18.865 6.29455 18.7274 6.25789 18.6083 6.2029C18.4341 6.12041 18.2874 6.37704 18.4616 6.45953Z" fill="#893C29"/>
<path d="M22.2022 5.16712C22.3214 5.22211 22.4498 5.23128 22.5598 5.28627C22.6331 5.31377 22.7156 5.3046 22.7615 5.23128C22.7981 5.16712 22.7798 5.0663 22.7065 5.02964C22.5965 4.97465 22.4681 4.96549 22.3581 4.9105C22.2847 4.883 22.1931 4.89217 22.1564 4.96549C22.1197 5.02964 22.138 5.13046 22.2022 5.16712Z" fill="#893C29"/>
<path d="M20.8729 3.95761C21.0471 3.95761 21.2121 3.94844 21.3863 3.89345C21.5605 3.83846 21.4871 3.55433 21.3038 3.60932C21.1571 3.65515 21.0287 3.66432 20.8729 3.66432C20.6895 3.66432 20.6895 3.95761 20.8729 3.95761Z" fill="#893C29"/>
<path d="M22.2938 2.45442C22.4313 2.58273 22.5871 2.66522 22.7705 2.72022C22.9447 2.78437 23.0272 2.50025 22.8438 2.44526C22.7155 2.39943 22.5963 2.34444 22.5046 2.24363C22.3671 2.11531 22.1562 2.31694 22.2938 2.45442Z" fill="#893C29"/>
<path d="M21.9728 1.12541C22.0828 1.1804 22.2111 1.18957 22.3211 1.24456C22.3945 1.28122 22.477 1.26289 22.5228 1.18957C22.5595 1.12541 22.5412 1.02459 22.4678 0.997092C22.3578 0.9421 22.2295 0.932942 22.1194 0.87795C22.0461 0.841289 21.9636 0.859617 21.9178 0.932939C21.8811 0.997096 21.8994 1.09791 21.9728 1.12541Z" fill="#893C29"/>
<path d="M23.9533 0.694742C24.0175 0.878047 24.0267 1.07968 24.0725 1.27215C24.1183 1.45545 24.3934 1.38214 24.3567 1.19883C24.3109 1.00636 24.2925 0.804723 24.2375 0.612253C24.1825 0.428948 23.8983 0.511437 23.9533 0.694742Z" fill="#893C29"/>
<path d="M25.4751 0.823025C25.4751 0.945229 25.4751 1.06437 25.4751 1.18046C25.4751 1.36377 25.7593 1.36377 25.7593 1.18046C25.7593 1.06437 25.7593 0.945229 25.7593 0.823025C25.7593 0.639721 25.4751 0.639721 25.4751 0.823025Z" fill="#893C29"/>
<path d="M23.99 2.16122C24.1276 2.28953 24.2834 2.37202 24.4668 2.42701C24.641 2.49117 24.7235 2.20705 24.5401 2.15205C24.4118 2.10623 24.3018 2.05123 24.2009 1.95041C24.0634 1.8221 23.8525 2.02374 23.99 2.16122Z" fill="#893C29"/>
<path d="M16.5544 7.83444C16.6156 7.89554 16.6736 7.95358 16.7286 8.00857C16.7836 8.07273 16.8845 8.07273 16.9395 8.00857C16.9945 7.95358 16.9945 7.86193 16.9395 7.80694C16.8784 7.74584 16.8203 7.68779 16.7653 7.6328C16.7103 7.5778 16.6094 7.5778 16.5544 7.6328C16.4994 7.68779 16.4994 7.77945 16.5544 7.83444Z" fill="#893C29"/>
<path d="M15.5002 9.52999C15.5828 9.61248 15.6744 9.63997 15.7844 9.63997C15.8578 9.63997 15.9311 9.56665 15.9311 9.49333C15.9311 9.41084 15.8578 9.34669 15.7844 9.34669C15.7722 9.34669 15.76 9.34669 15.7478 9.34669C15.7386 9.34669 15.7019 9.33752 15.7386 9.34669C15.7294 9.33752 15.6928 9.32835 15.7294 9.33752C15.7233 9.33752 15.7172 9.33446 15.7111 9.32835C15.7233 9.34057 15.7233 9.34057 15.7111 9.32835C15.6469 9.27336 15.5552 9.27336 15.5002 9.32835C15.4452 9.38334 15.4452 9.48417 15.5002 9.52999Z" fill="#893C29"/>
<path d="M17.4624 10.5106C17.7558 10.4556 18.0583 10.4556 18.3608 10.4556C18.5442 10.4556 18.5442 10.1624 18.3608 10.1624C18.0308 10.1624 17.7007 10.1624 17.3799 10.2265C17.1965 10.2632 17.279 10.5381 17.4624 10.5106Z" fill="#893C29"/>
<path d="M18.764 7.99934C18.8801 7.99934 18.9993 7.99934 19.1215 7.99934C19.3049 7.99934 19.3049 7.70605 19.1215 7.70605C18.9993 7.70605 18.8801 7.70605 18.764 7.70605C18.5806 7.70605 18.5806 7.99934 18.764 7.99934Z" fill="#893C29"/>
<path d="M20.8728 7.99938C20.8544 7.99327 20.8514 7.99327 20.8636 7.99938C20.8819 7.99938 20.8819 7.99633 20.8636 7.99022C20.8758 7.99633 20.8911 8.0055 20.9094 8.01772C20.9553 8.03605 21.0011 8.05437 21.047 8.05437C21.1295 8.06354 21.1936 7.99022 21.1936 7.90773C21.1936 7.82524 21.1295 7.77025 21.047 7.76109C21.0714 7.7672 21.0745 7.7672 21.0561 7.76109C21.0439 7.75498 21.047 7.75803 21.0653 7.77025C21.047 7.75803 21.0317 7.74887 21.0194 7.74276C20.9736 7.72443 20.9278 7.7061 20.8728 7.7061C20.7994 7.69693 20.7261 7.77025 20.7261 7.85274C20.7261 7.93523 20.7994 7.99022 20.8728 7.99938Z" fill="#893C29"/>
<path d="M6.36895 11.7572C6.45146 11.8397 6.53397 11.9039 6.63482 11.9588C6.70817 11.9955 6.79068 11.9772 6.83652 11.9038C6.87319 11.8397 6.85486 11.7389 6.78151 11.7022C6.75707 11.69 6.73261 11.6778 6.70817 11.6656C6.69594 11.6594 6.68677 11.6533 6.68066 11.6472C6.68066 11.6472 6.64399 11.6197 6.66233 11.6381C6.63176 11.6075 6.60426 11.58 6.57982 11.5556C6.44229 11.4181 6.23143 11.6289 6.36895 11.7572Z" fill="#893C29"/>
<path d="M7.77147 10.1807C7.87232 10.2724 7.97317 10.3366 8.11069 10.3366C8.1932 10.3366 8.25738 10.2724 8.25738 10.1899C8.25738 10.1074 8.1932 10.0433 8.11069 10.0433C8.09847 10.0433 8.08929 10.0433 8.08318 10.0433C8.09541 10.0433 8.09235 10.0433 8.07402 10.0433C8.0679 10.0372 8.05874 10.0341 8.04651 10.0341C8.08319 10.0433 8.04651 10.0249 8.03734 10.0249C8.02512 10.0188 8.02512 10.0188 8.03734 10.0249C8.03123 10.0188 8.02512 10.0158 8.01901 10.0158C8.00679 9.99744 7.99456 9.98216 7.98234 9.96994C7.84481 9.84163 7.64312 10.0433 7.77147 10.1807Z" fill="#893C29"/>
<path d="M9.28453 12.0322C9.43122 12.0322 9.56874 12.023 9.70626 11.9589C9.77961 11.9222 9.79795 11.8214 9.76127 11.7572C9.71543 11.6839 9.63292 11.6748 9.55958 11.7022C9.47706 11.7481 9.37621 11.7389 9.28453 11.7389C9.092 11.7389 9.092 12.0322 9.28453 12.0322Z" fill="#893C29"/>
<path d="M10.6317 9.40169C10.7662 9.40169 10.9006 9.40169 11.0351 9.40169C11.2276 9.40169 11.2276 9.1084 11.0351 9.1084C10.9006 9.1084 10.7662 9.1084 10.6317 9.1084C10.4392 9.1084 10.4392 9.40169 10.6317 9.40169Z" fill="#893C29"/>
<path d="M13.2449 12.1878C13.2693 12.2 13.2938 12.2153 13.3182 12.2336C13.3182 12.2336 13.3549 12.2611 13.3274 12.2336C13.3335 12.2397 13.3427 12.2489 13.3549 12.2611C13.361 12.2672 13.3671 12.2764 13.3732 12.2886C13.4007 12.3161 13.3641 12.2611 13.3824 12.2886C13.4007 12.3192 13.416 12.3466 13.4282 12.3711C13.4649 12.4444 13.5658 12.4627 13.6299 12.4261C13.7033 12.3803 13.7216 12.2978 13.6849 12.2244C13.6177 12.0961 13.5199 12.0014 13.3916 11.9403C13.3274 11.9037 13.2357 11.922 13.199 11.9861C13.1532 12.0595 13.1807 12.1511 13.2449 12.1878Z" fill="#893C29"/>
<path d="M12.6397 13.7275C12.8506 13.7916 13.0064 13.9474 13.1623 14.1033C13.2906 14.2316 13.5015 14.0299 13.364 13.8925C13.1806 13.7 12.9789 13.5167 12.713 13.4434C12.5389 13.3975 12.4563 13.6725 12.6397 13.7275Z" fill="#893C29"/>
<path d="M15.72 13.911C15.9156 13.911 16.1112 13.911 16.3068 13.911C16.4993 13.911 16.4993 13.6177 16.3068 13.6177C16.1112 13.6177 15.9156 13.6177 15.72 13.6177C15.5367 13.6177 15.5367 13.911 15.72 13.911Z" fill="#893C29"/>
<path d="M14.7849 10.9781C14.7971 10.9781 14.8063 10.9781 14.8124 10.9781C14.8215 10.9781 14.8674 10.9873 14.8215 10.9781C14.8307 10.9873 14.8766 10.9964 14.8399 10.9873C14.846 10.9873 14.8521 10.9903 14.8582 10.9964C14.846 10.9842 14.846 10.9842 14.8582 10.9964C14.9132 11.0514 15.0049 11.0514 15.0691 10.9964C15.1241 10.9414 15.1241 10.8498 15.0691 10.7948C14.9866 10.7123 14.8949 10.6848 14.7849 10.6848C14.7024 10.6848 14.6382 10.7581 14.6382 10.8315C14.6382 10.9139 14.7024 10.9781 14.7849 10.9781Z" fill="#893C29"/>
<path d="M27.0981 3.61822C27.254 3.77403 27.4832 3.82902 27.6849 3.89318C27.8682 3.95734 27.9416 3.67321 27.7674 3.60905C27.6115 3.56322 27.419 3.52656 27.2998 3.41658C27.1623 3.28827 26.9514 3.48991 27.0981 3.61822Z" fill="#893C29"/>
<path d="M28.0882 1.9869C28.2716 2.17021 28.4824 2.30768 28.7391 2.37184C28.9225 2.41766 28.9958 2.14271 28.8216 2.08772C28.6108 2.03273 28.4457 1.92274 28.299 1.7761C28.1615 1.64778 27.9507 1.84942 28.0882 1.9869Z" fill="#893C29"/>
<path d="M27.5103 0.905479C27.712 0.969636 27.9229 0.969642 28.1337 0.969642C28.3263 0.969642 28.3263 0.676348 28.1337 0.676348C27.9504 0.676348 27.767 0.685513 27.5837 0.630522C27.4095 0.57553 27.3269 0.850488 27.5103 0.905479Z" fill="#893C29"/>
<path d="M29.7931 1.41858C29.9215 1.36359 30.0865 1.36358 30.224 1.31776C30.3982 1.26277 30.3249 0.978647 30.1415 1.03364C29.9765 1.08863 29.8023 1.09779 29.6373 1.17112C29.5731 1.19861 29.5548 1.3086 29.5914 1.37276C29.6281 1.44608 29.7198 1.45525 29.7931 1.41858Z" fill="#893C29"/>
<path d="M30.2611 3.05926C30.4933 2.94317 30.7256 2.82709 30.9579 2.71099C31.1321 2.62851 30.9854 2.37187 30.8112 2.45436C30.5789 2.57045 30.3467 2.6896 30.1144 2.81181C29.9402 2.8943 30.0869 3.14175 30.2611 3.05926Z" fill="#893C29"/>
<path d="M31.0033 2.67414C31.1958 2.67414 31.1958 2.38086 31.0033 2.38086C30.8108 2.38086 30.8108 2.67414 31.0033 2.67414Z" fill="#893C29"/>
<path d="M28.8397 4.8924C28.9589 4.8924 29.1148 4.88324 29.2339 4.92907C29.3073 4.96573 29.3898 4.95656 29.4356 4.88324C29.4723 4.81908 29.454 4.70911 29.3806 4.68161C29.2064 4.59912 29.0231 4.59912 28.8397 4.59912C28.6472 4.59912 28.6472 4.8924 28.8397 4.8924Z" fill="#893C29"/>
<path d="M28.7572 3.38007C28.8397 3.61836 29.0414 3.70085 29.2706 3.77418C29.4448 3.83833 29.5182 3.55421 29.344 3.49922C29.2431 3.46256 29.0781 3.4259 29.0322 3.30675C29.0047 3.23343 28.9406 3.17844 28.8581 3.20593C28.7847 3.22427 28.7297 3.30674 28.7572 3.38007Z" fill="#893C29"/>
<path d="M30.6644 3.91174C30.7927 4.04006 30.9486 4.14088 31.0769 4.26919C31.2144 4.3975 31.4161 4.19586 31.2786 4.05839C31.1503 3.93007 31.0036 3.83843 30.8752 3.71011C30.7377 3.57263 30.5268 3.78343 30.6644 3.91174Z" fill="#893C29"/>
<path d="M31.6453 2.84847C31.8409 2.84847 32.0365 2.84847 32.2321 2.84847C32.4246 2.84847 32.4246 2.55518 32.2321 2.55518C32.0365 2.55518 31.8409 2.55518 31.6453 2.55518C31.462 2.55518 31.462 2.84847 31.6453 2.84847Z" fill="#893C29"/>
<path d="M33.0482 2.08787C33.2865 2.08787 33.5066 2.07871 33.7358 2.02372C33.9191 1.9779 33.8458 1.69378 33.6533 1.7396C33.4607 1.78543 33.259 1.79459 33.0482 1.79459C32.8648 1.79459 32.8648 2.08787 33.0482 2.08787Z" fill="#893C29"/>
<path d="M30.8751 1.12537C31.0401 1.20786 31.2235 1.20786 31.416 1.20786C31.5994 1.20786 31.5994 0.91458 31.416 0.91458C31.2877 0.91458 31.1318 0.932908 31.0218 0.877916C30.9485 0.841255 30.8659 0.850418 30.8201 0.932906C30.7834 0.987897 30.8018 1.09788 30.8751 1.12537Z" fill="#893C29"/>
<path d="M33.1578 1.3639C33.2953 1.42805 33.4329 1.43722 33.5795 1.44638C33.7721 1.44638 33.7721 1.1531 33.5795 1.1531C33.4879 1.1531 33.387 1.1531 33.3045 1.10728C33.2312 1.07978 33.1486 1.08894 33.1028 1.16226C33.0661 1.22642 33.0845 1.32723 33.1578 1.3639Z" fill="#893C29"/>
<path d="M25.7499 6.68887C25.8691 6.63388 26.0066 6.59721 26.1441 6.58804C26.3366 6.58804 26.3366 6.29476 26.1441 6.30392C25.9516 6.30392 25.7682 6.34975 25.6032 6.43224C25.429 6.51472 25.5757 6.77136 25.7499 6.68887Z" fill="#893C29"/>
<path d="M26.0252 5.47907C26.2025 5.47907 26.3797 5.47907 26.557 5.47907C26.7403 5.47907 26.7403 5.18579 26.557 5.18579C26.3797 5.18579 26.2025 5.18579 26.0252 5.18579C25.8419 5.18579 25.8419 5.47907 26.0252 5.47907Z" fill="#893C29"/>
<path d="M28.3266 5.94632C28.5008 6.00131 28.6658 6.06547 28.8216 6.16629C28.9775 6.2671 29.1242 6.01048 28.9683 5.90967C28.7941 5.79968 28.6016 5.72636 28.4091 5.6622C28.2257 5.59804 28.1524 5.88216 28.3266 5.94632Z" fill="#893C29"/>
<path d="M27.1251 7.56874C27.1801 7.59318 27.2382 7.61456 27.2993 7.63289C27.3237 7.639 27.3482 7.64512 27.3726 7.65123C27.3818 7.66039 27.4001 7.66956 27.391 7.66039C27.446 7.71538 27.5377 7.72455 27.5927 7.66039C27.6477 7.6054 27.6569 7.50458 27.5927 7.45875C27.501 7.3671 27.3818 7.3671 27.2718 7.31211C27.1985 7.28461 27.1159 7.29378 27.0701 7.3671C27.0334 7.43126 27.0518 7.53208 27.1251 7.56874Z" fill="#893C29"/>
<path d="M23.2196 9.22737C23.3174 9.22737 23.4152 9.22737 23.513 9.22737C23.6963 9.22737 23.6963 8.93408 23.513 8.93408C23.4152 8.93408 23.3174 8.93408 23.2196 8.93408C23.0271 8.93408 23.0271 9.22737 23.2196 9.22737Z" fill="#893C29"/>
<path d="M24.3841 7.99934C24.543 7.99934 24.6989 7.99934 24.8517 7.99934C25.0442 7.99934 25.0442 7.70605 24.8517 7.70605C24.6989 7.70605 24.543 7.70605 24.3841 7.70605C24.2007 7.70605 24.2007 7.99934 24.3841 7.99934Z" fill="#893C29"/>
<path d="M23.449 11.4547C23.5896 11.4547 23.7271 11.4547 23.8616 11.4547C24.045 11.4547 24.045 11.1614 23.8616 11.1614C23.7271 11.1614 23.5896 11.1614 23.449 11.1614C23.2657 11.1614 23.2657 11.4547 23.449 11.4547Z" fill="#893C29"/>
<path d="M21.2942 11.9952C21.4226 12.1052 21.5876 12.1693 21.7068 12.2885C21.8443 12.4168 22.0552 12.206 21.9177 12.0777C21.7893 11.9585 21.6243 11.9035 21.5051 11.7844C21.3676 11.6561 21.1567 11.8577 21.2942 11.9952Z" fill="#893C29"/>
<path d="M20.4508 14.2408C20.625 14.3142 20.8083 14.3142 20.9917 14.3142C21.1842 14.3142 21.1842 14.0209 20.9917 14.0209C20.8633 14.0209 20.7167 14.0392 20.5975 13.9842C20.5241 13.9567 20.4416 13.9659 20.3958 14.0392C20.3591 14.1034 20.3774 14.2042 20.4508 14.2408Z" fill="#893C29"/>
<path d="M22.2206 15.2583C22.4039 15.2492 22.5598 15.185 22.7248 15.13C22.9082 15.075 22.8257 14.7909 22.6515 14.8459C22.5139 14.9009 22.3764 14.9559 22.2206 14.965C22.0372 14.965 22.028 15.2583 22.2206 15.2583Z" fill="#893C29"/>
<path d="M24.6771 13.2603C24.8971 13.2603 25.0988 13.2419 25.2822 13.132C25.438 13.0311 25.2913 12.7745 25.1355 12.8753C24.9888 12.967 24.8421 12.9762 24.6771 12.9762C24.4937 12.9762 24.4937 13.2603 24.6771 13.2603Z" fill="#893C29"/>
<path d="M25.8695 10.7399C26.0162 10.7949 26.1629 10.8407 26.3004 10.9049C26.4746 10.9874 26.6213 10.7307 26.4563 10.6482C26.2913 10.5749 26.1171 10.5199 25.9521 10.4649C25.7687 10.4008 25.6953 10.6849 25.8695 10.7399Z" fill="#893C29"/>
<path d="M26.484 9.02592C26.6948 9.1634 26.9515 9.1634 27.1991 9.1634C27.3824 9.1634 27.3824 8.87927 27.1991 8.87927C27.0065 8.87927 26.7957 8.87927 26.6307 8.77845C26.4656 8.67763 26.3189 8.93427 26.484 9.02592Z" fill="#893C29"/>
<path d="M29.243 7.06453C29.3652 7.06453 29.4844 7.06453 29.6005 7.06453C29.7839 7.06453 29.7839 6.77124 29.6005 6.77124C29.4844 6.77124 29.3652 6.77124 29.243 6.77124C29.0596 6.77124 29.0596 7.06453 29.243 7.06453Z" fill="#893C29"/>
<path d="M34.3864 5.87286C34.5606 5.95534 34.7623 6.00117 34.9456 6.05616C35.129 6.12032 35.2023 5.8362 35.019 5.78121C34.8631 5.72621 34.6889 5.68955 34.5331 5.61623C34.3589 5.53374 34.2122 5.79037 34.3864 5.87286Z" fill="#893C29"/>
<path d="M35.413 4.77332C35.633 4.84665 35.8622 4.89247 36.1006 4.89247C36.284 4.90163 36.284 4.60835 36.1006 4.59918C35.8897 4.59918 35.688 4.55336 35.4955 4.4892C35.3121 4.43421 35.2388 4.71833 35.413 4.77332Z" fill="#893C29"/>
<path d="M37.7327 4.30575C37.9711 4.30575 38.2064 4.30575 38.4387 4.30575C38.6312 4.30575 38.6312 4.01245 38.4387 4.01245C38.2064 4.01245 37.9711 4.01245 37.7327 4.01245C37.5494 4.01245 37.5494 4.30575 37.7327 4.30575Z" fill="#893C29"/>
<path d="M36.0734 3.48072C36.2384 3.4349 36.3943 3.4349 36.5685 3.4349C36.7518 3.4349 36.7518 3.1416 36.5685 3.1416C36.376 3.1416 36.1834 3.14161 36.0001 3.20576C35.8167 3.26076 35.8992 3.54488 36.0734 3.48072Z" fill="#893C29"/>
<path d="M35.9818 2.55549C36.159 2.55549 36.3332 2.55549 36.5044 2.55549C36.6969 2.55549 36.6969 2.26221 36.5044 2.26221C36.3332 2.26221 36.159 2.26221 35.9818 2.26221C35.7893 2.26221 35.7893 2.55549 35.9818 2.55549Z" fill="#893C29"/>
<path d="M35.5692 1.91361C35.7526 1.91361 35.9268 1.96861 36.0826 2.06943C36.2385 2.17024 36.3852 1.91361 36.2293 1.8128C36.0368 1.68448 35.7984 1.62033 35.5692 1.62033C35.3767 1.61116 35.3858 1.90445 35.5692 1.91361Z" fill="#893C29"/>
<path d="M37.8975 2.59184C38.0626 2.67433 38.2184 2.77515 38.4018 2.83931C38.576 2.90347 38.6585 2.61933 38.4751 2.55518C38.3193 2.50935 38.1909 2.41771 38.0442 2.33522C37.8792 2.25273 37.7325 2.50935 37.8975 2.59184Z" fill="#893C29"/>
<path d="M39.942 3.52677C40.0795 3.60009 40.162 3.76506 40.2445 3.88421C40.3454 4.04002 40.6021 3.89337 40.5012 3.73757C40.3912 3.57259 40.272 3.37096 40.0887 3.2793C39.9236 3.18765 39.777 3.43512 39.942 3.52677Z" fill="#893C29"/>
<path d="M38.8972 3.76503C38.9706 3.90251 39.1081 3.98499 39.209 4.09497C39.3465 4.22329 39.5573 4.01248 39.4198 3.88417C39.3281 3.80168 39.209 3.72837 39.154 3.61839C39.1173 3.55423 39.0164 3.52673 38.9523 3.57256C38.8789 3.60922 38.8606 3.70087 38.8972 3.76503Z" fill="#893C29"/>
<path d="M38.7415 5.5523C38.7476 5.55841 38.7537 5.56451 38.7598 5.57062C38.7873 5.60728 38.7415 5.5523 38.769 5.58896C38.7873 5.60729 38.8026 5.62562 38.8148 5.64395C38.8423 5.69894 38.879 5.74476 38.9248 5.79059C38.9798 5.84558 39.0715 5.84558 39.1265 5.79059C39.1815 5.7356 39.1815 5.63478 39.1265 5.57979C39.1204 5.57368 39.1143 5.56757 39.1082 5.56146C39.0807 5.53396 39.1265 5.58896 39.099 5.5523C39.0868 5.52786 39.0746 5.50646 39.0623 5.48813C39.0257 5.44231 38.989 5.38732 38.9523 5.35065C38.8973 5.2865 38.7965 5.29566 38.7415 5.35065C38.6864 5.40565 38.6864 5.49731 38.7415 5.5523Z" fill="#893C29"/>
<path d="M32.1679 7.60531C32.0579 7.85277 32.2596 8.02691 32.4521 8.15523C32.5163 8.20105 32.6171 8.16438 32.6538 8.10022C32.6905 8.0269 32.663 7.94442 32.5988 7.89859C32.5438 7.86193 32.4979 7.82528 32.4613 7.78862C32.4429 7.77029 32.4338 7.75195 32.4246 7.74279C32.4246 7.7489 32.4246 7.74278 32.4246 7.72445C32.4246 7.73362 32.4246 7.74279 32.4154 7.75195C32.4521 7.67863 32.4429 7.59614 32.3696 7.55031C32.3054 7.51365 32.1954 7.53199 32.1679 7.60531Z" fill="#893C29"/>
<path d="M33.4786 6.89954C33.6253 7.04618 33.8087 7.15616 34.0104 7.22948C34.1846 7.29364 34.2671 7.00952 34.0837 6.94536C33.937 6.89954 33.7995 6.80789 33.6803 6.69791C33.5428 6.56043 33.3411 6.77122 33.4786 6.89954Z" fill="#893C29"/>
<path d="M33.5248 9.1633C33.6898 9.1633 33.8548 9.1633 34.0015 9.08998C34.0749 9.05332 34.0932 8.9525 34.0565 8.88835C34.0107 8.81502 33.9282 8.80585 33.8548 8.83335C33.754 8.87917 33.6256 8.87917 33.5248 8.87917C33.3322 8.87917 33.3322 9.1633 33.5248 9.1633Z" fill="#893C29"/>
<path d="M35.6243 8.87922C35.8199 8.87922 36.0155 8.87922 36.2111 8.87922C36.4036 8.87922 36.4036 8.58594 36.2111 8.58594C36.0155 8.58594 35.8199 8.58594 35.6243 8.58594C35.441 8.58594 35.441 8.87922 35.6243 8.87922Z" fill="#893C29"/>
<path d="M35.7066 7.22938C35.89 7.28437 36.0825 7.29354 36.275 7.29354C36.4584 7.29354 36.4584 7.00025 36.275 7.00025C36.11 7.00025 35.945 7.00025 35.7799 6.94526C35.6057 6.89027 35.5232 7.17439 35.7066 7.22938Z" fill="#893C29"/>
<path d="M36.963 5.63487C37.073 5.68986 37.2014 5.69902 37.3114 5.75401C37.3847 5.79067 37.4672 5.77234 37.5131 5.69902C37.5497 5.63486 37.5314 5.53405 37.4581 5.49739C37.3481 5.45156 37.2197 5.43323 37.1097 5.3874C37.0363 5.35074 36.9538 5.3599 36.908 5.43323C36.8713 5.49738 36.8896 5.59821 36.963 5.63487Z" fill="#893C29"/>
<path d="M37.5038 7.06453C37.5955 7.06453 37.6963 7.05537 37.7788 7.1012C37.8522 7.12869 37.9347 7.11952 37.9805 7.0462C38.0172 6.98204 37.9988 6.88123 37.9255 6.84457C37.788 6.78041 37.6505 6.77124 37.5038 6.77124C37.3112 6.77124 37.3112 7.06453 37.5038 7.06453Z" fill="#893C29"/>
<path d="M29.6009 12.3895C29.7171 12.3895 29.8332 12.3895 29.9493 12.3895C30.1418 12.3895 30.1418 12.0962 29.9493 12.0962C29.8332 12.0962 29.7171 12.0962 29.6009 12.0962C29.4084 12.0962 29.4084 12.3895 29.6009 12.3895Z" fill="#893C29"/>
<path d="M30.756 10.5565C30.9026 10.6206 31.0677 10.6298 31.2419 10.6298C31.4252 10.6298 31.4252 10.3365 31.2419 10.3365C31.1318 10.3365 31.0035 10.3456 30.9026 10.2998C30.8293 10.2632 30.7468 10.2815 30.701 10.3548C30.6643 10.419 30.6826 10.5198 30.756 10.5565Z" fill="#893C29"/>
<path d="M32.9379 11.5096C33.109 11.5096 33.2832 11.5096 33.4604 11.5096C33.653 11.5096 33.653 11.2163 33.4604 11.2163C33.2832 11.2163 33.109 11.2163 32.9379 11.2163C32.7453 11.2163 32.7453 11.5096 32.9379 11.5096Z" fill="#893C29"/>
<path d="M31.6083 13.7735C31.755 13.6726 31.9201 13.6085 32.0943 13.5535C32.2776 13.4893 32.1951 13.2052 32.0209 13.2694C31.8192 13.3335 31.6267 13.4069 31.4525 13.5168C31.2966 13.6177 31.4433 13.8743 31.6083 13.7735Z" fill="#893C29"/>
<path d="M27.6845 14.8368C27.8678 14.901 28.0512 14.956 28.2529 14.9651C28.4363 14.9651 28.4363 14.6719 28.2529 14.6719C28.0787 14.6627 27.9228 14.6077 27.767 14.5619C27.5836 14.4977 27.5103 14.7818 27.6845 14.8368Z" fill="#893C29"/>
<path d="M31.1776 15.3133C31.312 15.3133 31.4495 15.3133 31.5901 15.3133C31.7735 15.3133 31.7735 15.02 31.5901 15.02C31.4495 15.02 31.312 15.02 31.1776 15.02C30.9942 15.02 30.9942 15.3133 31.1776 15.3133Z" fill="#893C29"/>
<path d="M37.0727 14.3693C37.2744 14.3235 37.4669 14.2594 37.6777 14.2594C37.8703 14.2594 37.8703 13.9661 37.6777 13.9661C37.4394 13.9752 37.2193 14.0302 36.9901 14.0852C36.8159 14.131 36.8893 14.4152 37.0727 14.3693Z" fill="#893C29"/>
<path d="M37.5038 12.9118C37.7513 12.9118 37.9988 12.9027 38.2464 12.8477C38.4297 12.811 38.3472 12.5269 38.1639 12.5636C37.9438 12.6186 37.7238 12.6185 37.5038 12.6185C37.3112 12.6185 37.3112 12.9118 37.5038 12.9118Z" fill="#893C29"/>
<path d="M40.3276 11.9952C40.4651 12.1327 40.6118 12.2518 40.8043 12.3252C40.9785 12.3893 41.0518 12.1052 40.8776 12.041C40.7401 11.9952 40.6393 11.8852 40.5293 11.7844C40.4009 11.6561 40.19 11.8577 40.3276 11.9952Z" fill="#893C29"/>
<path d="M39.9426 13.242C40.0343 13.297 40.0801 13.3886 40.126 13.4803C40.1627 13.5536 40.2635 13.5719 40.3277 13.5353C40.401 13.4986 40.4194 13.407 40.3827 13.3336C40.3094 13.1962 40.236 13.0678 40.0893 12.9945C40.0251 12.9579 39.9335 12.9762 39.8968 13.0403C39.8509 13.1137 39.8785 13.2053 39.9426 13.242Z" fill="#893C29"/>
<path d="M38.558 10.6298C38.723 10.6298 38.888 10.6206 39.0439 10.5565C39.1081 10.5198 39.1264 10.419 39.0897 10.3548C39.0531 10.2815 38.9614 10.2632 38.888 10.2998C38.7872 10.3456 38.668 10.3365 38.558 10.3365C38.3654 10.3365 38.3654 10.6298 38.558 10.6298Z" fill="#893C29"/>
<path d="M40.9598 9.81405C41.1615 9.81405 41.3632 9.81404 41.5649 9.86904C41.7483 9.9057 41.8216 9.62158 41.6383 9.58492C41.4091 9.52992 41.189 9.52075 40.9598 9.52075C40.7673 9.52075 40.7673 9.81405 40.9598 9.81405Z" fill="#893C29"/>
<path d="M40.2538 11.0423C40.4005 11.0423 40.538 11.024 40.6755 10.9598C40.7488 10.9323 40.7672 10.8223 40.7305 10.7582C40.6847 10.6849 40.6022 10.6757 40.5288 10.7124C40.4463 10.749 40.3455 10.749 40.2538 10.749C40.0612 10.749 40.0612 11.0423 40.2538 11.0423Z" fill="#893C29"/>
<path d="M43.2243 11.6379C43.3251 11.5462 43.4443 11.4912 43.5726 11.4454C43.7468 11.3812 43.6735 11.1063 43.4901 11.1613C43.3159 11.2254 43.1509 11.2988 43.0225 11.4362C42.885 11.5645 43.0867 11.7754 43.2243 11.6379Z" fill="#893C29"/>
<path d="M44.4531 10.2357C44.5814 10.1074 44.7465 10.0249 44.9207 9.97904C45.104 9.93322 45.0215 9.6491 44.8381 9.69492C44.6181 9.75908 44.4164 9.86907 44.2514 10.034C44.1139 10.1624 44.3247 10.364 44.4531 10.2357Z" fill="#893C29"/>
<path d="M43.3801 8.9893C43.6552 9.05346 43.921 9.09928 44.2144 9.04429C44.3978 9.01679 44.3245 8.73267 44.1411 8.76017C43.9027 8.80599 43.6827 8.76017 43.4535 8.70518C43.2701 8.65935 43.1968 8.94347 43.3801 8.9893Z" fill="#893C29"/>
<path d="M40.914 7.19296C41.0301 7.30905 41.1462 7.42514 41.2624 7.54123C41.3999 7.67871 41.6016 7.46791 41.4732 7.3396C41.351 7.2235 41.2318 7.10435 41.1157 6.98215C40.9873 6.85384 40.7765 7.05548 40.914 7.19296Z" fill="#893C29"/>
<path d="M40.19 8.15503C40.3061 8.33223 40.4222 8.50941 40.5383 8.68661C40.6392 8.84242 40.8959 8.69578 40.7859 8.53997C40.6698 8.36277 40.5536 8.18557 40.4375 8.00838C40.3367 7.85257 40.08 7.99922 40.19 8.15503Z" fill="#893C29"/>
<path d="M42.5095 7.3026C42.592 7.55006 42.7203 7.77002 42.9037 7.95333C43.0321 8.0908 43.2429 7.88001 43.1054 7.74253C42.9679 7.59589 42.8579 7.42174 42.7937 7.22927C42.7387 7.04596 42.4545 7.12846 42.5095 7.3026Z" fill="#893C29"/>
<path d="M42.0328 6.17542C42.2711 6.25791 42.5095 6.34956 42.7754 6.35873C42.9587 6.35873 42.9587 6.07461 42.7754 6.06545C42.537 6.05628 42.3261 5.96463 42.1061 5.8913C41.9319 5.83631 41.8494 6.12043 42.0328 6.17542Z" fill="#893C29"/>
<path d="M42.6561 4.8924C42.7661 4.90157 42.8853 4.93824 42.9862 4.99323C43.1604 5.07572 43.3071 4.81909 43.142 4.7366C42.9862 4.66328 42.8211 4.60829 42.6561 4.59912C42.4636 4.59912 42.4636 4.8924 42.6561 4.8924Z" fill="#893C29"/>
<path d="M44.3889 6.31295C44.5173 6.63373 44.6915 6.92702 44.8657 7.22031C44.9665 7.38528 45.2232 7.23864 45.1224 7.07367C44.9574 6.79871 44.7923 6.52376 44.6731 6.23047C44.5998 6.05633 44.3156 6.13881 44.3889 6.31295Z" fill="#893C29"/>
<path d="M43.3896 5.9739C43.3896 6.15721 43.408 6.35885 43.573 6.45967C43.738 6.55132 43.8847 6.29469 43.7197 6.20304C43.7075 6.19081 43.7044 6.18776 43.7105 6.19387C43.6983 6.18165 43.6983 6.1786 43.7105 6.18471C43.6922 6.17554 43.6922 6.1572 43.683 6.12971C43.6739 6.09305 43.683 6.0289 43.683 5.9739C43.683 5.7906 43.3896 5.7906 43.3896 5.9739Z" fill="#893C29"/>
<path d="M44.1046 7.68773C44.288 7.80688 44.4805 7.9352 44.6914 8.03602C44.8564 8.11851 45.0031 7.87104 44.838 7.77939C44.6363 7.67857 44.4438 7.55943 44.2513 7.43111C44.0954 7.3303 43.9487 7.57775 44.1046 7.68773Z" fill="#893C29"/>
<path d="M45.4978 8.25613C45.4978 8.53109 45.562 8.79687 45.617 9.06267C45.6536 9.24597 45.9378 9.16349 45.9012 8.98019C45.8462 8.74189 45.7912 8.50359 45.782 8.25613C45.782 8.07283 45.4886 8.07283 45.4978 8.25613Z" fill="#893C29"/>
<path d="M19.8827 2.72932C20.066 2.72932 20.2402 2.73848 20.4236 2.78431C20.6069 2.83013 20.6895 2.54601 20.5061 2.50019C20.2952 2.45436 20.0935 2.43604 19.8827 2.43604C19.6901 2.43604 19.6901 2.72932 19.8827 2.72932Z" fill="#893C29"/>
<path d="M22.1195 3.44422C22.2754 3.60003 22.4313 3.75584 22.6146 3.88415C22.7705 3.98497 22.9172 3.72835 22.7613 3.62753C22.6055 3.51755 22.4588 3.38006 22.3213 3.24258C22.1929 3.1051 21.982 3.31591 22.1195 3.44422Z" fill="#893C29"/>
<path d="M23.5496 3.17828C23.6596 3.23327 23.7329 3.35242 23.8429 3.40741C23.9163 3.45324 24.008 3.42574 24.0446 3.36158C24.0813 3.28826 24.063 3.19661 23.9896 3.15995C23.8888 3.10496 23.8154 2.98581 23.6962 2.92165C23.6321 2.88499 23.5404 2.90333 23.5037 2.97665C23.4579 3.04081 23.4854 3.14162 23.5496 3.17828Z" fill="#893C29"/>
<path d="M22.2205 0.566232C22.4528 0.566232 22.6881 0.566232 22.9265 0.566232C23.1098 0.566232 23.1098 0.272949 22.9265 0.272949C22.6881 0.272949 22.4528 0.272949 22.2205 0.272949C22.0372 0.272949 22.0372 0.566232 22.2205 0.566232Z" fill="#893C29"/>
<path d="M22.972 1.1896C23.0331 1.3118 23.0911 1.43094 23.1461 1.54704C23.1828 1.62036 23.2837 1.63869 23.3478 1.59286C23.4212 1.5562 23.4395 1.46455 23.4028 1.40039C23.3417 1.27819 23.2837 1.15904 23.2287 1.04295C23.192 0.978791 23.0911 0.951295 23.027 0.997121C22.9536 1.03378 22.9353 1.12544 22.972 1.1896Z" fill="#893C29"/>
<path d="M16.3621 0.859689C16.5394 0.859689 16.7166 0.859689 16.8939 0.859689C17.0864 0.859689 17.0864 0.566406 16.8939 0.566406C16.7166 0.566406 16.5394 0.566406 16.3621 0.566406C16.1788 0.566406 16.1788 0.859689 16.3621 0.859689Z" fill="#893C29"/>
<path d="M14.1616 2.90335C14.3266 2.95834 14.455 3.08666 14.5925 3.17831C14.7484 3.28829 14.8951 3.03166 14.7392 2.92168C14.5742 2.81169 14.4275 2.68339 14.235 2.61923C14.0608 2.55507 13.9874 2.83919 14.1616 2.90335Z" fill="#893C29"/>
<path d="M12.9696 2.84847C13.104 2.84847 13.2415 2.84847 13.3821 2.84847C13.5655 2.84847 13.5655 2.55518 13.3821 2.55518C13.2415 2.55518 13.104 2.55518 12.9696 2.55518C12.7862 2.55518 12.7862 2.84847 12.9696 2.84847Z" fill="#893C29"/>
<path d="M13.2084 1.32713C13.4926 1.32713 13.7768 1.31795 14.061 1.26296C14.2535 1.2263 14.171 0.942182 13.9876 0.978843C13.7309 1.02467 13.4651 1.03383 13.2084 1.03383C13.0158 1.03383 13.0158 1.32713 13.2084 1.32713Z" fill="#893C29"/>
<path d="M29.3808 2.19765C29.6008 2.27097 29.83 2.31679 30.0684 2.31679C30.2517 2.32596 30.2517 2.03268 30.0684 2.02351C29.8575 2.02351 29.6558 1.97768 29.4633 1.91352C29.2799 1.85853 29.2066 2.14266 29.3808 2.19765Z" fill="#893C29"/>
<path d="M28.8397 0.969377C28.9956 0.969377 29.1514 0.914388 29.3073 0.914388C29.4906 0.914388 29.4906 0.621094 29.3073 0.621094C29.1423 0.621094 28.9956 0.676083 28.8397 0.676083C28.6472 0.685248 28.6472 0.978543 28.8397 0.969377Z" fill="#893C29"/>
<path d="M27.5376 2.71115C27.6293 2.88529 27.8034 2.95861 27.9776 3.0136C28.161 3.07776 28.2343 2.79363 28.0602 2.73864C27.996 2.71115 27.9318 2.69283 27.8768 2.65616C27.8401 2.63783 27.8126 2.61034 27.7943 2.56451C27.7026 2.39954 27.4551 2.54618 27.5376 2.71115Z" fill="#893C29"/>
<path d="M34.0838 5.4787C34.3406 5.41454 34.5881 5.34123 34.8265 5.22208C34.9915 5.13959 34.8448 4.89212 34.6798 4.97461C34.4597 5.07543 34.2397 5.13959 34.0105 5.19458C33.8271 5.2404 33.9005 5.52452 34.0838 5.4787Z" fill="#893C29"/>
<path d="M35.0834 4.01237C35.2759 3.94821 35.4776 3.90239 35.6885 3.90239C35.8718 3.89323 35.8718 3.59993 35.6885 3.6091C35.4501 3.6091 35.2301 3.65493 35.0009 3.72825C34.8267 3.78324 34.9 4.06736 35.0834 4.01237Z" fill="#893C29"/>
<path d="M36.5958 4.379C36.6783 4.5898 36.8342 4.75478 36.99 4.91058C37.1184 5.04806 37.3292 4.83726 37.1917 4.69978C37.0817 4.5898 36.9442 4.46148 36.88 4.29651C36.8158 4.12237 36.5316 4.19569 36.5958 4.379Z" fill="#893C29"/>
<path d="M38.2005 4.7823C38.3594 4.7823 38.5183 4.7823 38.6773 4.7823C38.8606 4.7823 38.8606 4.48901 38.6773 4.48901C38.5183 4.48901 38.3594 4.48901 38.2005 4.48901C38.0171 4.48901 38.0171 4.7823 38.2005 4.7823Z" fill="#893C29"/>
<path d="M37.1827 3.15096C37.2744 3.38009 37.4669 3.52674 37.6961 3.60006C37.8795 3.66422 37.9528 3.3801 37.7786 3.31594C37.6503 3.27928 37.5128 3.1968 37.4669 3.06848C37.4027 2.89434 37.1185 2.96766 37.1827 3.15096Z" fill="#893C29"/>
<path d="M36.8799 2.02347C37.0358 2.07846 37.1917 2.14262 37.3475 2.19761C37.5217 2.26177 37.6042 1.97763 37.4209 1.91348C37.265 1.85849 37.1091 1.79434 36.9533 1.73935C36.7791 1.67519 36.6966 1.95931 36.8799 2.02347Z" fill="#893C29"/>
<path d="M39.3923 2.78414C39.6765 2.89412 39.9332 3.0591 40.1807 3.23324C40.3274 3.35239 40.4741 3.09577 40.3274 2.98578C40.0646 2.79026 39.7804 2.62833 39.4748 2.50002C39.3006 2.4267 39.2272 2.71082 39.3923 2.78414Z" fill="#893C29"/>
<path d="M42.0786 4.03065C42.1886 4.14063 42.317 4.24144 42.482 4.25061C42.5553 4.25061 42.6287 4.17729 42.6287 4.10397C42.6287 4.02148 42.5553 3.95732 42.482 3.95732C42.4545 3.95732 42.427 3.93899 42.3811 3.9115C42.3628 3.89317 42.317 3.8565 42.2895 3.82901C42.1519 3.69153 41.9502 3.90234 42.0786 4.03065Z" fill="#893C29"/>
<path d="M2.42628 13.8928C2.5363 14.0944 2.7655 14.2319 2.93969 14.3602C3.10472 14.461 3.25141 14.2044 3.09555 14.1036C2.94886 14.0119 2.75633 13.902 2.67382 13.7462C2.58214 13.5812 2.3346 13.7278 2.42628 13.8928Z" fill="#C25739"/>
<path d="M1.70236 14.5801C1.71153 14.9284 1.81237 15.24 1.94073 15.5608C2.0049 15.7258 2.28912 15.6524 2.22494 15.4783C2.10576 15.185 2.00491 14.9009 1.99574 14.5801C1.98657 14.3968 1.69319 14.3968 1.70236 14.5801Z" fill="#C25739"/>
<path d="M3.00399 15.5884C3.13234 15.6617 3.22402 15.8175 3.29737 15.9458C3.40738 16.1016 3.65492 15.955 3.55407 15.7992C3.44405 15.6342 3.33404 15.4325 3.15067 15.3317C2.98565 15.2401 2.83896 15.4967 3.00399 15.5884Z" fill="#C25739"/>
<path d="M3.23301 17.3389C3.53556 17.513 3.87478 17.6322 4.17732 17.8063C4.33318 17.9071 4.47987 17.6505 4.32401 17.5589C4.02146 17.3847 3.68224 17.2656 3.3797 17.0914C3.22384 16.9906 3.07715 17.2472 3.23301 17.3389Z" fill="#C25739"/>
<path d="M5.88264 18.4112C6.17602 18.4112 6.4694 18.4112 6.76278 18.4112C6.95531 18.4112 6.95531 18.1179 6.76278 18.1179C6.4694 18.1179 6.17602 18.1179 5.88264 18.1179C5.69928 18.1179 5.69928 18.4112 5.88264 18.4112Z" fill="#C25739"/>
<path d="M4.82844 17.0731C5.11265 17.0731 5.39686 17.0731 5.6719 17.1189C5.85526 17.1556 5.93778 16.8714 5.74525 16.8439C5.4427 16.7798 5.14015 16.7798 4.82844 16.7798C4.64508 16.7798 4.64508 17.0731 4.82844 17.0731Z" fill="#C25739"/>
<path d="M4.58103 15.5425C4.81023 15.4875 5.0486 15.4234 5.25946 15.295C5.41532 15.1942 5.26863 14.9376 5.11278 15.0384C4.92942 15.1576 4.70938 15.2034 4.49852 15.2584C4.31515 15.3042 4.39767 15.5883 4.58103 15.5425Z" fill="#C25739"/>
<path d="M6.75356 16.0557C7.01027 16.1932 7.23947 16.3856 7.42283 16.6148C7.54202 16.7614 7.74372 16.5598 7.6337 16.4131C7.432 16.1565 7.1753 15.9457 6.90025 15.799C6.72606 15.7166 6.57937 15.964 6.75356 16.0557Z" fill="#C25739"/>
<path d="M6.66203 17.0819C6.81789 17.2377 6.97375 17.3935 7.15711 17.5127C7.31297 17.6227 7.45965 17.366 7.3038 17.2652C7.14794 17.1552 7.01042 17.0178 6.86373 16.8803C6.73538 16.7428 6.52451 16.9536 6.66203 17.0819Z" fill="#C25739"/>
<path d="M7.67955 20.1619C7.93626 20.1069 8.1838 20.0336 8.42217 19.9144C8.58719 19.832 8.4405 19.5845 8.27548 19.667C8.05545 19.7678 7.83541 19.8228 7.60621 19.887C7.42285 19.9328 7.49619 20.2077 7.67955 20.1619Z" fill="#C25739"/>
<path d="M6.29524 19.3553C6.41136 19.3553 6.5275 19.3553 6.64363 19.3553C6.83616 19.3553 6.83616 19.062 6.64363 19.062C6.5275 19.062 6.41136 19.062 6.29524 19.062C6.11187 19.062 6.11187 19.3553 6.29524 19.3553Z" fill="#C25739"/>
<path d="M8.61511 18.7594C8.85348 18.7044 9.10101 18.7044 9.33938 18.7044C9.53191 18.7044 9.53191 18.4111 9.33938 18.4111C9.07351 18.4111 8.80763 18.4203 8.54176 18.4753C8.35839 18.5211 8.43174 18.8052 8.61511 18.7594Z" fill="#C25739"/>
<path d="M8.77049 17.3572C9.02719 17.4214 9.2839 17.4764 9.53144 17.5314C9.72397 17.568 9.79731 17.2839 9.61395 17.2472C9.35725 17.2014 9.10971 17.1373 8.853 17.0731C8.66964 17.0273 8.58713 17.3114 8.77049 17.3572Z" fill="#C25739"/>
<path d="M10.2928 17.2013C10.412 17.3113 10.5954 17.3021 10.742 17.3021C10.9346 17.3021 10.9346 17.0089 10.742 17.0089C10.6931 17.0089 10.6412 17.0089 10.5862 17.0089C10.5679 17.0089 10.5495 17.0058 10.5312 16.9997C10.5128 16.9997 10.4853 16.9814 10.4945 16.9905C10.4395 16.9447 10.3478 16.9355 10.2928 16.9905C10.2378 17.0455 10.2286 17.1463 10.2928 17.2013Z" fill="#C25739"/>
<path d="M12.7406 18.7044C12.9606 18.7044 13.1807 18.7136 13.4007 18.7594C13.584 18.8052 13.6666 18.5211 13.474 18.4753C13.2357 18.4203 12.9881 18.4111 12.7406 18.4111C12.5481 18.4111 12.5481 18.7044 12.7406 18.7044Z" fill="#C25739"/>
<path d="M10.742 19.7586C10.962 19.7586 11.179 19.7586 11.3929 19.7586C11.5763 19.7586 11.5763 19.4653 11.3929 19.4653C11.179 19.4653 10.962 19.4653 10.742 19.4653C10.5587 19.4653 10.5587 19.7586 10.742 19.7586Z" fill="#C25739"/>
<path d="M10.32 20.6201C10.5676 20.8034 10.8151 20.9776 11.1177 21.0417C11.301 21.0876 11.3744 20.8034 11.191 20.7576C10.916 20.7026 10.6959 20.5376 10.4667 20.3635C10.32 20.2535 10.1733 20.5101 10.32 20.6201Z" fill="#C25739"/>
<path d="M13.4006 21.2801C13.6298 21.3351 13.8682 21.3442 14.1066 21.3992C14.29 21.4359 14.3633 21.1518 14.1799 21.1151C13.9507 21.0601 13.7124 21.0509 13.474 20.996C13.2906 20.9501 13.2173 21.2342 13.4006 21.2801Z" fill="#C25739"/>
<path d="M14.6107 19.8775C14.8032 19.8775 14.9958 19.8225 15.1975 19.8225C15.3808 19.8134 15.3808 19.5201 15.1975 19.5293C14.9958 19.5293 14.8032 19.5843 14.6107 19.5843C14.4182 19.5934 14.4182 19.8775 14.6107 19.8775Z" fill="#C25739"/>
<path d="M16.307 18.8877C16.4995 18.8877 16.692 18.8786 16.8754 18.8236C17.0496 18.7594 16.9762 18.4845 16.7929 18.5395C16.637 18.5853 16.472 18.5944 16.307 18.5944C16.1236 18.5944 16.1236 18.8877 16.307 18.8877Z" fill="#C25739"/>
<path d="M13.6756 17.7147C13.8712 17.7147 14.0668 17.7147 14.2624 17.7147C14.4458 17.7147 14.4458 17.4214 14.2624 17.4214C14.0668 17.4214 13.8712 17.4214 13.6756 17.4214C13.4831 17.4214 13.4831 17.7147 13.6756 17.7147Z" fill="#C25739"/>
<path d="M19.7447 20.9682C19.9647 21.069 20.2673 21.1148 20.5057 21.0415C20.6798 20.9957 20.6065 20.7116 20.4231 20.7574C20.2673 20.8032 20.0473 20.7849 19.8914 20.7207C19.7264 20.6383 19.5797 20.8949 19.7447 20.9682Z" fill="#C25739"/>
<path d="M16.8204 21.5548C17.0863 21.7473 17.4163 21.8572 17.7372 21.9214C17.9206 21.9581 17.9939 21.6739 17.8106 21.6373C17.508 21.5731 17.2146 21.4815 16.9671 21.3073C16.8112 21.1974 16.6646 21.4448 16.8204 21.5548Z" fill="#C25739"/>
<path d="M17.8929 20.1711C18.1405 20.1619 18.3422 20.0519 18.5439 19.9145C18.6997 19.8136 18.5622 19.557 18.3972 19.667C18.2413 19.7678 18.0855 19.8686 17.8929 19.8778C17.7004 19.887 17.7004 20.1803 17.8929 20.1711Z" fill="#C25739"/>
<path d="M19.9925 18.8236C20.2859 18.8236 20.5793 18.7686 20.8726 18.7686C21.0652 18.7595 21.0652 18.4753 20.8726 18.4753C20.5793 18.4753 20.2859 18.5303 19.9925 18.5303C19.8091 18.5303 19.8091 18.8236 19.9925 18.8236Z" fill="#C25739"/>
<path d="M23.4395 18.9247C23.6321 19.053 23.8704 19.108 24.0813 19.218C24.2463 19.3005 24.393 19.0438 24.228 18.9613C24.0171 18.8605 23.7788 18.7964 23.5862 18.6681C23.4212 18.5672 23.2745 18.8239 23.4395 18.9247Z" fill="#C25739"/>
<path d="M22.7701 20.345C22.8893 20.3817 23.0268 20.3908 23.146 20.4458C23.2101 20.4733 23.3018 20.4642 23.3385 20.3908C23.3843 20.3267 23.366 20.2259 23.2927 20.1892C23.146 20.125 22.9901 20.1067 22.8434 20.0609C22.6692 19.9967 22.5867 20.2809 22.7701 20.345Z" fill="#C25739"/>
<path d="M22.7059 22.1415C22.8251 22.0865 22.9717 22.1048 23.1001 22.1048C23.2835 22.1048 23.2835 21.8115 23.1001 21.8115C22.9167 21.8115 22.7242 21.8115 22.5592 21.8848C22.4858 21.9215 22.4675 22.0223 22.5042 22.0865C22.55 22.1598 22.6325 22.1781 22.7059 22.1415Z" fill="#C25739"/>
<path d="M27.4921 20.2261C27.7213 20.2261 27.9504 20.162 28.1705 20.107C28.3538 20.0611 28.2805 19.777 28.0971 19.8229C27.8954 19.8778 27.7029 19.9328 27.4921 19.9328C27.2995 19.942 27.2995 20.2353 27.4921 20.2261Z" fill="#C25739"/>
<path d="M0.41855 11.867C0.491894 12.0687 0.592743 12.252 0.647751 12.4536C0.70276 12.6369 0.986968 12.5636 0.931959 12.3803C0.876951 12.1695 0.766934 11.9862 0.702758 11.7937C0.638581 11.6104 0.354373 11.6929 0.41855 11.867Z" fill="#C25739"/>
<path d="M4.7733 16.4224C5.09419 16.4224 5.39673 16.3582 5.69011 16.2483C5.8643 16.1749 5.79096 15.8908 5.61677 15.9641C5.34173 16.0649 5.06668 16.1291 4.7733 16.1291C4.58994 16.1383 4.58077 16.4316 4.7733 16.4224Z" fill="#C25739"/>
<path d="M4.11333 16.8531C4.25085 16.7065 4.26919 16.4865 4.21418 16.2941C4.15917 16.1199 3.87496 16.1932 3.92997 16.3766C3.95747 16.459 3.95747 16.5874 3.91163 16.6423C3.78328 16.7798 3.99414 16.9906 4.11333 16.8531Z" fill="#C25739"/>
<path d="M4.81908 18.1638C4.93826 18.4113 5.00244 18.6862 5.11246 18.9245C5.19497 19.0986 5.45167 18.952 5.36916 18.7779C5.24998 18.5304 5.19497 18.2646 5.07578 18.0171C4.99327 17.8522 4.74573 17.9988 4.81908 18.1638Z" fill="#C25739"/>
<path d="M7.34948 19.2359C7.58173 19.2359 7.81705 19.2359 8.05542 19.2359C8.23878 19.2359 8.23878 18.9426 8.05542 18.9426C7.81705 18.9426 7.58173 18.9426 7.34948 18.9426C7.15695 18.9426 7.15695 19.2359 7.34948 19.2359Z" fill="#C25739"/>
<path d="M7.4691 18.356C7.76248 18.356 8.05586 18.2827 8.27589 18.0811C8.41341 17.9527 8.20255 17.7419 8.06503 17.8703C7.90917 18.0261 7.67997 18.0627 7.4691 18.0627C7.27657 18.0627 7.27657 18.356 7.4691 18.356Z" fill="#C25739"/>
<path d="M8.193 17.3114C8.24801 17.1006 8.29385 16.8898 8.41304 16.7065C8.51389 16.5415 8.25718 16.3949 8.15633 16.5599C8.02798 16.7615 7.97297 16.9998 7.90879 17.2381C7.86295 17.4214 8.14716 17.4947 8.193 17.3114Z" fill="#C25739"/>
<path d="M8.97255 18.1732C9.18342 18.1091 9.43096 18.0724 9.65099 18.1182C9.83436 18.1549 9.91686 17.88 9.7335 17.8341C9.45846 17.7791 9.15592 17.8066 8.89005 17.8983C8.71585 17.9533 8.78919 18.2374 8.97255 18.1732Z" fill="#C25739"/>
<path d="M9.22909 19.8685C9.37578 19.6852 9.55914 19.5294 9.78835 19.4653C9.97171 19.4103 9.89836 19.1353 9.715 19.1812C9.40329 19.2636 9.17409 19.4744 8.98156 19.7127C8.86237 19.8686 9.11907 20.0152 9.22909 19.8685Z" fill="#C25739"/>
<path d="M9.28405 20.6385C9.46741 20.6385 9.46741 20.3452 9.28405 20.3452C9.09152 20.3452 9.09152 20.6385 9.28405 20.6385Z" fill="#C25739"/>
<path d="M9.33918 20.6385C9.45531 20.6385 9.57144 20.6385 9.68757 20.6385C9.8801 20.6385 9.8801 20.3452 9.68757 20.3452C9.57144 20.3452 9.45531 20.3452 9.33918 20.3452C9.15582 20.3452 9.15582 20.6385 9.33918 20.6385Z" fill="#C25739"/>
<path d="M10.1639 18.6495C10.3748 18.6495 10.604 18.6862 10.7874 18.8053C10.9524 18.9061 11.0991 18.6495 10.934 18.5487C10.7048 18.4112 10.4298 18.3562 10.1639 18.3562C9.9714 18.3562 9.9714 18.6495 10.1639 18.6495Z" fill="#C25739"/>
<path d="M11.4476 17.8887C11.6799 17.8887 11.9152 17.8887 12.1536 17.8887C12.3369 17.8887 12.3369 17.5955 12.1536 17.5955C11.9152 17.5955 11.6799 17.5955 11.4476 17.5955C11.2551 17.5955 11.2551 17.8887 11.4476 17.8887Z" fill="#C25739"/>
<path d="M12.264 19.5293C12.484 19.5293 12.6949 19.5843 12.9149 19.5843C13.0983 19.5843 13.0983 19.3002 12.9149 19.2911C12.6949 19.2911 12.484 19.2361 12.264 19.2361C12.0806 19.2269 12.0806 19.5202 12.264 19.5293Z" fill="#C25739"/>
<path d="M12.0526 20.6934C12.2085 20.7484 12.346 20.8217 12.4835 20.9134C12.6486 21.0142 12.7953 20.7667 12.6302 20.6567C12.4744 20.5559 12.3093 20.4734 12.1352 20.4093C11.9518 20.3451 11.8784 20.6292 12.0526 20.6934Z" fill="#C25739"/>
<path d="M14.6658 20.6933C14.8217 20.6933 14.9592 20.6842 15.0967 20.62C15.1701 20.5833 15.1792 20.4825 15.1426 20.4184C15.1059 20.345 15.0142 20.3359 14.95 20.3634C14.8584 20.4092 14.7667 20.4092 14.6658 20.4092C14.4825 20.4092 14.4825 20.6933 14.6658 20.6933Z" fill="#C25739"/>
<path d="M14.904 18.7044C14.8796 18.7044 14.8735 18.7044 14.8857 18.7044C14.8796 18.7044 14.8704 18.7014 14.8582 18.6953C14.8704 18.7014 14.8673 18.6983 14.849 18.6861C14.8551 18.6922 14.8612 18.6983 14.8673 18.7044C14.9132 18.7411 14.959 18.7594 15.0232 18.7686C15.0965 18.7686 15.1699 18.6953 15.1699 18.6219C15.1699 18.5395 15.0965 18.4753 15.0232 18.4753C15.0476 18.4814 15.0538 18.4814 15.0415 18.4753C15.0476 18.4814 15.0538 18.4845 15.0599 18.4845C15.0476 18.4783 15.0538 18.4845 15.0782 18.5028C15.066 18.4906 15.0568 18.4814 15.0507 18.4753C15.0049 18.4386 14.959 18.4203 14.904 18.4111C14.8215 18.4111 14.7573 18.4845 14.7573 18.5578C14.7573 18.6403 14.8215 18.7044 14.904 18.7044Z" fill="#C25739"/>
<path d="M13.2447 20.3269C13.4189 20.4094 13.6023 20.4553 13.7948 20.4644C13.9782 20.4644 13.9782 20.1711 13.7948 20.1711C13.6573 20.1711 13.5198 20.1345 13.3914 20.0703C13.2264 19.9878 13.0797 20.2445 13.2447 20.3269Z" fill="#C25739"/>
<path d="M32.0028 17.9439C32.1739 17.9439 32.3481 17.9439 32.5254 17.9439C32.7179 17.9439 32.7179 17.6506 32.5254 17.6506C32.3481 17.6506 32.1739 17.6506 32.0028 17.6506C31.8103 17.6506 31.8103 17.9439 32.0028 17.9439Z" fill="#C25739"/>
<path d="M33.2771 20.8857C33.3932 20.7696 33.5093 20.6535 33.6255 20.5374C33.7538 20.4 33.5521 20.1983 33.4146 20.3266C33.2985 20.4488 33.1823 20.568 33.0662 20.6841C32.9287 20.8124 33.1396 21.0232 33.2771 20.8857Z" fill="#C25739"/>
<path d="M30.1503 21.4907C30.1503 21.4785 30.1534 21.4694 30.1595 21.4632C30.1503 21.5091 30.1503 21.4724 30.1595 21.4541C30.1687 21.4174 30.1503 21.4816 30.1595 21.4541C30.1778 21.4266 30.1412 21.4724 30.1503 21.4632C30.1778 21.4358 30.1228 21.4816 30.1503 21.4632C30.1778 21.4449 30.1228 21.4724 30.1411 21.4632C30.1534 21.4632 30.1656 21.4602 30.1778 21.4541C30.132 21.4633 30.1686 21.4633 30.187 21.4541C30.2603 21.4541 30.3337 21.3899 30.3337 21.3166C30.3337 21.2341 30.2603 21.1608 30.187 21.17C30.0953 21.17 30.0128 21.1883 29.9486 21.2524C29.8844 21.3166 29.8661 21.4083 29.8569 21.4907C29.8569 21.5641 29.9303 21.6374 30.0036 21.6374C30.0861 21.6374 30.1503 21.5641 30.1503 21.4907Z" fill="#C25739"/>
<path d="M37.4675 17.8251C37.6051 17.8709 37.7609 17.9167 37.8984 17.9901C38.0635 18.0634 38.2102 17.8159 38.0451 17.7334C37.8801 17.651 37.7151 17.596 37.5409 17.541C37.3575 17.486 37.2842 17.7701 37.4675 17.8251Z" fill="#C25739"/>
<path d="M39.1173 16.5414C39.2915 16.4864 39.4749 16.4772 39.6491 16.4223C39.8325 16.3673 39.7499 16.0831 39.5666 16.1381C39.4016 16.1931 39.2182 16.2023 39.044 16.2573C38.8606 16.3123 38.9431 16.5964 39.1173 16.5414Z" fill="#C25739"/>
<path d="M3.59092 18.5121C3.76511 18.6312 3.93014 18.7504 4.086 18.897C4.22352 19.0345 4.42522 18.8237 4.29686 18.6954C4.12267 18.5304 3.93014 18.3929 3.73761 18.2555C3.58176 18.1546 3.43506 18.4113 3.59092 18.5121Z" fill="#C25739"/>
<path d="M2.32553 17.0547C2.50889 16.8164 2.72893 16.5964 2.91229 16.349C3.02231 16.2023 2.7656 16.0557 2.65559 16.2023C2.47223 16.4498 2.26136 16.6606 2.06883 16.9081C1.95881 17.0547 2.21552 17.2014 2.32553 17.0547Z" fill="#C25739"/>
<path d="M3.66393 14.7819C3.85646 14.7911 4.00314 14.901 4.14066 15.0385C4.27818 15.1668 4.48905 14.9652 4.35153 14.8277C4.159 14.6352 3.93897 14.4978 3.66393 14.4978C3.4714 14.4886 3.4714 14.7819 3.66393 14.7819Z" fill="#C25739"/>
<path d="M5.70832 17.8887C5.88557 17.8887 6.06282 17.8887 6.24007 17.8887C6.42343 17.8887 6.42343 17.5955 6.24007 17.5955C6.06282 17.5955 5.88557 17.5955 5.70832 17.5955C5.52496 17.5955 5.52496 17.8887 5.70832 17.8887Z" fill="#C25739"/>
<path d="M6.25855 16.6696C6.31355 16.4405 6.32272 16.2022 6.37773 15.9639C6.42357 15.7806 6.13936 15.7073 6.09352 15.8906C6.03851 16.1197 6.02934 16.358 5.9835 16.5872C5.93766 16.7705 6.22187 16.853 6.25855 16.6696Z" fill="#C25739"/>
<path d="M8.87141 16.7799C9.05477 16.7799 9.23813 16.7707 9.42149 16.8257C9.59569 16.8898 9.6782 16.6057 9.49484 16.5507C9.29314 16.4866 9.08227 16.4866 8.87141 16.4866C8.68805 16.4866 8.68805 16.7799 8.87141 16.7799Z" fill="#C25739"/>
<path d="M6.53356 19.9328C6.76582 19.9328 6.99807 19.9328 7.23033 19.9328C7.42286 19.9328 7.42286 19.6487 7.23033 19.6487C6.99807 19.6487 6.76582 19.6487 6.53356 19.6487C6.34103 19.6487 6.34103 19.9328 6.53356 19.9328Z" fill="#C25739"/>
</svg>
