<svg width="48" height="27" viewBox="0 0 48 27" fill="none" xmlns="http://www.w3.org/2000/svg">
<path d="M46.0381 12.5372C44.2476 10.5281 36.8542 7.52052 28.4256 8.73815C23.4317 9.46873 13.5901 11.6848 14.1626 17.5538C14.8325 24.4334 25.344 26.8809 32.9566 25.9068C40.5692 24.9205 52.7859 20.1108 46.0381 12.5372Z" fill="#893C29"/>
<path d="M44.4056 10.7842C42.2862 9.12824 36.8417 6.08416 28.413 7.30179C23.4192 8.03237 14.0892 10.6746 14.686 16.5314C15.2707 22.4004 25.3436 25.4445 32.9562 24.4582C40.5566 23.4841 53.7477 18.1022 44.4056 10.7842Z" fill="#C65236"/>
<path opacity="0.6" d="M17.4144 13.9985C16.8663 14.1446 16.1964 14.6804 16.1476 15.0944C16.0624 15.8859 17.5118 15.9954 18.5593 15.7641C19.619 15.5327 20.1184 15.1066 19.9478 14.5099C19.7895 13.9011 18.4862 13.7185 17.4144 13.9985Z" fill="#FFB7A4"/>
<path opacity="0.6" d="M20.8616 10.2845C20.3135 10.4306 19.6436 10.9664 19.5949 11.3925C19.5096 12.1718 20.9591 12.2936 22.0188 12.0501C23.0662 11.8187 23.5656 11.3925 23.4073 10.7959C23.2368 10.1993 21.9457 10.0044 20.8616 10.2845Z" fill="#FFB7A4"/>
<path opacity="0.6" d="M27.8529 17.7611C27.3657 17.7732 26.7079 18.0898 26.6105 18.4308C26.4278 19.0518 27.658 19.4292 28.5959 19.4414C29.5337 19.4414 30.0209 19.1857 29.96 18.6621C29.8991 18.1385 28.8151 17.7367 27.8529 17.7611Z" fill="#FFB7A4"/>
<path opacity="0.6" d="M27.0003 13.4019C26.4522 13.5481 25.7823 14.0838 25.7336 14.4978C25.6483 15.2893 27.0978 15.411 28.1453 15.1675C29.2049 14.9362 29.7043 14.51 29.546 13.9133C29.3754 13.3167 28.0722 13.1219 27.0003 13.4019Z" fill="#FFB7A4"/>
<path opacity="0.6" d="M28.6445 7.61816C28.1573 7.61816 27.4996 7.89822 27.3778 8.23915C27.1464 8.86015 28.34 9.27415 29.2657 9.31068C30.1792 9.35938 30.6786 9.12803 30.6664 8.59227C30.6421 8.06869 29.5946 7.63034 28.6445 7.61816Z" fill="#FFB7A4"/>
<path opacity="0.6" d="M33.809 10.8083C33.3583 10.8326 32.7128 11.137 32.591 11.4658C32.3474 12.0746 33.4314 12.4156 34.2962 12.4156C35.161 12.4156 35.636 12.1598 35.636 11.6606C35.6482 11.1492 34.686 10.7839 33.809 10.8083Z" fill="#FFB7A4"/>
<path opacity="0.6" d="M40.7151 11.7947C40.2401 11.8069 39.5824 12.1113 39.4484 12.44C39.217 13.0732 40.3741 13.4507 41.2876 13.475C42.189 13.4994 42.6883 13.2558 42.6761 12.7323C42.6761 12.2087 41.653 11.7947 40.7151 11.7947Z" fill="#FFB7A4"/>
<path opacity="0.6" d="M36.2938 15.7761C35.7213 15.7883 34.9418 16.1414 34.7956 16.531C34.5155 17.2738 35.8918 17.7365 36.9758 17.773C38.0599 17.7974 38.6445 17.5173 38.6323 16.8963C38.6202 16.2753 37.4022 15.7761 36.2938 15.7761Z" fill="#FFB7A4"/>
<path opacity="0.6" d="M41.7868 17.201C41.2631 17.408 40.6662 18.029 40.6784 18.4552C40.6906 19.2466 42.14 19.1736 43.151 18.8083C44.1741 18.4308 44.6126 17.9559 44.369 17.3836C44.1254 16.7992 42.8221 16.787 41.7868 17.201Z" fill="#FFB7A4"/>
<path opacity="0.6" d="M32.1038 20.6103C31.5435 20.6711 30.8127 21.1217 30.7031 21.5235C30.5082 22.2906 31.9333 22.595 33.0051 22.5098C34.0892 22.4123 34.6373 22.0714 34.552 21.4504C34.4789 20.8294 33.2122 20.4763 32.1038 20.6103Z" fill="#FFB7A4"/>
<path opacity="0.6" d="M20.508 18.1385C19.9478 18.1628 19.1682 18.5403 19.0342 18.9421C18.7785 19.6849 20.167 20.1111 21.251 20.1111C22.3351 20.1111 22.9075 19.8066 22.8832 19.1857C22.8466 18.5647 21.6164 18.102 20.508 18.1385Z" fill="#FFB7A4"/>
<path d="M28.1331 1.38378C25.6362 0.360964 19.2538 -0.479199 11.495 3.01541C6.89091 5.08538 -1.95188 9.10357 0.386712 15.764C2.34772 21.3164 13.5291 21.2921 20.5692 18.2602C27.6215 15.2283 39.1196 5.84031 28.1331 1.38378Z" fill="#893C29"/>
<path d="M27.4267 0.79943C24.9298 -0.223381 19.7654 -0.6252 11.0931 1.83442C6.2454 3.22252 -1.74477 9.00627 0.423294 14.4856C2.60354 19.965 13.1272 20.1232 20.1795 17.0913C27.2196 14.0594 38.4254 5.25596 27.4267 0.79943Z" fill="#C65236"/>
<path opacity="0.6" d="M3.9555 13.0975C3.50484 13.4384 3.10289 14.2056 3.22469 14.6074C3.45612 15.3623 4.83246 14.8996 5.70943 14.2664C6.5864 13.6333 6.87873 13.0488 6.48897 12.5617C6.0992 12.0747 4.83247 12.4156 3.9555 13.0975Z" fill="#FFB7A4"/>
<path opacity="0.6" d="M5.66058 8.3243C5.20992 8.66524 4.80797 9.43235 4.92977 9.83417C5.1612 10.5891 6.53754 10.1264 7.41451 9.49324C8.29148 8.86007 8.58381 8.27561 8.19404 7.78856C7.80428 7.3015 6.53755 7.64243 5.66058 8.3243Z" fill="#FFB7A4"/>
<path opacity="0.6" d="M15.0396 12.4276C14.589 12.6346 14.1139 13.1826 14.1626 13.5235C14.2479 14.181 15.5146 14.0349 16.3794 13.6696C17.2442 13.3043 17.5853 12.8781 17.3295 12.4276C17.0615 11.9649 15.9044 12.0258 15.0396 12.4276Z" fill="#FFB7A4"/>
<path opacity="0.6" d="M12.5302 8.76279C12.0795 9.10373 11.6776 9.87082 11.7994 10.2726C12.0308 11.0276 13.4072 10.5649 14.2842 9.93171C15.1611 9.29855 15.4535 8.71408 15.0637 8.22703C14.6739 7.73998 13.4072 8.08092 12.5302 8.76279Z" fill="#FFB7A4"/>
<path opacity="0.6" d="M11.7508 2.79647C11.3123 2.97912 10.8129 3.51487 10.8373 3.8558C10.8738 4.5255 12.1284 4.44027 12.9932 4.1115C13.858 3.78274 14.2234 3.36875 13.9919 2.89387C13.7605 2.419 12.6278 2.43118 11.7508 2.79647Z" fill="#FFB7A4"/>
<path opacity="0.6" d="M17.7557 3.69732C17.3537 3.89214 16.8909 4.4279 16.9031 4.76884C16.9152 5.42636 18.048 5.31677 18.8397 4.96366C19.6314 4.62272 19.9725 4.20873 19.7776 3.74603C19.5827 3.27115 18.5596 3.30768 17.7557 3.69732Z" fill="#FFB7A4"/>
<path opacity="0.6" d="M24.4909 1.87076C24.0646 2.06558 23.5774 2.60134 23.5896 2.95445C23.6139 3.62415 24.8319 3.52674 25.6846 3.18581C26.525 2.84487 26.8782 2.43088 26.6712 1.94383C26.4519 1.46895 25.3557 1.49329 24.4909 1.87076Z" fill="#FFB7A4"/>
<path opacity="0.6" d="M22.0066 7.27723C21.4828 7.4964 20.9104 8.14175 20.9226 8.55574C20.9591 9.34721 22.4085 9.23762 23.4195 8.83581C24.4183 8.43399 24.8446 7.93476 24.5888 7.37465C24.333 6.80236 23.0175 6.82671 22.0066 7.27723Z" fill="#FFB7A4"/>
<path opacity="0.6" d="M27.6093 6.4004C27.2196 6.8144 26.915 7.61803 27.0856 7.9955C27.4144 8.7139 28.7177 8.08073 29.5094 7.33797C30.2889 6.59522 30.5082 5.98641 30.0575 5.54806C29.6069 5.12189 28.401 5.62112 27.6093 6.4004Z" fill="#FFB7A4"/>
<path opacity="0.6" d="M20.0699 13.3529C19.5827 13.6451 19.0711 14.3392 19.1442 14.7532C19.266 15.5325 20.6911 15.2646 21.6533 14.7532C22.6034 14.2418 22.9688 13.706 22.6521 13.1703C22.3354 12.6345 21.0321 12.7928 20.0699 13.3529Z" fill="#FFB7A4"/>
<path opacity="0.6" d="M8.43789 15.6668C7.92632 15.9104 7.36604 16.5679 7.40258 16.9941C7.46348 17.7733 8.90073 17.6151 9.89951 17.1889C10.8861 16.7627 11.3002 16.2513 11.0323 15.6912C10.7521 15.1311 9.43666 15.192 8.43789 15.6668Z" fill="#FFB7A4"/>
<path opacity="0.2" d="M19.0589 1.2622C18.7666 1.38396 18.2307 1.34744 17.8896 1.40833C17.2197 1.51791 16.5133 1.76143 15.8434 1.9319C13.8702 2.41895 11.897 3.13736 10.0456 3.9897C7.65831 5.07339 5.74602 6.69285 3.80938 8.42188C2.567 9.52993 1.40988 11.3564 1.75093 13.0854C2.04325 14.5709 3.20037 16.1417 4.58891 16.7992C5.5146 17.2254 6.51337 17.3471 7.51215 17.5176C8.75452 17.7124 10.0091 17.9681 11.2758 17.9194C12.3598 17.8707 14.7228 17.9316 14.4792 16.2026C14.3696 15.3746 13.8215 14.7901 13.0785 14.4979C12.0188 14.0717 10.9348 13.5968 10.2283 12.6592C9.16865 11.2346 9.85073 9.43251 10.8251 8.14182C12.3477 6.12055 15.2953 5.21951 17.5486 4.34282C18.6813 3.89229 19.8141 3.49048 20.9712 3.11301C21.4219 2.96689 22.3963 2.72337 22.4694 2.1389C22.5668 1.27439 21.3244 1.14044 20.7642 1.06738L19.0589 1.2622Z" fill="#FFB7A4"/>
<path opacity="0.2" d="M39.7043 12.2575C39.5947 14.1204 39.8261 15.5329 38.1696 16.7505C36.6471 17.8829 31.4827 18.9423 25.892 17.8464C20.5328 16.7992 22.2989 21.7915 24.6862 22.4247C36.8541 25.6271 44.3206 19.5145 45.4046 17.7368C47.4265 14.4127 39.9845 7.54522 39.7043 12.2575Z" fill="#FFB7A4"/>
</svg>
