<svg width="48" height="34" viewBox="0 0 48 34" fill="none" xmlns="http://www.w3.org/2000/svg">
<path d="M33.4534 8.98917C34.0424 9.36167 39.6917 7.79959 43.55 11.6087C44.8001 12.8463 44.9804 16.379 43.9707 18.8303C42.9731 21.2816 39.4753 23.7209 34.8958 24.1655C26.3016 24.9946 20.4479 21.582 17.7074 19.5753C13.3923 16.4151 12.4307 9.18143 15.063 5.31226C15.664 4.41106 16.9622 3.82227 18.0079 3.19744C24.8592 -0.88802 29.3907 2.84897 31.0254 4.07461C33.4534 5.88903 32.6 8.46046 33.4534 8.98917Z" fill="#E22727"/>
<path d="M34.2826 6.88626C34.8836 7.25876 39.1867 6.74206 43.0571 10.5512C45.5572 13.0144 44.8721 21.1613 35.737 22.0505C27.1308 22.8916 21.2892 19.4671 18.5487 17.4604C13.2359 13.5672 12.5147 5.51643 18.0318 2.21202C24.8951 -1.88546 30.2199 0.734039 31.8666 1.95968C34.2826 3.7741 33.4412 6.35755 34.2826 6.88626Z" fill="#FF6A5F"/>
<path opacity="0.8" d="M32.9964 7.94371C33.5253 8.28016 37.9967 7.51113 41.4223 10.8756C43.646 13.0505 43.069 20.2121 34.9677 20.9811C27.3471 21.7021 22.1545 18.674 19.7265 16.8957C15.0148 13.4711 14.57 6.57388 19.1135 3.17334C21.3132 1.52714 23.3445 1.14263 25.0874 1.03448C28.2125 0.866257 30.6405 2.04383 31.5781 3.01713C33.4532 4.9397 32.2392 7.47509 32.9964 7.94371Z" fill="#F9453D"/>
<path opacity="0.6" d="M33.2013 10.3709C32.1556 10.6833 22.2392 14.1319 22.708 15.2734C23.1768 16.415 28.6698 19.9958 35.9538 18.3856C40.1968 17.4483 41.3628 14.216 39.9204 12.69C38.466 11.1519 34.4153 10.0104 33.2013 10.3709Z" fill="#F9453D"/>
<path opacity="0.6" d="M29.2227 8.4362C27.6841 10.5991 20.5444 13.9756 19.8833 13.4109C19.2342 12.8461 18.2846 9.89015 19.5227 6.44154C20.8689 2.6685 25.8932 2.15181 27.8645 3.19721C29.8237 4.25462 30.3285 6.8621 29.2227 8.4362Z" fill="#F9453D"/>
<g opacity="0.5">
<path d="M37.4441 12.8342C37.42 12.3175 39.223 12.4737 39.211 12.8822L39.1749 12.8702C38.8985 12.9904 37.5042 13.5912 37.4441 12.8342Z" fill="#F2B981"/>
<path d="M37.9729 14.5165C37.6123 14.2882 37.4079 13.7835 38.033 13.8917L37.9849 13.8676C38.3455 13.8556 38.9945 13.9998 39.3191 14.1801C39.7878 14.4324 39.9201 14.8289 39.295 14.8289C38.8984 14.8289 38.3334 14.7448 37.9729 14.5165Z" fill="#F2B981"/>
<path d="M36.5068 15.5981C36.3265 14.9492 36.7953 14.9252 37.2641 15.0573C37.5525 15.2496 37.9973 15.574 38.1415 15.9225C38.3579 16.4272 37.9852 16.7636 37.4684 16.5834C37.1318 16.4632 36.615 15.9465 36.5068 15.5981Z" fill="#F2B981"/>
<path d="M37.2998 15.0691C37.2839 15.0691 37.2719 15.0651 37.2639 15.0571C37.256 15.0571 37.252 15.0571 37.252 15.0571L37.2998 15.0691Z" fill="#F2B981"/>
<path d="M35.6412 16.1148L35.557 15.9465C36.0138 16.1989 36.7951 17.7009 35.7614 17.5206C35.4008 17.4485 34.8358 16.8838 34.8478 16.5113C34.8599 16.1268 35.3767 15.8144 35.6412 16.1148Z" fill="#F2B981"/>
<path d="M33.4174 16.9435L33.5857 16.8474C34.1626 16.9796 34.5473 18.3855 33.766 18.3735C33.2611 18.3614 32.7683 17.1238 33.4174 16.9435Z" fill="#F2B981"/>
<path d="M32.0109 17.196V17.0518C32.7562 17.0398 32.3715 19.1666 31.434 18.3255C30.8811 17.8328 31.434 16.1506 32.0109 17.196Z" fill="#F2B981"/>
<path d="M29.6549 16.7996H29.9794C30.6646 17.0279 30.352 18.5299 29.4986 18.2054C28.8135 17.9291 29.1981 16.8717 29.6549 16.7996Z" fill="#F2B981"/>
<path d="M28.1525 16.4752L28.3088 16.5713C28.6574 16.8597 27.8881 18.0012 27.3953 17.5686C26.9265 17.1721 27.7439 16.0907 28.1525 16.4752Z" fill="#F2B981"/>
<path d="M26.8904 15.9584L26.9746 15.9825C27.3952 16.5352 26.4096 17.6767 25.8687 17.1961C25.448 16.8116 26.4337 15.7061 26.8904 15.9584Z" fill="#F2B981"/>
<path d="M25.4606 15.2494L25.5688 15.3695C25.6049 15.3695 25.5929 15.2854 25.665 15.3575C25.8212 15.8622 24.6072 16.5711 24.3067 16.1986C23.874 15.6579 25.1722 15.2133 25.4606 15.2494Z" fill="#F2B981"/>
<path d="M37.3842 11.5486L37.4202 11.5606C37.5284 12.1013 36.2423 12.6781 36.1221 12.0773C36.05 11.6928 37.1318 11.2963 37.3842 11.5486Z" fill="#F2B981"/>
<path d="M35.7854 10.9236L35.8575 10.9957C35.7253 11.248 34.6435 12.005 34.4512 11.5604C34.1627 10.8996 35.581 10.9356 35.7854 10.9236Z" fill="#F2B981"/>
<path d="M28.8257 7.23467C29.3906 6.98233 29.3305 7.47499 29.2343 7.487C29.0661 7.77539 28.6093 8.05176 28.2607 8.0037C28.1165 7.64322 28.5372 7.35483 28.8257 7.23467Z" fill="#F2B981"/>
<path d="M28.0685 6.35776C28.0564 5.92518 29.1623 5.14413 29.2464 5.85308L29.2584 5.80501C29.3666 6.33372 28.1045 7.00662 28.0685 6.35776Z" fill="#F2B981"/>
<path d="M27.8525 5.61267C27.4077 5.42041 28.153 3.83429 28.6458 4.35098L28.79 4.20679C29.0064 4.53122 28.2732 5.79291 27.8525 5.61267Z" fill="#F2B981"/>
<path d="M27.2148 3.36563H27.3471C27.5634 3.47378 27.3711 4.99981 26.8903 4.86764C26.4816 4.74748 26.5898 3.29353 27.2148 3.36563Z" fill="#F2B981"/>
<path d="M25.785 3.07729L25.9172 2.96914C26.2898 2.90906 26.5302 4.32695 26.1335 4.50719C25.5326 4.77155 25.2441 3.20946 25.785 3.07729Z" fill="#F2B981"/>
<path d="M25.0036 4.14662L25.0517 4.25477C25.28 4.71138 24.655 4.53113 24.4627 4.38694C24.1983 4.18267 24.0901 3.87026 24.1141 3.55784C24.1982 2.69268 25.0276 3.76211 25.0036 4.14662Z" fill="#F2B981"/>
<path d="M22.6234 3.70205C23.2364 3.65398 23.4287 4.23076 23.7412 4.49511L23.7532 4.62728C24.246 5.25212 23.3686 5.10793 23.0561 4.79551C22.8157 4.55519 22.4912 4.05051 22.6234 3.70205Z" fill="#F2B981"/>
<path d="M22.6716 5.44429L22.6236 5.46832C22.3832 5.75671 21.109 5.05978 21.3254 4.6272C21.5778 4.06244 22.5995 5.09582 22.6716 5.44429Z" fill="#F2B981"/>
<path d="M21.9384 6.17742C21.71 6.36968 20.2436 6.0092 20.4119 5.48049C20.5681 5.01187 21.8542 5.87702 22.0225 6.05726L21.9384 6.17742Z" fill="#F2B981"/>
<path d="M21.6018 6.85025C21.6379 6.93436 21.5657 6.85025 21.5417 6.87428L21.6018 6.98243C21.2532 7.29485 20.0272 7.31888 19.9431 6.70606C19.8349 5.88897 21.3374 6.60993 21.6018 6.85025Z" fill="#F2B981"/>
<path d="M21.3136 8.07576L21.2295 8.18391C20.9891 8.66455 19.4025 8.6285 19.5107 7.94359C19.6188 7.27069 21.1213 7.87149 21.3136 8.07576Z" fill="#F2B981"/>
<path d="M21.0972 9.37366L21.001 9.52987C20.6885 9.77019 19.4264 9.98649 19.4745 9.42173C19.5226 8.82093 20.8688 9.03721 21.0972 9.37366Z" fill="#F2B981"/>
<path d="M21.073 10.6353L21.0249 10.7555C20.7004 11.128 19.0056 11.3082 19.4143 10.6233C19.6306 10.2388 20.8807 10.3109 21.073 10.6353Z" fill="#F2B981"/>
<path d="M21.2174 11.7768C21.0491 12.1613 19.6067 12.9063 19.787 12.1132C19.9072 11.5845 20.9289 11.6566 21.2174 11.7768Z" fill="#F2B981"/>
</g>
<path d="M28.9944 17.5925C28.3213 17.7727 23.3931 14.6365 18.5612 17.1599C16.9986 17.977 15.7966 21.2934 16.025 23.937C16.2534 26.5805 18.8857 29.921 23.1287 31.6753C31.0978 34.9797 37.6967 33.4056 40.918 32.2761C45.9784 30.5098 49.0434 23.8889 47.6732 19.4189C47.3487 18.3856 46.2789 17.4363 45.4736 16.5471C40.1248 10.6352 34.6918 12.8942 32.7686 13.5912C29.9079 14.6245 29.968 17.3281 28.9944 17.5925Z" fill="#E22727"/>
<path d="M28.8262 15.3334C28.1411 15.5136 24.1745 13.7713 19.3546 16.2826C16.2294 17.9168 14.4745 25.9075 22.9485 29.4162C30.9296 32.7206 37.5285 31.1465 40.7378 30.017C46.9641 27.8421 50.0412 20.3561 45.7381 15.5977C40.3893 9.68582 34.5236 10.6351 32.5884 11.332C29.7397 12.3654 29.7878 15.069 28.8262 15.3334Z" fill="#FF6A5F"/>
<path opacity="0.6" d="M29.7398 16.7273C29.1388 16.8835 25.0881 14.8528 20.8211 17.0757C18.0445 18.5056 16.4819 25.523 24.0063 28.6112C31.074 31.507 36.9277 30.1372 39.7884 29.1399C45.3055 27.2293 47.7695 20.7647 44.428 16.1986C42.8053 13.9876 40.9784 13.0143 39.3437 12.4135C36.4108 11.3441 33.7304 11.7646 32.5524 12.4135C30.1966 13.7112 30.5932 16.487 29.7398 16.7273Z" fill="#F9453D"/>
<path d="M28.8259 18.9864C29.7395 19.5872 38.2014 25.7634 37.4081 26.7127C36.6268 27.674 30.3164 29.5004 23.8257 25.8476C20.0394 23.7207 19.8832 20.2841 21.7222 19.2387C23.5613 18.2054 27.7682 18.2895 28.8259 18.9864Z" fill="#FF6A5F"/>
<path d="M33.2014 18.2893C34.0307 20.8007 39.8724 26.1118 40.6537 25.7633C41.447 25.4148 43.2259 22.8554 43.0696 19.2025C42.8894 15.2012 38.2497 13.2426 36.05 13.6752C33.8624 14.1198 32.6004 16.4629 33.2014 18.2893Z" fill="#FF6A5F"/>
<g opacity="0.5">
<path d="M24.0427 20.1038C24.223 19.6232 22.4441 19.2507 22.3359 19.6352H22.384C22.6004 19.8274 23.7663 20.8007 24.0427 20.1038Z" fill="#F2B981"/>
<path d="M23.0327 21.5578C23.4414 21.4497 23.79 21.0171 23.165 20.933H23.213C22.8765 20.8128 22.2154 20.7648 21.8548 20.8369C21.3259 20.957 21.0855 21.2935 21.6745 21.4737C22.0712 21.5819 22.6241 21.666 23.0327 21.5578Z" fill="#F2B981"/>
<path d="M24.1266 23.0117C24.4872 22.459 24.0425 22.2908 23.5617 22.2908C23.2252 22.3869 22.7083 22.5671 22.4679 22.8435C22.1073 23.2761 22.3597 23.7087 22.9126 23.6726C23.2612 23.6606 23.9223 23.3242 24.1266 23.0117Z" fill="#F2B981"/>
<path d="M24.7878 23.7566L24.92 23.6365C24.4152 23.7326 23.2252 24.9462 24.2589 25.0664C24.6315 25.1145 25.3407 24.7299 25.4368 24.3695C25.533 24.009 25.1364 23.5524 24.7878 23.7566Z" fill="#F2B981"/>
<path d="M26.6751 25.1987L26.5429 25.0665C25.9539 25.0185 25.1606 26.2561 25.9178 26.4724C26.4107 26.6046 27.24 25.5712 26.6751 25.1987Z" fill="#F2B981"/>
<path d="M27.9485 25.8475L27.9846 25.7153C27.2875 25.487 27.023 27.6259 28.1649 27.0972C28.838 26.7848 28.814 25.0184 27.9485 25.8475Z" fill="#F2B981"/>
<path d="M30.3166 26.1478L30.004 26.0637C29.2829 26.0878 29.1386 27.6138 30.0521 27.5417C30.7853 27.4936 30.7373 26.3521 30.3166 26.1478Z" fill="#F2B981"/>
<path d="M31.843 26.28L31.6747 26.3281C31.254 26.4963 31.6507 27.8181 32.2517 27.5537C32.8046 27.3134 32.3478 26.0397 31.843 26.28Z" fill="#F2B981"/>
<path d="M33.2018 26.148H33.1177C32.5527 26.5565 33.1537 27.9384 33.8148 27.638C34.3317 27.3976 33.7186 26.0398 33.2018 26.148Z" fill="#F2B981"/>
<path d="M34.7881 25.8955L34.6559 25.9796C34.6078 25.9676 34.6559 25.8955 34.5598 25.9436C34.2593 26.3761 35.2088 27.4095 35.6055 27.1452C36.1824 26.7486 35.0766 25.9436 34.7881 25.8955Z" fill="#F2B981"/>
<path d="M24.4872 18.8902H24.4391C24.1747 19.3709 25.2445 20.3081 25.5209 19.7674C25.7132 19.4189 24.7997 18.734 24.4872 18.8902Z" fill="#F2B981"/>
<path d="M26.194 18.77L26.1099 18.8061C26.1579 19.0824 26.9633 20.1278 27.2758 19.7553C27.7566 19.2026 26.3863 18.8301 26.194 18.77Z" fill="#F2B981"/>
<path d="M33.9348 17.256C33.478 16.8595 33.3818 17.3401 33.466 17.3762C33.5501 17.7006 33.9107 18.0971 34.2472 18.1452C34.4876 17.8448 34.1751 17.4603 33.9348 17.256Z" fill="#F2B981"/>
<path d="M34.9205 16.6312C35.0647 16.2347 34.2353 15.1532 33.9469 15.8141V15.766C33.6944 16.2347 34.6921 17.244 34.9205 16.6312Z" fill="#F2B981"/>
<path d="M35.3529 15.9822C35.8217 15.9342 35.5813 14.2038 34.9562 14.5523L34.8721 14.3721C34.5596 14.6124 34.8961 16.0303 35.3529 15.9822Z" fill="#F2B981"/>
<path d="M36.6273 14.0236L36.495 13.9875C36.2546 14.0236 35.9782 15.5376 36.495 15.5496C36.9037 15.5617 37.2403 14.1438 36.6273 14.0236Z" fill="#F2B981"/>
<path d="M38.0695 14.1559L37.9854 14.0237C37.6368 13.8675 36.9998 15.1412 37.3243 15.4296C37.8171 15.8622 38.5623 14.4563 38.0695 14.1559Z" fill="#F2B981"/>
<path d="M38.5144 15.4174L38.4182 15.5015C38.0817 15.874 38.7308 15.886 38.9471 15.8019C39.2597 15.6818 39.464 15.4174 39.5241 15.117C39.7044 14.2519 38.5865 15.0449 38.5144 15.4174Z" fill="#F2B981"/>
<path d="M40.9061 15.6819C40.3412 15.4656 39.9806 15.9463 39.608 16.1145L39.5599 16.2467C38.9108 16.6912 39.7883 16.7994 40.1729 16.6071C40.4734 16.4509 40.9302 16.0544 40.9061 15.6819Z" fill="#F2B981"/>
<path d="M40.3535 17.3281L40.3896 17.3761C40.5338 17.7126 41.9521 17.4242 41.88 16.9435C41.7959 16.3307 40.5218 17.0277 40.3535 17.3281Z" fill="#F2B981"/>
<path d="M40.8342 18.2414C40.9905 18.5058 42.505 18.5779 42.4929 18.0251C42.4929 17.5325 41.0025 17.9891 40.7861 18.1092L40.8342 18.2414Z" fill="#F2B981"/>
<path d="M40.954 18.9984C40.8939 19.0584 40.9901 18.9984 41.0021 19.0224L40.918 19.1065C41.1704 19.515 42.3123 19.8996 42.5887 19.3348C42.9373 18.5898 41.2786 18.8422 40.954 18.9984Z" fill="#F2B981"/>
<path d="M40.8701 20.2481L40.9182 20.3683C41.0023 20.909 42.5288 21.3295 42.625 20.6326C42.7212 19.9597 41.1225 20.1039 40.8701 20.2481Z" fill="#F2B981"/>
<path d="M40.7021 21.5458L40.7382 21.714C40.9786 22.0385 42.1085 22.6152 42.2287 22.0625C42.3609 21.4737 41.0147 21.2935 40.7021 21.5458Z" fill="#F2B981"/>
<path d="M40.3535 22.7594V22.8916C40.5579 23.3482 42.1204 24.0091 41.9401 23.2281C41.8319 22.7955 40.63 22.5191 40.3535 22.7594Z" fill="#F2B981"/>
<path d="M39.8726 23.8047C39.9086 24.2253 41.0745 25.3548 41.1346 24.5497C41.1827 24.009 40.1851 23.7807 39.8726 23.8047Z" fill="#F2B981"/>
</g>
<path d="M17.7796 14.5885C18.4887 14.6246 22.5635 10.455 27.8402 11.8248C29.547 12.2574 31.4942 15.2254 31.8668 17.8449C32.2514 20.4764 30.4485 24.3215 26.7343 26.9771C19.7148 31.9998 12.9356 31.9517 9.53398 31.5792C4.20919 31.0024 -0.28625 25.2347 0.0142454 20.5725C0.0863644 19.5031 0.915739 18.3375 1.49269 17.2921C5.35106 10.3348 11.1567 11.3081 13.2 11.5485C16.217 11.9089 16.7819 14.5525 17.7796 14.5885Z" fill="#E22727"/>
<path d="M17.431 12.3535C18.1401 12.3775 21.6018 9.78203 26.8785 11.1519C30.2922 12.0411 33.826 19.4189 26.3857 24.742C19.3662 29.7527 12.587 29.7167 9.19739 29.3442C2.63456 28.6352 -2.07721 22.0264 1.0239 16.4149C4.87025 9.45761 10.808 9.06107 12.8514 9.31341C15.8684 9.66187 16.4333 12.3174 17.431 12.3535Z" fill="#FF6A5F"/>
<path opacity="0.6" d="M16.8542 13.9157C17.4793 13.9398 20.965 11.0559 25.6287 12.2455C28.6577 13.0145 31.7829 19.5032 25.172 24.2015C18.9457 28.6234 12.9358 28.5873 9.9308 28.2749C4.1132 27.6621 0.230821 21.9184 2.44247 16.7155C3.51224 14.1921 5.06279 12.8463 6.52921 11.885C9.13752 10.1788 11.842 9.98649 13.1401 10.359C15.7244 11.092 15.9768 13.8797 16.8542 13.9157Z" fill="#F9453D"/>
<path d="M18.2722 15.9101C17.5149 16.7032 10.6876 24.6218 11.6853 25.3788C12.6709 26.1358 19.2337 26.4843 24.7148 21.4736C27.912 18.5416 27.275 15.1651 25.2437 14.5643C23.2123 13.9635 19.1376 14.9969 18.2722 15.9101Z" fill="#FF6A5F"/>
<path d="M13.8491 16.2225C13.6208 18.854 9.14937 25.3427 8.30798 25.1745C7.45457 25.0183 5.13476 22.9275 4.44963 19.3347C3.7044 15.3934 7.77913 12.4495 10.0148 12.3774C12.2505 12.3053 14.0054 14.3 13.8491 16.2225Z" fill="#FF6A5F"/>
<g opacity="0.5">
<path d="M23.1883 15.9221C22.8998 15.4896 24.5346 14.7325 24.7389 15.081L24.6908 15.093C24.5225 15.3334 23.609 16.547 23.1883 15.9221Z" fill="#F2B981"/>
<path d="M24.4984 17.1118C24.0777 17.0998 23.6329 16.7633 24.2219 16.535L24.1858 16.5471C24.4863 16.3548 25.1234 16.1505 25.484 16.1505C26.0249 16.1385 26.3374 16.4149 25.7965 16.7153C25.4479 16.9196 24.9191 17.1358 24.4984 17.1118Z" fill="#F2B981"/>
<path d="M23.777 18.77C23.2842 18.3134 23.6808 18.0611 24.1496 17.9409C24.4982 17.9529 25.0511 18.025 25.3516 18.2413C25.7963 18.5778 25.6401 19.0464 25.1112 19.1545C24.7626 19.2146 24.0414 19.0344 23.777 18.77Z" fill="#F2B981"/>
<path d="M24.1978 17.929C24.1818 17.929 24.1659 17.9329 24.1499 17.9409L24.1978 17.929Z" fill="#F2B981"/>
<path d="M23.2964 19.6591L23.1401 19.563C23.657 19.5389 25.0993 20.4522 24.1017 20.8006C23.7531 20.9328 22.9839 20.7285 22.8036 20.3921C22.6233 20.0556 22.9117 19.5269 23.2964 19.6591Z" fill="#F2B981"/>
<path d="M21.782 21.4735L21.8902 21.3173C22.4551 21.137 23.5008 22.1584 22.8157 22.5429C22.371 22.7953 21.3252 21.9661 21.782 21.4735Z" fill="#F2B981"/>
<path d="M20.7003 22.399L20.6281 22.2788C21.2652 21.8943 22.0104 23.925 20.7724 23.6607C20.0512 23.5165 19.6666 21.7862 20.7003 22.399Z" fill="#F2B981"/>
<path d="M18.4643 23.228L18.7408 23.0718C19.45 22.9276 19.9428 24.3816 19.0413 24.5257C18.3081 24.6339 18.1037 23.5164 18.4643 23.228Z" fill="#F2B981"/>
<path d="M16.9981 23.6968L17.1784 23.7088C17.6351 23.7809 17.5389 25.1507 16.9019 25.0306C16.3009 24.9224 16.4572 23.5766 16.9981 23.6968Z" fill="#F2B981"/>
<path d="M15.6516 23.8768L15.7358 23.8647C16.3728 24.1291 16.1084 25.6071 15.3872 25.4629C14.8343 25.3427 15.1227 23.8888 15.6516 23.8768Z" fill="#F2B981"/>
<path d="M14.0532 23.985L14.1974 24.0331C14.2334 24.0211 14.1854 23.961 14.2816 23.973C14.6782 24.3335 13.981 25.5591 13.5363 25.3909C12.8872 25.1265 13.7767 24.0932 14.0532 23.985Z" fill="#F2B981"/>
<path d="M22.4792 14.8409H22.5153C22.8879 15.2374 22.0585 16.3909 21.6619 15.9223C21.4095 15.6339 22.1307 14.7567 22.4792 14.8409Z" fill="#F2B981"/>
<path d="M20.7843 15.105L20.8805 15.129C20.8925 15.4054 20.3396 16.595 19.9549 16.3186C19.366 15.886 20.616 15.2011 20.7843 15.105Z" fill="#F2B981"/>
<path d="M12.887 15.3816C13.2596 14.889 13.4519 15.3336 13.3798 15.3936C13.3678 15.7301 13.1154 16.1867 12.8028 16.3189C12.4903 16.0786 12.7067 15.634 12.887 15.3816Z" fill="#F2B981"/>
<path d="M11.8054 14.9969C11.565 14.6364 12.1179 13.3988 12.5506 13.9756L12.5386 13.9275C12.8992 14.3361 12.154 15.5497 11.8054 14.9969Z" fill="#F2B981"/>
<path d="M11.2287 14.4564C10.7599 14.5164 10.5916 12.7741 11.2768 12.9784L11.3248 12.7861C11.6854 12.9544 11.6854 14.4083 11.2287 14.4564Z" fill="#F2B981"/>
<path d="M9.5337 12.8461L9.6539 12.774C9.90632 12.75 10.5073 14.1678 10.0145 14.3C9.61784 14.3962 8.96877 13.0864 9.5337 12.8461Z" fill="#F2B981"/>
<path d="M8.16349 13.2909L8.21159 13.1467C8.51209 12.9063 9.43761 14.0118 9.17318 14.3603C8.80056 14.889 7.75482 13.6874 8.16349 13.2909Z" fill="#F2B981"/>
<path d="M8.01922 14.6245L8.12738 14.6846C8.54808 14.973 7.92305 15.1172 7.68266 15.0932C7.3461 15.0451 7.09368 14.8288 6.96147 14.5524C6.60087 13.7594 7.85094 14.2761 8.01922 14.6245Z" fill="#F2B981"/>
<path d="M5.74756 15.4177C6.25239 15.0813 6.70913 15.4658 7.11781 15.5499L7.18994 15.6581C7.92315 15.9464 7.09377 16.2589 6.67308 16.1507C6.33652 16.0666 5.80766 15.7902 5.74756 15.4177Z" fill="#F2B981"/>
<path d="M6.67296 16.8956L6.63689 16.9436C6.57679 17.3041 5.1224 17.3522 5.08634 16.8595C5.02624 16.2467 6.43256 16.6432 6.67296 16.8956Z" fill="#F2B981"/>
<path d="M6.4086 17.8928C6.31244 18.1812 4.85802 18.6017 4.73782 18.061C4.62964 17.5804 6.1802 17.6885 6.4206 17.7606L6.4086 17.8928Z" fill="#F2B981"/>
<path d="M6.45683 18.6498C6.52895 18.6978 6.43279 18.6618 6.42077 18.6978L6.51693 18.7579C6.37269 19.2025 5.33899 19.8394 4.95435 19.3467C4.4375 18.7098 6.10826 18.5777 6.45683 18.6498Z" fill="#F2B981"/>
<path d="M6.82929 19.8514L6.80522 19.9836C6.84128 20.5243 5.45903 21.2813 5.20661 20.6324C4.95419 19.9956 6.55283 19.7793 6.82929 19.8514Z" fill="#F2B981"/>
<path d="M7.29798 21.0771L7.28595 21.2573C7.14171 21.6298 6.16812 22.4469 5.9157 21.9302C5.65127 21.3895 6.92537 20.9089 7.29798 21.0771Z" fill="#F2B981"/>
<path d="M7.91113 22.1827L7.94717 22.3149C7.85101 22.8075 6.48077 23.8049 6.46875 22.9998C6.46875 22.5552 7.58659 22.0025 7.91113 22.1827Z" fill="#F2B981"/>
<path d="M8.6203 23.0957C8.6804 23.5163 7.80296 24.8741 7.55055 24.1051C7.39429 23.5884 8.30778 23.1438 8.6203 23.0957Z" fill="#F2B981"/>
</g>
<path d="M22.7799 29.3682L22.2029 31.2427L20.4961 30.3294L22.7799 29.3682Z" fill="#C62424"/>
</svg>
