<svg width="41" height="67" viewBox="0 0 41 67" fill="none" xmlns="http://www.w3.org/2000/svg">
<path d="M40.842 29.901L40.647 8.89203L40.683 6.62003L38.229 7.79303L36.872 6.47302L35.333 6.76703L34.637 4.97202L32.182 5.70502L31.413 4.056L29.838 5.11801L28.482 3.21301L26.357 4.16602L24.817 2.664L22.693 3.36002L21.777 1.931L19.871 2.81003L19.101 1.41702L17.416 2.33401L16.5 1.05103L15.328 1.96701L14.081 0.575012L12.286 1.41702L11.7 0.356018L10.014 1.08902L9.47701 0L8.304 0.979004L8.207 5.96002L0.0960007 8.59903L0 9.86902L0.879005 30.193L0.780006 56.282L3.028 57.748L22.179 64.198L28.432 66.248L34.686 62.34L40.842 56.965L40.744 50.615L40.842 29.901Z" fill="#AF750E"/>
<path d="M0 9.86896L0.345001 17.8539L8.011 18.37L8.207 5.95996L0.0960007 8.59897L0 9.86896Z" fill="#99620A"/>
<path d="M34.686 62.3402L40.842 56.9652L40.744 50.6152L40.842 29.9012L40.647 8.95917L33.123 9.28418L28.139 15.4402L27.163 15.0482L25.892 13.1932L25.111 14.5592L23.449 12.4102L22.277 13.7792L21.397 12.3122L19.932 12.9962L19.053 11.4332L17.977 12.4102L16.903 10.1632L15.144 12.1172L13.972 9.57816L11.921 11.3352L10.844 9.28418L8.5 10.7492L6.936 8.59918L5.373 10.0652L3.614 8.30615L1.465 8.99118L0.161003 8.57916L0.0960007 8.59918L0 9.86917L0.879005 30.1932L0.780006 56.2822L3.028 57.7482L22.179 64.1982L28.432 66.2482L34.686 62.3402Z" fill="#E5B241"/>
<path d="M40.6469 8.95898L33.1228 9.284L28.1879 15.38L28.3349 16.709L27.9449 31.66L27.8459 50.322L27.6519 60.288L28.3279 66.214L28.4319 66.248L34.6859 62.34L40.8419 56.965L40.7439 50.615L40.8419 29.901L40.6469 8.95898Z" fill="#CE9525"/>
<path d="M40.6468 8.95898L33.1228 9.284L33.1128 9.29498L33.3178 11.14L33.2198 25.699L33.8068 43.58L34.2958 53.742L34.1968 55.501L39.2688 58.34L40.8418 56.965L40.7438 50.615L40.8418 29.901L40.6468 8.95898Z" fill="#99620A"/>
<path d="M40.838 56.7082L34.197 54.0352L28.415 66.2432L28.432 66.2482L34.686 62.3402L40.842 56.9652L40.838 56.7082Z" fill="#AF750E"/>
</svg>
