<svg width="60" height="47" viewBox="0 0 60 47" fill="none" xmlns="http://www.w3.org/2000/svg">
<path d="M57.2755 28.2854C57.2695 28.3091 53.773 42.1711 53.6035 42.8551C52.8972 45.6801 50.5696 46.6456 47.6809 46.6456C9.63115 46.6456 11.968 46.6726 11.1418 46.5864C7.62501 46.2097 6.71879 44.1439 6.3966 42.8551C6.21891 42.1384 2.90757 29.0099 2.72461 28.2854L19.3079 24.3765H40.6922C47.4707 25.9734 43.9457 25.1426 57.2755 28.2854Z" fill="#EB9B52"/>
<path d="M56.1427 32.7761C56.1143 32.8874 56.0859 33 56.0574 33.1138C55.7222 34.4416 55.3562 35.8951 55.0102 37.2679C54.9818 37.3804 54.9534 37.493 54.9261 37.6043H5.07419C5.04578 37.493 5.01737 37.3804 4.98884 37.2679C4.64301 35.895 4.27697 34.4416 3.94167 33.1138C3.91326 33 3.88486 32.8874 3.85645 32.7761H56.1427Z" fill="#FFAD61"/>
<path d="M53.8787 41.7583C53.849 41.8792 53.8206 41.9917 53.7945 42.0959C53.7058 42.4513 53.6394 42.7119 53.6039 42.8552C53.2817 44.144 52.3755 46.2098 48.8586 46.5864H11.1421C7.62527 46.2098 6.71907 44.144 6.39688 42.8552C6.36136 42.7119 6.29499 42.4513 6.2062 42.0959C6.18012 41.9917 6.15171 41.8792 6.12207 41.7583H53.8787Z" fill="#FFAD61"/>
<g opacity="0.23">
<path d="M57.2756 28.2855C56.9558 29.5539 54.8516 37.894 54.5808 38.977C52.1265 37.9157 47.5092 36.1306 39.8299 33.8895C28.385 30.5492 7.51492 30.9626 3.42937 31.0798C3.01362 29.4297 2.72461 28.2855 2.72461 28.2855L46.1576 25.6641L57.2756 28.2855Z" fill="#C78E5A"/>
</g>
<path d="M60 23.949V26.1073C60 27.6377 58.7598 28.8778 57.2293 28.8778H2.77068C1.24028 28.8778 0 27.6377 0 26.1073V23.949C0 23.7584 0.0189801 23.5723 0.0568206 23.3935C0.312642 22.1296 1.43084 21.1785 2.77056 21.1785H57.2292C58.5689 21.1785 59.6871 22.1296 59.9429 23.3935C59.981 23.5723 60 23.7582 60 23.949Z" fill="#FFB875"/>
<g opacity="0.46">
<path d="M59.9427 23.3933H0.0566406C0.312462 22.1294 1.43066 21.1782 2.77038 21.1782H57.229C58.5687 21.1783 59.6869 22.1295 59.9427 23.3933Z" fill="#DB9C62"/>
</g>
<path d="M33.4667 4.12116V26.0349C33.4667 26.0349 33.2298 27.0928 31.3997 27.3379C31.01 27.3912 30.548 27.4066 30.0008 27.3663C26.8831 27.5925 26.5337 26.0349 26.5337 26.0349V4.12116C26.5337 4.12116 25.8325 -0.0352874 30.0008 0.000226289C34.1679 -0.0341852 33.4667 4.12116 33.4667 4.12116Z" fill="#FFC48C"/>
<path d="M30.1968 26.2214C30.8571 26.1143 31.3055 25.4921 31.1983 24.8319C31.0912 24.1716 30.469 23.7232 29.8088 23.8304C29.1485 23.9375 28.7001 24.5597 28.8073 25.2199C28.9145 25.8802 29.5366 26.3286 30.1968 26.2214Z" fill="#E8A15F"/>
<g opacity="0.46">
<path d="M33.4667 4.12116V26.0349C33.4667 26.0349 33.2298 27.0928 31.3997 27.3379C31.7112 22.7763 32.2028 13.2218 31.2113 9.31057C30.1785 5.23813 27.6152 5.09362 26.5337 5.2287V4.12116C26.5337 4.12116 25.8325 -0.0352874 30.0008 0.000226289C34.1679 -0.0341852 33.4667 4.12116 33.4667 4.12116Z" fill="#DB924F"/>
</g>
<path d="M30.1968 26.2214C30.8571 26.1143 31.3055 25.4921 31.1983 24.8319C31.0912 24.1716 30.469 23.7232 29.8088 23.8304C29.1485 23.9375 28.7001 24.5597 28.8073 25.2199C28.9145 25.8802 29.5366 26.3286 30.1968 26.2214Z" fill="#E8A15F"/>
</svg>
