<svg width="171" height="336" viewBox="0 0 171 336" fill="none" xmlns="http://www.w3.org/2000/svg">
<path opacity="0.3" d="M151.272 9.8821H19.7302C8.8325 9.8821 0 21.0707 0 34.8755L0 311.007C0 324.812 8.83449 336 19.7302 336H151.27C162.168 336 171 324.809 171 311.007L171 34.878C171.002 21.0707 162.168 9.8821 151.272 9.8821ZM121.205 46.7781H49.7966C45.9051 46.7781 42.7505 42.782 42.7505 37.8525C42.7505 32.9204 45.9051 28.9243 49.7966 28.9243H121.205C125.097 28.9243 128.252 32.9204 128.252 37.8525C128.252 42.782 125.097 46.7781 121.205 46.7781Z" fill="#E0BE7B"/>
<path d="M151.651 2.19595L22.6501 6.42701C11.9628 6.42701 3.30074 17.4329 3.30074 31.0121L0 302.631C0 316.21 11.9628 327.216 22.6501 327.216H151.651C162.338 327.216 171 316.208 171 302.631L171 31.0121C171 17.4353 162.338 2.19595 151.651 2.19595ZM122.165 42.7251H52.1361C48.3198 42.7251 45.2241 38.7943 45.2241 33.9428C45.2241 29.0938 48.3178 25.1629 52.1361 25.1629H122.165C125.981 25.1629 129.077 29.0938 129.077 33.9428C129.075 38.7943 125.981 42.7251 122.165 42.7251Z" fill="#AD886E"/>
<path d="M151.2 0.000155747H19.8585C8.9773 0.000155747 0.158203 10.9781 0.158203 24.523L0.158203 295.456C0.158203 309.001 8.97929 319.979 19.8585 319.979H151.198C162.08 319.979 170.899 308.998 170.899 295.456L170.899 24.5255C170.901 10.9781 162.08 0.000155747 151.2 0.000155747ZM121.18 36.2016H49.8792C45.9936 36.2016 42.8438 32.2807 42.8438 27.4439C42.8438 22.6047 45.9936 18.6838 49.8792 18.6838H121.18C125.065 18.6838 128.215 22.6047 128.215 27.4439C128.215 32.2807 125.065 36.2016 121.18 36.2016Z" fill="#FFEBC9"/>
<path d="M157.143 64.453C154.819 51.6526 145.156 44.0002 135.766 44.0002C102.28 44.0002 68.7934 44.0002 35.3092 44.0002C24.1327 44.0002 15.2884 54.7198 13.7197 69.2617C13.243 73.681 13.5674 78.4397 13.5674 82.8775C13.5674 107.052 13.5674 131.225 13.5674 155.397C13.5674 184.875 13.5674 214.354 13.5674 243.835C13.5674 258.053 12.1946 273.599 13.7197 287.739C15.2904 302.278 24.1327 313 35.3092 313C41.0063 313 46.7034 313 52.3985 313C73.9168 313 95.4371 313 116.957 313C123.386 313 129.817 313 136.246 313C148.44 313 157.422 300.452 157.988 284.611C157.988 240.328 157.988 196.047 157.988 151.764C157.988 128.247 157.988 104.724 157.988 81.2071C157.99 75.5145 158.16 70.0403 157.143 64.453ZM107.348 308.344C86.4404 308.344 65.5314 308.344 44.6224 308.344C37.9679 308.344 31.442 309.239 25.4007 304.696C17.8086 298.987 17.0687 288.194 17.0687 278.05C17.0687 255.572 17.0687 233.096 17.0687 210.621C17.0687 164.607 17.0687 118.595 17.0687 72.5788C17.0687 42.506 45.6748 48.651 60.4713 48.651C81.7245 48.651 102.976 48.651 124.227 48.651C129.376 48.651 134.779 48.0592 139.9 49.0352C150.649 51.087 154.489 64.4845 154.489 76.9955C154.489 98.3506 154.489 119.706 154.489 141.063C154.489 188.656 154.489 236.248 154.489 283.838C154.489 284.093 154.489 284.348 154.489 284.603C153.385 315.547 123.107 308.344 107.348 308.344Z" fill="#DDCAA8"/>
<g opacity="0.6">
<mask id="mask0_107_4588" style="mask-type:luminance" maskUnits="userSpaceOnUse" x="0" y="0" width="171" height="320">
<path d="M151.2 0.000403455H19.8585C8.9773 0.000403455 0.158203 10.9783 0.158203 24.5232L0.158203 295.456C0.158203 309.001 8.97929 319.979 19.8585 319.979H151.198C162.08 319.979 170.899 308.998 170.899 295.456L170.899 24.5258C170.901 10.9784 162.08 0.000403455 151.2 0.000403455ZM121.18 36.2018H49.8792C45.9936 36.2018 42.8438 32.2809 42.8438 27.4442C42.8438 22.6049 45.9936 18.684 49.8792 18.684H121.18C125.065 18.684 128.215 22.6049 128.215 27.4442C128.215 32.2809 125.065 36.2018 121.18 36.2018Z" fill="white"/>
</mask>
<g mask="url(#mask0_107_4588)">
<path d="M-0.587402 -3.06525L-0.587402 323.978H20.7892L20.7892 -3.06525H-0.587402Z" fill="#FFEBC9"/>
<path d="M37.0337 -3.06525L37.0337 323.978H58.4103L58.4103 -3.06525H37.0337Z" fill="#FFEBC9"/>
<path d="M74.6543 -3.06525L74.6543 323.978H96.0309L96.0309 -3.06525H74.6543Z" fill="#FFEBC9"/>
<path d="M112.275 -3.06525L112.275 323.978H133.652L133.652 -3.06525H112.275Z" fill="#FFEBC9"/>
<path d="M149.895 -3.06525L149.895 323.978H171.272L171.272 -3.06525H149.895Z" fill="#FFEBC9"/>
</g>
</g>
<g opacity="0.6">
<mask id="mask1_107_4588" style="mask-type:luminance" maskUnits="userSpaceOnUse" x="0" y="0" width="171" height="320">
<path d="M151.2 0.000159314H19.8585C8.9773 0.000159314 0.158203 10.9781 0.158203 24.523L0.158203 295.456C0.158203 309.001 8.97929 319.979 19.8585 319.979H151.198C162.08 319.979 170.899 308.998 170.899 295.456L170.899 24.5255C170.901 10.9781 162.08 0.000159314 151.2 0.000159314ZM121.18 36.2016H49.8792C45.9936 36.2016 42.8438 32.2807 42.8438 27.4439C42.8438 22.6047 45.9936 18.6838 49.8792 18.6838H121.18C125.065 18.6838 128.215 22.6047 128.215 27.4439C128.215 32.2807 125.065 36.2016 121.18 36.2016Z" fill="white"/>
</mask>
<g mask="url(#mask1_107_4588)">
<path d="M-0.587402 -3.06549L-0.587402 323.978H20.7892L20.7892 -3.06549H-0.587402Z" fill="#FFEBC9"/>
<path d="M37.0337 -3.06549L37.0337 323.978H58.4103L58.4103 -3.06549H37.0337Z" fill="#FFEBC9"/>
<path d="M74.6543 -3.06549L74.6543 323.978H96.0309L96.0309 -3.06549H74.6543Z" fill="#FFEBC9"/>
<path d="M112.275 -3.06549L112.275 323.978H133.652L133.652 -3.06549H112.275Z" fill="#FFEBC9"/>
<path d="M149.895 -3.06549L149.895 323.978H171.272L171.272 -3.06549H149.895Z" fill="#FFEBC9"/>
</g>
</g>
</svg>
