<svg width="186" height="100" viewBox="0 0 186 100" fill="none" xmlns="http://www.w3.org/2000/svg">
<path opacity="0.3" d="M43.8878 15.479V40.55H34.2868C31.1448 37.458 26.8368 35.549 22.0808 35.549C12.4688 35.549 4.67578 43.341 4.67578 52.953C4.67578 62.566 12.4688 70.358 22.0808 70.358C26.8358 70.358 31.1438 68.449 34.2868 65.357H43.8878V90.428C43.8878 95.254 47.7998 99.166 52.6258 99.166L176.391 99.166C181.217 99.166 185.129 95.254 185.129 90.428V15.478C185.129 10.652 181.217 6.74002 176.391 6.74002L52.6258 6.74002C47.7998 6.74002 43.8878 10.653 43.8878 15.479ZM19.0798 52.953C19.0798 51.296 20.4238 49.952 22.0808 49.952C23.7378 49.952 25.0818 51.296 25.0818 52.953C25.0818 54.611 23.7378 55.955 22.0808 55.955C20.4238 55.955 19.0798 54.612 19.0798 52.953Z" fill="#949597"/>
<path d="M40.211 10.4043V35.4753H30.61C27.468 32.3833 23.16 30.4743 18.404 30.4743C8.79299 30.4743 1 38.2673 1 47.8793C1 57.4913 8.79299 65.2833 18.404 65.2833C23.16 65.2833 27.468 63.3743 30.61 60.2823H40.211V85.3533C40.211 90.1793 44.123 94.0913 48.949 94.0913L172.714 94.0913C177.54 94.0913 181.453 90.1793 181.453 85.3533V10.4034C181.453 5.57735 177.54 1.66531 172.714 1.66531L48.949 1.66531C44.123 1.66631 40.211 5.57832 40.211 10.4043ZM15.404 47.8803C15.404 46.2223 16.748 44.8783 18.404 44.8783C20.062 44.8783 21.406 46.2223 21.406 47.8803C21.406 49.5373 20.062 50.8813 18.404 50.8813C16.748 50.8813 15.404 49.5373 15.404 47.8803Z" fill="#DDCAA8"/>
<path d="M39.211 8.73929V33.8103H29.61C26.468 30.7183 22.16 28.8092 17.404 28.8092C7.79299 28.8092 0 36.6023 0 46.2143C0 55.8263 7.79299 63.6183 17.404 63.6183C22.16 63.6183 26.468 61.7093 29.61 58.6173H39.211V83.6883C39.211 88.5143 43.123 92.4263 47.949 92.4263L171.714 92.4263C176.54 92.4263 180.453 88.5143 180.453 83.6883V8.73825C180.453 3.91225 176.54 0.000274658 171.714 0.000274658L47.949 0.000274658C43.123 0.000274658 39.211 3.91228 39.211 8.73929ZM14.404 46.2143C14.404 44.5563 15.748 43.2122 17.404 43.2122C19.062 43.2122 20.406 44.5563 20.406 46.2143C20.406 47.8713 19.062 49.2152 17.404 49.2152C15.748 49.2152 14.404 47.8713 14.404 46.2143Z" fill="#F4DEB8"/>
<path d="M43.3896 19.8481C43.1786 24.3171 43.3246 28.8141 43.3246 33.2861C43.3246 45.8791 43.3246 58.4721 43.3246 71.0641C43.3246 79.9171 50.6526 87.4051 59.5436 87.4051C62.1436 87.4051 64.7426 87.4051 67.3426 87.4051C95.8386 87.4051 124.335 87.4051 152.832 87.4051C159.066 87.4051 166.068 88.2391 171.211 83.9141C178.837 77.5011 177.42 67.9401 177.42 59.0431C177.42 47.9631 177.42 36.8821 177.42 25.8011C177.42 22.6981 177.512 19.7361 176.78 16.6871C175.072 9.56013 168.144 5.25613 161.214 4.92413C136.703 4.92413 112.193 4.92413 87.6826 4.92413C78.3366 4.92413 68.9926 4.92413 59.6476 4.92413C51.4946 4.92413 43.7846 11.4691 43.3896 19.8481ZM173.669 21.2651C173.669 22.7771 173.669 24.2891 173.669 25.8011C173.669 33.0871 173.669 40.3731 173.669 47.6591C173.669 54.5021 173.669 61.3451 173.669 68.1881C173.669 75.9381 170.141 83.6551 161.097 83.6551C135.736 83.6551 110.373 83.6551 85.0106 83.6551C76.5176 83.6551 68.0236 83.6551 59.5306 83.6551C52.6726 83.6551 47.0746 77.8791 47.0746 71.0641C47.0746 69.5521 47.0746 68.0401 47.0746 66.5281C47.0746 59.2421 47.0746 51.9561 47.0746 44.6701C47.0746 37.8271 47.0746 30.9831 47.0746 24.1411C47.0746 16.3921 50.6026 8.67413 59.6466 8.67413C68.9916 8.67413 78.3356 8.67413 87.6816 8.67413C112.193 8.67413 136.703 8.67413 161.213 8.67413C168.061 9.00214 173.669 14.2031 173.669 21.2651Z" fill="#DDCAA8"/>
</svg>
