<svg width="150" height="100" viewBox="0 0 150 100" fill="none" xmlns="http://www.w3.org/2000/svg">
<path opacity="0.3" d="M141.258 88.4661V16.2898C141.258 10.3102 136.412 5.46387 130.432 5.46387H10.8259C4.84636 5.46387 0 10.3113 0 16.2898V88.465C0 94.4446 4.84745 99.2909 10.8259 99.2909H130.431C136.412 99.292 141.258 94.4446 141.258 88.4661ZM125.276 71.9688V32.7871C125.276 30.6518 127.007 28.9209 129.143 28.9209C131.279 28.9209 133.01 30.6518 133.01 32.7871V71.9688C133.01 74.104 131.279 75.835 129.143 75.835C127.007 75.835 125.276 74.104 125.276 71.9688Z" fill="#603721"/>
<path d="M148.647 85.968L146.784 13.7928C146.784 7.81323 141.938 2.96687 135.958 2.96687L16.3518 1.12012C10.3722 1.12012 5.52588 7.81323 5.52588 13.7928V85.968C5.52588 91.9476 10.3733 96.7939 16.3518 96.7939H135.958C141.936 96.7939 148.647 91.9476 148.647 85.968ZM130.8 69.4707V30.2901C130.8 28.1548 132.531 26.4228 134.667 26.4228C136.803 26.4228 138.534 28.1537 138.534 30.2901V69.4707C138.534 71.606 136.803 73.338 134.667 73.338C132.531 73.3369 130.8 71.606 130.8 69.4707Z" fill="#86543A"/>
<path d="M150 83.0022V10.8259C150 4.84636 145.154 0 139.174 0H19.5681C13.5885 0 8.74219 4.84745 8.74219 10.8259V83.0011C8.74219 88.9807 13.5896 93.827 19.5681 93.827H139.173C145.154 93.8281 150 88.9807 150 83.0022ZM134.019 66.5049V27.3232C134.019 25.188 135.75 23.457 137.885 23.457C140.021 23.457 141.752 25.188 141.752 27.3232V66.5049C141.752 68.6402 140.021 70.3711 137.885 70.3711C135.75 70.3711 134.019 68.6402 134.019 66.5049Z" fill="#F4DEB8"/>
<path d="M118.239 86.4903C123.556 85.2063 126.735 79.8682 126.735 74.6809C126.735 56.1828 126.735 37.6847 126.735 19.1877C126.735 13.0136 122.282 8.12791 116.241 7.26135C114.405 6.998 112.429 7.17721 110.585 7.17721C100.543 7.17721 90.5015 7.17721 80.4602 7.17721C68.2148 7.17721 55.9694 7.17721 43.723 7.17721C37.8166 7.17721 31.3585 6.41884 25.4849 7.26135C19.4453 8.129 14.9912 13.0136 14.9912 19.1877C14.9912 22.3348 14.9912 25.4819 14.9912 28.628C14.9912 40.5149 14.9912 52.403 14.9912 64.291C14.9912 67.8425 14.9912 71.395 14.9912 74.9465C14.9912 81.6822 20.2037 86.6444 26.7842 86.9569C45.1796 86.9569 63.5739 86.9569 81.9693 86.9569C91.7385 86.9569 101.51 86.9569 111.279 86.9569C113.644 86.958 115.918 87.052 118.239 86.4903ZM16.9254 58.9824C16.9254 47.4331 16.9254 35.8827 16.9254 24.3323C16.9254 20.6563 16.5538 17.0513 18.441 13.7141C20.8123 9.52007 25.2959 9.11138 29.5095 9.11138C38.8471 9.11138 48.1836 9.11138 57.5201 9.11138C76.6345 9.11138 95.7478 9.11138 114.863 9.11138C127.356 9.11138 124.803 24.9137 124.803 33.0875C124.803 44.828 124.803 56.5675 124.803 68.3069C124.803 71.1513 125.049 74.1356 124.643 76.9648C123.791 82.9028 118.226 85.0238 113.029 85.0238C104.158 85.0238 95.2867 85.0238 86.4146 85.0238C66.6446 85.0238 46.8745 85.0238 27.1055 85.0238C26.9995 85.0238 26.8935 85.0238 26.7875 85.0238C13.9334 84.4141 16.9254 67.6884 16.9254 58.9824Z" fill="#DDCAA8"/>
<g opacity="0.6">
<mask id="mask0_166_22721" style="mask-type:luminance" maskUnits="userSpaceOnUse" x="8" y="0" width="142" height="94">
<path d="M150 83.0022V10.8259C150 4.84636 145.154 0 139.174 0H19.5681C13.5885 0 8.74219 4.84745 8.74219 10.8259V83.0011C8.74219 88.9807 13.5896 93.827 19.5681 93.827H139.173C145.154 93.8281 150 88.9807 150 83.0022ZM134.019 66.5049V27.3232C134.019 25.188 135.75 23.457 137.885 23.457C140.021 23.457 141.752 25.188 141.752 27.3232V66.5049C141.752 68.6402 140.021 70.3711 137.885 70.3711C135.75 70.3711 134.019 68.6402 134.019 66.5049Z" fill="white"/>
</mask>
<g mask="url(#mask0_166_22721)">
<path d="M151.354 -0.409668H6.97754V11.3374H151.354V-0.409668Z" fill="#F4DEB8"/>
<path d="M151.354 20.2642H6.97754V32.0113H151.354V20.2642Z" fill="#F4DEB8"/>
<path d="M151.354 40.9375H6.97754V52.6846H151.354V40.9375Z" fill="#F4DEB8"/>
<path d="M151.354 61.6118H6.97754V73.3589H151.354V61.6118Z" fill="#F4DEB8"/>
<path d="M151.354 82.2856H6.97754V94.0327H151.354V82.2856Z" fill="#F4DEB8"/>
</g>
</g>
</svg>
