<svg width="82" height="80" viewBox="0 0 82 80" fill="none" xmlns="http://www.w3.org/2000/svg">
<path d="M4.60541 44.8762C2.19526 46.9091 -0.47098 59.9651 0.794352 63.007C2.07475 66.0488 5.87074 79.6619 40.11 79.9932C79.3052 80.3848 81.5798 63.6394 81.5798 61.1095C81.5798 58.5797 78.9135 47.0447 76.0063 45.0117C73.1743 43.039 18.2529 33.3864 4.60541 44.8762Z" fill="#FFA944"/>
<path d="M38.1213 31.0675C12.9954 31.7151 3.88201 39.9371 3.36985 50.0867C2.85769 60.2213 13.2665 67.329 41.9173 67.073C70.0709 66.817 76.036 58.0679 76.9248 52.6166C78.6721 41.8647 67.2842 30.2995 38.1213 31.0675Z" fill="#FFEAB7"/>
<path d="M7.21133 52.1797C8.38628 52.1797 9.60642 52.2098 10.7362 51.7882C11.3688 51.5472 11.1128 50.3124 10.465 50.5533C9.42566 50.9599 8.2959 50.9148 7.21133 50.9148C6.54854 50.9148 6.54854 52.1797 7.21133 52.1797Z" fill="#FFD38D"/>
<path d="M15.4812 49.3037C16.2946 49.1079 17.1231 48.9724 17.9667 48.9573C18.7952 48.9423 18.7952 47.6773 17.9667 47.6924C17.0177 47.6924 16.0687 47.858 15.1347 48.0839C14.3514 48.2797 14.6828 49.4994 15.4812 49.3037Z" fill="#FFD38D"/>
<path d="M10.0285 46.9247C10.5809 46.9247 11.1382 46.9247 11.7006 46.9247C12.1977 46.9247 12.6345 46.6386 12.6345 46.2923C12.6345 45.9459 12.1977 45.6598 11.7006 45.6598C11.1382 45.6598 10.5809 45.6598 10.0285 45.6598C9.51638 45.6598 9.0946 45.9459 9.0946 46.2923C9.0946 46.6386 9.51638 46.9247 10.0285 46.9247Z" fill="#FFD38D"/>
<path d="M21.9734 43.4461C23.1785 43.4461 24.3685 43.4159 25.5585 43.2202C26.372 43.0997 26.0255 41.88 25.2271 42.0004C24.1426 42.1661 23.058 42.1661 21.9734 42.1661C21.1449 42.1661 21.1449 43.4461 21.9734 43.4461Z" fill="#FFD38D"/>
<path d="M14.9238 41.5334C15.451 41.5334 15.918 41.4732 16.385 41.2624C16.7013 41.1118 16.7766 40.6751 16.626 40.389C16.4302 40.0727 16.0686 40.0276 15.7523 40.1631C15.4962 40.2836 15.21 40.2685 14.9238 40.2685C14.5773 40.2685 14.2911 40.5546 14.2911 40.901C14.2911 41.2473 14.5773 41.5334 14.9238 41.5334Z" fill="#FFD38D"/>
<path d="M23.6152 37.4523C23.8863 37.3318 24.3081 37.3468 24.6245 37.3468C25.4529 37.3468 25.4529 36.0819 24.6245 36.0819C24.0671 36.0819 23.5098 36.1271 22.9825 36.368C22.6662 36.5036 22.5909 36.9553 22.7566 37.2264C22.9373 37.5577 23.2989 37.6028 23.6152 37.4523Z" fill="#FFD38D"/>
<path d="M38.1366 40.9612C39.1508 40.9612 40.1651 40.9612 41.1794 40.9612C41.9928 40.9612 41.9928 39.6963 41.1794 39.6963C40.1651 39.6963 39.1508 39.6963 38.1366 39.6963C37.3231 39.6963 37.3231 40.9612 38.1366 40.9612Z" fill="#FFD38D"/>
<path d="M30.3338 47.4365C31.2226 47.4365 32.0963 47.3913 32.985 47.2257C33.7834 47.06 33.4369 45.8403 32.6385 45.9909C31.8703 46.1415 31.1171 46.1716 30.3338 46.1716C29.5204 46.1716 29.5204 47.4365 30.3338 47.4365Z" fill="#FFD38D"/>
<path d="M31.4183 39.169C31.7497 39.0184 32.3974 38.913 32.8343 39.0486C33.6176 39.2744 33.949 38.0547 33.1657 37.8137C32.3974 37.6029 31.4936 37.7385 30.7706 38.0697C30.0325 38.4161 30.6802 39.5154 31.4183 39.169Z" fill="#FFD38D"/>
<path d="M35.2896 35.073C35.852 35.073 36.4193 35.073 36.9918 35.073C37.8052 35.073 37.8052 33.8081 36.9918 33.8081C36.4193 33.8081 35.852 33.8081 35.2896 33.8081C34.4611 33.8081 34.4611 35.073 35.2896 35.073Z" fill="#FFD38D"/>
<path d="M49.374 39.0486C50.6695 39.4251 52.0252 39.2745 53.3508 39.4401C54.1642 39.5455 54.1492 38.2806 53.3508 38.1752C52.1457 38.0246 50.8955 38.1752 49.7205 37.8138C48.9372 37.5879 48.6058 38.8076 49.374 39.0486Z" fill="#FFD38D"/>
<path d="M46.6928 46.8638C47.2652 46.8638 47.8377 46.8638 48.4101 46.8638C49.2235 46.8638 49.2235 45.5989 48.4101 45.5989C47.8377 45.5989 47.2652 45.5989 46.6928 45.5989C45.8794 45.5989 45.8794 46.8638 46.6928 46.8638Z" fill="#FFD38D"/>
<path d="M36.4194 55.4173C37.1224 55.4173 37.8203 55.4173 38.5132 55.4173C39.3266 55.4173 39.3266 54.1523 38.5132 54.1523C37.8203 54.1523 37.1224 54.1523 36.4194 54.1523C35.606 54.1523 35.606 55.4173 36.4194 55.4173Z" fill="#FFD38D"/>
<path d="M17.5899 56.3664C17.841 56.3664 18.0971 56.3664 18.3582 56.3664C18.7046 56.3664 18.9908 56.0803 18.9908 55.7339C18.9908 55.3876 18.7046 55.1014 18.3582 55.1014C18.0971 55.1014 17.841 55.1014 17.5899 55.1014C17.2435 55.1014 16.9573 55.3876 16.9573 55.7339C16.9573 56.0803 17.2435 56.3664 17.5899 56.3664Z" fill="#FFD38D"/>
<path d="M24.6245 53.8963C25.453 53.8963 25.453 52.6313 24.6245 52.6313C23.811 52.6313 23.811 53.8963 24.6245 53.8963Z" fill="#FFD38D"/>
<path d="M29.9572 63.3984C30.5297 63.3984 31.1021 63.3984 31.6745 63.3984C32.4879 63.3984 32.4879 62.1334 31.6745 62.1334C31.1021 62.1334 30.5297 62.1334 29.9572 62.1334C29.1438 62.1334 29.1438 63.3984 29.9572 63.3984Z" fill="#FFD38D"/>
<path d="M52.0253 62.2696C52.914 62.2545 53.7877 62.0888 54.6765 62.0738C55.505 62.0587 55.505 60.7938 54.6765 60.8088C53.7877 60.8239 52.914 60.9896 52.0253 60.9896C51.1968 61.0046 51.1968 62.2696 52.0253 62.2696Z" fill="#FFD38D"/>
<path d="M47.8376 54.0924C48.41 54.0924 48.9824 54.0924 49.5548 54.0924C50.3683 54.0924 50.3683 52.8124 49.5548 52.8124C48.9824 52.8124 48.41 52.8124 47.8376 52.8124C47.0242 52.8124 47.0242 54.0924 47.8376 54.0924Z" fill="#FFD38D"/>
<path d="M64.5582 56.5322C65.944 56.3515 67.3449 56.3365 68.7307 56.1558C69.5442 56.0504 69.1977 54.8306 68.3993 54.936C67.0135 55.1167 65.6126 55.1318 64.2117 55.3125C63.4133 55.4179 63.7598 56.6377 64.5582 56.5322Z" fill="#FFD38D"/>
<path d="M56.3785 50.2673C57.0715 50.0866 57.7644 49.921 58.4874 49.9059C59.3008 49.8909 59.3008 48.6259 58.4874 48.641C57.6589 48.6561 56.8455 48.8368 56.0321 49.0325C55.2488 49.2434 55.5802 50.4631 56.3785 50.2673Z" fill="#FFD38D"/>
<path d="M67.8116 48.1894C68.3137 48.1894 68.8208 48.1894 69.333 48.1894C70.1464 48.1894 70.1464 46.9244 69.333 46.9244C68.8208 46.9244 68.3137 46.9244 67.8116 46.9244C66.9831 46.9244 66.9831 48.1894 67.8116 48.1894Z" fill="#FFD38D"/>
<path d="M59.5869 42.5422C60.5058 42.3013 61.4397 42.2561 62.3586 42.3766C62.9913 42.4669 63.172 41.202 62.5394 41.1267C61.5301 40.9912 60.5058 41.0364 59.4966 41.2924C58.8488 41.443 58.9392 42.6928 59.5869 42.5422Z" fill="#FFD38D"/>
<path d="M47.2652 34.6968C47.8376 34.6968 48.395 34.6516 48.9222 34.4106C49.2385 34.2751 49.2988 33.8233 49.1482 33.5523C48.9523 33.2361 48.5908 33.1758 48.2745 33.3264C48.0033 33.4469 47.5816 33.4318 47.2652 33.4318C46.4518 33.4318 46.4518 34.6968 47.2652 34.6968Z" fill="#FFD38D"/>
<path d="M61.3344 37.9192C61.7863 37.9192 62.2332 37.9192 62.6751 37.9192C63.4885 37.9192 63.4885 36.6543 62.6751 36.6543C62.2332 36.6543 61.7863 36.6543 61.3344 36.6543C60.521 36.6543 60.521 37.9192 61.3344 37.9192Z" fill="#FFD38D"/>
<path d="M32.593 50.2064C32.593 50.2666 32.5578 50.3268 32.4875 50.3871C32.5177 50.3569 32.3972 50.4172 32.4725 50.4021C32.367 50.4172 32.4424 50.4021 32.4725 50.4021C32.4926 50.4021 32.5127 50.4021 32.5327 50.4021C32.7135 50.4021 32.8491 50.2515 32.8491 50.0859C32.8491 49.9052 32.7135 49.7697 32.5327 49.7697C32.4122 49.7697 32.3068 49.7697 32.1863 49.8299C32.0356 49.9052 31.9754 50.0558 31.9603 50.2064C31.9603 50.3871 32.111 50.5226 32.2767 50.5226C32.4574 50.5226 32.593 50.3871 32.593 50.2064Z" fill="#EAC083"/>
<path d="M40.5315 48.2495C40.7424 48.2495 40.9533 48.2495 41.1642 48.2495C41.5709 48.2495 41.5709 47.6019 41.1642 47.6019C40.9533 47.6019 40.7424 47.6019 40.5315 47.6019C40.1098 47.6019 40.1098 48.2495 40.5315 48.2495Z" fill="#EAC083"/>
<path d="M36.1782 43.8368C36.1481 43.882 36.2234 43.8217 36.1933 43.8368C36.2083 43.8217 36.2837 43.8217 36.2837 43.8217C36.3891 43.8067 36.4946 43.8067 36.6 43.8067C37.0067 43.8067 37.0067 43.1742 36.6 43.1742C36.2837 43.1742 35.9824 43.1742 35.7414 43.385C35.6058 43.5055 35.6209 43.7163 35.7414 43.8368C35.8619 43.9723 36.0577 43.9572 36.1782 43.8368Z" fill="#EAC083"/>
<path d="M51.1818 42.5418C51.3525 42.5418 51.5182 42.5418 51.6789 42.5418C51.8597 42.5418 51.9952 42.3912 51.9952 42.2255C51.9952 42.0448 51.8597 41.9093 51.6789 41.9093C51.5182 41.9093 51.3525 41.9093 51.1818 41.9093C51.001 41.9093 50.8655 42.0448 50.8655 42.2255C50.8655 42.3912 51.001 42.5418 51.1818 42.5418Z" fill="#EAC083"/>
<path d="M45.8492 36.8345C46.0601 36.8345 46.271 36.8345 46.4819 36.8345C46.8886 36.8345 46.8886 36.202 46.4819 36.202C46.271 36.202 46.0601 36.202 45.8492 36.202C45.4425 36.202 45.4425 36.8345 45.8492 36.8345Z" fill="#EAC083"/>
<path d="M54.6008 36.9551C54.6409 36.9551 54.6811 36.9551 54.7213 36.9551C54.902 36.9551 55.0376 36.8196 55.0376 36.6389C55.0376 36.4732 54.902 36.3226 54.7213 36.3226C54.6811 36.3226 54.6409 36.3226 54.6008 36.3226C54.4351 36.3226 54.2844 36.4732 54.2844 36.6389C54.2844 36.8196 54.4351 36.9551 54.6008 36.9551Z" fill="#EAC083"/>
<path d="M21.7626 39.3643C21.9233 39.3643 22.089 39.3643 22.2597 39.3643C22.4405 39.3643 22.576 39.2287 22.576 39.048C22.576 38.8824 22.4405 38.7318 22.2597 38.7318C22.089 38.7318 21.9233 38.7318 21.7626 38.7318C21.5819 38.7318 21.4463 38.8824 21.4463 39.048C21.4463 39.2287 21.5819 39.3643 21.7626 39.3643Z" fill="#EAC083"/>
<path d="M28.5111 35.9007C28.7069 35.8103 28.9027 35.8254 29.1136 35.8254C29.5203 35.8254 29.5203 35.1779 29.1136 35.1779C28.7822 35.1929 28.496 35.223 28.1947 35.3586C28.029 35.4339 27.9989 35.6447 28.0742 35.7953C28.1646 35.9459 28.3604 35.976 28.5111 35.9007Z" fill="#EAC083"/>
<path d="M17.3192 36.3225C17.6807 36.3225 18.0422 36.3075 18.3736 36.1569C18.5243 36.0816 18.5544 35.8557 18.4791 35.7202C18.3887 35.5696 18.2079 35.5395 18.0422 35.6147C17.8314 35.7051 17.5602 35.69 17.3192 35.69C16.9125 35.69 16.9125 36.3225 17.3192 36.3225Z" fill="#EAC083"/>
<path d="M8.98871 42.361C9.16947 42.2857 9.38036 42.2857 9.57618 42.2857C9.99796 42.2857 9.99796 41.6532 9.57618 41.6532C9.25985 41.6532 8.95858 41.6833 8.65731 41.8188C8.50668 41.8941 8.46149 42.12 8.55187 42.2555C8.64225 42.4061 8.82301 42.4363 8.98871 42.361Z" fill="#EAC083"/>
<path d="M14.7881 43.1741C14.8785 43.1741 14.984 43.144 15.0743 43.1139C15.1246 43.0938 15.1697 43.0788 15.2099 43.0687C15.24 43.0587 15.2651 43.0486 15.2852 43.0386C15.225 43.0537 15.3606 43.0235 15.2852 43.0386C15.466 43.0386 15.6016 42.9031 15.6016 42.7224C15.6016 42.5567 15.466 42.4061 15.2852 42.4061C15.1798 42.4212 15.0894 42.4362 14.999 42.4664C14.9488 42.4864 14.9036 42.5015 14.8635 42.5115C14.8333 42.5216 14.8082 42.5316 14.7881 42.5417C14.7128 42.5567 14.8484 42.5417 14.7881 42.5417C14.6074 42.5417 14.4718 42.6772 14.4718 42.8579C14.4718 43.0235 14.6074 43.1741 14.7881 43.1741Z" fill="#EAC083"/>
<path d="M6.78953 47.6017C7.07574 47.6017 7.33182 47.5716 7.5879 47.436C7.73853 47.3607 7.78372 47.1499 7.7084 46.9993C7.60296 46.8487 7.4222 46.8186 7.27156 46.8939C7.0908 46.9843 7.00042 46.9692 6.78953 46.9692C6.38282 46.9692 6.38282 47.6167 6.78953 47.6017Z" fill="#EAC083"/>
<path d="M45.4721 52.1789C45.683 52.1789 45.8939 52.1789 46.1048 52.1789C46.5115 52.1789 46.5115 51.5314 46.1048 51.5314C45.8939 51.5314 45.683 51.5314 45.4721 51.5314C45.0654 51.5314 45.0654 52.1789 45.4721 52.1789Z" fill="#EAC083"/>
<path d="M56.5442 52.4201C56.9057 52.5255 57.2673 52.5556 57.6439 52.5556C58.0506 52.5556 58.0506 51.9232 57.6439 51.9232C57.3275 51.9232 57.0263 51.9081 56.7099 51.8027C56.3183 51.6822 56.1526 52.2846 56.5442 52.4201Z" fill="#EAC083"/>
<path d="M58.6528 45.8395C58.9691 45.8395 59.2704 45.8244 59.5114 45.6136C59.647 45.4931 59.6319 45.2823 59.5114 45.1618C59.3909 45.0414 59.1951 45.0564 59.0746 45.1618C59.0294 45.1769 59.1047 45.1317 59.0746 45.1618C59.0445 45.1769 58.9692 45.1919 58.9692 45.1919C58.8637 45.207 58.7583 45.207 58.6528 45.207C58.2461 45.207 58.2461 45.8395 58.6528 45.8395Z" fill="#EAC083"/>
<path d="M68.1281 46.3367C68.4746 46.2162 68.821 46.2162 69.1826 46.2162C69.5893 46.2162 69.5893 45.5837 69.1826 45.5837C68.7759 45.5837 68.3541 45.5988 67.9624 45.7193C67.5708 45.8397 67.7365 46.4571 68.1281 46.3367Z" fill="#EAC083"/>
<path d="M64.4978 41.7738C64.7087 41.7738 64.9196 41.7738 65.1304 41.7738C65.5372 41.7738 65.5372 41.1414 65.1304 41.1414C64.9196 41.1414 64.7087 41.1414 64.4978 41.1414C64.0911 41.1414 64.0911 41.7738 64.4978 41.7738Z" fill="#EAC083"/>
<path d="M65.1304 38.6113C65.1706 38.6113 65.2158 38.6113 65.266 38.6113C65.2811 38.6113 65.4166 38.6264 65.3262 38.6113C65.3564 38.6113 65.4467 38.6415 65.3564 38.6113C65.3765 38.6214 65.3915 38.6264 65.4016 38.6264C65.4618 38.6716 65.3564 38.5812 65.4166 38.6415C65.5371 38.7619 65.733 38.7619 65.8535 38.6415C65.974 38.521 65.989 38.3102 65.8535 38.1897C65.6576 37.9939 65.4016 37.9789 65.1304 37.9789C64.9497 37.9789 64.8141 38.1144 64.8141 38.2951C64.8141 38.4608 64.9497 38.6113 65.1304 38.6113Z" fill="#EAC083"/>
<path d="M71.849 44.8158C72.1904 44.8158 72.5268 44.8158 72.8582 44.8158C73.2649 44.8158 73.2649 44.1833 72.8582 44.1833C72.5268 44.1833 72.1904 44.1833 71.849 44.1833C71.4423 44.1833 71.4423 44.8158 71.849 44.8158Z" fill="#EAC083"/>
<path d="M69.9812 40.8401C70.2372 40.7347 70.5686 40.7648 70.8398 40.7648C71.2465 40.7648 71.2465 40.1323 70.8398 40.1323C70.4331 40.1323 70.0264 40.1323 69.6648 40.298C69.4991 40.3733 69.469 40.5991 69.5443 40.7347C69.6347 40.9003 69.8155 40.9154 69.9812 40.8401Z" fill="#EAC083"/>
<path d="M6.53331 55.2213C6.7442 55.2213 6.9601 55.2213 7.18103 55.2213C7.58775 55.2213 7.58775 54.5889 7.18103 54.5889C6.9601 54.5889 6.7442 54.5889 6.53331 54.5889C6.12659 54.5889 6.12659 55.2213 6.53331 55.2213Z" fill="#EAC083"/>
<path d="M15.6771 51.4111C15.9783 51.4111 16.2947 51.4111 16.5357 51.1853C16.6562 51.0798 16.6411 50.854 16.5357 50.7485C16.4001 50.613 16.2043 50.6281 16.0838 50.7485C16.0386 50.7636 16.129 50.7034 16.0838 50.7485C16.0536 50.7485 15.9934 50.7636 15.9783 50.7636C15.8729 50.7787 15.7674 50.7787 15.6771 50.7787C15.2553 50.7787 15.2553 51.4111 15.6771 51.4111Z" fill="#EAC083"/>
<path d="M22.5162 45.8396C22.8175 45.8396 23.1137 45.8396 23.405 45.8396C23.8117 45.8396 23.8117 45.2072 23.405 45.2072C23.1137 45.2072 22.8175 45.2072 22.5162 45.2072C22.1095 45.2072 22.1095 45.8396 22.5162 45.8396Z" fill="#EAC083"/>
<path d="M27.9687 39.6205C28.0591 39.6205 28.1444 39.6205 28.2248 39.6205C28.3905 39.6205 28.5411 39.485 28.5411 39.3043C28.5411 39.1386 28.3905 38.988 28.2248 38.988C28.1444 38.988 28.0591 38.988 27.9687 38.988C27.803 38.988 27.6523 39.1386 27.6523 39.3043C27.6523 39.485 27.803 39.6205 27.9687 39.6205Z" fill="#EAC083"/>
<path d="M31.9003 33.0249C32.2618 33.0249 32.6233 33.0098 32.9547 32.8593C33.1053 32.784 33.1505 32.5581 33.0601 32.4226C32.9698 32.272 32.789 32.2418 32.6233 32.3171C32.4124 32.4075 32.1413 32.3924 31.9003 32.3924C31.4935 32.3924 31.4935 33.0249 31.9003 33.0249Z" fill="#EAC083"/>
<path d="M42.0529 32.7838C42.2136 32.7838 42.3793 32.7838 42.55 32.7838C42.7308 32.7838 42.8663 32.6332 42.8663 32.4525C42.8663 32.2868 42.7308 32.1362 42.55 32.1362C42.3793 32.1362 42.2136 32.1362 42.0529 32.1362C41.8721 32.1362 41.7366 32.2868 41.7366 32.4525C41.7366 32.6332 41.8721 32.7838 42.0529 32.7838Z" fill="#EAC083"/>
<path d="M23.0279 60.6723C23.1986 60.6723 23.3693 60.6723 23.54 60.6723C23.7057 60.6723 23.8564 60.5217 23.8564 60.356C23.8564 60.1753 23.7057 60.0398 23.54 60.0398C23.3693 60.0398 23.1986 60.0398 23.0279 60.0398C22.8471 60.0398 22.7115 60.1753 22.7115 60.356C22.7115 60.5217 22.8471 60.6723 23.0279 60.6723Z" fill="#EAC083"/>
<path d="M45.3371 62.8262C45.3873 62.8262 45.4325 62.8262 45.4727 62.8262C45.6384 62.8262 45.789 62.6756 45.789 62.51C45.789 62.3293 45.6384 62.1937 45.4727 62.1937C45.4325 62.1937 45.3873 62.1937 45.3371 62.1937C45.1714 62.1937 45.0208 62.3293 45.0208 62.51C45.0208 62.6756 45.1714 62.8262 45.3371 62.8262Z" fill="#EAC083"/>
<path d="M57.9301 56.3055C58.126 56.2302 58.3368 56.2302 58.5327 56.2302C58.9394 56.2302 58.9394 55.5978 58.5327 55.5978C58.2013 55.5978 57.9151 55.6279 57.6138 55.7634C57.4481 55.8387 57.418 56.0646 57.4933 56.2001C57.5987 56.3658 57.7795 56.3808 57.9301 56.3055Z" fill="#EAC083"/>
<path d="M62.3438 60.5369C62.384 60.5369 62.4241 60.5369 62.4643 60.5369C62.63 60.5369 62.7806 60.4014 62.7806 60.2207C62.7806 60.055 62.63 59.9044 62.4643 59.9044C62.4241 59.9044 62.384 59.9044 62.3438 59.9044C62.163 59.9044 62.0275 60.055 62.0275 60.2207C62.0275 60.4014 62.163 60.5369 62.3438 60.5369Z" fill="#EAC083"/>
<path d="M72.3907 50.8693C72.6317 50.7489 72.9029 50.7187 73.1439 50.6133C73.3096 50.538 73.3397 50.3122 73.2644 50.1766C73.174 50.011 72.9782 49.9809 72.8275 50.0561C72.5865 50.1766 72.3154 50.2067 72.0744 50.3121C71.9087 50.3874 71.8785 50.6133 71.9539 50.7489C72.0442 50.9145 72.225 50.9296 72.3907 50.8693Z" fill="#EAC083"/>
<path opacity="0.7" d="M27.3062 68.9704C26.3873 67.4193 24.6852 67.2386 23.0884 67.073C20.9645 66.8471 17.5752 66.1996 15.4814 65.6123C9.51623 63.9257 7.04582 60.2815 6.15708 60.2815C4.003 60.2815 3.92769 62.8415 4.37959 65.1605C4.7863 67.2236 5.76543 69.377 7.3019 70.8979C10.9473 74.497 15.7224 75.6264 20.4824 76.5751C22.4256 76.9666 24.8509 76.9666 26.2819 75.28C27.4116 73.9699 28.2401 70.5214 27.3062 68.9704Z" fill="#FFC050"/>
<path d="M81.5799 61.1097C81.5799 60.2061 81.2335 58.128 80.661 55.7638C80.4953 55.8541 80.3447 55.9897 80.2091 56.1704C79.712 56.833 79.8928 58.2485 79.7723 59.0767C79.6066 60.2965 79.1999 60.9139 78.4467 61.9078C77.1061 63.6546 76.1119 65.5219 74.2591 66.847C72.3309 68.2475 70.0413 69.9341 67.7366 70.6418C64.6938 71.5905 61.5154 72.1176 58.3972 72.7501C55.49 73.3374 52.9443 74.7981 50.037 75.4606C43.8007 76.9213 36.2087 76.9213 30.1231 74.6475C26.9146 73.4428 23.7512 71.9821 20.618 70.5967C17.1836 69.0607 13.5834 68.1421 10.164 66.591C6.66926 65.0099 4.09341 63.6998 2.48162 60.1308C2.13516 59.3478 1.9544 58.3388 1.15603 57.8419C0.995356 57.7516 0.82966 57.6863 0.658941 57.6461C0.387798 60.0104 0.387797 62.0282 0.794511 63.0071C2.07491 66.0489 5.8709 79.662 40.1102 79.9933C79.3053 80.3849 81.5799 63.6395 81.5799 61.1097Z" fill="#F68D32"/>
<path opacity="0.2" d="M20.4671 76.6206C22.4103 77.0122 24.8205 77.0122 26.2666 75.3256C26.6281 74.9039 26.9595 74.2715 27.2156 73.5336C24.9862 72.615 22.7869 71.6061 20.5876 70.6273C17.1682 69.1063 13.5681 68.1877 10.1336 66.6367C7.76863 65.5675 5.84051 64.6188 4.33416 63.0226C4.21365 63.7002 4.19859 64.408 4.36429 65.2061C4.771 67.2692 5.73506 69.4225 7.2866 70.9435C10.932 74.5425 15.692 75.6719 20.4671 76.6206Z" fill="#FFC050"/>
<path d="M72.6922 34.1701C67.0284 31.3993 13.7338 30.6162 7.18119 34.6519C1.12568 38.4919 1.12568 46.4731 1.3215 49.5601C1.51733 52.6321 5.26813 65.5224 40.4715 64.9351C75.6748 64.3629 78.3862 53.882 79.4256 51.9545C80.7813 49.4547 80.9771 38.2058 72.6922 34.1701Z" fill="#893C29"/>
<path d="M37.2933 27.3334C14.0202 27.6345 2.85815 35.0284 2.85815 42.9192C2.85815 50.2377 16.3249 55.6137 36.3292 56.1859C56.3485 56.7732 75.8708 51.3822 77.3169 43.4011C78.7178 35.6307 67.8872 26.9569 37.2933 27.3334Z" fill="#C25739"/>
<path d="M4.21401 43.311C4.3044 46.5787 7.57317 50.4187 16.1292 52.6324C33.2564 57.0596 55.0382 55.1923 54.4206 54.2738C53.6523 53.1142 45.2017 56.7584 19.5034 51.9547C15.3158 51.1717 11.806 49.8013 9.59167 48.0093C7.18152 46.0667 6.24758 43.6573 6.23252 42.5279C6.12708 37.8296 9.50129 36.5647 8.25103 35.9924C7.54304 35.6762 4.03325 37.5284 4.21401 43.311Z" fill="#F9735D"/>
<path d="M21.4915 29.8032C20.6028 29.8484 18.4788 32.1373 14.7581 36.7453C11.0375 41.3382 7.57286 45.5245 9.07921 46.0215C10.5856 46.5184 14.487 41.1726 16.8821 37.9048C19.2772 34.6521 24.1577 29.6375 21.4915 29.8032Z" fill="#893C29"/>
<path d="M32.8794 29.0653C31.9154 29.1406 27.2155 34.9834 23.3141 39.8474C19.4127 44.7264 15.3455 49.7711 17.0025 50.253C18.6444 50.7349 23.1635 44.4554 25.664 41.0069C28.1495 37.5584 35.7565 28.8244 32.8794 29.0653Z" fill="#893C29"/>
<path d="M45.4728 28.9747C44.5087 29.0801 39.5981 36.2932 35.9226 41.3078C32.2471 46.3223 27.3966 52.2555 29.7917 52.2555C31.524 52.2555 35.9828 45.9158 38.3177 42.3769C40.6525 38.8381 49.4194 28.538 45.4728 28.9747Z" fill="#893C29"/>
<path d="M58.5927 30.1946C57.6286 30.1193 52.6275 36.6096 48.8014 41.5339C44.9904 46.4581 39.9592 52.2708 42.3693 52.331C44.1016 52.3762 48.7261 46.1418 51.1664 42.6633C53.6067 39.1696 61.3644 30.4356 58.5927 30.1946Z" fill="#893C29"/>
<path d="M69.6347 33.5682C68.8665 33.523 64.9801 38.7484 62.0277 42.7239C59.0752 46.6994 55.1587 51.3977 57.0869 51.3977C58.4878 51.3977 62.0729 46.3681 63.9558 43.5672C65.8387 40.7662 71.8792 33.7037 69.6347 33.5682Z" fill="#893C29"/>
<path d="M9.62181 38.2206C9.87789 38.1002 10.1641 38.0399 10.4202 37.9646C10.7214 37.8592 10.6009 37.3924 10.2997 37.4978C9.9984 37.5882 9.667 37.6635 9.38079 37.799C9.09459 37.9345 9.3356 38.3562 9.62181 38.2206Z" fill="#893C29"/>
<path d="M9.98322 36.1429C10.2242 36.1429 10.4502 36.2483 10.6912 36.3236C10.9774 36.429 11.0979 35.9622 10.8117 35.8568C10.5406 35.7664 10.2694 35.661 9.98322 35.661C9.66689 35.6459 9.66689 36.1278 9.98322 36.1429Z" fill="#893C29"/>
<path d="M12.1222 34.3356C12.3331 34.5615 12.6042 34.682 12.8904 34.7874C13.1917 34.8777 13.3122 34.426 13.026 34.3206C12.8151 34.2453 12.6193 34.1549 12.4536 34.0043C12.2276 33.7784 11.8962 34.1248 12.1222 34.3356Z" fill="#893C29"/>
<path d="M12.1979 36.7147C12.4992 36.7147 12.8005 36.7147 13.0867 36.5942C13.2072 36.534 13.2223 36.3683 13.162 36.2629C13.1018 36.1425 12.9662 36.1123 12.8457 36.1726C12.6498 36.2629 12.3938 36.2328 12.1979 36.2328C11.8816 36.2328 11.8816 36.7147 12.1979 36.7147Z" fill="#893C29"/>
<path d="M14.6531 34.5014C14.9995 34.381 15.2857 34.1852 15.587 33.9894C15.8431 33.8238 15.6021 33.4021 15.346 33.5828C15.0899 33.7485 14.8188 33.9292 14.5325 34.0346C14.2463 34.14 14.3668 34.6068 14.6531 34.5014Z" fill="#893C29"/>
<path d="M14.4418 32.2879C14.8034 32.4083 15.1498 32.4686 15.5264 32.3782C15.8277 32.318 15.6921 31.8512 15.3908 31.9114C15.1046 31.9867 14.8486 31.9114 14.5623 31.8211C14.2611 31.7156 14.1406 32.1825 14.4418 32.2879Z" fill="#893C29"/>
<path d="M17.4849 31.8055C17.5753 31.8055 17.6657 31.8055 17.741 31.7603C17.8615 31.7152 17.9067 31.5947 17.9218 31.4742C17.9218 31.3387 17.8012 31.2333 17.6807 31.2333C17.5452 31.2333 17.4397 31.3387 17.4397 31.4742C17.4397 31.424 17.4648 31.3788 17.515 31.3387C17.5 31.3537 17.5904 31.3236 17.5301 31.3387C17.6054 31.3086 17.5602 31.3236 17.5301 31.3236C17.5201 31.3236 17.505 31.3236 17.4849 31.3236C17.3493 31.3236 17.2439 31.4441 17.2439 31.5646C17.2439 31.7001 17.3493 31.8055 17.4849 31.8055Z" fill="#893C29"/>
<path d="M8.01001 41.7595C8.01001 42.0456 8.17571 42.2263 8.41673 42.3618C8.53723 42.4221 8.6728 42.392 8.74812 42.2715C8.80838 42.1661 8.77825 42.0004 8.65774 41.9402C8.62761 41.9201 8.59749 41.9051 8.56736 41.895C8.5523 41.88 8.49204 41.8498 8.5523 41.88C8.53221 41.8699 8.51715 41.8599 8.5071 41.8498C8.46191 41.8047 8.53723 41.88 8.5071 41.8348C8.49204 41.8197 8.47698 41.7745 8.49204 41.8348C8.49204 41.8147 8.49204 41.7946 8.49204 41.7746C8.49204 41.8348 8.49204 41.7745 8.49204 41.7595C8.49204 41.639 8.3866 41.5186 8.25103 41.5186C8.11545 41.5186 8.01001 41.639 8.01001 41.7595Z" fill="#893C29"/>
<path d="M8.37139 39.7269C8.4919 39.8473 8.64254 39.8925 8.8233 39.8925C8.95887 39.8925 9.06431 39.7871 9.06431 39.6516C9.06431 39.516 8.95887 39.4106 8.8233 39.4106C8.80321 39.4106 8.78815 39.4106 8.77811 39.4106C8.76304 39.4106 8.68773 39.3956 8.76304 39.4106C8.74798 39.4106 8.68773 39.3805 8.73292 39.4106C8.72287 39.4006 8.71283 39.3905 8.70279 39.3805C8.72287 39.4006 8.72287 39.4006 8.70279 39.3805C8.61241 39.2902 8.46178 39.2902 8.37139 39.3805C8.28101 39.4709 8.26595 39.6365 8.37139 39.7269Z" fill="#893C29"/>
<path d="M17.0026 40.5696C17.1934 40.5696 17.3842 40.5696 17.575 40.5696C17.8914 40.5696 17.8914 40.0878 17.575 40.0878C17.3842 40.0878 17.1934 40.0878 17.0026 40.0878C16.6863 40.0878 16.6863 40.5696 17.0026 40.5696Z" fill="#893C29"/>
<path d="M18.2228 38.2512C18.509 38.1608 18.7953 38.1457 19.0815 38.0554C19.3827 37.965 19.2472 37.4982 18.961 37.5886C18.6747 37.6789 18.3735 37.694 18.0873 37.7843C17.8011 37.8747 17.9216 38.3415 18.2228 38.2512Z" fill="#893C29"/>
<path d="M23.1939 37.3774C23.465 37.4678 23.7361 37.5732 24.0223 37.5882C24.3387 37.5882 24.3387 37.1064 24.0223 37.1064C23.7813 37.0913 23.5403 36.9859 23.3144 36.9106C23.0282 36.8202 22.8926 37.2871 23.1939 37.3774Z" fill="#893C29"/>
<path d="M21.6424 35.5856C21.7328 35.686 21.8282 35.7814 21.9286 35.8718C22.019 35.9621 22.1696 35.9621 22.275 35.8718C22.3654 35.7814 22.3654 35.6308 22.275 35.5405C22.1746 35.4401 22.0742 35.3447 21.9738 35.2544C21.8834 35.1489 21.7328 35.1489 21.6424 35.2544C21.552 35.3447 21.552 35.4953 21.6424 35.5856Z" fill="#893C29"/>
<path d="M20.2715 34.8933C20.4674 34.8782 20.6029 34.7577 20.7234 34.6222C20.8289 34.5318 20.8289 34.3813 20.7234 34.2909C20.6331 34.2006 20.4824 34.2006 20.392 34.2909C20.3519 34.321 20.3117 34.3562 20.2715 34.3963C20.2514 34.4164 20.2514 34.4164 20.2715 34.3963C20.2615 34.3963 20.2514 34.4013 20.2414 34.4114C20.2213 34.4214 20.2263 34.4214 20.2565 34.4114C20.2263 34.4214 20.2314 34.4214 20.2715 34.4114C20.136 34.4114 20.0305 34.5168 20.0305 34.6523C20.0305 34.7728 20.136 34.8933 20.2715 34.8933Z" fill="#893C29"/>
<path d="M21.9134 33.0556C22.3854 33.0556 22.8624 33.0556 23.3444 33.0556C23.6608 33.0556 23.6608 32.5737 23.3444 32.5737C22.8624 32.5737 22.3854 32.5737 21.9134 32.5737C21.5971 32.5737 21.5971 33.0556 21.9134 33.0556Z" fill="#893C29"/>
<path d="M23.2542 30.8569C23.4952 30.8569 23.7212 30.8569 23.9622 30.9322C24.2484 31.0376 24.384 30.5708 24.0827 30.4804C23.8116 30.3901 23.5404 30.375 23.2542 30.375C22.9379 30.375 22.9379 30.8569 23.2542 30.8569Z" fill="#893C29"/>
<path d="M25.8453 29.306C26.1667 29.306 26.488 29.306 26.8094 29.306C27.1257 29.306 27.1257 28.8241 26.8094 28.8241C26.488 28.8241 26.1667 28.8241 25.8453 28.8241C25.5441 28.8241 25.5441 29.306 25.8453 29.306Z" fill="#893C29"/>
<path d="M27.6983 30.4956C27.879 30.6613 28.105 30.7968 28.2707 30.9775C28.4966 31.1883 28.8431 30.842 28.6171 30.6311C28.4364 30.4504 28.2255 30.33 28.0447 30.1493C27.8188 29.9384 27.4723 30.2697 27.6983 30.4956Z" fill="#893C29"/>
<path d="M25.7697 31.4595C25.9806 31.6703 26.1463 31.9113 26.3572 32.1221C26.5681 32.348 26.9146 32.0016 26.6886 31.7908C26.4928 31.58 26.3271 31.324 26.1162 31.1131C25.9053 30.8873 25.5589 31.2336 25.7697 31.4595Z" fill="#893C29"/>
<path d="M24.5047 34.6071C24.7558 34.6071 25.0118 34.6071 25.2729 34.6071C25.5893 34.6071 25.5893 34.1252 25.2729 34.1252C25.0118 34.1252 24.7558 34.1252 24.5047 34.1252C24.1884 34.1252 24.1884 34.6071 24.5047 34.6071Z" fill="#893C29"/>
<path d="M27.2009 33.4476C27.4218 33.4476 27.6427 33.4476 27.8637 33.4476C28.18 33.4476 28.18 32.9657 27.8637 32.9657C27.6427 32.9657 27.4218 32.9657 27.2009 32.9657C26.8845 32.9657 26.8845 33.4476 27.2009 33.4476Z" fill="#893C29"/>
<path d="M29.7165 31.4896C29.8671 31.4294 30.0328 31.4294 30.1834 31.4294C30.4847 31.4294 30.4847 30.9475 30.1834 30.9475C29.9274 30.9475 29.7014 30.9776 29.4755 31.068C29.355 31.1282 29.3399 31.2939 29.4001 31.3993C29.4604 31.5197 29.611 31.5499 29.7165 31.4896Z" fill="#893C29"/>
<path d="M29.8974 29.306C30.1786 29.306 30.4648 29.306 30.756 29.306C31.0724 29.306 31.0724 28.8241 30.756 28.8241C30.4648 28.8241 30.1786 28.8241 29.8974 28.8241C29.5811 28.8241 29.5811 29.306 29.8974 29.306Z" fill="#893C29"/>
<path d="M34.597 28.3424C34.8682 28.3575 35.1092 28.3575 35.3502 28.5081C35.6063 28.6737 35.8473 28.2521 35.5912 28.1015C35.29 27.9057 34.9586 27.8756 34.597 27.8756C34.2958 27.8756 34.2958 28.3424 34.597 28.3424Z" fill="#893C29"/>
<path d="M34.6725 30.0435C34.8833 30.1489 35.034 30.3296 35.1997 30.4952C35.4256 30.7061 35.757 30.3748 35.5461 30.1489C35.3503 29.9531 35.1545 29.7574 34.9135 29.6369C34.6423 29.4863 34.4013 29.908 34.6725 30.0435Z" fill="#893C29"/>
<path d="M32.4882 33.1608C32.7292 33.1608 32.9552 33.1759 33.1962 33.2512C33.4975 33.3415 33.618 32.8747 33.3167 32.7844C33.0456 32.694 32.7744 32.679 32.4882 32.679C32.1719 32.679 32.1719 33.1608 32.4882 33.1608Z" fill="#893C29"/>
<path d="M29.5807 36.3989C29.7615 36.4742 29.9724 36.5043 30.1531 36.5947C30.2736 36.6398 30.4092 36.6248 30.4845 36.5043C30.5448 36.3989 30.5146 36.2333 30.3941 36.173C30.2134 36.0827 30.0025 36.0676 29.8217 35.9773C29.7012 35.917 29.5656 35.9471 29.4903 36.0676C29.4301 36.173 29.4602 36.3387 29.5807 36.3989Z" fill="#893C29"/>
<path d="M34.4615 35.9018C34.4615 36.2783 34.4766 36.6548 34.567 37.0162C34.6423 37.3174 35.0942 37.1969 35.034 36.8957C34.9436 36.5644 34.9436 36.2331 34.9436 35.9018C34.9436 35.5856 34.4615 35.5856 34.4615 35.9018Z" fill="#893C29"/>
<path d="M32.8197 34.7421C32.8197 34.9027 32.8197 35.0634 32.8197 35.224C32.8197 35.5402 33.3017 35.5402 33.3017 35.224C33.3017 35.0634 33.3017 34.9027 33.3017 34.7421C33.3017 34.4409 32.8197 34.4409 32.8197 34.7421Z" fill="#893C29"/>
<path d="M31.5994 37.9347C31.8706 38.0702 32.1718 38.1455 32.4882 38.1606C32.8045 38.1606 32.8045 37.6787 32.4882 37.6787C32.2622 37.6787 32.0363 37.6185 31.8404 37.5131C31.5693 37.3775 31.3132 37.7992 31.5994 37.9347Z" fill="#893C29"/>
<path d="M37.7605 35.8113C37.9413 35.9017 38.1522 35.9318 38.3329 36.0071C38.4534 36.0673 38.589 36.0372 38.6643 35.9167C38.7246 35.8113 38.6945 35.6457 38.5739 35.6005C38.3932 35.5102 38.1823 35.4951 38.0015 35.4048C37.881 35.3445 37.7455 35.3746 37.6701 35.4951C37.6099 35.6005 37.64 35.7662 37.7605 35.8113Z" fill="#893C29"/>
<path d="M35.5613 33.8235C35.8475 33.8235 36.1337 33.8085 36.4048 33.7332C36.691 33.6278 36.5705 33.161 36.2693 33.2664C36.0433 33.3417 35.8174 33.3567 35.5613 33.3567C35.26 33.3567 35.26 33.8386 35.5613 33.8235Z" fill="#893C29"/>
<path d="M37.8959 31.354C38.1218 31.5799 38.3779 31.7004 38.6792 31.8058C38.9654 31.8962 39.101 31.4444 38.7997 31.339C38.5888 31.2637 38.393 31.1733 38.2423 31.0228C38.0164 30.7969 37.6699 31.1432 37.8959 31.354Z" fill="#893C29"/>
<path d="M37.3687 29.1853C37.5494 29.2757 37.7603 29.2907 37.9411 29.3811C38.0616 29.4262 38.1972 29.4112 38.2725 29.2907C38.3327 29.1853 38.3026 29.0197 38.1821 28.9594C38.0013 28.8691 37.7905 28.854 37.6097 28.7637C37.4892 28.7185 37.3536 28.7335 37.2783 28.854C37.218 28.9594 37.2482 29.1251 37.3687 29.1853Z" fill="#893C29"/>
<path d="M40.6224 28.4629C40.7278 28.7791 40.7429 29.1104 40.8182 29.4266C40.8935 29.7278 41.3605 29.5923 41.2852 29.2911C41.2099 28.9749 41.1797 28.6436 41.0894 28.3273C40.999 28.0412 40.532 28.1617 40.6224 28.4629Z" fill="#893C29"/>
<path d="M43.1232 28.6887C43.1232 28.8795 43.1232 29.0702 43.1232 29.2609C43.1232 29.5772 43.6052 29.5772 43.6052 29.2609C43.6052 29.0702 43.6052 28.8795 43.6052 28.6887C43.6052 28.3725 43.1232 28.3725 43.1232 28.6887Z" fill="#893C29"/>
<path d="M40.6827 30.8717C40.9087 31.0976 41.1798 31.2181 41.466 31.3235C41.7673 31.4289 41.8878 30.9621 41.6016 30.8567C41.3756 30.7814 41.1949 30.691 41.0292 30.5405C40.8032 30.3146 40.4718 30.6609 40.6827 30.8717Z" fill="#893C29"/>
<path d="M28.466 40.2087C28.5664 40.299 28.6618 40.3944 28.7522 40.4948C28.8576 40.5851 29.0083 40.5851 29.0986 40.4948C29.189 40.4044 29.189 40.2388 29.0986 40.1484C28.9982 40.0581 28.9028 39.9627 28.8124 39.8623C28.7221 39.772 28.5564 39.772 28.466 39.8623C28.3756 39.9527 28.3756 40.1183 28.466 40.2087Z" fill="#893C29"/>
<path d="M26.734 42.9944C26.8696 43.1149 27.0202 43.1601 27.201 43.1601C27.3215 43.1601 27.442 43.0547 27.442 42.9191C27.442 42.7836 27.3215 42.6782 27.201 42.6782C27.1809 42.6782 27.1659 42.6782 27.1558 42.6782C27.1257 42.6782 27.0654 42.6631 27.1257 42.6782C27.1106 42.6782 27.0504 42.6481 27.1106 42.6782C27.1006 42.6682 27.0905 42.6581 27.0805 42.6481C27.1006 42.6682 27.1006 42.6682 27.0805 42.6481C26.9901 42.5577 26.8395 42.5577 26.734 42.6481C26.6437 42.7384 26.6437 42.9041 26.734 42.9944Z" fill="#893C29"/>
<path d="M29.9575 44.5904C30.4396 44.5001 30.9367 44.5001 31.4337 44.5001C31.735 44.5001 31.735 44.0182 31.4337 44.0182C30.8915 44.0182 30.3492 44.0332 29.822 44.1236C29.5207 44.1838 29.6563 44.6507 29.9575 44.5904Z" fill="#893C29"/>
<path d="M32.0962 40.4643C32.297 40.4643 32.4929 40.4643 32.6837 40.4643C32.9849 40.4643 32.9849 39.9824 32.6837 39.9824C32.4929 39.9824 32.297 39.9824 32.0962 39.9824C31.7949 39.9824 31.7949 40.4643 32.0962 40.4643Z" fill="#893C29"/>
<path d="M35.5611 40.4643C35.531 40.4543 35.5259 40.4543 35.546 40.4643C35.5761 40.4743 35.5761 40.4743 35.546 40.4643C35.5661 40.4743 35.5912 40.4844 35.6213 40.4944C35.6967 40.5396 35.772 40.5547 35.8473 40.5697C35.9829 40.5697 36.0883 40.4492 36.0883 40.3288C36.0883 40.1782 35.9829 40.0878 35.8473 40.0878C35.8875 40.0878 35.8975 40.0878 35.8774 40.0878C35.8473 40.0778 35.8473 40.0778 35.8774 40.0878C35.8473 40.0778 35.8222 40.0678 35.8021 40.0577C35.7268 40.0125 35.6515 39.9975 35.5611 39.9824C35.4406 39.9824 35.3201 40.1029 35.3201 40.2234C35.3201 40.3589 35.4406 40.4643 35.5611 40.4643Z" fill="#893C29"/>
<path d="M11.7307 46.6535C11.8663 46.7739 12.0018 46.8944 12.1675 46.9697C12.288 47.0299 12.4236 46.9998 12.4989 46.8793C12.5592 46.7739 12.5291 46.6234 12.4086 46.5631C12.3684 46.543 12.3282 46.5179 12.288 46.4878C12.268 46.4778 12.2529 46.4677 12.2429 46.4577C12.2429 46.4577 12.1826 46.4125 12.2278 46.4426C12.1675 46.4025 12.1173 46.3573 12.0772 46.3071C11.8512 46.0812 11.5198 46.4276 11.7307 46.6535Z" fill="#893C29"/>
<path d="M14.0354 44.0485C14.2011 44.2142 14.3668 44.3045 14.5927 44.3196C14.7283 44.3196 14.8338 44.1991 14.8338 44.0786C14.8338 43.9431 14.7283 43.8377 14.5927 43.8377C14.5727 43.8377 14.5576 43.8327 14.5475 43.8226C14.5676 43.8327 14.5626 43.8327 14.5325 43.8226C14.5224 43.8226 14.5124 43.8176 14.5024 43.8076C14.5475 43.8226 14.4873 43.8076 14.4873 43.7925C14.4572 43.7825 14.4572 43.7875 14.4873 43.8076C14.4772 43.7975 14.4672 43.7875 14.4572 43.7774C14.427 43.7574 14.4019 43.7373 14.3818 43.7172C14.1559 43.4913 13.8245 43.8377 14.0354 44.0485Z" fill="#893C29"/>
<path d="M16.5212 47.1055C16.7622 47.1055 16.9882 47.0753 17.2141 46.9699C17.3346 46.9248 17.3647 46.744 17.3045 46.6386C17.2292 46.5182 17.0936 46.5031 16.9731 46.5633C16.8375 46.6236 16.6718 46.6236 16.5212 46.6236C16.2049 46.6236 16.2049 47.1055 16.5212 47.1055Z" fill="#893C29"/>
<path d="M18.7354 42.7686C18.9563 42.7686 19.1823 42.7686 19.4133 42.7686C19.7145 42.7686 19.7145 42.2867 19.4133 42.2867C19.1823 42.2867 18.9563 42.2867 18.7354 42.2867C18.4191 42.2867 18.4191 42.7686 18.7354 42.7686Z" fill="#893C29"/>
<path d="M23.0285 47.3616C23.0687 47.3816 23.1088 47.4017 23.149 47.4218C23.1641 47.4218 23.2093 47.467 23.1641 47.4368C23.1842 47.4469 23.1992 47.4569 23.2093 47.467C23.2193 47.477 23.2344 47.4921 23.2545 47.5121C23.2846 47.5573 23.2243 47.467 23.2545 47.5272C23.2846 47.5674 23.3097 47.6125 23.3298 47.6627C23.39 47.7681 23.5557 47.7983 23.6612 47.738C23.7817 47.6778 23.8118 47.5272 23.7516 47.4067C23.6411 47.2059 23.4854 47.0503 23.2846 46.9399C23.1641 46.8797 23.0134 46.9098 22.9532 47.0303C22.8929 47.1357 22.9231 47.3013 23.0285 47.3616Z" fill="#893C29"/>
<path d="M22.0341 49.8763C22.3806 49.9817 22.6367 50.2377 22.8927 50.4937C23.1036 50.7196 23.4501 50.3732 23.2241 50.1473C22.9229 49.8462 22.5915 49.545 22.1697 49.4245C21.8684 49.3342 21.7328 49.801 22.0341 49.8763Z" fill="#893C29"/>
<path d="M27.0958 50.1774C27.4172 50.1774 27.7385 50.1774 28.0599 50.1774C28.3762 50.1774 28.3762 49.6956 28.0599 49.6956C27.7385 49.6956 27.4172 49.6956 27.0958 49.6956C26.7946 49.6956 26.7946 50.1774 27.0958 50.1774Z" fill="#893C29"/>
<path d="M25.559 45.3735C25.5791 45.3735 25.5942 45.3735 25.6042 45.3735C25.6343 45.3735 25.6946 45.3885 25.6193 45.3735C25.6494 45.3735 25.7096 45.4036 25.6494 45.3735C25.6594 45.3835 25.6695 45.3885 25.6795 45.3885C25.6594 45.3785 25.6594 45.3835 25.6795 45.4036C25.7699 45.4789 25.9205 45.494 26.026 45.4036C26.1164 45.2982 26.1164 45.1476 26.026 45.0572C25.8904 44.9368 25.7398 44.8916 25.559 44.8916C25.4234 44.8916 25.318 44.997 25.318 45.1325C25.318 45.2681 25.4234 45.3735 25.559 45.3735Z" fill="#893C29"/>
<path d="M45.7892 33.2814C46.0603 33.5223 46.4218 33.6126 46.7532 33.7331C47.0545 33.8235 47.175 33.3566 46.8888 33.2663C46.6327 33.1759 46.3315 33.1308 46.1206 32.935C45.8946 32.7242 45.5632 33.0705 45.7892 33.2814Z" fill="#893C29"/>
<path d="M47.4162 30.586C47.7326 30.8872 48.079 31.113 48.4858 31.2335C48.787 31.3088 48.9226 30.842 48.6213 30.7667C48.2749 30.6763 48.0037 30.4956 47.7627 30.2547C47.5368 30.0288 47.2054 30.3752 47.4162 30.586Z" fill="#893C29"/>
<path d="M46.4672 28.8239C46.7986 28.9294 47.1451 28.9294 47.4915 28.9294C47.8079 28.9294 47.8079 28.4475 47.4915 28.4475C47.1903 28.4475 46.889 28.4475 46.6028 28.3571C46.3015 28.2668 46.166 28.7336 46.4672 28.8239Z" fill="#893C29"/>
<path d="M50.2178 29.6674C50.4287 29.562 50.6999 29.562 50.9258 29.5018C51.2271 29.3964 51.0915 28.9446 50.7903 29.0349C50.5191 29.1102 50.2329 29.1253 49.9768 29.2458C49.8563 29.306 49.8262 29.4716 49.8865 29.5771C49.9618 29.6975 50.0973 29.7126 50.2178 29.6674Z" fill="#893C29"/>
<path d="M50.9858 32.3632C51.3674 32.1624 51.749 31.9667 52.1306 31.7759C52.4169 31.6404 52.1758 31.2187 51.8896 31.3693C51.508 31.5601 51.1264 31.7508 50.7448 31.9416C50.4586 32.0771 50.6996 32.4987 50.9858 32.3632Z" fill="#893C29"/>
<path d="M52.2064 31.7152C52.5228 31.7152 52.5228 31.2333 52.2064 31.2333C51.9052 31.2333 51.9052 31.7152 52.2064 31.7152Z" fill="#893C29"/>
<path d="M48.6511 35.3747C48.8469 35.3747 49.103 35.3446 49.2988 35.4349C49.4193 35.4801 49.5549 35.4651 49.6302 35.3446C49.6904 35.2392 49.6603 35.0735 49.5398 35.0133C49.2536 34.8928 48.9523 34.8928 48.6511 34.8928C48.3347 34.8928 48.3347 35.3747 48.6511 35.3747Z" fill="#893C29"/>
<path d="M48.5157 32.8897C48.6513 33.2662 48.9978 33.4168 49.3593 33.5373C49.6455 33.6276 49.7811 33.1608 49.4798 33.0704C49.3141 33.0102 49.043 32.95 48.9827 32.7542C48.9375 32.6337 48.817 32.5584 48.6814 32.5886C48.5609 32.6187 48.4706 32.7693 48.5157 32.8897Z" fill="#893C29"/>
<path d="M51.649 33.7633C51.8599 33.9741 52.116 34.1247 52.3269 34.3355C52.5528 34.5614 52.8842 34.2151 52.6734 34.0042C52.4474 33.7934 52.2064 33.6278 51.9955 33.417C51.7695 33.2061 51.4381 33.5374 51.649 33.7633Z" fill="#893C29"/>
<path d="M53.2607 32.0013C53.5821 32.0013 53.9035 32.0013 54.2248 32.0013C54.5411 32.0013 54.5411 31.5194 54.2248 31.5194C53.9035 31.5194 53.5821 31.5194 53.2607 31.5194C52.9595 31.5194 52.9595 32.0013 53.2607 32.0013Z" fill="#893C29"/>
<path d="M55.5804 30.7518C55.957 30.7518 56.3185 30.7368 56.6951 30.6464C56.9964 30.5711 56.8758 30.1193 56.5746 30.1796C56.2432 30.2699 55.9118 30.2699 55.5804 30.2699C55.2641 30.2699 55.2641 30.7518 55.5804 30.7518Z" fill="#893C29"/>
<path d="M51.9953 29.1853C52.2664 29.3058 52.5827 29.3058 52.884 29.3058C53.1853 29.3058 53.1853 28.8239 52.884 28.8239C52.6731 28.8239 52.4321 28.854 52.2363 28.7637C52.1158 28.7185 51.9802 28.7335 51.9049 28.854C51.8446 28.9594 51.8748 29.1251 51.9953 29.1853Z" fill="#893C29"/>
<path d="M55.7462 29.562C55.9722 29.6674 56.1981 29.6975 56.4392 29.6975C56.7555 29.6975 56.7555 29.2156 56.4392 29.2156C56.2885 29.2156 56.1228 29.2156 55.9873 29.1554C55.8668 29.0952 55.7312 29.1102 55.6559 29.2307C55.5956 29.3361 55.6257 29.5168 55.7462 29.562Z" fill="#893C29"/>
<path d="M43.5748 38.311C43.7706 38.2207 43.9966 38.1604 44.2225 38.1604C44.5389 38.1454 44.5389 37.6635 44.2225 37.6786C43.9062 37.6786 43.62 37.7689 43.3338 37.9044C43.0476 38.04 43.3037 38.4466 43.5748 38.311Z" fill="#893C29"/>
<path d="M44.0267 36.3386C44.318 36.3386 44.6092 36.3386 44.9004 36.3386C45.2017 36.3386 45.2017 35.8567 44.9004 35.8567C44.6092 35.8567 44.318 35.8567 44.0267 35.8567C43.7255 35.8567 43.7255 36.3386 44.0267 36.3386Z" fill="#893C29"/>
<path d="M47.8077 37.0916C48.0939 37.182 48.3651 37.2874 48.6212 37.4531C48.8923 37.6187 49.1182 37.2121 48.8622 37.0314C48.576 36.8507 48.2596 36.7302 47.9433 36.6248C47.642 36.5345 47.5215 37.0013 47.8077 37.0916Z" fill="#893C29"/>
<path d="M45.8346 39.7564C45.925 39.8066 46.0204 39.8418 46.1208 39.8618C46.161 39.8719 46.2012 39.8869 46.2413 39.907C46.2564 39.907 46.2865 39.9221 46.2715 39.9221C46.3618 39.9974 46.5125 40.0124 46.6029 39.9221C46.6932 39.8317 46.7083 39.6661 46.6029 39.5757C46.4522 39.4402 46.2564 39.4251 46.0756 39.3498C45.9551 39.2896 45.8196 39.3047 45.7442 39.4251C45.684 39.5305 45.7141 39.7113 45.8346 39.7564Z" fill="#893C29"/>
<path d="M39.4172 42.4825C39.5779 42.4825 39.7385 42.4825 39.8992 42.4825C40.2005 42.4825 40.2005 42.0006 39.8992 42.0006C39.7385 42.0006 39.5779 42.0006 39.4172 42.0006C39.1008 42.0006 39.1008 42.4825 39.4172 42.4825Z" fill="#893C29"/>
<path d="M41.3302 40.4643C41.5913 40.4643 41.8524 40.4643 42.1135 40.4643C42.4148 40.4643 42.4148 39.9824 42.1135 39.9824C41.8524 39.9824 41.5913 39.9824 41.3302 39.9824C41.0289 39.9824 41.0289 40.4643 41.3302 40.4643Z" fill="#893C29"/>
<path d="M39.7941 46.142C40.025 46.142 40.251 46.142 40.4719 46.142C40.7883 46.142 40.7883 45.6602 40.4719 45.6602C40.251 45.6602 40.025 45.6602 39.7941 45.6602C39.4928 45.6602 39.4928 46.142 39.7941 46.142Z" fill="#893C29"/>
<path d="M36.269 47.0302C36.4649 47.226 36.736 47.3163 36.9318 47.5121C37.1578 47.7229 37.5042 47.3916 37.2783 47.1657C37.0674 46.985 36.7963 46.8796 36.6004 46.6989C36.3745 46.473 36.0431 46.8194 36.269 47.0302Z" fill="#893C29"/>
<path d="M34.8683 50.7196C35.1545 50.8551 35.4558 50.8551 35.7571 50.8551C36.0734 50.8551 36.0734 50.3732 35.7571 50.3732C35.5462 50.3732 35.3051 50.3883 35.1093 50.313C34.9888 50.2527 34.8532 50.2678 34.7779 50.3883C34.7177 50.4937 34.7478 50.6744 34.8683 50.7196Z" fill="#893C29"/>
<path d="M37.7755 52.3907C38.0768 52.3907 38.3329 52.2853 38.6191 52.195C38.9053 52.0896 38.7848 51.6227 38.4835 51.7282C38.2575 51.8035 38.0316 51.9089 37.7755 51.9089C37.4742 51.9239 37.4742 52.3907 37.7755 52.3907Z" fill="#893C29"/>
<path d="M41.8125 49.1235C42.174 49.1235 42.5054 49.0934 42.8067 48.8976C43.0628 48.732 42.8218 48.3103 42.5657 48.476C42.3247 48.6266 42.0836 48.6416 41.8125 48.6416C41.5112 48.6416 41.5112 49.1235 41.8125 49.1235Z" fill="#893C29"/>
<path d="M43.7707 44.9825C44.0118 45.0578 44.2528 45.133 44.4938 45.2385C44.7649 45.374 45.0059 44.9674 44.7348 44.8319C44.4637 44.6963 44.1775 44.606 43.9063 44.5156C43.605 44.4102 43.4845 44.877 43.7707 44.9825Z" fill="#893C29"/>
<path d="M44.7802 42.1664C45.1267 42.3772 45.5485 42.3923 45.9552 42.3923C46.2715 42.3923 46.2715 41.9104 45.9552 41.9104C45.6389 41.9104 45.3075 41.9255 45.0213 41.7448C44.7501 41.5942 44.5091 42.0008 44.7802 42.1664Z" fill="#893C29"/>
<path d="M49.3292 38.9287C49.52 38.9287 49.7108 38.9287 49.9016 38.9287C50.2028 38.9287 50.2028 38.4468 49.9016 38.4468C49.7108 38.4468 49.52 38.4468 49.3292 38.4468C49.0128 38.4468 49.0128 38.9287 49.3292 38.9287Z" fill="#893C29"/>
<path d="M57.765 36.9705C58.0512 37.1061 58.3825 37.1814 58.6838 37.2868C58.9851 37.3771 59.1056 36.9103 58.8194 36.8199C58.5483 36.7296 58.262 36.6694 58.006 36.5489C57.7198 36.4284 57.4787 36.835 57.765 36.9705Z" fill="#893C29"/>
<path d="M59.452 35.1639C59.8135 35.2844 60.1901 35.3597 60.5818 35.3748C60.883 35.3748 60.883 34.8929 60.5818 34.8929C60.2353 34.8778 59.9039 34.8176 59.5876 34.7122C59.2863 34.6068 59.1658 35.0736 59.452 35.1639Z" fill="#893C29"/>
<path d="M63.2628 34.4108C63.6545 34.4108 64.0411 34.4108 64.4227 34.4108C64.739 34.4108 64.739 33.929 64.4227 33.929C64.0411 33.929 63.6545 33.929 63.2628 33.929C62.9615 33.929 62.9615 34.4108 63.2628 34.4108Z" fill="#893C29"/>
<path d="M60.5514 33.0555C60.8075 32.9652 61.0786 32.9652 61.3498 32.9652C61.651 32.9652 61.651 32.4833 61.3498 32.4833C61.0334 32.4833 60.7171 32.4983 60.4158 32.5887C60.1146 32.679 60.2501 33.1459 60.5514 33.0555Z" fill="#893C29"/>
<path d="M60.3856 31.5198C60.6768 31.5198 60.963 31.5198 61.2442 31.5198C61.5605 31.5198 61.5605 31.038 61.2442 31.038C60.963 31.038 60.6768 31.038 60.3856 31.038C60.0692 31.038 60.0692 31.5198 60.3856 31.5198Z" fill="#893C29"/>
<path d="M59.7076 30.4655C60.0089 30.4655 60.2951 30.5559 60.5512 30.7215C60.8073 30.8872 61.0483 30.4655 60.7922 30.2999C60.4759 30.1041 60.0993 29.9987 59.7076 29.9836C59.4064 29.9836 59.4064 30.4655 59.7076 30.4655Z" fill="#893C29"/>
<path d="M63.534 31.5799C63.8052 31.7305 64.0613 31.8961 64.3625 32.0015C64.6487 32.0919 64.7843 31.6401 64.483 31.5347C64.242 31.4443 64.0161 31.2937 63.775 31.1733C63.5039 31.0227 63.2629 31.4443 63.534 31.5799Z" fill="#893C29"/>
<path d="M66.8931 33.131C67.119 33.2515 67.2546 33.5075 67.3902 33.7183C67.5559 33.9743 67.9777 33.7334 67.812 33.4623C67.6312 33.1912 67.4354 32.875 67.1492 32.7094C66.878 32.5588 66.622 32.9804 66.8931 33.131Z" fill="#893C29"/>
<path d="M65.176 33.5228C65.2965 33.7487 65.5225 33.8691 65.7032 34.0498C65.9141 34.2607 66.2606 33.9294 66.0346 33.7035C65.899 33.568 65.6882 33.4475 65.5978 33.2818C65.5375 33.1614 65.3718 33.1313 65.2664 33.1915C65.1459 33.2517 65.1157 33.4023 65.176 33.5228Z" fill="#893C29"/>
<path d="M64.9349 36.459C64.9349 36.4691 64.9399 36.4791 64.9499 36.4892C64.9951 36.5343 64.9349 36.444 64.9801 36.5042C65.0001 36.5343 65.0202 36.5695 65.0403 36.6096C65.1006 36.6849 65.1458 36.7753 65.2211 36.8355C65.3115 36.9259 65.4621 36.9259 65.5525 36.8355C65.6579 36.7452 65.6429 36.5946 65.5525 36.5042C65.5424 36.4942 65.5324 36.4841 65.5224 36.4741C65.4772 36.4139 65.5525 36.5042 65.5073 36.444C65.4872 36.4139 65.4671 36.3787 65.447 36.3386C65.3868 36.2633 65.3416 36.188 65.2663 36.1127C65.1759 36.0223 65.0253 36.0223 64.9349 36.1127C64.8294 36.203 64.8445 36.3536 64.9349 36.459Z" fill="#893C29"/>
<path d="M54.1193 39.8172C53.9386 40.2238 54.27 40.51 54.5863 40.7208C54.6918 40.7961 54.8575 40.7509 54.9177 40.6304C54.993 40.5099 54.9328 40.3744 54.8273 40.3142C54.752 40.254 54.6616 40.1937 54.6014 40.1184C54.5713 40.0883 54.5562 40.0732 54.5411 40.0431C54.5512 40.0532 54.5512 40.0481 54.5411 40.0281C54.5411 40.0431 54.5411 40.0431 54.5261 40.0582C54.5863 39.9377 54.5713 39.8022 54.4507 39.7269C54.3453 39.6667 54.1645 39.6968 54.1193 39.8172Z" fill="#893C29"/>
<path d="M56.2734 38.6725C56.5144 38.9134 56.8157 39.0941 57.1471 39.2146C57.4333 39.305 57.5689 38.8532 57.2676 38.7478C57.0266 38.6574 56.8006 38.5068 56.6048 38.3261C56.3939 38.1153 56.0474 38.4466 56.2734 38.6725Z" fill="#893C29"/>
<path d="M56.3486 42.392C56.6197 42.392 56.8909 42.3769 57.1319 42.2564C57.2524 42.2113 57.2825 42.0305 57.2223 41.9251C57.1469 41.8047 57.0114 41.7896 56.8909 41.8498C56.7252 41.9251 56.5293 41.9101 56.3486 41.9101C56.0322 41.9101 56.0322 42.392 56.3486 42.392Z" fill="#893C29"/>
<path d="M59.8132 41.9101C60.1345 41.9101 60.4509 41.9101 60.7622 41.9101C61.0785 41.9101 61.0785 41.4282 60.7622 41.4282C60.4509 41.4282 60.1345 41.4282 59.8132 41.4282C59.4968 41.4282 59.4968 41.9101 59.8132 41.9101Z" fill="#893C29"/>
<path d="M59.9339 39.2149C60.2352 39.3053 60.5516 39.3053 60.8679 39.3053C61.1692 39.3203 61.1692 38.8384 60.8679 38.8384C60.5967 38.8384 60.3256 38.8234 60.0695 38.7481C59.7683 38.6577 59.6477 39.1095 59.9339 39.2149Z" fill="#893C29"/>
<path d="M61.9975 36.5942C62.1782 36.6695 62.3891 36.6996 62.5699 36.7749C62.6904 36.8352 62.8259 36.8201 62.9013 36.6996C62.9615 36.5942 62.9314 36.4135 62.8109 36.3683C62.6301 36.278 62.4192 36.2629 62.2385 36.1726C62.118 36.1123 61.9824 36.1425 61.9071 36.2629C61.8468 36.3683 61.877 36.534 61.9975 36.5942Z" fill="#893C29"/>
<path d="M62.8864 38.9287C63.0371 38.9287 63.2028 38.9287 63.3383 38.9889C63.4588 39.0491 63.5944 39.019 63.6697 38.8985C63.73 38.7931 63.6998 38.6275 63.5793 38.5823C63.3534 38.4769 63.1274 38.4468 62.8864 38.4468C62.5701 38.4468 62.5701 38.9287 62.8864 38.9287Z" fill="#893C29"/>
<path d="M49.9016 47.6778C50.0924 47.6778 50.2832 47.6778 50.474 47.6778C50.7903 47.6778 50.7903 47.1959 50.474 47.1959C50.2832 47.1959 50.0924 47.1959 49.9016 47.1959C49.5852 47.1959 49.5852 47.6778 49.9016 47.6778Z" fill="#893C29"/>
<path d="M51.7996 44.666C52.0557 44.7865 52.3268 44.7865 52.598 44.7865C52.8992 44.8015 52.8992 44.3197 52.598 44.3197C52.4172 44.3197 52.2063 44.3197 52.0406 44.2444C51.9201 44.1992 51.7845 44.2143 51.7092 44.3347C51.649 44.4401 51.6791 44.6058 51.7996 44.666Z" fill="#893C29"/>
<path d="M55.3843 46.2321C55.6756 46.2321 55.9618 46.2321 56.243 46.2321C56.5593 46.2321 56.5593 45.7502 56.243 45.7502C55.9618 45.7502 55.6756 45.7502 55.3843 45.7502C55.068 45.7502 55.068 46.2321 55.3843 46.2321Z" fill="#893C29"/>
<path d="M53.2005 49.9516C53.4415 49.7859 53.7126 49.6956 53.9988 49.5902C54.3001 49.4998 54.1645 49.033 53.8783 49.1234C53.5469 49.2438 53.2456 49.3492 52.9594 49.545C52.6883 49.7107 52.9293 50.1172 53.2005 49.9516Z" fill="#893C29"/>
<path d="M46.7534 51.7135C47.0547 51.8039 47.371 51.9093 47.6873 51.9093C48.0037 51.9244 48.0037 51.4425 47.6873 51.4274C47.4162 51.4274 47.1451 51.3371 46.889 51.2467C46.5877 51.1413 46.4672 51.6081 46.7534 51.7135Z" fill="#893C29"/>
<path d="M52.4928 52.4824C52.7238 52.4824 52.9497 52.4824 53.1707 52.4824C53.487 52.4824 53.487 52.0005 53.1707 52.0005C52.9497 52.0005 52.7238 52.0005 52.4928 52.0005C52.1915 52.0005 52.1915 52.4824 52.4928 52.4824Z" fill="#893C29"/>
<path d="M62.1781 50.9455C62.5095 50.8551 62.8258 50.7648 63.1723 50.7497C63.4886 50.7497 63.4886 50.2678 63.1723 50.2678C62.7806 50.2829 62.4191 50.3883 62.0576 50.4786C61.7563 50.5539 61.8768 51.0208 62.1781 50.9455Z" fill="#893C29"/>
<path d="M62.8864 48.5514C63.2931 48.5514 63.6998 48.5363 64.1066 48.446C64.4078 48.3707 64.2723 47.9038 63.971 47.9791C63.6095 48.0544 63.2479 48.0695 62.8864 48.0695C62.5701 48.0695 62.5701 48.5514 62.8864 48.5514Z" fill="#893C29"/>
<path d="M67.5261 47.0302C67.7521 47.2561 67.9931 47.4669 68.3094 47.5723C68.5956 47.6777 68.7161 47.2109 68.4299 47.1055C68.204 47.0302 68.0383 46.8645 67.8726 46.6989C67.6466 46.473 67.3002 46.8194 67.5261 47.0302Z" fill="#893C29"/>
<path d="M66.8935 49.093C67.0441 49.1683 67.1194 49.3189 67.1947 49.4845C67.255 49.605 67.4207 49.6351 67.5261 49.5749C67.6467 49.4996 67.6768 49.3641 67.6165 49.2436C67.496 49.0177 67.3755 48.7918 67.1496 48.6714C67.0291 48.6111 66.8784 48.6412 66.8182 48.7617C66.7428 48.8671 66.788 49.0328 66.8935 49.093Z" fill="#893C29"/>
<path d="M64.6184 44.7865C64.8895 44.7865 65.1606 44.7865 65.4167 44.666C65.5372 44.6058 65.5523 44.4401 65.492 44.3347C65.4318 44.2143 65.2811 44.1992 65.1757 44.2444C64.9949 44.3347 64.7991 44.3197 64.6184 44.3197C64.302 44.3197 64.302 44.8015 64.6184 44.7865Z" fill="#893C29"/>
<path d="M68.5649 43.4457C68.8963 43.4457 69.2277 43.4608 69.5591 43.5361C69.8603 43.6114 69.9808 43.1446 69.6796 43.0693C69.3181 42.9789 68.9415 42.9639 68.5649 42.9639C68.2486 42.9639 68.2486 43.4457 68.5649 43.4457Z" fill="#893C29"/>
<path d="M67.4053 45.4638C67.6464 45.4638 67.8723 45.4488 68.0983 45.3434C68.2188 45.2831 68.2489 45.1175 68.1886 45.0121C68.1133 44.8916 67.9778 44.8615 67.8572 44.9217C67.7217 44.982 67.556 44.982 67.4053 44.982C67.089 44.982 67.089 45.4638 67.4053 45.4638Z" fill="#893C29"/>
<path d="M72.2857 46.4583C72.4514 46.2926 72.6472 46.2023 72.8581 46.127C73.1443 46.0366 73.0238 45.5698 72.7225 45.6752C72.4363 45.7655 72.1802 45.9011 71.9543 46.1119C71.7283 46.3378 72.0748 46.6691 72.2857 46.4583Z" fill="#893C29"/>
<path d="M74.3047 44.154C74.5307 43.9432 74.7868 43.8076 75.073 43.7323C75.3742 43.642 75.2387 43.1902 74.9374 43.2655C74.5759 43.3559 74.2445 43.5366 73.9733 43.8076C73.7474 44.0184 74.0938 44.3648 74.3047 44.154Z" fill="#893C29"/>
<path d="M72.5419 42.0907C72.9938 42.2112 73.4458 42.2714 73.9127 42.1961C74.214 42.1359 74.0935 41.6691 73.7922 41.7293C73.4006 41.7896 73.039 41.7293 72.6624 41.6239C72.3612 41.5486 72.2407 42.0154 72.5419 42.0907Z" fill="#893C29"/>
<path d="M68.4901 39.1396C68.6809 39.3403 68.8717 39.5361 69.0625 39.7269C69.2884 39.9377 69.6198 39.6064 69.4089 39.3805C69.2181 39.1898 69.0223 38.999 68.8215 38.8083C68.6106 38.5824 68.2641 38.9287 68.4901 39.1396Z" fill="#893C29"/>
<path d="M67.2998 40.7356C67.4906 41.0167 67.6814 41.3028 67.8722 41.5939C68.0379 41.8499 68.4597 41.609 68.294 41.353C68.0931 41.0618 67.8973 40.7757 67.7065 40.4946C67.5408 40.2386 67.119 40.4796 67.2998 40.7356Z" fill="#893C29"/>
<path d="M71.126 39.3349C71.2616 39.7265 71.4574 40.0879 71.7587 40.389C71.9696 40.6149 72.316 40.2836 72.1051 40.0577C71.8641 39.8168 71.6984 39.5156 71.5779 39.1994C71.4875 38.9133 71.0206 39.0338 71.126 39.3349Z" fill="#893C29"/>
<path d="M70.3276 37.4832C70.7193 37.6187 71.1109 37.7693 71.5478 37.7693C71.8491 37.7844 71.8491 37.3025 71.5478 37.2874C71.1712 37.2874 70.8097 37.1368 70.4482 37.0164C70.1619 36.911 70.0264 37.3778 70.3276 37.4832Z" fill="#893C29"/>
<path d="M71.3519 35.3747C71.5326 35.3747 71.7285 35.45 71.9092 35.5253C72.1804 35.6608 72.4214 35.2542 72.1502 35.1187C71.8942 34.9982 71.623 34.8928 71.3519 34.8928C71.0355 34.8777 71.0355 35.3596 71.3519 35.3747Z" fill="#893C29"/>
<path d="M74.1993 37.6939C74.4101 38.221 74.6964 38.7028 74.9976 39.1998C75.1483 39.4558 75.57 39.2148 75.4043 38.9438C75.1332 38.5071 74.8621 38.0553 74.6662 37.5584C74.5457 37.2873 74.0788 37.4078 74.1993 37.6939Z" fill="#893C29"/>
<path d="M72.557 37.1515C72.557 37.4376 72.5871 37.7689 72.8583 37.9345C73.1294 38.0851 73.3704 37.6635 73.1143 37.5129C73.0842 37.5029 73.0742 37.5029 73.0842 37.5129C73.0641 37.4928 73.0641 37.4878 73.0842 37.4978C73.0692 37.4677 73.0541 37.4376 73.039 37.3924C73.039 37.3322 73.039 37.2268 73.039 37.1515C73.039 36.8352 72.557 36.8352 72.557 37.1515Z" fill="#893C29"/>
<path d="M73.7321 39.9527C74.0484 40.1635 74.3647 40.3593 74.6961 40.5249C74.9673 40.6755 75.2083 40.2538 74.9372 40.1183C74.6058 39.9376 74.2894 39.7418 73.9731 39.531C73.717 39.3654 73.476 39.787 73.7321 39.9527Z" fill="#893C29"/>
<path d="M76.0216 40.9011C76.0216 41.3378 76.127 41.7745 76.2174 42.2112C76.2777 42.5124 76.7446 42.3919 76.6844 42.0908C76.594 41.6992 76.5036 41.3077 76.5036 40.9011C76.4885 40.5849 76.0065 40.5849 76.0216 40.9011Z" fill="#893C29"/>
<path d="M33.9344 31.8055C34.2357 31.8055 34.5369 31.8205 34.8231 31.8958C35.1244 31.9711 35.26 31.5043 34.9587 31.429C34.6122 31.3537 34.2809 31.3236 33.9344 31.3236C33.6181 31.3236 33.6181 31.8055 33.9344 31.8055Z" fill="#893C29"/>
<path d="M37.6099 32.9952C37.866 33.2512 38.122 33.4922 38.4233 33.703C38.6794 33.8837 38.9204 33.4621 38.6643 33.2814C38.4082 33.1007 38.1823 32.8748 37.9563 32.6489C37.7304 32.4381 37.3839 32.7694 37.6099 32.9952Z" fill="#893C29"/>
<path d="M39.9596 32.5436C40.1404 32.634 40.2609 32.8297 40.4417 32.9351C40.5622 32.9954 40.7128 32.9653 40.7731 32.8448C40.8333 32.7394 40.8032 32.5737 40.6827 32.5135C40.517 32.4231 40.3965 32.2274 40.2157 32.137C40.0952 32.0768 39.9446 32.1069 39.8843 32.2123C39.809 32.3328 39.8542 32.4834 39.9596 32.5436Z" fill="#893C29"/>
<path d="M37.7755 28.2517C38.1672 28.2517 38.5538 28.2517 38.9354 28.2517C39.2367 28.2517 39.2367 27.7698 38.9354 27.7698C38.5538 27.7698 38.1672 27.7698 37.7755 27.7698C37.4742 27.7698 37.4742 28.2517 37.7755 28.2517Z" fill="#893C29"/>
<path d="M39.0106 29.2907C39.111 29.4815 39.2064 29.6722 39.2968 29.863C39.3571 29.9834 39.5228 30.0136 39.6282 29.9533C39.7487 29.878 39.7788 29.7425 39.7186 29.622C39.6182 29.4313 39.5228 29.2405 39.4324 29.0498C39.3721 28.9293 39.2064 28.8992 39.101 28.9594C38.9805 29.0347 38.9503 29.1703 39.0106 29.2907Z" fill="#893C29"/>
<path d="M28.1651 28.7341C28.4463 28.7341 28.7325 28.7341 29.0237 28.7341C29.3401 28.7341 29.3401 28.2522 29.0237 28.2522C28.7325 28.2522 28.4463 28.2522 28.1651 28.2522C27.8488 28.2522 27.8488 28.7341 28.1651 28.7341Z" fill="#893C29"/>
<path d="M24.5345 32.0916C24.8057 32.1819 25.0166 32.3928 25.2425 32.5434C25.4986 32.7241 25.7396 32.3024 25.4835 32.1368C25.2124 31.941 24.9714 31.7452 24.6701 31.6248C24.3688 31.5194 24.2483 31.9862 24.5345 32.0916Z" fill="#893C29"/>
<path d="M22.5764 32.0013C22.8074 32.0013 23.0333 32.0013 23.2543 32.0013C23.5706 32.0013 23.5706 31.5194 23.2543 31.5194C23.0333 31.5194 22.8074 31.5194 22.5764 31.5194C22.2751 31.5194 22.2751 32.0013 22.5764 32.0013Z" fill="#893C29"/>
<path d="M22.9681 29.502C23.4351 29.502 23.902 29.487 24.369 29.3966C24.6853 29.3364 24.5497 28.8846 24.2485 28.9298C23.8267 29.0202 23.3899 29.0202 22.9681 29.0202C22.6518 29.0202 22.6518 29.502 22.9681 29.502Z" fill="#893C29"/>
<path d="M49.54 30.9324C49.9166 31.0528 50.2781 31.1281 50.6698 31.1432C50.9861 31.1432 50.9861 30.6613 50.6698 30.6613C50.3233 30.6463 49.9919 30.586 49.6756 30.4806C49.3743 30.3752 49.2538 30.842 49.54 30.9324Z" fill="#893C29"/>
<path d="M48.6511 28.9295C48.9071 28.9144 49.1632 28.8391 49.4193 28.824C49.7206 28.824 49.7356 28.3422 49.4193 28.3422C49.1632 28.3572 48.9071 28.4476 48.6511 28.4476C48.3347 28.4476 48.3347 28.9295 48.6511 28.9295Z" fill="#893C29"/>
<path d="M46.5124 31.7904C46.663 32.0615 46.9492 32.182 47.2354 32.2874C47.5367 32.3777 47.6572 31.926 47.371 31.8205C47.2655 31.7904 47.1751 31.7453 47.0697 31.7001C47.0094 31.6549 46.9643 31.6248 46.9341 31.5495C46.7835 31.2784 46.3768 31.5194 46.5124 31.7904Z" fill="#893C29"/>
<path d="M57.2673 36.3231C57.6891 36.2177 58.0958 36.0972 58.4874 35.9165C58.7586 35.781 58.5176 35.3594 58.2464 35.4949C57.9 35.6605 57.5234 35.7659 57.1468 35.8563C56.8455 35.9316 56.966 36.3984 57.2673 36.3231Z" fill="#893C29"/>
<path d="M58.9096 33.9141C59.241 33.8086 59.5573 33.7333 59.9038 33.7333C60.2201 33.7333 60.2201 33.2515 59.9038 33.2515C59.5272 33.2665 59.1506 33.3418 58.774 33.4623C58.4878 33.5526 58.6083 34.0195 58.9096 33.9141Z" fill="#893C29"/>
<path d="M61.4102 34.5165C61.5307 34.8628 61.7868 35.1339 62.0429 35.3899C62.2688 35.6158 62.6002 35.2694 62.3893 35.0586C62.1935 34.8628 61.9676 34.652 61.8621 34.396C61.7567 34.1099 61.2897 34.2304 61.4102 34.5165Z" fill="#893C29"/>
<path d="M64.0463 35.179C64.2974 35.179 64.5535 35.179 64.8146 35.179C65.1158 35.179 65.1158 34.6971 64.8146 34.6971C64.5535 34.6971 64.2974 34.6971 64.0463 34.6971C63.73 34.6971 63.73 35.179 64.0463 35.179Z" fill="#893C29"/>
<path d="M62.359 32.4985C62.5097 32.89 62.826 33.1159 63.2026 33.2514C63.5038 33.3418 63.6244 32.89 63.3381 32.7846C63.1273 32.7093 62.9013 32.5888 62.826 32.378C62.7205 32.0768 62.2536 32.2124 62.359 32.4985Z" fill="#893C29"/>
<path d="M61.8621 30.6462C62.1181 30.7366 62.3742 30.842 62.6303 30.9323C62.9165 31.0377 63.0521 30.5709 62.7508 30.4806C62.4947 30.3902 62.2537 30.2697 61.9826 30.1794C61.6964 30.089 61.5608 30.5559 61.8621 30.6462Z" fill="#893C29"/>
<path d="M65.989 31.896C66.4559 32.0917 66.8777 32.3477 67.2844 32.6489C67.5405 32.8296 67.7815 32.408 67.5254 32.2273C67.0936 31.906 66.6267 31.64 66.1245 31.4291C65.8383 31.3237 65.7178 31.7755 65.989 31.896Z" fill="#893C29"/>
<path d="M70.4177 33.9595C70.5834 34.1402 70.7943 34.3058 71.0654 34.3058C71.1859 34.3209 71.3064 34.2004 71.3064 34.0649C71.3064 33.9294 71.1859 33.839 71.0654 33.824C71.0202 33.824 70.975 33.7939 70.8997 33.7487C70.8696 33.7336 70.7943 33.6583 70.7491 33.6131C70.5382 33.3873 70.1917 33.7336 70.4177 33.9595Z" fill="#893C29"/>
<path d="M5.25301 50.1621C5.43377 50.4784 5.81036 50.7193 6.11163 50.9151C6.3677 51.0958 6.60872 50.6741 6.35264 50.4934C6.11162 50.3428 5.79529 50.1621 5.65972 49.9061C5.50909 49.6351 5.10237 49.8911 5.25301 50.1621Z" fill="#C25739"/>
<path d="M4.06333 51.2919C4.0784 51.849 4.2441 52.361 4.45499 52.8881C4.57549 53.1742 5.0274 53.0537 4.92195 52.7526C4.72613 52.2857 4.56043 51.8039 4.54536 51.2919C4.5303 50.9756 4.04827 50.9756 4.06333 51.2919Z" fill="#C25739"/>
<path d="M6.20212 52.9333C6.41301 53.0537 6.56364 53.3248 6.69921 53.5206C6.86491 53.7766 7.28669 53.5356 7.10593 53.2796C6.92517 53.0086 6.74441 52.6773 6.44314 52.5267C6.17199 52.3761 5.93098 52.7827 6.20212 52.9333Z" fill="#C25739"/>
<path d="M6.57859 55.8245C7.07568 56.1106 7.63303 56.3064 8.13013 56.5925C8.40127 56.7431 8.64229 56.3365 8.37114 56.1708C7.87405 55.8847 7.33177 55.689 6.83467 55.4028C6.56353 55.2523 6.32251 55.6588 6.57859 55.8245Z" fill="#C25739"/>
<path d="M10.9475 57.5862C11.4194 57.5862 11.8965 57.5862 12.3785 57.5862C12.6948 57.5862 12.6948 57.1044 12.3785 57.1044C11.8965 57.1044 11.4194 57.1044 10.9475 57.1044C10.6311 57.1044 10.6311 57.5862 10.9475 57.5862Z" fill="#C25739"/>
<path d="M9.21479 55.373C9.66669 55.373 10.1337 55.373 10.5856 55.4633C10.8868 55.5085 11.0224 55.0568 10.7211 54.9965C10.209 54.9062 9.71188 54.8911 9.21479 54.8911C8.89846 54.8911 8.89846 55.373 9.21479 55.373Z" fill="#C25739"/>
<path d="M8.79334 52.8578C9.16993 52.7675 9.56158 52.6621 9.90804 52.4512C10.1641 52.2856 9.9231 51.879 9.66702 52.0447C9.36575 52.2254 9.00423 52.3157 8.65777 52.4061C8.3565 52.4814 8.49207 52.9331 8.79334 52.8578Z" fill="#C25739"/>
<path d="M12.3633 53.7013C12.7851 53.9272 13.1617 54.2434 13.463 54.635C13.6588 54.8759 13.9902 54.5296 13.8094 54.2886C13.4931 53.882 13.0563 53.5206 12.6043 53.2947C12.3332 53.1441 12.0771 53.5658 12.3633 53.7013Z" fill="#C25739"/>
<path d="M12.2127 55.4031C12.4687 55.6591 12.7248 55.9 13.0261 56.1108C13.2822 56.2915 13.5232 55.8699 13.2671 55.6892C13.011 55.5085 12.7851 55.2826 12.5591 55.0567C12.3332 54.8459 11.9867 55.1772 12.2127 55.4031Z" fill="#C25739"/>
<path d="M13.8847 60.4624C14.3065 60.357 14.7132 60.2365 15.1049 60.0558C15.376 59.9203 15.135 59.4986 14.8639 59.6342C14.5023 59.7998 14.1408 59.9052 13.7642 59.9956C13.463 60.0709 13.5835 60.5377 13.8847 60.4624Z" fill="#C25739"/>
<path d="M11.6101 59.1226C11.8009 59.1226 11.9967 59.1226 12.1976 59.1226C12.4989 59.1226 12.4989 58.6407 12.1976 58.6407C11.9967 58.6407 11.8009 58.6407 11.6101 58.6407C11.3088 58.6407 11.3088 59.1226 11.6101 59.1226Z" fill="#C25739"/>
<path d="M15.4362 58.1587C15.8128 58.0683 16.2195 58.0683 16.6111 58.0683C16.9274 58.0683 16.9274 57.5864 16.6111 57.5864C16.1743 57.5864 15.7374 57.5864 15.3006 57.6918C14.9993 57.7521 15.1349 58.2189 15.4362 58.1587Z" fill="#C25739"/>
<path d="M15.6923 55.8397C16.099 55.9451 16.5208 56.0505 16.9426 56.1258C17.2439 56.2011 17.3644 55.7343 17.0631 55.6741C16.6413 55.5837 16.2346 55.4783 15.8128 55.3879C15.5116 55.3127 15.3911 55.7644 15.6923 55.8397Z" fill="#C25739"/>
<path d="M18.1778 55.5838C18.3736 55.7645 18.6749 55.7494 18.931 55.7494C19.2322 55.7494 19.2322 55.2826 18.931 55.2826C18.8406 55.2826 18.7502 55.2776 18.6598 55.2675C18.6297 55.2675 18.5996 55.2625 18.5694 55.2525C18.5393 55.2525 18.4941 55.2374 18.5243 55.2525C18.4188 55.1621 18.2682 55.1471 18.1778 55.2525C18.0874 55.3428 18.0723 55.5085 18.1778 55.5838Z" fill="#C25739"/>
<path d="M22.1995 58.0683C22.5611 58.0683 22.9226 58.0683 23.2841 58.1587C23.5854 58.2189 23.7209 57.7521 23.4197 57.6918C23.013 57.6015 22.6062 57.5864 22.1995 57.5864C21.8832 57.5864 21.8832 58.0683 22.1995 58.0683Z" fill="#C25739"/>
<path d="M18.9311 59.8001C19.2826 59.8001 19.6341 59.8001 19.9855 59.8001C20.2868 59.8001 20.2868 59.3182 19.9855 59.3182C19.6341 59.3182 19.2826 59.3182 18.9311 59.3182C18.6148 59.3182 18.6148 59.8001 18.9311 59.8001Z" fill="#C25739"/>
<path d="M18.2229 61.2003C18.6296 61.5015 19.0363 61.7876 19.5334 61.9081C19.8347 61.9683 19.9702 61.5015 19.669 61.4413C19.202 61.3359 18.8405 61.0648 18.4639 60.7938C18.2229 60.598 17.9819 61.0196 18.2229 61.2003Z" fill="#C25739"/>
<path d="M23.2841 62.2848C23.6607 62.3751 24.0524 62.3902 24.444 62.4806C24.7453 62.5559 24.8658 62.089 24.5645 62.0137C24.1879 61.9234 23.7963 61.9083 23.4197 61.818C23.1184 61.7577 22.9828 62.2246 23.2841 62.2848Z" fill="#C25739"/>
<path d="M25.2728 59.9806C25.5891 59.9806 25.9054 59.8902 26.2368 59.8902C26.5381 59.8902 26.5532 59.4083 26.2368 59.4083C25.9054 59.4083 25.5891 59.4987 25.2728 59.5137C24.9564 59.5137 24.9564 59.9956 25.2728 59.9806Z" fill="#C25739"/>
<path d="M28.0592 58.3544C28.3755 58.3544 28.6919 58.3393 28.9931 58.249C29.2944 58.1586 29.1588 57.6918 28.8576 57.7822C28.6015 57.8725 28.3303 57.8725 28.0592 57.8725C27.7579 57.8725 27.7579 58.3544 28.0592 58.3544Z" fill="#C25739"/>
<path d="M23.7362 56.4268C24.0575 56.4268 24.3789 56.4268 24.7002 56.4268C25.0015 56.4268 25.0015 55.9449 24.7002 55.9449C24.3789 55.9449 24.0575 55.9449 23.7362 55.9449C23.4198 55.9449 23.4198 56.4268 23.7362 56.4268Z" fill="#C25739"/>
<path d="M33.7083 61.7875C34.0699 61.9532 34.567 62.0134 34.9586 61.908C35.2599 61.8177 35.1243 61.3508 34.823 61.4412C34.567 61.5165 34.2054 61.4713 33.9494 61.3659C33.6782 61.2454 33.4372 61.652 33.7083 61.7875Z" fill="#C25739"/>
<path d="M28.903 62.7361C29.3398 63.0524 29.8821 63.2331 30.4093 63.3385C30.7106 63.4138 30.8311 62.947 30.5298 62.8867C30.0478 62.7813 29.5507 62.6157 29.144 62.3296C28.8879 62.1488 28.6469 62.5705 28.903 62.7361Z" fill="#C25739"/>
<path d="M30.6655 60.4629C31.0722 60.4629 31.4036 60.2822 31.75 60.0563C32.0061 59.8756 31.7651 59.469 31.494 59.6347C31.2379 59.8154 30.9818 59.981 30.6655 59.981C30.3491 59.9961 30.3491 60.478 30.6655 60.4629Z" fill="#C25739"/>
<path d="M34.1297 58.2642C34.6117 58.2491 35.0787 58.1738 35.5607 58.1588C35.8771 58.1588 35.8771 57.6769 35.5607 57.6769C35.0787 57.6919 34.6117 57.7672 34.1297 57.7823C33.8134 57.7823 33.8134 58.2642 34.1297 58.2642Z" fill="#C25739"/>
<path d="M39.7787 58.4147C40.095 58.6255 40.4866 58.731 40.8331 58.8966C41.1042 59.0321 41.3603 58.6105 41.0741 58.475C40.7277 58.3093 40.3511 58.2039 40.0197 58.0081C39.7485 57.8274 39.5075 58.2491 39.7787 58.4147Z" fill="#C25739"/>
<path d="M38.6791 60.749C38.8749 60.8092 39.1009 60.8243 39.2967 60.9146C39.4172 60.9749 39.5528 60.9448 39.6281 60.8243C39.6883 60.7189 39.6582 60.5532 39.5377 60.5081C39.2967 60.3876 39.0406 60.3575 38.7996 60.2822C38.5134 60.1918 38.3778 60.6586 38.6791 60.749Z" fill="#C25739"/>
<path d="M38.5736 63.6999C38.7694 63.6247 39.0104 63.6397 39.2213 63.6397C39.5376 63.6397 39.5376 63.1578 39.2213 63.1578C38.92 63.1578 38.6188 63.1578 38.3325 63.2934C38.212 63.3385 38.1819 63.5192 38.2422 63.6247C38.3175 63.7451 38.453 63.7602 38.5736 63.6999Z" fill="#C25739"/>
<path d="M46.4368 60.5677C46.8285 60.5527 47.19 60.4623 47.5515 60.3569C47.8528 60.2816 47.7323 59.8299 47.431 59.9052C47.0996 59.9805 46.7833 60.0708 46.4368 60.0859C46.1205 60.0859 46.1205 60.5677 46.4368 60.5677Z" fill="#C25739"/>
<path d="M1.95412 46.8343C2.07462 47.1506 2.25539 47.4517 2.34577 47.7981C2.42108 48.0842 2.88805 47.9637 2.79767 47.6625C2.70729 47.3313 2.52653 47.0301 2.42108 46.6988C2.31564 46.4127 1.84867 46.5331 1.95412 46.8343Z" fill="#C25739"/>
<path d="M9.10974 54.3188C9.63696 54.3037 10.1341 54.1983 10.6161 54.0176C10.9023 53.9122 10.7818 53.4454 10.4956 53.5508C10.0437 53.7315 9.59177 53.8218 9.10974 53.8369C8.80847 53.8369 8.80847 54.3188 9.10974 54.3188Z" fill="#C25739"/>
<path d="M8.02525 55.0113C8.2512 54.7703 8.28133 54.4089 8.19094 54.1077C8.10056 53.8066 7.6336 53.9421 7.72398 54.2282C7.76917 54.3637 7.76917 54.5746 7.69385 54.68C7.48296 54.9059 7.82942 55.2371 8.02525 55.0113Z" fill="#C25739"/>
<path d="M9.20014 57.1796C9.3809 57.5861 9.48634 58.0228 9.68217 58.4294C9.80268 58.7005 10.2245 58.4595 10.0889 58.1885C9.89306 57.7819 9.80268 57.3452 9.60685 56.9386C9.47128 56.6525 9.06457 56.8934 9.20014 57.1796Z" fill="#C25739"/>
<path d="M13.3424 58.9268C13.7341 58.9268 14.1207 58.9268 14.5023 58.9268C14.8036 58.9268 14.8036 58.4449 14.5023 58.4449C14.1207 58.4449 13.7341 58.4449 13.3424 58.4449C13.0411 58.4449 13.0411 58.9268 13.3424 58.9268Z" fill="#C25739"/>
<path d="M13.5384 57.4809C14.0204 57.4809 14.5025 57.3605 14.864 57.0292C15.0899 56.8184 14.7435 56.4871 14.5175 56.6979C14.2614 56.9388 13.8849 56.9991 13.5384 57.0141C13.2221 57.0141 13.2221 57.496 13.5384 57.4809Z" fill="#C25739"/>
<path d="M14.7282 55.7793C14.8186 55.4329 14.8939 55.0715 15.0897 54.7703C15.2554 54.5143 14.8487 54.2734 14.683 54.5294C14.4571 54.8607 14.3667 55.2673 14.2612 55.6438C14.1859 55.9449 14.6529 56.0805 14.7282 55.7793Z" fill="#C25739"/>
<path d="M16.0085 57.1951C16.3549 57.0746 16.7617 57.0144 17.1232 57.0897C17.4244 57.165 17.56 56.6981 17.2587 56.6379C16.8068 56.5325 16.3098 56.5927 15.8729 56.7283C15.5867 56.8186 15.7072 57.2854 16.0085 57.1951Z" fill="#C25739"/>
<path d="M16.4454 59.9658C16.6714 59.6647 16.9877 59.4087 17.3492 59.3033C17.6505 59.228 17.53 58.7611 17.2287 58.8364C16.7316 58.987 16.34 59.3183 16.0237 59.7249C15.8278 59.9658 16.2496 60.2068 16.4454 59.9658Z" fill="#C25739"/>
<path d="M16.5207 61.2307C16.837 61.2307 16.837 60.7639 16.5207 60.7639C16.2044 60.7639 16.2044 61.2307 16.5207 61.2307Z" fill="#C25739"/>
<path d="M16.6115 61.2307C16.8023 61.2307 16.9981 61.2307 17.1989 61.2307C17.5002 61.2307 17.5002 60.7639 17.1989 60.7639C16.9981 60.7639 16.8023 60.7639 16.6115 60.7639C16.3102 60.7639 16.3102 61.2307 16.6115 61.2307Z" fill="#C25739"/>
<path d="M17.9669 57.963C18.3133 57.978 18.6899 58.0383 18.9912 58.219C19.2623 58.3846 19.5033 57.978 19.2322 57.8124C18.8556 57.5714 18.4037 57.4961 17.9669 57.4811C17.6505 57.4811 17.6505 57.963 17.9669 57.963Z" fill="#C25739"/>
<path d="M20.0757 56.713C20.4673 56.713 20.854 56.713 21.2356 56.713C21.5368 56.713 21.5368 56.2311 21.2356 56.2311C20.854 56.2311 20.4673 56.2311 20.0757 56.2311C19.7744 56.2311 19.7744 56.713 20.0757 56.713Z" fill="#C25739"/>
<path d="M21.4315 59.4083C21.7779 59.4233 22.1244 59.4986 22.4859 59.5137C22.7872 59.5137 22.7872 59.0318 22.4859 59.0318C22.1244 59.0167 21.7779 58.9415 21.4315 58.9264C21.1151 58.9264 21.1151 59.4083 21.4315 59.4083Z" fill="#C25739"/>
<path d="M21.0699 61.3212C21.326 61.4115 21.552 61.532 21.7779 61.6826C22.0491 61.8633 22.2901 61.4416 22.034 61.276C21.7629 61.0953 21.4917 60.9598 21.2055 60.8694C20.9042 60.764 20.7837 61.2308 21.0699 61.3212Z" fill="#C25739"/>
<path d="M25.363 61.3359C25.6191 61.3359 25.8451 61.3058 26.071 61.2004C26.1915 61.1552 26.2217 60.9745 26.1614 60.8691C26.0861 60.7486 25.9505 60.7336 25.83 60.7938C25.6794 60.854 25.5287 60.854 25.363 60.854C25.0618 60.854 25.0618 61.3359 25.363 61.3359Z" fill="#C25739"/>
<path d="M25.7544 58.0684C25.7143 58.0583 25.7042 58.0583 25.7243 58.0684C25.7143 58.0583 25.6992 58.0483 25.6791 58.0382C25.6992 58.0583 25.6942 58.0533 25.6641 58.0232C25.6741 58.0332 25.6841 58.0483 25.6942 58.0684C25.7695 58.1286 25.8448 58.1587 25.9503 58.1587C26.0708 58.1738 26.1913 58.0533 26.1913 57.9178C26.1913 57.7822 26.0708 57.6919 25.9503 57.6768C25.9904 57.6869 26.0005 57.6869 25.9804 57.6768C25.9904 57.6869 26.0005 57.6969 26.0105 57.707C25.9904 57.6869 26.0005 57.6919 26.0406 57.722C26.0306 57.712 26.0155 57.6969 25.9955 57.6768C25.9352 57.6166 25.8448 57.5865 25.7544 57.5865C25.6189 57.5714 25.5134 57.6919 25.5134 57.8274C25.5134 57.963 25.6189 58.0533 25.7544 58.0684Z" fill="#C25739"/>
<path d="M23.0281 60.7185C23.3143 60.8541 23.6156 60.9444 23.9319 60.9444C24.2332 60.9595 24.2332 60.4776 23.9319 60.4625C23.7059 60.4625 23.48 60.4023 23.2842 60.3119C22.998 60.1764 22.7569 60.583 23.0281 60.7185Z" fill="#C25739"/>
<path d="M53.8481 56.8183C54.1293 56.8183 54.4155 56.8183 54.7067 56.8183C55.023 56.8183 55.023 56.3364 54.7067 56.3364C54.4155 56.3364 54.1293 56.3364 53.8481 56.3364C53.5318 56.3364 53.5318 56.8183 53.8481 56.8183Z" fill="#C25739"/>
<path d="M55.9417 61.6523C56.1325 61.4615 56.3233 61.2658 56.5141 61.065C56.74 60.8542 56.3936 60.5078 56.1676 60.7337C55.9768 60.9244 55.786 61.1152 55.5952 61.3059C55.3843 61.5318 55.7157 61.8631 55.9417 61.6523Z" fill="#C25739"/>
<path d="M50.8203 62.6311C50.8203 62.621 50.8203 62.606 50.8203 62.5859C50.8053 62.6612 50.8203 62.6009 50.8203 62.5859C50.8053 62.616 50.8354 62.5256 50.8203 62.5859C50.7902 62.616 50.8505 62.5256 50.8203 62.5859C50.8505 62.5558 50.7601 62.616 50.8053 62.6009C50.7601 62.6009 50.8505 62.5558 50.8053 62.6009C50.8153 62.5909 50.8304 62.5859 50.8505 62.5859C50.7751 62.6009 50.8354 62.5859 50.8655 62.5859C50.986 62.5859 51.1065 62.4805 51.1065 62.3449C51.1065 62.2094 50.986 62.104 50.8655 62.104C50.7149 62.104 50.5793 62.1492 50.4739 62.2395C50.3684 62.3449 50.3383 62.4955 50.3383 62.6311C50.3232 62.7666 50.4438 62.872 50.5793 62.872C50.6998 62.872 50.8053 62.7666 50.8203 62.6311Z" fill="#C25739"/>
<path d="M62.8258 56.6075C63.0668 56.6979 63.3078 56.7732 63.5338 56.8786C63.8049 57.0141 64.061 56.5925 63.7748 56.457C63.5037 56.3365 63.2325 56.2461 62.9463 56.1558C62.6601 56.0504 62.5245 56.5172 62.8258 56.6075Z" fill="#C25739"/>
<path d="M65.5523 54.499C65.8235 54.4086 66.1247 54.3935 66.4109 54.3032C66.7122 54.2128 66.5766 53.746 66.2904 53.8364C66.0042 53.9267 65.7029 53.9418 65.4167 54.0321C65.1305 54.1225 65.251 54.5893 65.5523 54.499Z" fill="#C25739"/>
<path d="M7.16616 57.737C7.45236 57.9328 7.73857 58.1285 7.97959 58.3845C8.20554 58.5953 8.53693 58.249 8.32605 58.0382C8.03984 57.7671 7.72351 57.5412 7.40717 57.3304C7.15109 57.1497 6.91008 57.5713 7.16616 57.737Z" fill="#C25739"/>
<path d="M5.0877 55.3424C5.38897 54.9508 5.75049 54.5894 6.05176 54.1979C6.23252 53.9419 5.82581 53.716 5.62998 53.957C5.32871 54.3485 4.98225 54.7099 4.66592 55.1014C4.48516 55.3574 4.90694 55.5984 5.0877 55.3424Z" fill="#C25739"/>
<path d="M7.28669 51.6233C7.61808 51.6233 7.8591 51.8191 8.06999 52.0299C8.29594 52.2558 8.6424 51.9095 8.41645 51.6986C8.10012 51.3824 7.73859 51.1565 7.28669 51.1415C6.97036 51.1264 6.97036 51.6083 7.28669 51.6233Z" fill="#C25739"/>
<path d="M10.6459 56.713C10.9371 56.713 11.2283 56.713 11.5196 56.713C11.8208 56.713 11.8208 56.2311 11.5196 56.2311C11.2283 56.2311 10.9371 56.2311 10.6459 56.2311C10.3446 56.2311 10.3446 56.713 10.6459 56.713Z" fill="#C25739"/>
<path d="M11.5498 54.7098C11.6402 54.3333 11.6553 53.9418 11.7457 53.5653C11.821 53.2642 11.354 53.1286 11.2787 53.4298C11.2034 53.8063 11.1883 54.2129 11.0979 54.5893C11.0226 54.8905 11.4896 55.011 11.5498 54.7098Z" fill="#C25739"/>
<path d="M15.8429 54.8909C16.1442 54.8909 16.4454 54.8909 16.7467 54.9813C17.048 55.0716 17.1685 54.6048 16.8672 54.5145C16.5358 54.4091 16.1894 54.4091 15.8429 54.4091C15.5416 54.4091 15.5416 54.8909 15.8429 54.8909Z" fill="#C25739"/>
<path d="M12.0018 60.0865C12.3834 60.0865 12.765 60.0865 13.1466 60.0865C13.4629 60.0865 13.4629 59.6046 13.1466 59.6046C12.765 59.6046 12.3834 59.6046 12.0018 59.6046C11.6854 59.6046 11.6854 60.0865 12.0018 60.0865Z" fill="#C25739"/>
<path d="M39.1913 22.3034C36.3593 21.7763 -1.41986 37.4976 0.0412977 40.1932C1.53258 42.9037 5.64491 42.196 10.646 44.515C17.9367 47.8882 28.5565 55.1766 36.4648 59.4081C40.8784 61.7723 40.3662 65.3262 44.1471 65.4166C46.949 65.4919 47.0845 61.9681 51.4077 59.1672C59.2558 54.1074 68.0529 48.1894 74.2892 45.2529C76.6089 44.1687 81.2485 43.5211 81.5046 41.5936C81.8209 39.0788 45.5029 23.493 39.1913 22.3034Z" fill="#FFBE00"/>
<path opacity="0.5" d="M45.9846 53.1137C43.7402 51.1861 40.0948 50.4934 37.5039 49.108C33.6929 47.0902 29.7462 45.2831 25.8147 43.4008C24.3234 42.6779 22.9827 41.8949 21.5818 41.0667C20.4973 40.4191 18.5993 39.7867 17.831 38.838C16.2644 36.8954 18.9156 34.9377 20.5274 33.7632C23.3443 31.7302 22.335 30.0286 18.9307 31.2182C17.7708 31.6399 15.3004 32.438 15.0292 32.9952L12.8902 34.0041C10.8265 34.9829 9.01889 36.1575 7.0757 37.3471C6.23215 37.8591 4.54504 38.3109 5.3886 39.3349C5.82544 39.8469 8.62724 40.3438 9.38042 40.5547C12.8149 41.5335 15.3154 42.4069 18.4336 44.1537C20.4822 45.2982 22.9074 45.8704 25.0766 46.8492C27.1403 47.7829 29.0081 49.0327 30.9362 50.2073C34.3406 52.2854 37.6395 54.2581 40.1852 57.1645C41.074 58.1885 41.8723 59.2125 42.7008 60.2816C43.9963 61.9381 44.2523 61.7122 45.352 60.1009C46.8583 57.8722 48.6208 55.3725 45.9846 53.1137Z" fill="#FFD84D"/>
<path opacity="0.5" d="M70.6437 37.0309C67.7515 36.2478 64.9949 35.5099 62.2382 34.1998C60.9428 33.5824 59.6172 33.0704 58.3217 32.438C57.2221 31.926 56.3785 30.8869 55.2638 30.5104L54.7969 30.0286C53.4261 28.9293 52.7633 30.1641 53.4412 31.2935C53.9081 32.0615 55.0379 32.8144 55.8061 33.3114C57.7493 34.5462 59.8733 35.2238 61.6357 36.7899C64.4526 39.2897 63.2776 40.5847 62.7203 43.4911C62.0123 47.1353 66.2301 45.2228 68.2636 44.2591C69.6947 43.5965 70.719 43.3405 72.15 43.0393C73.2496 42.8134 74.8614 42.4671 75.3435 41.3527C76.2322 39.3048 72.3308 37.4826 70.6437 37.0309Z" fill="#FFD84D"/>
<path d="M14.9842 33.8834L14.5022 34.1395C12.9657 34.9074 11.5196 35.7959 10.0434 36.6091C9.32034 37.0157 5.84068 38.6721 8.49185 38.898C10.2543 39.0486 11.8962 37.2265 13.0711 36.338C14.2009 35.4797 15.9031 34.8472 16.7165 33.7479C16.2797 33.2811 15.3759 33.4467 14.9842 33.8834Z" fill="#F9ED98"/>
<path d="M81.6702 41.6388C81.7003 41.4581 81.5045 41.187 81.1279 40.8407C80.8568 41.0515 81.0827 41.7593 80.7815 41.9701C78.4165 43.5362 75.916 43.8675 73.1744 44.9819C66.5615 47.6924 60.5813 51.5625 54.6614 55.4176C52.3266 56.9385 50.4888 58.3841 48.3498 60.2213C47.1899 61.2152 46.2259 63.6095 43.3939 63.8655C43.0173 63.8956 41.2248 63.7601 40.3812 62.8716C41.4357 64.2721 42.2039 65.4166 44.3279 65.4768C47.1146 65.5521 47.2502 62.0284 51.5885 59.2274C59.4365 54.1677 68.2185 48.2496 74.4699 45.3131C76.7746 44.2289 81.4292 43.5814 81.6702 41.6388Z" fill="#EF9C07"/>
<path d="M30.2885 29.1701C31.2526 29.4863 38.6337 25.3602 45.3972 29.3508C47.5964 30.6308 49.0877 35.5098 48.5454 39.2745C48.0031 43.0392 43.936 47.6321 37.6696 49.8307C25.8749 53.9568 16.4602 51.201 11.896 49.3337C4.72578 46.4123 0.809279 36.6693 3.14412 30.3597C3.6864 28.899 5.29819 27.619 6.5334 26.3993C14.7279 18.3278 22.4103 21.987 25.1519 23.1315C29.1889 24.8332 28.9177 28.7183 30.2885 29.1701Z" fill="#E22727"/>
<path d="M30.7105 25.9323C31.6896 26.2485 37.5493 24.05 44.3279 28.0405C48.7264 30.6156 50.6395 42.2108 38.1067 46.5929C26.312 50.7341 16.8822 47.9632 12.318 46.111C3.49082 42.512 -0.365425 31.5191 6.23238 25.0137C14.4269 16.9422 22.8474 18.7643 25.5739 19.9088C29.6259 21.6104 29.3397 25.4956 30.7105 25.9323Z" fill="#FF6A5F"/>
<path opacity="0.6" d="M29.2793 27.8602C30.1379 28.1463 36.1483 25.5411 42.1586 29.0498C46.045 31.3237 47.7471 41.5185 36.6454 45.3735C26.1913 48.9876 17.8311 46.5632 13.779 44.9218C5.946 41.7594 2.90318 32.2875 8.08501 25.9929C10.6006 22.936 13.3271 21.6861 15.7373 20.9482C20.0605 19.6381 23.9017 20.4513 25.5586 21.4753C28.8575 23.5082 28.0592 27.4687 29.2793 27.8602Z" fill="#F9453D"/>
<path d="M30.4242 31.1727C29.0535 31.9708 16.3399 40.1929 17.3943 41.6235C18.4638 43.054 27.4417 46.1562 37.1124 41.4126C42.7612 38.6569 43.2583 33.7327 40.6825 32.0913C38.0915 30.4649 32.0059 30.2541 30.4242 31.1727Z" fill="#FF6A5F"/>
<path d="M24.1427 29.8478C22.7569 33.3866 13.8996 40.5546 12.7849 39.9974C11.6702 39.4402 9.29013 35.6303 9.81736 30.3899C10.3898 24.6676 17.2587 22.213 20.3919 23.0111C23.5251 23.8092 25.152 27.2727 24.1427 29.8478Z" fill="#FF6A5F"/>
<g opacity="0.5">
<path d="M37.263 33.161C37.022 32.4382 39.628 32.0467 39.7636 32.6189L39.6883 32.6038C39.3569 32.8749 37.5944 34.185 37.263 33.161Z" fill="#F2B981"/>
<path d="M38.589 35.3138C38.0166 35.118 37.5497 34.4855 38.4535 34.4253L38.3932 34.4103C38.8903 34.2597 39.8544 34.2446 40.3665 34.3801C41.1197 34.5759 41.436 35.0879 40.5623 35.2987C39.9899 35.4342 39.1765 35.5095 38.589 35.3138Z" fill="#F2B981"/>
<path d="M36.9167 37.3165C36.4196 36.4882 37.0824 36.2925 37.7753 36.3226C38.2422 36.4882 38.9954 36.7894 39.3117 37.2111C39.8088 37.8586 39.4021 38.4459 38.6188 38.3706C38.1067 38.3254 37.1878 37.7833 36.9167 37.3165Z" fill="#F2B981"/>
<path d="M35.8775 38.3558L35.7118 38.145C36.4348 38.3408 38.0617 40.1629 36.5403 40.2532C35.998 40.2984 35.0038 39.6961 34.8984 39.169C34.7929 38.642 35.3955 38.0246 35.8775 38.3558Z" fill="#F2B981"/>
<path d="M33.0453 40.2682L33.2411 40.0875C34.1148 40.0724 35.1542 41.8945 34.0395 42.1505C33.3165 42.3011 32.2018 40.7501 33.0453 40.2682Z" fill="#F2B981"/>
<path d="M31.1625 41.0965L31.1022 40.9158C32.1416 40.6297 32.3525 43.7167 30.7407 42.8734C29.8068 42.3916 29.9725 39.8466 31.1625 41.0965Z" fill="#F2B981"/>
<path d="M27.7131 41.3526L28.165 41.2622C29.2044 41.3375 29.2947 43.5361 27.9842 43.3704C26.9147 43.2349 27.0804 41.6086 27.7131 41.3526Z" fill="#F2B981"/>
<path d="M25.4837 41.4278L25.7397 41.5031C26.3272 41.7893 25.6493 43.6415 24.8058 43.2198C24.0074 42.8283 24.7757 41.0213 25.4837 41.4278Z" fill="#F2B981"/>
<path d="M23.5253 41.1268L23.6609 41.1419C24.4442 41.7743 23.465 43.7019 22.5311 43.2049C21.8081 42.8285 22.8023 40.9461 23.5253 41.1268Z" fill="#F2B981"/>
<path d="M21.2659 40.6447L21.4466 40.7802C21.5069 40.7651 21.4617 40.6597 21.5822 40.7199C21.9889 41.3825 20.5277 42.7981 19.9855 42.3764C19.1871 41.759 20.8441 40.6898 21.2659 40.6447Z" fill="#F2B981"/>
<path d="M36.7059 31.3835H36.7812C37.1126 32.0913 35.5008 33.3562 35.1393 32.5581C34.8983 32.0461 36.269 31.1275 36.7059 31.3835Z" fill="#F2B981"/>
<path d="M34.2505 31.0676L34.371 31.1429C34.2806 31.5344 33.0303 32.95 32.5935 32.4079C31.9457 31.5796 33.9793 31.1429 34.2505 31.0676Z" fill="#F2B981"/>
<path d="M23.1639 28.3116C23.8719 27.7695 23.9623 28.4622 23.8418 28.5074C23.6911 28.9893 23.1489 29.5163 22.6518 29.5615C22.3204 29.1097 22.8024 28.5827 23.1639 28.3116Z" fill="#F2B981"/>
<path d="M21.8078 27.3482C21.6271 26.7458 22.8924 25.27 23.269 26.2338V26.1736C23.6004 26.8663 22.079 28.2366 21.8078 27.3482Z" fill="#F2B981"/>
<path d="M21.2204 26.3691C20.5425 26.2637 21.0246 23.794 21.8983 24.3362L22.0489 24.0952C22.4707 24.4717 21.8832 26.4896 21.2204 26.3691Z" fill="#F2B981"/>
<path d="M19.5337 23.4627L19.7295 23.4175C20.076 23.4928 20.3471 25.6914 19.609 25.6612C19.0065 25.6462 18.6449 23.5831 19.5337 23.4627Z" fill="#F2B981"/>
<path d="M17.4399 23.5381L17.5754 23.3574C18.0876 23.1465 18.9161 25.0439 18.419 25.4204C17.6658 26.0077 16.7168 23.9296 17.4399 23.5381Z" fill="#F2B981"/>
<path d="M16.7015 25.3153L16.822 25.4508C17.2889 26.008 16.355 25.9628 16.0387 25.8273C15.5868 25.6466 15.3156 25.24 15.2554 24.8033C15.0746 23.5534 16.6111 24.7732 16.7015 25.3153Z" fill="#F2B981"/>
<path d="M13.2071 25.5257C14.0507 25.2396 14.5327 25.9624 15.0599 26.2334L15.1202 26.4292C16.024 27.1068 14.7587 27.2123 14.2013 26.881C13.7795 26.64 13.1469 26.0377 13.2071 25.5257Z" fill="#F2B981"/>
<path d="M13.8995 27.92L13.8242 27.9803C13.5982 28.4471 11.5646 27.9351 11.7002 27.2424C11.881 26.369 13.6585 27.4683 13.8995 27.92Z" fill="#F2B981"/>
<path d="M13.1165 29.2C12.8755 29.5463 10.6762 29.5463 10.7364 28.7633C10.7816 28.0555 12.8905 28.8085 13.1918 29.0042L13.1165 29.2Z" fill="#F2B981"/>
<path d="M12.8902 30.2693C12.9656 30.3596 12.8451 30.2693 12.8149 30.2994L12.9354 30.4349C12.5438 30.9921 10.8416 31.4589 10.5102 30.6156C10.0583 29.5314 12.4233 30.0133 12.8902 30.2693Z" fill="#F2B981"/>
<path d="M12.9054 32.0615L12.8301 32.2422C12.6644 33.0102 10.4199 33.4921 10.3296 32.4831C10.2542 31.5194 12.559 31.8507 12.9054 32.0615Z" fill="#F2B981"/>
<path d="M13.056 33.9437L12.9807 34.1847C12.6192 34.6364 10.9321 35.3743 10.7965 34.5762C10.6459 33.7179 12.6192 33.5522 13.056 33.9437Z" fill="#F2B981"/>
<path d="M13.463 35.7207V35.9014C13.1165 36.5338 10.8118 37.3771 11.1281 36.2628C11.3089 35.6454 13.0864 35.3442 13.463 35.7207Z" fill="#F2B981"/>
<path d="M14.0804 37.2566C13.99 37.8439 12.2125 39.3799 12.1824 38.2204C12.1673 37.4373 13.6285 37.1964 14.0804 37.2566Z" fill="#F2B981"/>
</g>
<path d="M63.1271 27.8758C64.0611 27.9059 69.3935 22.4095 76.3077 24.2165C78.5371 24.8038 81.0828 28.7191 81.5799 32.1826C82.077 35.6311 79.7271 40.7209 74.8465 44.2296C65.6578 50.8554 56.7703 50.7952 52.3417 50.3133C45.3522 49.5453 39.4624 41.9407 39.8691 35.7816C39.9595 34.3661 41.0441 32.8301 41.7973 31.4447C46.8435 22.2438 54.4506 23.5389 57.1168 23.8551C61.0785 24.337 61.8166 27.8306 63.1271 27.8758Z" fill="#E22727"/>
<path d="M62.6749 24.9241C63.5937 24.9542 68.1279 21.5208 75.042 23.3278C79.5158 24.5024 84.1554 34.2454 74.3942 41.2779C65.2055 47.9037 56.3181 47.8435 51.8744 47.3616C43.2882 46.4129 37.1122 37.6939 41.1793 30.285C46.2256 21.0991 53.9983 20.5871 56.6645 20.9034C60.6112 21.3702 61.3643 24.8789 62.6749 24.9241Z" fill="#FF6A5F"/>
<path opacity="0.6" d="M61.922 26.9873C62.7355 27.0174 67.2997 23.2075 73.4155 24.7736C77.3772 25.7976 81.4744 34.351 72.8129 40.5552C64.6636 46.398 56.7703 46.3679 52.8388 45.9462C45.2317 45.1331 40.1403 37.5435 43.0325 30.6767C44.4334 27.3487 46.482 25.5567 48.38 24.3068C51.7994 22.048 55.3393 21.792 57.0565 22.2889C60.4458 23.2527 60.7622 26.9421 61.922 26.9873Z" fill="#F9453D"/>
<path d="M63.7749 29.6074C62.7807 30.6615 53.848 41.1273 55.1435 42.1212C56.4239 43.1151 65.0251 43.5819 72.2104 36.9561C76.3981 33.086 75.5696 28.6286 72.9033 27.8305C70.2522 27.0474 64.9046 28.4027 63.7749 29.6074Z" fill="#FF6A5F"/>
<path d="M57.9756 30.029C57.6743 33.5076 51.8297 42.061 50.715 41.8501C49.6003 41.6393 46.5575 38.8836 45.6687 34.125C44.6896 28.9448 50.0371 25.0446 52.9594 24.9542C55.8818 24.8488 58.1865 27.4991 57.9756 30.029Z" fill="#FF6A5F"/>
<g opacity="0.5">
<path d="M70.2067 29.6375C69.8301 29.0652 71.9841 28.0563 72.2402 28.5231L72.18 28.5382C71.9691 28.8544 70.764 30.4506 70.2067 29.6375Z" fill="#F2B981"/>
<path d="M71.9238 31.2031C71.3665 31.173 70.794 30.7363 71.5623 30.4502L71.5171 30.4653C71.9087 30.1942 72.7372 29.9382 73.2193 29.9382C73.9273 29.9231 74.334 30.2845 73.626 30.6911C73.1741 30.9471 72.4812 31.2333 71.9238 31.2031Z" fill="#F2B981"/>
<path d="M70.9751 33.4019C70.3424 32.7845 70.8546 32.4532 71.4722 32.3026C71.9241 32.3177 72.6471 32.408 73.0388 32.6941C73.6262 33.1308 73.4304 33.7633 72.7224 33.8988C72.2705 33.9741 71.3366 33.7332 70.9751 33.4019Z" fill="#F2B981"/>
<path d="M71.5323 32.2877C71.5123 32.2877 71.4923 32.2927 71.4723 32.3027L71.5323 32.2877Z" fill="#F2B981"/>
<path d="M70.3421 34.5614L70.1462 34.4259C70.8241 34.4109 72.707 35.6156 71.4116 36.0824C70.9446 36.248 69.9353 35.977 69.7094 35.5403C69.4684 35.0885 69.845 34.3958 70.3421 34.5614Z" fill="#F2B981"/>
<path d="M68.3692 36.9712L68.5048 36.7604C69.2429 36.5194 70.6136 37.8747 69.7249 38.3717C69.1374 38.7029 67.7666 37.6037 68.3692 36.9712Z" fill="#F2B981"/>
<path d="M66.953 38.1758L66.8626 38.0252C67.6911 37.5132 68.6702 40.1937 67.0434 39.8473C66.0944 39.6515 65.5973 37.3777 66.953 38.1758Z" fill="#F2B981"/>
<path d="M64.0156 39.2751L64.3922 39.0794C65.3111 38.8836 65.9588 40.796 64.7688 40.9918C63.8198 41.1424 63.5487 39.6666 64.0156 39.2751Z" fill="#F2B981"/>
<path d="M62.1025 39.9077H62.3435C62.931 39.998 62.8255 41.8201 61.9669 41.6545C61.1836 41.5039 61.3945 39.727 62.1025 39.9077Z" fill="#F2B981"/>
<path d="M60.3403 40.1335L60.4457 40.1184C61.2893 40.4648 60.9428 42.4224 59.9938 42.2266C59.2708 42.076 59.6473 40.1485 60.3403 40.1335Z" fill="#F2B981"/>
<path d="M58.2466 40.2689L58.4425 40.3442C58.4877 40.3141 58.4123 40.2388 58.5479 40.2689C59.0601 40.7508 58.1563 42.3621 57.5688 42.1212C56.7252 41.7899 57.8851 40.4195 58.2466 40.2689Z" fill="#F2B981"/>
<path d="M69.273 28.2065L69.3333 28.1914C69.8153 28.7335 68.7458 30.2545 68.2186 29.637C67.8721 29.2455 68.8362 28.086 69.273 28.2065Z" fill="#F2B981"/>
<path d="M67.0585 28.553L67.179 28.5831C67.2092 28.9596 66.4861 30.5257 65.974 30.1492C65.1907 29.577 66.8326 28.6885 67.0585 28.553Z" fill="#F2B981"/>
<path d="M56.7251 28.9147C57.2071 28.2671 57.4632 28.8544 57.3577 28.9297C57.3577 29.3815 57.0263 29.9838 56.6046 30.1645C56.1979 29.8483 56.4841 29.246 56.7251 28.9147Z" fill="#F2B981"/>
<path d="M55.2939 28.4024C54.9926 27.9356 55.7156 26.3093 56.273 27.0622V27.002C56.7399 27.529 55.7608 29.1253 55.2939 28.4024Z" fill="#F2B981"/>
<path d="M54.5407 27.7097C53.9231 27.77 53.7122 25.481 54.616 25.737L54.6763 25.4961C55.1433 25.7069 55.1432 27.6344 54.5407 27.7097Z" fill="#F2B981"/>
<path d="M52.3416 25.5717L52.4923 25.4663C52.8086 25.4512 53.607 27.3185 52.9592 27.4841C52.432 27.6197 51.5885 25.8879 52.3416 25.5717Z" fill="#F2B981"/>
<path d="M50.5337 26.1585L50.594 25.9627C50.9856 25.6465 52.1907 27.1072 51.8593 27.574C51.3622 28.2667 49.9914 26.6856 50.5337 26.1585Z" fill="#F2B981"/>
<path d="M50.353 27.9208L50.4885 27.9961C51.0308 28.3726 50.2174 28.5683 49.901 28.5382C49.4642 28.478 49.1328 28.1918 48.9521 27.8304C48.4851 26.7763 50.127 27.454 50.353 27.9208Z" fill="#F2B981"/>
<path d="M47.3702 28.9748C48.018 28.508 48.6205 29.035 49.1628 29.1405L49.2532 29.291C50.2172 29.6675 49.1327 30.0741 48.5753 29.9235C48.1385 29.8181 47.4456 29.4567 47.3702 28.9748Z" fill="#F2B981"/>
<path d="M48.5759 30.9173L48.5307 30.9926C48.4554 31.4594 46.5574 31.5196 46.4971 30.8721C46.4218 30.0589 48.2596 30.5709 48.5759 30.9173Z" fill="#F2B981"/>
<path d="M48.2292 32.2425C48.1087 32.619 46.1956 33.1611 46.045 32.4533C45.8944 31.8209 47.943 31.9564 48.2443 32.0618L48.2292 32.2425Z" fill="#F2B981"/>
<path d="M48.3043 33.2363C48.3947 33.3116 48.2591 33.2514 48.2441 33.2966L48.3797 33.3869C48.1838 33.9742 46.8281 34.8025 46.331 34.1549C45.6532 33.3116 47.8374 33.1309 48.3043 33.2363Z" fill="#F2B981"/>
<path d="M48.7715 34.818L48.7564 34.9987C48.8016 35.7064 46.994 36.7154 46.6626 35.842C46.3312 35.0137 48.4251 34.7126 48.7715 34.818Z" fill="#F2B981"/>
<path d="M49.389 36.444V36.6849C49.1932 37.1668 47.9128 38.236 47.5964 37.5734C47.25 36.8506 48.922 36.2181 49.389 36.444Z" fill="#F2B981"/>
<path d="M50.2025 37.9045L50.2477 38.0702C50.1121 38.7177 48.3196 40.0278 48.3196 38.9737C48.3196 38.3864 49.7807 37.6636 50.2025 37.9045Z" fill="#F2B981"/>
<path d="M51.1362 39.1093C51.1964 39.6514 50.0516 41.4434 49.7353 40.4344C49.5244 39.7568 50.7294 39.1695 51.1362 39.1093Z" fill="#F2B981"/>
</g>
<path d="M2.8128 30.0892C2.8128 30.0892 6.41297 43.8228 42.008 44.0487C77.3921 44.2595 80.7813 29.6525 80.7813 29.6525C80.7813 29.6525 81.1429 23.9302 80.8567 21.5509C79.998 14.4281 74.1986 0.167462 41.4657 0.00181593C11.2785 -0.148772 4.21371 12.5458 2.72242 20.301C2.05963 23.7043 2.8128 30.0892 2.8128 30.0892Z" fill="#FFA944"/>
<path d="M66.0795 9.14201C66.0343 9.32272 66.8628 10.0004 67.1942 10.0757C67.6612 10.1961 68.8512 9.95519 68.806 9.65401C68.7608 9.35284 68.1282 8.76554 67.6612 8.64507C67.2394 8.53966 66.185 8.66013 66.0795 9.14201Z" fill="#EAE8A9"/>
<path opacity="0.7" d="M7.00051 32.4986C7.31684 34.0195 11.5196 36.2783 14.6377 37.9197C17.7408 39.5762 29.1589 42.5126 30.6351 42.1813C33.2712 41.6091 32.7139 35.4049 31.3883 32.8901C30.2736 30.7517 24.8959 24.5475 20.4673 23.7795C16.0386 22.9965 8.03989 21.837 7.19634 23.8699C6.33772 25.9028 6.44316 29.6826 7.00051 32.4986Z" fill="#FFC050"/>
<path d="M80.6156 21.174C79.6063 13.9458 73.4453 0.167055 41.2848 0.00140867C12.0918 -0.149179 4.68059 11.8075 2.85791 19.6079C3.0688 20.0898 3.12905 20.4361 3.30981 20.7072C4.33413 22.2281 5.47896 23.4931 7.12087 24.2611C10.4047 25.782 14.261 24.3514 17.5599 25.9928C20.9341 27.6945 23.2087 30.9773 26.6582 32.7542C31.2827 35.1485 36.1181 35.0431 40.8631 32.9801C45.3068 31.0526 49.2835 30.9471 53.9984 31.8808C58.0204 32.6789 63.6089 33.0253 67.1488 30.134C68.4141 29.0949 68.5798 27.3481 69.6795 26.1585C70.8544 24.8935 72.6771 24.2611 74.3341 23.8093C77.0003 23.0865 79.1845 22.7401 80.6156 21.174Z" fill="#F68D32"/>
<path d="M20.3615 18.1773C20.4971 18.2978 21.4612 17.8611 21.6871 17.59C22.0185 17.2286 22.3499 16.0239 22.0637 15.9335C21.7926 15.8281 20.9942 16.1444 20.6779 16.5058C20.3916 16.8371 20 17.8611 20.3615 18.1773Z" fill="#EAE8A9"/>
<path d="M15.466 12.2592C15.6016 12.3947 16.5656 11.943 16.7916 11.687C17.1079 11.3105 17.4544 10.1058 17.1682 10.0154C16.882 9.92508 16.0987 10.2263 15.7823 10.6027C15.4961 10.934 15.1045 11.958 15.466 12.2592Z" fill="#EAE8A9"/>
<path d="M34.4158 6.80803C34.4008 7.0038 35.2895 7.56097 35.651 7.60615C36.118 7.66638 37.2779 7.2598 37.1875 6.97368C37.0971 6.6725 36.4042 6.19062 35.9222 6.13039C35.5004 6.07015 34.461 6.32615 34.4158 6.80803Z" fill="#EAE8A9"/>
<path d="M26.2663 4.89561C26.1157 5.01608 26.4019 6.05513 26.6279 6.34125C26.9291 6.71772 28.0438 7.24477 28.1794 6.95866C28.315 6.6876 28.1191 5.84431 27.8179 5.46784C27.5467 5.12149 26.6128 4.57937 26.2663 4.89561Z" fill="#EAE8A9"/>
<path d="M34.7924 1.55249C34.7171 1.37178 33.6777 1.28143 33.3463 1.4019C32.8944 1.56755 32.0358 2.45601 32.2316 2.68189C32.4425 2.90777 33.271 3.02824 33.7229 2.8626C34.1446 2.71201 34.9581 2.00425 34.7924 1.55249Z" fill="#EAE8A9"/>
<path d="M30.8614 12.7863C30.771 12.967 31.4187 13.8254 31.72 13.991C32.1417 14.2319 33.3619 14.2922 33.392 13.991C33.4071 13.6748 32.9401 12.967 32.5183 12.7261C32.1267 12.5152 31.0722 12.3647 30.8614 12.7863Z" fill="#EAE8A9"/>
<path d="M20.1357 4.33845C20.1508 4.54928 21.16 4.85045 21.5065 4.80527C21.9885 4.74504 23.0128 4.0674 22.8471 3.8114C22.6965 3.54034 21.9132 3.23916 21.4312 3.2994C21.0094 3.35963 20.0604 3.87163 20.1357 4.33845Z" fill="#EAE8A9"/>
<path d="M50.5339 3.13368C50.6394 2.96803 50.0971 2.04945 49.8109 1.83863C49.4193 1.56757 48.2142 1.37181 48.1539 1.67298C48.0937 1.97416 48.5004 2.74215 48.892 3.01321C49.2535 3.26921 50.2779 3.54027 50.5339 3.13368Z" fill="#EAE8A9"/>
<path d="M40.0799 2.84752C39.9745 3.01316 40.5017 3.94681 40.7879 4.15763C41.1795 4.44375 42.3695 4.65457 42.4298 4.35339C42.5051 4.05222 42.1135 3.28422 41.7218 2.99811C41.3754 2.72705 40.336 2.45599 40.0799 2.84752Z" fill="#EAE8A9"/>
<path d="M62.3736 19.1563C62.5393 19.0509 62.5091 17.9817 62.3585 17.6504C62.1476 17.2137 61.1986 16.4307 61.0028 16.6565C60.822 16.8975 60.7919 17.7709 61.0028 18.2076C61.1836 18.6142 61.9518 19.3671 62.3736 19.1563Z" fill="#EAE8A9"/>
<path d="M42.008 10.9037C42.1586 11.0393 43.1227 10.5875 43.3487 10.3164C43.665 9.95503 44.0115 8.75033 43.7252 8.65997C43.439 8.55456 42.6557 8.8708 42.3394 9.23221C42.0532 9.57856 41.6616 10.6026 42.008 10.9037Z" fill="#EAE8A9"/>
<path d="M38.4377 20.2858C38.5883 20.4063 39.5373 19.9696 39.7783 19.6985C40.0947 19.3371 40.4261 18.1324 40.1549 18.0421C39.8687 17.9366 39.0704 18.2529 38.754 18.6143C38.4678 18.9456 38.0762 19.9696 38.4377 20.2858Z" fill="#EAE8A9"/>
<path d="M53.3656 9.69911C53.471 9.53346 52.9287 8.61488 52.6274 8.40406C52.2358 8.133 51.0307 7.93723 50.9855 8.23841C50.9253 8.53958 51.3169 9.30758 51.7236 9.5937C52.0701 9.83464 53.1095 10.1057 53.3656 9.69911Z" fill="#EAE8A9"/>
<path d="M53.0041 15.9789C52.9438 15.7831 51.9045 15.6174 51.5731 15.7229C51.1061 15.8433 50.1872 16.6716 50.3831 16.9125C50.5638 17.1534 51.3923 17.3341 51.8593 17.1986C52.266 17.0781 53.1397 16.4306 53.0041 15.9789Z" fill="#EAE8A9"/>
<path d="M61.5606 5.13617C61.6359 4.95546 60.958 4.14229 60.6417 3.97664C60.2048 3.76582 58.9998 3.76582 58.9847 4.08205C58.9696 4.38323 59.4818 5.07593 59.9186 5.28675C60.2952 5.48252 61.3647 5.58793 61.5606 5.13617Z" fill="#EAE8A9"/>
<path opacity="0.2" d="M39.5829 5.48264C37.9861 4.9104 36.299 4.48876 34.6119 4.39841C32.7591 4.293 30.8762 4.91041 29.1589 5.28688C25.6341 6.05487 22.0339 7.71133 18.5844 9.02144C15.8428 10.0605 12.9356 11.1899 10.9321 13.5692C10.4953 14.0962 10.1338 14.6835 9.83251 15.2407V16.0238C9.13959 18.0718 10.6158 18.6289 12.2728 19.3819C13.3122 19.8637 14.3365 19.924 15.406 20.195C16.6713 20.4962 17.8764 21.0534 19.0815 21.5503C21.2807 22.4237 22.9528 23.8393 24.9864 24.9687C26.3571 25.7216 27.9689 26.7456 29.5054 26.7757C33.9642 26.8811 33.8738 21.0534 35.817 18.2525C36.7961 16.852 38.1669 15.5118 39.5829 14.548C41.1344 13.4788 43.2584 12.6958 44.4634 11.2501C46.7832 8.46427 41.4658 6.16028 39.5829 5.48264Z" fill="#FFC050"/>
</svg>
