<svg width="80" height="99" viewBox="0 0 80 99" fill="none" xmlns="http://www.w3.org/2000/svg">
<path fill-rule="evenodd" clip-rule="evenodd" d="M61.731 91.9081C60.5423 94.0805 57.591 94.7364 55.4186 95.2692C52.3034 96.048 49.1472 96.8268 45.9499 97.2777C39.3096 98.2615 32.4233 98.3025 25.742 97.4007C22.4218 96.9908 19.1836 96.212 16.1914 94.7364C13.9369 93.6297 11.5185 91.9081 11.4775 89.1618C11.4775 88.6699 11.5049 88.178 11.5595 87.6861C11.8464 86.2105 12.1334 84.6939 12.5843 83.2182C12.5843 83.2456 12.5843 83.2592 12.5843 83.2592C12.8712 82.2755 13.2401 81.3327 13.568 80.39C13.5953 80.2806 13.6227 80.185 13.65 80.103C13.6773 80.0484 13.691 80.021 13.691 80.021C13.7183 79.9391 13.7456 79.8571 13.773 79.7751C14.9207 76.209 16.1094 72.6839 17.2161 69.1178C17.2434 69.0904 17.2571 69.0768 17.2571 69.0768C17.2844 68.8308 17.2981 68.5712 17.2981 68.298C17.544 66.6994 17.3801 64.9368 17.3391 63.3792C17.2981 62.1085 17.1341 60.7968 16.9702 59.5671C16.8472 58.3374 16.7242 57.0668 16.5193 55.8371C16.4373 54.8123 16.3963 53.7466 16.2733 52.7218C16.0684 51.0413 15.7405 49.4427 15.2076 47.8441C15.0027 47.2702 14.8797 46.7783 15.0027 46.2045C15.0027 46.0815 15.1256 45.9175 15.2486 45.7126C15.3033 45.5759 15.3716 45.4393 15.4535 45.3027C15.4809 45.2754 15.4945 45.248 15.4945 45.2207C15.4126 45.1387 15.5765 45.0567 15.6585 45.0977C16.0274 44.6468 16.6013 44.2779 17.1341 43.8271C18.6508 42.5564 20.2084 41.2857 21.684 39.933C24.8812 36.9408 27.2996 33.2927 28.7752 29.1527C28.8026 29.0434 28.8299 28.9341 28.8572 28.8248C29.1031 24.8898 27.2586 20.9957 26.1109 17.3067C25.2501 14.4784 24.6763 11.3631 25.824 8.49386C26.8077 6.03447 28.5703 3.98497 30.8247 2.59132C34.7597 0.0909424 39.7605 -0.646859 44.2694 0.582835C49.0242 1.85352 53.4101 5.46062 54.3938 10.4204C54.9677 13.3716 54.3119 16.1999 53.1232 18.9053C52.3444 20.5859 51.4016 22.2254 51.2786 24.111C51.1966 25.7096 51.6065 27.1442 51.8525 28.7018C52.3444 29.3577 52.7133 30.9973 52.7543 31.2022C53.2871 33.8665 54.0659 36.5309 55.0497 39.0312C55.9924 41.4906 57.2221 43.8681 59.1077 45.7536C59.8865 46.5324 61.2391 47.1882 61.649 48.254C61.977 48.9918 61.5261 49.8525 61.3211 50.5494C61.2938 50.8226 61.2528 51.0822 61.1982 51.3282C60.9522 52.5579 60.5833 53.7876 60.2964 54.9763C59.6405 57.5177 58.9437 60.018 58.1239 62.5184C57.96 63.0649 57.796 63.6115 57.632 64.158C57.3451 66.2485 57.5091 68.4209 57.796 70.5114C58.1239 72.8478 58.5338 75.1842 59.0257 77.4797C59.5586 79.8571 60.2144 82.2345 60.6653 84.6529C60.9522 86.0465 61.4851 87.7271 61.5671 89.2847C61.854 90.1045 62.1409 91.1293 61.731 91.9081ZM49.1472 28.4969C48.7373 26.2834 48.2864 24.193 48.7373 21.8975C49.1472 19.6021 50.2539 17.6346 50.9917 15.4211C51.8935 12.7568 51.5656 10.4614 50.3359 8.00198C50.0626 7.45545 49.7483 6.9499 49.3931 6.48535C48.7782 5.95248 48.2044 5.37864 47.5076 4.96875C46.6058 4.43588 45.581 4.06696 44.5973 3.78003C42.7527 3.20618 40.8672 2.83726 38.9817 2.87825C36.9732 2.96023 34.8417 3.28815 33.0382 4.10795C31.6035 4.76378 30.0459 5.82952 29.1031 7.18218C28.9938 7.37347 28.8982 7.57841 28.8162 7.79703C27.7915 10.1744 27.7505 12.6748 28.5703 15.1342C29.3491 17.3067 30.3328 19.4381 30.9067 21.6926C31.4396 23.947 31.6035 26.1605 31.6855 28.4969C33.571 28.5788 35.4566 28.6608 37.3421 28.7428C39.9244 28.8248 42.5068 28.8658 45.1302 28.7428C46.4418 28.7018 47.7945 28.6608 49.1472 28.4969Z" fill="black"/>
<path d="M25.6607 10.6252C26.3165 4.23083 33.1208 0.787685 38.9413 0.582736C44.188 0.377787 49.3528 2.71419 52.222 7.18208C53.9846 9.9284 54.2715 13.1256 53.5337 16.2408C52.7959 19.3561 50.3365 21.9794 50.7874 25.3406C50.9104 26.4063 51.1563 27.431 51.4022 28.4558C51.3749 28.4558 51.3613 28.4558 51.3613 28.4558C50.6644 28.3328 50.0086 28.4148 49.3528 28.4968C49.3118 27.39 49.0658 26.2833 48.9838 25.1766C48.9019 23.783 49.0248 22.3893 49.3528 20.9956C49.9266 18.3723 51.4842 16.0769 51.9761 13.4125C52.7139 9.19059 49.5167 4.84566 45.8276 3.20607C45.7866 3.16508 45.7457 3.20608 45.7866 3.24707C46.7704 3.7936 47.6448 4.46309 48.41 5.25556C45.4587 3.04211 41.4417 2.3453 37.8346 2.63222C35.8261 2.79618 33.7356 3.32904 31.9321 4.3128C31.2353 4.72269 30.4975 5.25557 29.8826 5.91141C30.9893 4.43578 32.465 3.28806 33.8996 2.22233C33.9406 2.18134 33.9406 2.18132 33.8996 2.18132C33.0798 2.75518 32.219 3.24707 31.4812 3.86192C30.5384 4.68171 29.7596 5.70644 29.0628 6.6902C27.7101 8.57573 27.3003 11.0351 27.5872 13.3305C27.9561 15.8719 29.3087 18.2903 30.0876 20.7087C30.9483 23.2501 31.1123 25.8324 31.3992 28.4968C31.0986 28.4694 30.798 28.4558 30.4975 28.4558C30.0466 28.4148 29.5547 28.3328 29.1448 28.4968C29.8006 22.3483 24.9638 16.8147 25.6607 10.6252Z" fill="#FFF3DC"/>
<path d="M50.7456 24.193C50.2127 24.6029 49.27 24.4389 49.311 23.5782C49.311 23.3732 49.352 23.2093 49.393 23.0043C49.6389 21.6517 50.0898 20.4219 50.7456 19.1922C51.4015 17.8396 52.2212 16.5689 52.6311 15.1343C53.5329 12.101 52.9181 8.94482 50.8686 6.52642C48.8601 4.10802 46.1548 2.09952 43.0805 1.32071C40.4982 0.705866 37.8748 0.992784 35.2925 1.56664C33.7349 2.1405 32.2182 2.75536 30.9066 3.98505C29.267 5.62464 27.9553 7.55117 27.4634 9.88759C26.9715 12.101 27.1765 14.4784 27.9143 16.6099C28.6521 18.7824 29.3899 20.9138 30.0048 23.0863C30.0594 23.1683 30.1004 23.2776 30.1278 23.4142C30.1687 23.6192 30.2097 23.8241 30.2507 24.0291C30.4557 24.8489 29.5539 25.3407 28.98 25.0538C29.185 26.2015 29.267 27.3492 29.144 28.4969C29.5539 28.333 30.0458 28.415 30.4967 28.456C30.7973 28.456 31.0978 28.4696 31.3984 28.4969C31.1115 25.8326 30.9475 23.2502 30.0868 20.7089C29.308 18.2905 27.9553 15.8721 27.5864 13.3307C27.2995 11.0353 27.7094 8.57589 29.062 6.69036C29.7588 5.70661 30.5377 4.68188 31.4804 3.86208C32.2182 3.24724 33.079 2.75535 33.8988 2.18149C33.9398 2.18149 33.9398 2.1815 33.8988 2.22249C32.4642 3.28823 30.9885 4.43594 29.8818 5.91157C30.4967 5.25574 31.2345 4.72286 31.9313 4.31296C33.7349 3.32921 35.8253 2.79635 37.8338 2.63239C41.4409 2.34546 45.4579 3.04227 48.4092 5.25572C47.6441 4.46325 46.7696 3.79377 45.7858 3.24724C45.7449 3.20625 45.7859 3.16524 45.8268 3.20623C49.5159 4.84582 52.7131 9.19075 51.9753 13.4127C51.4834 16.077 49.9258 18.3725 49.352 20.9958C49.024 22.3895 48.9011 23.7831 48.9831 25.1768C49.065 26.2835 49.311 27.3902 49.352 28.4969C50.0078 28.415 50.6636 28.333 51.3605 28.456C51.3605 28.456 51.3741 28.456 51.4015 28.456C51.1555 27.4312 50.9096 26.4065 50.7866 25.3407C50.732 24.9308 50.7183 24.5483 50.7456 24.193Z" fill="#D9CAAC"/>
<path d="M58.6573 93.6295C57.4686 94.1624 56.1979 94.4493 54.9272 94.7772C51.9759 95.5151 49.0657 96.1709 46.0734 96.6218C39.761 97.6055 33.2436 97.5645 26.8902 96.8677C23.611 96.4988 20.4138 95.802 17.3806 94.4903C14.5113 93.2196 11.8879 91.3751 12.1749 87.891C12.2022 87.6724 12.2295 87.4401 12.2568 87.1941C12.2978 86.2514 12.5438 85.3086 12.8717 84.3658C13.3636 82.4803 14.1014 80.6358 14.6343 78.8322C15.618 75.84 16.5608 72.8067 17.2166 69.7325C17.0117 72.0279 16.5608 74.3233 16.2738 76.6188C16.2738 76.6734 16.2875 76.7008 16.3148 76.7008C16.9297 75.553 17.2576 74.0774 17.5445 72.8067C17.5719 72.6974 17.5992 72.5881 17.6265 72.4788C18.2004 68.7487 17.9134 64.9367 17.4216 61.1656C17.5445 58.7062 17.0936 56.1239 16.9297 53.7055C16.8204 52.2845 16.6018 50.8772 16.2738 49.4835C15.9869 48.1719 15.1671 46.8602 15.659 45.5895C15.741 45.4529 15.8639 45.3162 16.0279 45.1796C16.4105 44.879 16.793 44.5784 17.1756 44.2778C17.9134 43.704 18.6513 43.1301 19.3891 42.5562C20.9057 41.3266 22.4223 40.0559 23.775 38.6212C25.8245 36.4898 27.9149 33.6205 28.6938 30.6282C28.7484 30.5189 28.7894 30.4096 28.8167 30.3003C29.0627 29.7675 29.2266 29.1526 29.6775 28.7837C29.8005 28.7837 29.9234 28.8657 30.0874 28.8657C30.8252 28.9886 31.604 28.9886 32.3828 29.0706C34.5143 29.1799 36.6594 29.2619 38.8182 29.3166C40.977 29.3712 43.1358 29.3576 45.2946 29.2756C47.3031 29.1936 49.2706 28.8657 51.2791 28.7837C51.689 29.1936 52.0169 31.2841 52.0579 31.448C52.3039 32.5957 52.5908 33.7435 52.9187 34.8502C53.4926 36.8587 54.1074 38.8262 54.9272 40.7527C55.706 42.5153 56.7308 44.2368 58.0424 45.6715C58.8212 46.5323 59.723 47.1881 60.5428 47.9259C61.4036 48.7047 60.9527 49.7295 60.9117 50.6722C60.6248 51.9019 60.1739 53.0906 59.805 54.2793C59.0262 56.9437 58.3704 59.608 57.5096 62.2313C56.1159 66.6173 55.1322 71.0852 55.0912 75.676C55.1731 76.1679 55.2688 76.6461 55.3781 77.1107C55.5011 73.4626 56.0749 69.8964 57.0177 66.4123C56.6488 69.7325 57.3046 73.2166 57.9605 76.4958C58.4113 78.9142 59.0672 81.2916 59.6 83.669C60.0509 85.4726 60.5838 87.3581 60.8707 89.2436C60.8707 89.271 60.8707 89.2846 60.8707 89.2846C60.8981 89.5032 60.939 89.7218 60.9937 89.9405C61.021 90.2137 61.0484 90.487 61.0757 90.7603C61.0757 90.7876 61.0757 90.8012 61.0757 90.8012C61.103 91.0745 61.0893 91.3478 61.0347 91.621C60.8707 92.6048 59.4771 93.2606 58.6573 93.6295Z" fill="#AF9070"/>
<g style="mix-blend-mode:screen" opacity="0.3">
<path d="M53.5747 59.0752C53.5474 59.0479 53.5201 59.0342 53.4927 59.0342C53.3698 59.2391 53.2878 59.4851 53.2468 59.731C53.2195 59.8403 53.1921 59.9633 53.1648 60.0999C53.2195 60.1819 53.2468 60.2775 53.2468 60.3868C53.0828 65.5516 52.6729 70.9212 50.6234 75.717C49.6397 77.9715 48.205 80.1439 46.1556 81.5786C43.4092 83.4231 39.8431 83.833 36.6049 83.6281C34.1046 83.4641 31.3992 83.1362 29.0218 82.2344C27.0543 81.5376 25.4967 80.5128 24.103 78.9552C23.4882 78.2584 22.8324 77.4796 22.0536 76.9467C21.6027 76.6598 21.1518 76.2499 20.9878 76.9467C20.7419 78.5043 21.1108 80.2669 21.3977 81.7835C21.8076 83.956 22.4635 86.0875 23.9391 87.768C25.6197 89.7355 27.7921 90.7603 30.3335 91.0882C32.7929 91.4571 35.2933 91.2932 37.7936 91.2522C40.171 91.2522 42.6304 91.5391 44.9668 91.0472C47.6312 90.5144 49.3118 88.9977 50.0906 86.3744C50.8694 83.751 51.4432 81.0047 51.8531 78.2994C52.345 75.1842 52.9189 72.1099 53.3698 68.9947C53.6157 67.3551 53.8206 65.6745 53.9436 63.994C54.0256 62.6823 54.1486 61.2886 53.9026 59.9769C53.8206 59.69 53.6977 59.1572 53.5747 59.0752Z" fill="#AF9070"/>
</g>
<g style="mix-blend-mode:screen" opacity="0.3">
<path d="M21.1925 58.0914C21.1515 59.6081 21.1105 61.1657 21.2744 62.6413C21.3564 63.2151 21.4384 64.1579 21.8893 64.6088C22.2992 65.0187 22.3402 63.953 22.3812 63.6251C22.5041 61.6985 22.3402 59.936 23.16 58.0914C24.1437 55.96 25.9473 54.2384 28.1197 53.2956C32.5876 51.2871 37.6704 51.5741 42.1792 49.6885C46.6061 47.844 50.7461 44.2779 50.951 39.1541C50.992 38.6213 50.951 34.3993 49.6394 35.1372C47.4259 36.4078 46.6471 37.4326 44.3517 38.6213C43.081 39.3181 37.3014 39.9739 39.9248 39.0722C46.5241 36.8177 49.0245 32.8827 48.3277 31.817C47.6719 30.7922 41.4824 31.4071 40.4167 31.3661C39.146 31.3251 37.4654 31.2841 36.3587 32.0629C36.0717 33.1287 35.3339 33.9894 34.3092 34.4813C33.6943 34.8092 33.1205 35.0552 32.4646 35.0962C31.9728 35.0962 31.4809 35.0142 30.989 35.0552C30.4561 35.1371 30.0872 36.2029 29.8823 36.6128C29.5544 37.3916 29.2674 38.2114 28.9395 39.0312C28.2837 40.5888 27.2589 41.8595 25.9883 43.0072C24.8405 44.0319 23.6109 44.8517 22.3402 45.7535C21.7663 46.1634 20.9875 46.7373 20.7826 47.4751C20.5913 48.2402 20.4956 49.019 20.4956 49.8115C20.4546 52.5988 21.2744 55.3451 21.1925 58.0914Z" fill="#AF9070"/>
</g>
<g style="mix-blend-mode:multiply" opacity="0.6">
<path d="M61.0757 90.8012C61.0757 90.8012 61.0757 90.7876 61.0757 90.7603C61.0484 90.487 61.021 90.2137 60.9937 89.9405C60.939 89.7218 60.8981 89.5032 60.8707 89.2846C60.8707 89.2846 60.8707 89.271 60.8707 89.2436C60.5838 87.3581 60.0509 85.4726 59.6 83.669C59.0672 81.2916 58.4113 78.9142 57.9605 76.4958C57.3046 73.2166 56.6488 69.7325 57.0177 66.4123C56.0749 69.8964 55.5011 73.4626 55.3781 77.1107C55.2688 76.6461 55.1731 76.1679 55.0912 75.676C55.1322 71.0852 56.1159 66.6173 57.5096 62.2313C58.3704 59.608 59.0262 56.9437 59.805 54.2793C60.1739 53.0906 60.6248 51.9019 60.9117 50.6722C60.9527 49.7295 61.4036 48.7047 60.5428 47.9259C59.723 47.1881 58.8212 46.5323 58.0424 45.6715C56.7308 44.2368 55.706 42.5153 54.9272 40.7527C54.1074 38.8262 53.4926 36.8587 52.9187 34.8502C52.5908 33.7435 52.3039 32.5957 52.0579 31.448C52.0169 31.2841 51.689 29.1936 51.2791 28.7837C49.2706 28.8657 47.3031 29.1936 45.2946 29.2756C43.1358 29.3576 40.977 29.3712 38.8182 29.3166C36.6594 29.2619 34.5143 29.1799 32.3828 29.0706C31.604 28.9886 30.8252 28.9886 30.0874 28.8657C29.9234 28.8657 29.8005 28.7837 29.6775 28.7837C29.2266 29.1526 29.0627 29.7675 28.8167 30.3003C28.7894 30.4096 28.7484 30.5189 28.6938 30.6282C27.9149 33.6205 25.8245 36.4898 23.775 38.6212C22.4223 40.0559 20.9057 41.3266 19.3891 42.5562C18.6513 43.1301 17.9134 43.704 17.1756 44.2778C16.793 44.5784 16.4105 44.879 16.0279 45.1796C15.8639 45.3162 15.741 45.4529 15.659 45.5895C15.1671 46.8602 15.9869 48.1719 16.2738 49.4835C16.6018 50.8772 16.8204 52.2845 16.9297 53.7055C17.0936 56.1239 17.5445 58.7062 17.4216 61.1656C17.7085 63.3381 17.9134 65.5105 17.9544 67.724C18.2414 65.1826 18.4053 62.6003 18.2823 60.0589C18.1184 57.0666 17.7495 54.0334 17.9134 51.0002C17.9544 49.7705 18.0774 48.4998 18.1594 47.2701C18.2414 46.4093 18.4873 45.6305 19.0612 44.9337C19.9629 43.8679 21.0696 43.0481 22.1354 42.1464C23.2011 41.2446 24.1029 40.2198 24.9227 39.0721C26.6443 36.7767 28.1609 34.3583 29.8005 32.0219C29.9644 31.776 30.2514 31.612 30.5793 31.694C31.604 32.0629 32.7927 32.0629 32.6698 30.6692C32.6288 30.3823 32.7517 30.2183 32.9567 30.0954C33.0797 29.9724 33.2436 29.8904 33.4486 29.8904C34.6373 29.8904 35.826 29.9724 37.0147 29.9724C38.2854 30.0134 39.5151 29.8084 40.7857 29.7675C43.3681 29.6445 45.8685 30.3413 48.4508 30.2593C48.8197 30.2593 49.1067 30.5872 49.1477 30.9561C49.1886 32.2678 50.0494 32.0629 50.9922 32.5957C52.7138 33.5385 52.7138 35.9569 53.0007 37.6785C53.3286 40.0559 54.4763 42.0644 55.788 44.0319C57.0177 45.9174 58.3704 47.8439 58.7803 50.0984C59.3541 53.0496 58.2474 55.714 57.5096 58.5013C56.6898 61.4525 55.952 64.4038 55.4191 67.4371C55.1731 68.9947 55.0092 70.5523 54.7223 72.1099C54.5173 73.3806 54.2304 74.6922 54.1074 75.9629C53.9025 77.7665 53.6565 79.57 53.5745 81.3736C53.5336 82.6033 53.3696 84.4068 54.0254 85.6365C55.2961 83.792 55.2551 81.0867 56.4848 79.2011C56.7718 78.7502 57.5915 78.7502 57.6735 79.3651C58.2474 82.1114 59.1901 84.7347 59.6 87.522C59.805 88.9567 60.2149 91.4161 59.0262 92.5638C58.5753 93.0557 57.9605 93.3016 57.3456 93.4246C56.1159 93.7115 54.8452 93.8755 53.5745 94.0394C50.7872 94.4493 48.0409 94.7363 45.2126 94.9412C39.556 95.3511 33.8585 95.3921 28.3248 94.1214C24.8407 93.3426 20.7007 92.8917 17.9544 90.4323C14.3473 87.1941 15.3721 81.7835 16.2329 77.5615C16.3148 77.1516 16.3968 76.7417 16.4788 76.3318C16.4241 76.4685 16.3695 76.5915 16.3148 76.7008C16.2875 76.7008 16.2738 76.6734 16.2738 76.6188C16.5608 74.3233 17.0117 72.0279 17.2166 69.7325C16.5608 72.8067 15.618 75.84 14.6343 78.8322C14.1014 80.6358 13.3636 82.4803 12.8717 84.3658C12.5438 85.3086 12.2978 86.2514 12.2568 87.1941C12.2295 87.4401 12.2022 87.6724 12.1749 87.891C11.8879 91.3751 14.5113 93.2196 17.3806 94.4903C20.4138 95.802 23.611 96.4988 26.8902 96.8677C33.2436 97.5645 39.761 97.6055 46.0734 96.6218C49.0657 96.1709 51.9759 95.5151 54.9272 94.7772C56.1979 94.4493 57.4686 94.1624 58.6573 93.6295C59.4771 93.2606 60.8707 92.6048 61.0347 91.621C61.0893 91.3478 61.103 91.0745 61.0757 90.8012Z" fill="#AF9070"/>
</g>
<g style="mix-blend-mode:multiply" opacity="0.6">
<path d="M49.1887 58.2556C48.5738 58.2966 47.5901 58.5425 47.1802 58.5835C46.1554 58.6245 45.1717 58.6655 44.1469 58.7474C42.2067 58.8568 40.2665 58.9114 38.3264 58.9114C34.5143 58.8704 30.6613 58.5835 26.8902 57.8047C26.8356 57.832 26.7809 57.8457 26.7263 57.8457C25.8245 58.0916 26.3573 58.9114 26.6033 59.5263C26.8902 60.2231 27.0132 60.797 26.9722 61.5348C26.8492 63.6253 26.6853 65.6337 26.6443 67.7242C26.6033 72.1921 26.7672 77.4798 31.3171 79.6932C34.6783 81.3328 38.9412 81.2099 42.3843 79.9802C44.2699 79.2833 46.1144 78.2176 47.2211 76.455C48.3689 74.5285 48.8197 72.2741 48.9017 70.0606C49.0247 67.3963 48.8197 64.8139 48.2459 62.2316C47.9999 61.1249 48.0409 60.2231 48.6558 59.2393C48.8607 58.9114 49.0247 58.5835 49.1887 58.2556Z" fill="#AF9070"/>
</g>
<g style="mix-blend-mode:multiply" opacity="0.6">
<path d="M27.587 60.5098C27.587 61.0837 27.5051 61.6985 27.4641 62.3134C27.3821 63.5431 27.4231 64.7318 27.3821 65.9615C27.3821 68.011 27.2591 70.1834 28.0379 72.1099C29.7185 76.4958 34.7602 77.8485 39.0232 77.1107C43.573 76.2909 48.0819 73.7495 48.4508 68.6258C48.6148 66.0844 48.3279 63.3791 47.754 60.8787C47.59 60.2229 47.5081 59.608 47.5081 59.0342C45.4176 59.1981 43.2861 59.2391 41.1547 59.3621C38.8182 59.4441 36.4408 59.69 34.0634 59.69C31.9046 59.69 29.7458 59.5671 27.587 59.3211C27.5051 59.69 27.587 60.1819 27.587 60.5098Z" fill="#AF9070"/>
</g>
<path d="M51.4836 30.7512C51.3197 30.4643 51.0327 30.2593 50.7458 30.0544C50.9507 29.8904 51.1147 29.6855 51.2787 29.4806C51.3606 29.3166 51.1967 29.3166 51.1147 29.3986C50.9098 29.5215 50.7458 29.7265 50.5409 29.9314C50.2949 29.7265 50.008 29.5215 49.6801 29.4396C49.6391 29.4396 49.5571 29.4805 49.5981 29.5215C49.8987 29.6855 50.1719 29.8768 50.4179 30.0954C50.3906 30.1227 50.3769 30.1501 50.3769 30.1774C50.131 30.4233 50.008 30.7512 49.762 30.9972C49.7211 31.0382 49.803 31.0792 49.844 31.0382C50.131 30.8332 50.2539 30.5463 50.4999 30.3413C50.5272 30.314 50.5545 30.273 50.5818 30.2184C50.8278 30.437 51.0601 30.6693 51.2787 30.9152C51.3606 30.9562 51.5656 30.8332 51.4836 30.7512Z" fill="black"/>
<path d="M31.4402 30.8334C31.3172 30.5054 31.0303 30.2185 30.7434 29.9726C30.9073 29.8086 31.1123 29.6446 31.2352 29.4397C31.3172 29.2757 31.1123 29.2758 31.0303 29.3577C30.8663 29.4944 30.7024 29.6447 30.5384 29.8086C30.5111 29.7813 30.4701 29.754 30.4154 29.7266C30.2515 29.6037 29.8006 29.1528 29.5547 29.2347C29.5273 29.2347 29.5137 29.2484 29.5137 29.2758C29.5137 29.3987 30.0055 29.7266 30.0875 29.8086C30.1695 29.8906 30.2515 29.9726 30.3335 30.0545C30.2515 30.1365 30.1832 30.2185 30.1285 30.3005C29.9646 30.5054 29.7596 30.6694 29.6366 30.9153C29.5957 30.9153 29.5547 30.9563 29.5547 30.9973C29.5957 31.0793 29.6776 31.0383 29.6776 30.9973C29.9236 30.7514 30.1695 30.5054 30.4154 30.2595C30.4428 30.2595 30.4701 30.2458 30.4974 30.2185C30.7434 30.4644 30.9483 30.7514 31.2352 30.9563C31.3172 31.0383 31.4812 30.9563 31.4402 30.8334Z" fill="black"/>
<path d="M48.492 67.519C48.533 65.1006 47.8772 62.5592 47.3443 60.1818C47.3853 59.9359 47.4263 59.403 47.2213 59.2801C46.7295 58.8702 46.3196 59.0341 45.6637 59.1161C43.6962 59.362 41.6877 59.239 39.7202 59.239C35.8672 59.1981 31.9731 59.321 28.1201 58.9111C28.0791 58.9111 27.9561 58.9931 27.9561 59.0341C27.8742 59.7309 27.9151 60.3868 27.9151 61.0836C27.5462 64.9366 26.8084 68.8716 29.0629 72.2738C31.1943 75.471 35.2523 76.2498 38.8184 75.9629C41.8107 75.7579 45.1718 75.0201 47.0574 72.4787C48.0001 71.1671 48.451 69.0766 48.492 67.519Z" fill="black"/>
<path d="M28.0376 59.6489C28.0376 59.9222 28.024 60.1818 27.9967 60.4277C27.9557 60.1408 27.9557 59.8539 28.0376 59.6489Z" fill="white"/>
<path d="M46.9341 71.659C45.6224 74.6103 41.7284 75.2661 38.9001 75.512C35.088 75.8809 31.235 74.8562 29.1035 71.495C26.8491 68.0109 28.0378 63.502 28.1607 59.608C28.1607 59.567 28.0378 59.608 28.0378 59.649C28.1607 59.3621 28.3657 59.2391 28.7756 59.3211C29.5954 59.485 30.4972 59.485 31.317 59.526C33.2845 59.608 35.252 59.608 37.2195 59.649C39.146 59.69 41.0315 59.731 42.9581 59.69C43.6959 59.69 44.4337 59.6627 45.1715 59.608C45.4994 59.567 46.6881 59.2801 46.8111 59.772C46.8931 60.0589 46.8111 60.1819 46.9341 60.4278C47.057 62.1904 47.5079 63.9529 47.7129 65.7155C47.9998 67.683 47.7948 69.8554 46.9341 71.659Z" fill="#FFF3DC"/>
<g style="mix-blend-mode:multiply" opacity="0.5">
<path d="M47.7129 65.7155C47.5079 63.9529 47.057 62.1904 46.9341 60.4278C46.8111 60.1819 46.8931 60.0589 46.8111 59.772C46.6881 59.2801 45.4994 59.567 45.1715 59.608C44.4337 59.6627 43.6959 59.69 42.9581 59.69C42.7121 59.69 42.4525 59.69 42.1792 59.69C43.286 60.0999 44.3517 60.4688 45.0075 61.4935C46.0733 63.1331 45.8683 65.5105 45.1305 67.2731C44.3927 69.0357 43.245 70.3883 41.4414 71.1261C39.7199 71.8639 37.7523 72.0279 35.8668 71.823C34.1862 71.659 32.3417 71.1261 31.235 69.7325C30.1692 68.3798 29.7184 66.7402 29.6364 65.0596C29.5954 63.584 29.3494 61.8215 30.0463 60.5098C30.2922 60.0999 30.5791 59.772 30.9071 59.526C30.2102 59.485 29.4724 59.485 28.7756 59.3211C28.3657 59.2391 28.1607 59.3621 28.0378 59.649C28.0378 59.608 28.1607 59.567 28.1607 59.608C28.0378 63.502 26.8491 68.0109 29.1035 71.495C31.235 74.8562 35.088 75.8809 38.9001 75.512C41.7284 75.2661 45.6224 74.6103 46.9341 71.659C47.7948 69.8554 47.9998 67.683 47.7129 65.7155Z" fill="#D9CAAC"/>
</g>
<g style="mix-blend-mode:multiply" opacity="0.5">
<path d="M47.7129 65.7155C47.5079 63.9529 47.057 62.1904 46.9341 60.4278C46.8111 60.1819 46.8931 60.0589 46.8111 59.772C46.6881 59.2801 45.4994 59.567 45.1715 59.608C45.0075 59.608 44.8436 59.6217 44.6796 59.649C47.303 61.8214 46.9341 66.4123 45.7044 69.2406C44.1468 72.8887 38.6541 74.1184 35.129 73.0527C33.0795 72.4378 31.194 71.1671 30.1282 69.2406C29.3085 67.806 29.0625 66.2074 28.8986 64.5678C28.7756 63.1741 28.7346 60.7967 29.5544 59.444C29.3085 59.4167 29.0489 59.3757 28.7756 59.3211C28.3657 59.2391 28.1607 59.3621 28.0378 59.649C28.0378 59.608 28.1607 59.567 28.1607 59.608C28.0378 63.502 26.8491 68.0109 29.1035 71.495C31.235 74.8562 35.088 75.8809 38.9001 75.512C41.7284 75.2661 45.6224 74.6103 46.9341 71.659C47.7948 69.8554 47.9998 67.683 47.7129 65.7155Z" fill="#D9CAAC"/>
</g>
<path d="M28.5707 61.0017C28.4887 60.9607 28.4477 60.9197 28.4887 60.8378C28.5707 60.3049 28.6117 59.936 28.6117 59.936C28.6117 59.895 28.6937 59.854 28.7347 59.854C28.8167 59.854 28.8576 59.936 28.8576 59.977C28.8576 59.977 28.7757 60.3459 28.6937 60.8787C28.6937 60.9607 28.6117 61.0017 28.5707 61.0017Z" fill="black"/>
<path d="M34.6375 74.9382C34.2549 74.8289 33.886 74.7059 33.5307 74.5693C33.4488 74.5693 33.4488 74.4873 33.4488 74.4464C33.4898 74.3644 33.5307 74.3234 33.6127 74.3644C34.1593 74.5557 34.7194 74.7059 35.2933 74.8152C35.3753 74.8562 35.4163 74.8972 35.3753 74.9792C35.3753 75.0202 35.2933 75.0612 35.2523 75.0612C35.061 75.0065 34.8561 74.9655 34.6375 74.9382ZM37.0149 75.2661C36.9739 75.2661 36.9329 75.2251 36.9329 75.1432C36.9329 75.1022 36.9739 75.0612 37.0559 75.0612C37.6297 75.0885 38.2172 75.0748 38.8184 75.0202C38.8594 75.0202 38.9414 75.0612 38.9414 75.1432C38.9414 75.1841 38.9004 75.2661 38.8184 75.2661C38.2172 75.2935 37.6161 75.2935 37.0149 75.2661ZM31.9321 73.8315C31.9321 73.8315 31.9185 73.8178 31.8912 73.7905C31.3719 73.4899 30.8937 73.1347 30.4565 72.7248C30.4155 72.6838 30.4155 72.6428 30.4565 72.6018C30.4975 72.5198 30.5385 72.5198 30.6205 72.5608C31.0304 72.9434 31.4949 73.2986 32.0141 73.6266C32.0551 73.6266 32.0961 73.7085 32.0551 73.7495C32.0141 73.8315 31.9731 73.8315 31.9321 73.8315ZM40.54 74.9792C40.4853 74.9792 40.458 74.9519 40.458 74.8972C40.458 74.8153 40.499 74.7743 40.54 74.7743C41.1685 74.6376 41.7424 74.4873 42.2616 74.3234C42.3026 74.3234 42.3845 74.3234 42.3845 74.4053C42.4255 74.4463 42.3845 74.5283 42.3435 74.5283C41.797 74.6923 41.2095 74.8426 40.581 74.9792C40.581 74.9792 40.5673 74.9792 40.54 74.9792ZM29.3498 71.4131C29.3225 71.4131 29.2951 71.3994 29.2678 71.3721C29.2132 71.3175 29.1585 71.2491 29.1038 71.1672C28.8579 70.7846 28.6666 70.3064 28.53 69.7325C28.489 69.6915 28.53 69.6095 28.612 69.6095C28.653 69.5685 28.7349 69.6095 28.7349 69.6915C28.8989 70.2107 29.0902 70.6616 29.3088 71.0442C29.3634 71.1262 29.4181 71.1945 29.4728 71.2491C29.4728 71.2901 29.4728 71.3721 29.4318 71.4131C29.4044 71.4404 29.3771 71.4404 29.3498 71.4131ZM43.9012 73.9135C43.8738 73.8861 43.8602 73.8588 43.8602 73.8315C43.8192 73.7905 43.8192 73.7085 43.9012 73.6675C44.4477 73.3943 44.9396 73.08 45.3768 72.7248C45.4178 72.6838 45.4998 72.7248 45.5408 72.7658C45.5817 72.8067 45.5408 72.8887 45.4998 72.9297C45.0899 73.285 44.5843 73.5992 43.9831 73.8725C43.9558 73.8998 43.9285 73.9135 43.9012 73.9135ZM28.2841 68.0929C28.2294 68.0656 28.2021 68.0246 28.2021 67.9699C28.1201 67.4234 28.0791 66.8359 28.0791 66.2074C28.0791 66.1254 28.1201 66.0844 28.2021 66.0844C28.2431 66.0844 28.325 66.1254 28.325 66.1664C28.325 66.8222 28.3524 67.4234 28.407 67.9699C28.407 68.0109 28.366 68.0519 28.325 68.0929C28.2977 68.0929 28.2841 68.0929 28.2841 68.0929ZM46.5655 71.5771C46.5655 71.5771 46.5518 71.5771 46.5245 71.5771C46.4835 71.5361 46.4425 71.4951 46.4835 71.4131C46.7568 71.0032 46.9481 70.5386 47.0574 70.0194C47.0847 69.9375 47.0984 69.8691 47.0984 69.8145C47.1394 69.7325 47.1803 69.6915 47.2623 69.7325C47.3033 69.7325 47.3443 69.8145 47.3443 69.8555C47.317 69.9375 47.3033 70.0058 47.3033 70.0604C47.1667 70.607 46.9617 71.0988 46.6885 71.5361C46.6475 71.5771 46.6065 71.6181 46.5655 71.5771ZM28.2021 64.5268C28.1611 64.5268 28.1201 64.4448 28.1201 64.4039C28.1474 63.83 28.1884 63.2425 28.2431 62.6413C28.2431 62.5593 28.325 62.5183 28.366 62.5183C28.448 62.5183 28.489 62.6003 28.489 62.6413C28.407 63.2425 28.3524 63.83 28.325 64.4039C28.325 64.4858 28.2841 64.5268 28.2021 64.5268ZM47.3443 68.1749C47.3033 68.1749 47.2623 68.1339 47.2623 68.0519C47.235 67.5327 47.194 66.9452 47.1394 66.2894C47.1394 66.2484 47.1803 66.1664 47.2213 66.1664C47.3033 66.1664 47.3443 66.2074 47.3443 66.2894C47.4263 66.9452 47.4673 67.5327 47.4673 68.0519C47.4673 68.1339 47.4263 68.1749 47.3443 68.1749ZM47.0164 64.6498C46.9617 64.6225 46.9344 64.5815 46.9344 64.5268C46.8524 63.9803 46.7568 63.3928 46.6475 62.7643C46.6475 62.7233 46.6885 62.6413 46.7295 62.6413C46.8114 62.6413 46.8524 62.6823 46.8934 62.7233C46.9754 63.3518 47.0574 63.9393 47.1394 64.4858C47.1803 64.5678 47.0984 64.6088 47.0574 64.6498C47.03 64.6498 47.0164 64.6498 47.0164 64.6498Z" fill="black"/>
<path d="M46.4012 61.1245C46.3739 61.0972 46.3466 61.0699 46.3192 61.0426C46.2373 60.4687 46.1553 60.1408 46.1553 60.1408C46.1553 60.0588 46.1963 60.0178 46.2373 59.9768C46.3192 59.9768 46.3602 60.0178 46.4012 60.0998C46.4012 60.0998 46.4422 60.4277 46.5652 61.0016C46.5652 61.0425 46.5242 61.1245 46.4832 61.1245C46.4559 61.1245 46.4285 61.1245 46.4012 61.1245Z" fill="black"/>
<path d="M38.203 83.792C38.6539 83.0952 39.2688 82.5213 39.7197 81.7835C40.1706 80.9227 40.4575 79.9799 40.5804 78.9962C40.7854 77.2746 40.2525 75.553 39.0638 74.2824C39.0365 74.2004 38.9818 74.1047 38.8999 73.9954C37.5062 71.9869 34.9239 71.1261 32.5874 70.8802C29.7591 70.5523 26.9309 71.2491 24.3075 72.1919C21.3153 73.2986 18.446 74.7742 15.6177 76.1679C12.5024 77.7255 8.64941 79.9389 5.12429 78.6683C4.85102 78.559 4.59142 78.4497 4.34548 78.3404C3.03381 76.9467 2.95183 74.0364 2.99282 72.3968C3.11579 68.7487 4.55043 65.3466 6.23101 62.1494C8.03456 58.7062 10.125 55.509 12.8304 52.7217C13.4042 52.1479 13.9917 51.5877 14.5929 51.0411C15.0028 50.6722 15.5767 50.3853 15.8636 49.8525C16.6834 48.2539 14.5109 47.0242 15.8226 45.2616C15.8636 45.2206 15.7816 45.1796 15.7406 45.2206C15.7406 45.2206 15.7406 45.2343 15.7406 45.2616C15.7133 45.2616 15.6996 45.2616 15.6996 45.2616C10.6169 48.7047 7.05081 54.2384 4.05855 59.4851C2.37797 62.3543 1.14828 65.3876 0.410461 68.6258C0.000563495 70.4293 -0.163396 72.3148 0.205512 74.0774C0.492441 76.9877 3.0748 79.898 5.53418 81.0047C7.21477 81.7425 9.30524 82.1114 11.0678 81.9064C12.9533 81.7015 14.7569 80.7178 16.3555 79.775C18.282 78.6683 20.0856 77.4386 22.0941 76.4958C24.0616 75.553 26.0701 74.8152 28.1605 74.4053C30.374 73.9544 32.6284 73.7905 34.8419 74.2004C36.6864 74.5693 38.6949 75.512 38.8999 77.4796C38.449 79.0372 36.8504 80.3898 35.8256 81.3736C34.7599 82.3573 33.5302 83.4231 33.2023 84.8577C32.9973 85.8415 33.7352 86.4973 34.473 86.9482C35.4157 87.686 36.6044 87.891 37.7931 87.522C38.203 87.3991 38.6129 87.0302 38.6949 86.6203C38.8999 85.4726 37.3423 85.1447 38.203 83.792Z" fill="black"/>
<path d="M3.73071 61.0017C5.20634 58.0095 7.09187 55.2222 9.05938 52.5168C10.9039 49.9345 12.9944 47.5161 15.4948 45.5486C14.757 46.4913 14.9209 47.3111 15.4128 48.4998C15.9867 49.8935 14.552 50.5903 13.6912 51.3691C12.9944 52.0249 12.2976 52.7218 11.6417 53.4186C8.85443 56.4109 6.84593 59.977 5.00139 63.6251C3.40279 66.6993 2.33705 70.3064 2.50101 73.8315C2.542 75.0202 2.74695 76.6188 3.40279 77.7665C-1.67995 74.2414 1.47627 65.5106 3.73071 61.0017Z" fill="#D9CAAC"/>
<g style="mix-blend-mode:multiply">
<path d="M2.62357 70.9622C2.54159 71.0989 2.45961 71.2491 2.37763 71.4131C2.13169 71.782 1.63981 71.823 1.3119 71.5361C1.06596 71.2901 0.861009 71.0032 0.69705 70.6753C0.492101 73.5446 1.10695 76.1679 3.40238 77.7665C2.74654 76.6188 2.54159 75.0202 2.5006 73.8315C2.44595 72.8751 2.48694 71.9187 2.62357 70.9622Z" fill="#D9CAAC"/>
</g>
<g style="mix-blend-mode:multiply">
<path d="M15.4129 48.4998C14.9211 47.3111 14.7571 46.4913 15.4949 45.5486C14.2652 46.4913 13.1175 47.5571 12.0928 48.7048C12.2021 48.7321 12.2977 48.7594 12.3797 48.7868C13.8143 49.1967 13.5684 50.7953 13.1585 51.902C13.3225 51.7107 13.5001 51.5331 13.6914 51.3691C14.5522 50.5903 15.9868 49.8935 15.4129 48.4998Z" fill="#D9CAAC"/>
</g>
<path d="M32.4648 73.4624C28.6527 73.3805 25.0046 74.6102 21.6025 76.2088C17.6675 78.1353 13.6505 82.2752 8.93663 81.4145C6.55922 80.9636 4.6327 80.2257 2.95212 78.3812C2.95212 78.3539 2.93846 78.3266 2.91113 78.2992C7.01011 81.4144 12.8307 78.1353 16.9706 76.0858C22.4633 73.3805 29.1446 69.7324 35.375 72.1918C36.9327 72.8476 38.4083 74.0773 38.9002 75.7169C37.7115 73.8723 34.4733 73.4624 32.4648 73.4624Z" fill="#FFF3DC"/>
<g style="mix-blend-mode:multiply" opacity="0.5">
<path d="M17.3395 78.5863C16.3968 78.9142 14.8801 79.693 13.8554 79.4881C12.9126 79.2831 13.7734 78.1354 14.1423 77.8075C14.7982 77.2746 15.536 76.9057 16.2738 76.5368C16.5197 76.4002 16.752 76.2499 16.9706 76.0859C12.8307 78.1354 7.01011 81.4146 2.91113 78.2994C2.93846 78.3267 2.95212 78.354 2.95212 78.3814C4.6327 80.2259 6.55922 80.9637 8.93663 81.4146C12.2158 81.9885 15.1671 80.1849 17.9954 78.3814C17.7768 78.4633 17.5581 78.5317 17.3395 78.5863Z" fill="#D9CAAC"/>
</g>
<g style="mix-blend-mode:multiply" opacity="0.5">
<path d="M35.3751 72.1919C34.0634 71.7 32.7107 71.4541 31.3581 71.4131C32.2188 71.5361 32.9567 71.823 33.4076 72.6838C33.4895 72.8477 33.4076 73.0117 33.2436 73.0117C32.3418 73.0117 31.563 73.2166 30.8252 73.5036C31.3717 73.4489 31.9183 73.4352 32.4648 73.4626C34.4733 73.4626 37.7115 73.8725 38.9002 75.717C38.4083 74.0774 36.9327 72.8477 35.3751 72.1919Z" fill="#D9CAAC"/>
</g>
<g style="mix-blend-mode:multiply" opacity="0.5">
<path d="M35.3744 72.192C35.0465 72.0826 34.7185 71.9733 34.3906 71.864C34.6776 72.1919 34.9235 72.6018 35.0875 73.0117C35.1284 73.2167 35.0875 73.4626 35.0055 73.6676C36.5631 73.9545 38.1207 74.5284 38.8995 75.7171C38.4076 74.0775 36.932 72.8478 35.3744 72.192Z" fill="#D9CAAC"/>
</g>
<path d="M36.5634 87.2762C35.5796 87.2352 34.8008 86.4973 34.104 85.8825C34.0767 85.8825 34.0493 85.8825 34.022 85.8825C33.6531 85.1857 33.6941 84.4479 34.4729 83.5051C35.4157 82.3164 36.6454 81.3736 37.7111 80.2669C38.9818 78.9552 39.8835 77.3566 39.6376 75.717C40.5394 78.1354 40.1705 80.8817 38.4079 82.9312C37.6701 83.792 37.0553 84.5708 37.6701 85.6366C37.8751 85.9645 38.039 86.1694 38.162 86.5384C38.4079 87.2762 36.8913 87.2762 36.5634 87.2762Z" fill="#FFF3DC"/>
<g style="mix-blend-mode:multiply" opacity="0.5">
<path d="M37.6701 85.6365C37.4652 85.3086 37.4242 85.0217 37.4242 84.7347C37.0143 84.8987 36.5907 84.9943 36.1535 85.0217C35.6616 85.0217 35.2927 84.6118 35.2927 84.1609C35.2517 83.423 35.4157 82.8082 35.6616 82.1934C35.2517 82.6033 34.8418 83.0132 34.4729 83.505C33.6941 84.4478 33.6531 85.1856 34.022 85.8824C34.0493 85.8824 34.0767 85.8824 34.104 85.8824C34.8008 86.4973 35.5796 87.2351 36.5634 87.2761C36.8913 87.2761 38.4079 87.2761 38.162 86.5383C38.039 86.1694 37.8751 85.9644 37.6701 85.6365Z" fill="#D9CAAC"/>
</g>
<path d="M79.9719 62.3544C80.4228 57.5176 75.381 54.1565 71.569 52.4349C69.9704 51.6971 68.2898 51.1232 66.6502 50.3854C64.7237 49.5246 62.8791 48.4179 60.9116 47.6391C60.8843 47.6117 60.8706 47.5981 60.8706 47.5981C60.8433 47.5981 60.8297 47.5981 60.8297 47.5981C60.7887 47.5571 60.6657 47.6801 60.7067 47.7211C60.734 47.7484 60.775 47.7757 60.8297 47.803C61.4035 48.9508 60.8297 49.9345 60.6247 51.1232C60.5017 51.82 60.7887 52.3939 61.4445 52.7218C62.3463 53.1727 63.33 53.2957 64.3138 53.5416C65.7074 53.9515 67.1011 54.4024 68.4538 55.0172C70.7492 56.042 72.9626 57.4766 74.6432 59.4031C76.4058 61.4526 77.4715 64.7318 75.7499 67.1502C74.4383 67.765 72.9626 68.052 71.6919 68.011C64.8467 67.7651 59.436 62.3544 54.7222 58.0095C52.3448 55.837 49.8034 53.8285 46.6882 52.9677C44.1058 52.2299 41.4825 52.5988 39.1051 53.7466C37.5884 54.4844 36.1948 55.5911 34.8831 56.6568C34.8011 56.6978 34.8421 56.7798 34.8831 56.8208C34.3093 57.7636 35.7029 59.0342 36.6867 59.2802C38.6952 59.7721 40.9086 57.9275 42.6302 57.1897C46.0323 55.6731 49.0656 58.2144 51.402 60.4279C53.4925 62.4364 55.378 64.6088 57.4275 66.6173C61.1576 70.2654 65.7894 73.2987 71.2001 72.028C73.4545 71.5361 75.7499 70.2654 77.3485 68.5848C78.8242 66.9862 80.2178 64.6498 79.9719 62.3544Z" fill="black"/>
<path d="M70.6668 55.4681C68.3304 54.1564 65.789 53.3366 63.1657 52.8037C62.6328 52.6807 62.1 52.5578 61.6081 52.2709C60.8293 51.82 61.1162 50.8772 61.3211 50.1804C61.5261 49.4016 61.6491 48.7867 61.3211 48.1719C63.7805 49.9344 66.7318 51.2871 69.5601 52.3528C71.8965 53.2546 74.1919 54.4433 76.1185 56.1239C78.086 57.8455 79.6026 60.5508 79.1107 63.2561C78.8238 64.8137 77.7171 66.0024 76.3234 66.8222C79.2747 62.3543 74.3149 57.5995 70.6668 55.4681Z" fill="#D9CAAC"/>
<g style="mix-blend-mode:multiply">
<path d="M64.3134 52.3119C63.8215 51.902 64.2314 51.2051 64.7643 51.1641C65.7071 51.0821 66.5678 51.2871 67.4696 51.4921C65.2972 50.5903 63.1657 49.4835 61.3211 48.1719C61.6491 48.7867 61.5261 49.4016 61.3211 50.1804C61.1162 50.8772 60.8293 51.82 61.6081 52.2709C62.1 52.5578 62.6328 52.6807 63.1657 52.8037C63.9035 52.9403 64.6413 53.118 65.3791 53.3366C65.0239 52.9814 64.6686 52.6398 64.3134 52.3119Z" fill="#D9CAAC"/>
</g>
<g style="mix-blend-mode:multiply">
<path d="M76.1183 56.1238C75.9543 55.9872 75.804 55.8642 75.6674 55.7549C76.4462 56.3697 79.5614 60.0178 77.6759 61.4525C77.102 61.8624 76.5692 60.5507 76.2823 60.0588C75.8724 59.485 75.2575 59.239 74.7656 58.7471C76.8971 61.0426 78.2088 63.9938 76.3232 66.8221C77.7169 66.0023 78.8236 64.8136 79.1105 63.256C79.6024 60.5507 78.0858 57.8454 76.1183 56.1238Z" fill="#D9CAAC"/>
</g>
<path d="M76.6101 68.5849C74.8475 70.3474 72.3472 71.4132 69.9288 71.7821C64.805 72.4789 60.4601 68.7488 57.099 65.4287C55.4184 63.7481 53.8198 61.9445 52.1392 60.2639C50.4176 58.6244 48.5321 56.9848 46.1547 56.3699C44.3511 55.919 42.6296 56.7388 41.0719 57.5586C40.0472 58.0915 39.0635 58.6244 37.9157 58.9113C36.932 59.1572 34.2267 57.9275 35.2514 56.6159C37.6698 54.9353 40.2112 53.3367 43.2444 53.1727C46.8515 53.0088 50.0897 55.0173 52.7131 57.2307C57.5908 61.3297 61.8948 66.3304 68.2482 68.134C70.7076 68.8308 73.3719 68.8718 75.7083 67.7241C76.815 67.1912 77.8398 66.4944 78.5776 65.5926C78.1267 66.6584 77.5119 67.6421 76.6101 68.5849Z" fill="#FFF3DC"/>
<g style="mix-blend-mode:multiply" opacity="0.5">
<path d="M55.2547 62.3134C54.6809 61.3707 53.6151 59.8131 54.4759 58.7883C53.9021 58.2691 53.3146 57.7499 52.7134 57.2307C50.09 55.0173 46.8518 53.0088 43.2447 53.1727C43.0534 53.1727 42.8485 53.1864 42.6299 53.2137C43.1218 53.3777 43.5317 53.6236 43.9416 54.0745C44.4744 54.7713 44.4334 55.6321 44.0235 56.3699C44.7204 56.2469 45.4172 56.206 46.155 56.3699C48.5324 56.9848 50.4179 58.6244 52.1395 60.2639C53.8201 61.9445 55.4187 63.7481 57.0993 65.4287C57.3725 65.6746 57.6321 65.9205 57.8781 66.1665C56.8943 64.9778 56.0335 63.7071 55.2547 62.3134Z" fill="#D9CAAC"/>
</g>
<g style="mix-blend-mode:multiply" opacity="0.5">
<path d="M50.8688 58.5424C50.3769 57.8456 50.008 57.1487 50.2539 56.288C50.2949 56.165 50.3769 56.124 50.4999 56.165C50.8688 56.247 51.2787 56.288 51.6886 56.4109C49.885 55.0173 47.8355 53.8286 45.6221 53.3777C46.4419 53.9515 46.9337 54.7713 46.2779 55.7141C46.1139 55.9327 45.9227 56.124 45.704 56.288C45.8407 56.3153 45.991 56.3426 46.1549 56.3699C48.4504 56.9438 50.2949 58.5014 51.9345 60.1C51.5656 59.6081 51.1967 59.0753 50.8688 58.5424Z" fill="#D9CAAC"/>
</g>
<path d="M50.0488 37.3098C49.393 38.9084 48.9011 40.548 48.0403 42.0646C47.2615 43.3353 46.1958 44.442 45.0481 45.4258C43.0396 47.1064 40.5802 48.1311 38.0798 48.9099C33.202 50.4265 28.0373 51.3693 24.0613 54.8534C23.9793 54.9354 24.0613 55.0174 24.1433 54.9764C28.5702 51.4513 34.2678 50.9594 39.4325 49.1969C41.8099 48.418 44.0643 47.2703 45.9498 45.5898C48.3273 43.3763 49.434 40.4251 50.2128 37.3508C50.2128 37.2688 50.0898 37.2278 50.0488 37.3098Z" fill="#D0B092"/>
<path d="M51.8525 76.9468C50.6228 80.9638 50.7868 86.0875 47.3027 88.9978C44.8843 91.0063 41.5641 91.7031 38.4899 91.9081C35.2107 92.072 31.8085 91.6211 28.6933 90.5144C25.988 89.5716 23.2007 88.014 21.848 85.3907C21.807 85.3087 21.6841 85.3497 21.725 85.4317C22.7088 87.973 25.1272 89.6536 27.5456 90.7193C30.5788 92.072 33.981 92.6049 37.2602 92.6049C40.3754 92.6049 43.6136 92.072 46.3599 90.5144C49.7211 88.5469 50.5409 84.8988 51.1967 81.2917C51.4836 79.8571 51.7296 78.4224 51.9755 76.9878C51.9755 76.9058 51.8935 76.8648 51.8525 76.9468Z" fill="#D0B092"/>
<path d="M46.7289 34.1945C44.0236 37.0638 39.6786 38.6214 35.7846 38.6624C35.6616 38.6624 35.6616 38.8263 35.7846 38.8263C39.8016 39.0723 44.3515 37.5966 46.8519 34.3175C46.9338 34.2355 46.8109 34.1535 46.7289 34.1945Z" fill="#D0B092"/>
<path d="M46.3605 32.1449C43.9421 33.8665 40.9909 34.4404 38.0806 33.7025C37.9986 33.6616 37.9986 33.7845 38.0396 33.8255C40.54 34.6863 44.8029 34.6863 46.4835 32.2679C46.4835 32.1859 46.4425 32.1039 46.3605 32.1449Z" fill="#D0B092"/>
<path d="M28.0377 72.0688C23.16 72.8067 18.6921 75.348 14.5111 77.8074C14.4701 77.8484 14.5111 77.9304 14.5521 77.9304C16.7656 76.9876 18.856 75.9629 21.0285 74.9791C23.3239 73.9134 25.7423 73.1346 28.0787 72.2328C28.1607 72.1918 28.1607 72.0688 28.0377 72.0688Z" fill="white"/>
<path d="M39.7609 79.2832C39.269 80.7179 38.6541 81.9475 37.7114 83.1362C37.6704 83.1772 37.7524 83.2592 37.7933 83.2182C38.8591 82.1525 39.8428 80.8818 40.0068 79.3242C40.0068 79.1602 39.8018 79.1602 39.7609 79.2832Z" fill="white"/>
<path d="M41.6875 53.7876C39.474 54.1565 37.4245 55.2632 35.9079 56.9028C35.8259 56.9848 35.9489 57.0668 36.0309 57.0258C37.6705 55.5092 39.7199 54.8124 41.7694 53.9926C41.8924 53.9516 41.8514 53.7466 41.6875 53.7876Z" fill="white"/>
<path d="M42.4249 60.3869C40.6214 60.3869 38.8178 60.7558 37.0143 60.8378C34.9648 60.9608 32.9563 60.6328 30.9478 60.3049C30.7838 60.2639 30.7019 60.4689 30.8248 60.5508C32.5464 61.2477 34.4729 61.4526 36.3175 61.4936C38.326 61.5756 40.5804 61.4116 42.4659 60.7148C42.6709 60.6738 42.6709 60.3869 42.4249 60.3869Z" fill="white"/>
<path d="M74.9293 68.2568C72.8389 68.7897 70.7074 69.1586 68.5759 68.8307C66.8544 68.5847 65.2557 67.8879 63.7391 67.0271C60.7469 65.3055 58.2875 62.7642 55.6641 60.5507C55.5412 60.4687 55.4182 60.5917 55.5002 60.6737C58.0825 63.338 60.7059 66.0024 63.9441 67.8469C65.4197 68.6667 67.0593 69.2406 68.7809 69.4455C70.9533 69.6914 72.9208 68.9946 74.9293 68.3798C75.0113 68.3388 74.9703 68.2158 74.9293 68.2568Z" fill="white"/>
<path d="M30.784 3.32929C28.5295 4.68195 26.767 6.64946 26.0701 9.27281C25.4553 11.6092 25.8652 14.1096 26.8899 16.2821C26.8899 16.323 26.9719 16.2821 26.9719 16.2411C26.2341 14.0276 26.0291 11.6912 26.603 9.39577C27.2588 6.81342 29.0214 5.17381 30.8659 3.41125C30.9069 3.37026 30.8659 3.2883 30.784 3.32929Z" fill="white"/>
<path d="M53.4099 10.1743C52.7131 7.87886 51.0325 5.62442 49.2699 4.02582C49.2289 3.98483 49.1469 4.06681 49.1879 4.1078C49.8438 4.96859 50.6226 5.74739 51.1964 6.69016C51.8933 7.75589 52.4261 8.82164 52.836 10.0103C53.6558 12.5517 53.2459 15.0931 52.3032 17.5115C52.2622 17.6344 52.4671 17.7164 52.5491 17.5935C53.7788 15.339 54.1067 12.6337 53.4099 10.1743Z" fill="white"/>
</svg>
