<svg width="32" height="35" viewBox="0 0 32 35" fill="none" xmlns="http://www.w3.org/2000/svg">
<path opacity="0.3" d="M16 34.3572C24.8366 34.3572 32 27.0762 32 18.0946C32 9.11304 24.8366 1.83203 16 1.83203C7.16344 1.83203 0 9.11304 0 18.0946C0 27.0762 7.16344 34.3572 16 34.3572Z" fill="#1A1A1A"/>
<path d="M16 32.6614C24.8366 32.6614 32 25.3804 32 16.3988C32 7.41724 24.8366 0.13623 16 0.13623C7.16344 0.13623 0 7.41724 0 16.3988C0 25.3804 7.16344 32.6614 16 32.6614Z" fill="#42210B"/>
<path d="M16 30.2197C24.236 30.2197 30.9125 23.5431 30.9125 15.3071C30.9125 7.07112 24.236 0.394531 16 0.394531C7.76399 0.394531 1.0874 7.07112 1.0874 15.3071C1.0874 23.5431 7.76399 30.2197 16 30.2197Z" fill="url(#paint0_linear_6_675)"/>
<path d="M25.0288 17.8543L31.1397 17.5668C31.2489 16.8292 31.3071 16.075 31.3071 15.307C31.3071 14.2293 31.1944 13.178 30.9825 12.1633L24.1485 11.4514L30.6717 10.9409C29.9291 8.44203 28.5677 6.21024 26.7622 4.42462L15.2644 3.44766H25.6761C23.0389 1.29339 19.6708 0 16 0C9.06225 0 3.20579 4.617 1.3272 10.945L8.70141 11.5715L1.01175 12.1881C0.80326 13.1951 0.692871 14.2382 0.692871 15.307C0.692871 16.0912 0.752414 16.8614 0.866217 17.6138L4.77959 18.0944L1.16402 19.0858C1.99773 22.3685 3.89365 25.2254 6.46262 27.2753L7.821 26.1781L7.52768 28.055C8.04991 28.4027 8.59542 28.7177 9.16012 29.0003L10.3021 27.4586V29.5138C12.0638 30.221 13.9854 30.614 16 30.614C18.7154 30.614 21.2637 29.904 23.4747 28.6639L23.1453 26.8184L24.4021 28.1C27.6386 25.97 30.0163 22.6461 30.9125 18.754L25.0288 17.8543Z" fill="url(#paint1_linear_6_675)"/>
<path d="M25.0288 17.8543L31.1397 17.5668C31.2489 16.8292 31.3071 16.075 31.3071 15.307C31.3071 14.2293 31.1944 13.178 30.9825 12.1633L24.1485 11.4514L30.6717 10.9409C29.9291 8.44203 28.5677 6.21024 26.7622 4.42462L15.2644 3.44766H25.6761C23.0389 1.29339 19.6708 0 16 0C9.06225 0 3.20579 4.617 1.3272 10.945L8.70141 11.5715L1.01175 12.1881C0.80326 13.1951 0.692871 14.2382 0.692871 15.307C0.692871 16.0912 0.752414 16.8614 0.866217 17.6138L4.77959 18.0944L1.16402 19.0858C1.99773 22.3685 3.89365 25.2254 6.46262 27.2753L7.821 26.1781L7.52768 28.055C8.04991 28.4027 8.59542 28.7177 9.16012 29.0003L10.3021 27.4586V29.5138C12.0638 30.221 13.9854 30.614 16 30.614C18.7154 30.614 21.2637 29.904 23.4747 28.6639L23.1453 26.8184L24.4021 28.1C27.6386 25.97 30.0163 22.6461 30.9125 18.754L25.0288 17.8543Z" fill="url(#paint2_linear_6_675)"/>
<path d="M15.2646 3.44775C19.0972 3.91346 22.9298 4.37916 26.7624 4.84486C28.4679 6.53164 29.7701 8.61962 30.5358 10.9516L30.6719 10.941C29.9293 8.44212 28.5679 6.21033 26.7624 4.42471L20.2098 3.86798C18.5615 3.72791 16.913 3.58783 15.2646 3.44775Z" fill="#FFCF83"/>
<path d="M24.1484 11.4517C26.4264 11.829 28.7044 12.2064 30.9824 12.5837C31.1827 13.5429 31.2908 14.5355 31.3024 15.5513C31.3037 15.47 31.307 15.389 31.307 15.3074C31.307 14.2296 31.1943 13.1784 30.9824 12.1636L26.4516 11.6916C25.6838 11.6116 24.9162 11.5316 24.1484 11.4517Z" fill="#FFCF83"/>
<path d="M3.72123 18.385L1.16406 19.0861C1.19741 19.2174 1.23523 19.3468 1.272 19.4767C2.44118 19.016 3.61044 18.5554 4.77962 18.0947C4.42682 18.1914 4.07403 18.2882 3.72123 18.385Z" fill="#B7724B"/>
<path d="M25.0288 17.8545C26.9555 18.2892 28.8821 18.7239 30.8088 19.1587C30.8437 19.0241 30.881 18.8904 30.9124 18.7543L27.1297 18.1758C26.4294 18.0688 25.7291 17.9616 25.0288 17.8545Z" fill="#B7724B"/>
<path d="M16 0.420149C19.4252 0.420149 22.5861 1.54695 25.1362 3.44766H25.676C23.0388 1.29339 19.6708 0 16 0C9.0622 0 3.20574 4.617 1.32715 10.945L1.45771 10.9561C3.46336 4.83973 9.21293 0.420149 16 0.420149Z" fill="#FFCF83"/>
<path d="M1.01175 12.6081C3.57494 12.2625 6.13822 11.9169 8.70142 11.5713C7.85331 11.6393 7.00512 11.7073 6.15702 11.7753L1.01175 12.1879C0.80326 13.1949 0.692871 14.238 0.692871 15.3068C0.692871 15.3879 0.696209 15.4682 0.697429 15.549C0.709143 14.5427 0.814893 13.559 1.01175 12.6081Z" fill="#FFCF83"/>
<path d="M24.2075 13.7806L16.7933 5.82322C16.3645 5.36296 15.6352 5.36296 15.2064 5.82322L7.7922 13.7806C7.14607 14.4741 7.63789 15.6044 8.58565 15.6044H10.0434V22.951C10.0434 23.827 10.7536 24.5371 11.6297 24.5371H20.3698C21.2459 24.5371 21.9561 23.827 21.9561 22.951V15.6044H23.414C24.3618 15.6044 24.8535 14.4741 24.2075 13.7806ZM18.1796 20.7606H13.8201V16.4011H18.1796V20.7606Z" fill="url(#paint3_linear_6_675)"/>
<path d="M16.0001 5.47825C16.2896 5.47825 16.5791 5.59335 16.7935 5.82348L24.2077 13.7809C24.8538 14.4743 24.3621 15.6046 23.4142 15.6046H21.9564V22.9513C21.9564 23.8273 21.2462 24.5374 20.3701 24.5374H11.6299C10.7539 24.5374 10.0437 23.8273 10.0437 22.9513V15.6046H8.58592C7.63816 15.6046 7.14635 14.4743 7.79248 13.7809L15.2066 5.82348C15.4211 5.59327 15.7106 5.47825 16.0001 5.47825ZM13.8203 20.7608H18.1798V16.4013H13.8203V20.7608ZM16.0001 4.8584C15.5288 4.8584 15.0744 5.05615 14.7531 5.40089L7.33897 13.3583C6.8692 13.8624 6.74825 14.5682 7.02312 15.2C7.29806 15.8319 7.89684 16.2244 8.58592 16.2244H9.42386V22.9512C9.42386 24.1676 10.4135 25.1572 11.6299 25.1572H20.3701C21.5866 25.1572 22.5762 24.1675 22.5762 22.9512V16.2244H23.4141C24.1032 16.2244 24.7021 15.8319 24.977 15.2C25.252 14.5681 25.1309 13.8624 24.6612 13.3583L17.247 5.40089C16.9258 5.05607 16.4712 4.8584 16.0001 4.8584ZM14.4402 17.0212H17.56V20.1409H14.4402V17.0212Z" fill="#42210B"/>
<defs>
<linearGradient id="paint0_linear_6_675" x1="16" y1="30.2196" x2="16" y2="0.394549" gradientUnits="userSpaceOnUse">
<stop stop-color="#4E2A21"/>
<stop offset="0.2304" stop-color="#522D22"/>
<stop offset="0.4427" stop-color="#5D3527"/>
<stop offset="0.6478" stop-color="#6F422E"/>
<stop offset="0.8472" stop-color="#8A5537"/>
<stop offset="1" stop-color="#A36841"/>
</linearGradient>
<linearGradient id="paint1_linear_6_675" x1="15.9999" y1="30.6142" x2="15.9999" y2="-3.28455e-05" gradientUnits="userSpaceOnUse">
<stop stop-color="#63433B"/>
<stop offset="0.5045" stop-color="#A36841"/>
<stop offset="1" stop-color="#FFC255"/>
</linearGradient>
<linearGradient id="paint2_linear_6_675" x1="15.9999" y1="30.6142" x2="15.9999" y2="-3.28455e-05" gradientUnits="userSpaceOnUse">
<stop stop-color="#63433B"/>
<stop offset="0.5045" stop-color="#A36841"/>
<stop offset="1" stop-color="#FFC255"/>
</linearGradient>
<linearGradient id="paint3_linear_6_675" x1="15.9999" y1="24.5372" x2="15.9999" y2="5.47806" gradientUnits="userSpaceOnUse">
<stop stop-color="#F4D6A6"/>
<stop offset="0.216" stop-color="#F6E2BE"/>
<stop offset="0.4219" stop-color="#F7EACD"/>
<stop offset="0.5893" stop-color="#F7EDD2"/>
<stop offset="1" stop-color="white"/>
</linearGradient>
</defs>
</svg>
