<svg width="6" height="24" viewBox="0 0 6 24" fill="none" xmlns="http://www.w3.org/2000/svg">
<path d="M2.8232 0.000450134C4.38243 0.000450134 5.64648 1.2644 5.64648 2.82362L5.64648 13.501C5.64648 15.0603 4.38253 16.3242 2.8232 16.3242C1.26398 16.3242 3.52859e-05 15.0603 3.52859e-05 13.501L3.52859e-05 2.82362C-6.67572e-05 1.2644 1.26398 0.000450134 2.8232 0.000450134Z" fill="white"/>
<path d="M2.82319 18.3539C1.264 18.3539 2.52724e-05 19.6179 2.52724e-05 21.1771C2.52724e-05 22.7363 1.264 24.0002 2.82319 24.0002C4.38239 24.0002 5.64636 22.7363 5.64636 21.1771C5.64636 19.6179 4.38239 18.3539 2.82319 18.3539Z" fill="white"/>
</svg>
