<svg width="32" height="35" viewBox="0 0 32 35" fill="none" xmlns="http://www.w3.org/2000/svg">
<path opacity="0.3" d="M16 34.3572C24.8366 34.3572 32 27.0762 32 18.0946C32 9.11304 24.8366 1.83203 16 1.83203C7.16344 1.83203 0 9.11304 0 18.0946C0 27.0762 7.16344 34.3572 16 34.3572Z" fill="#1A1A1A"/>
<path d="M16 32.6614C24.8366 32.6614 32 25.3804 32 16.3988C32 7.41723 24.8366 0.13623 16 0.13623C7.16344 0.13623 0 7.41723 0 16.3988C0 25.3804 7.16344 32.6614 16 32.6614Z" fill="#42210B"/>
<path d="M16 30.2197C24.236 30.2197 30.9125 23.5431 30.9125 15.3071C30.9125 7.07112 24.236 0.394531 16 0.394531C7.76399 0.394531 1.0874 7.07112 1.0874 15.3071C1.0874 23.5431 7.76399 30.2197 16 30.2197Z" fill="url(#paint0_linear_98_119)"/>
<path d="M25.029 17.8544L31.1399 17.5669C31.2491 16.8293 31.3072 16.0751 31.3072 15.3071C31.3072 14.2294 31.1946 13.1781 30.9827 12.1633L24.1487 11.4515L30.6718 10.941C29.9292 8.44211 28.5678 6.21032 26.7624 4.42471L15.2646 3.44775H25.6763C23.039 1.29348 19.671 0 16.0002 0C9.06242 0 3.20596 4.61701 1.32737 10.945L8.70157 11.5715L1.01199 12.1881C0.803501 13.1951 0.693115 14.2381 0.693115 15.3071C0.693115 16.0913 0.75266 16.8615 0.866462 17.6139L4.77983 18.0945L1.16427 19.0858C1.99798 22.3686 3.8939 25.2255 6.46287 27.2754L7.82125 26.1782L7.528 28.0551C8.05016 28.4028 8.59574 28.7178 9.16044 29.0005L10.3025 27.4588V29.5139C12.0642 30.2211 13.9858 30.6142 16.0003 30.6142C18.7157 30.6142 21.264 29.9041 23.475 28.6641L23.1456 26.8185L24.4024 28.1001C27.6389 25.9702 30.0166 22.6463 30.9129 18.7542L25.029 17.8544Z" fill="url(#paint1_linear_98_119)"/>
<path d="M25.029 17.8544L31.1399 17.5669C31.2491 16.8293 31.3072 16.0751 31.3072 15.3071C31.3072 14.2294 31.1946 13.1781 30.9827 12.1633L24.1487 11.4515L30.6718 10.941C29.9292 8.44211 28.5678 6.21032 26.7624 4.42471L15.2646 3.44775H25.6763C23.039 1.29348 19.671 0 16.0002 0C9.06242 0 3.20596 4.61701 1.32737 10.945L8.70157 11.5715L1.01199 12.1881C0.803501 13.1951 0.693115 14.2381 0.693115 15.3071C0.693115 16.0913 0.75266 16.8615 0.866462 17.6139L4.77983 18.0945L1.16427 19.0858C1.99798 22.3686 3.8939 25.2255 6.46287 27.2754L7.82125 26.1782L7.528 28.0551C8.05016 28.4028 8.59574 28.7178 9.16044 29.0005L10.3025 27.4588V29.5139C12.0642 30.2211 13.9858 30.6142 16.0003 30.6142C18.7157 30.6142 21.264 29.9041 23.475 28.6641L23.1456 26.8185L24.4024 28.1001C27.6389 25.9702 30.0166 22.6463 30.9129 18.7542L25.029 17.8544Z" fill="url(#paint2_linear_98_119)"/>
<path d="M15.2644 3.44775C19.097 3.91346 22.9296 4.37915 26.7622 4.84486C28.4677 6.53155 29.7698 8.61961 30.5355 10.9516L30.6716 10.941C29.929 8.44212 28.5676 6.21033 26.7622 4.42471L20.2096 3.86799C18.5612 3.72791 16.9128 3.58783 15.2644 3.44775Z" fill="#FFCF83"/>
<path d="M24.1486 11.4515C26.4266 11.8289 28.7046 12.2063 30.9826 12.5836C31.1828 13.5428 31.2909 14.5353 31.3026 15.5512C31.3039 15.4698 31.3071 15.3889 31.3071 15.3072C31.3071 14.2295 31.1945 13.1783 30.9826 12.1635L26.4518 11.6915C25.684 11.6115 24.9163 11.5315 24.1486 11.4515Z" fill="#FFCF83"/>
<path d="M3.72112 18.3848L1.16394 19.086C1.19729 19.2173 1.2352 19.3467 1.27189 19.4766C2.44106 19.0159 3.61032 18.5553 4.7795 18.0946C4.42671 18.1913 4.07391 18.288 3.72112 18.3848Z" fill="#B7724B"/>
<path d="M25.0289 17.8545C26.9556 18.2892 28.8823 18.7239 30.8089 19.1587C30.8438 19.0241 30.8812 18.8904 30.9125 18.7543L27.1298 18.1758C26.4295 18.0687 25.7292 17.9615 25.0289 17.8545Z" fill="#B7724B"/>
<path d="M16 0.420232C19.4252 0.420232 22.5861 1.54703 25.1362 3.44775H25.676C23.0388 1.29348 19.6708 0 16 0C9.06221 0 3.20574 4.61701 1.32715 10.945L1.45771 10.9561C3.46336 4.83981 9.21294 0.420232 16 0.420232Z" fill="#FFCF83"/>
<path d="M1.0117 12.6084C3.5749 12.2627 6.13809 11.9172 8.70129 11.5715C7.85318 11.6395 7.00507 11.7075 6.15689 11.7756L1.01162 12.1881C0.803135 13.1952 0.692749 14.2382 0.692749 15.3072C0.692749 15.3883 0.696084 15.4686 0.697304 15.5493C0.709099 14.5429 0.814849 13.5592 1.0117 12.6084Z" fill="#FFCF83"/>
<path d="M22.997 11.0563H14.8977C14.4839 11.0563 14.1484 10.7208 14.1484 10.307V8.31031C14.1484 7.89651 14.4839 7.56104 14.8977 7.56104H22.997C23.4108 7.56104 23.7462 7.89651 23.7462 8.31031V10.307C23.7462 10.7208 23.4108 11.0563 22.997 11.0563Z" fill="url(#paint3_linear_98_119)"/>
<path d="M22.9971 7.56101C23.4109 7.56101 23.7463 7.89649 23.7463 8.31029V10.307C23.7463 10.7208 23.4109 11.0563 22.9971 11.0563H14.8978C14.484 11.0563 14.1485 10.7208 14.1485 10.307V8.31029C14.1485 7.89649 14.484 7.56101 14.8978 7.56101H22.9971ZM22.9971 6.94116H14.8978C14.1428 6.94116 13.5287 7.55541 13.5287 8.31029V10.307C13.5287 11.062 14.1429 11.6761 14.8978 11.6761H22.9971C23.752 11.6761 24.3662 11.0619 24.3662 10.307V8.31029C24.3662 7.55532 23.752 6.94116 22.9971 6.94116Z" fill="#42210B"/>
<path d="M11.0431 11.0564H8.95958C8.56969 11.0564 8.25366 10.7403 8.25366 10.3505V8.26695C8.25366 7.87706 8.56969 7.56104 8.95958 7.56104H11.0431C11.433 7.56104 11.749 7.87706 11.749 8.26695V10.3505C11.749 10.7403 11.433 11.0564 11.0431 11.0564Z" fill="url(#paint4_linear_98_119)"/>
<path d="M11.0431 7.56101C11.4329 7.56101 11.749 7.87704 11.749 8.26693V10.3504C11.749 10.7403 11.4329 11.0563 11.0431 11.0563H8.95956C8.56967 11.0563 8.25364 10.7403 8.25364 10.3504V8.26693C8.25364 7.87712 8.56967 7.56101 8.95956 7.56101H11.0431ZM11.0431 6.94116H8.95956C8.2285 6.94116 7.63379 7.53588 7.63379 8.26693V10.3504C7.63379 11.0815 8.2285 11.6762 8.95956 11.6762H11.0431C11.7741 11.6762 12.3688 11.0815 12.3688 10.3504V8.26693C12.3688 7.53588 11.7741 6.94116 11.0431 6.94116Z" fill="#42210B"/>
<path d="M11.0431 17.0549H8.95958C8.56969 17.0549 8.25366 16.7389 8.25366 16.349V14.2655C8.25366 13.8756 8.56969 13.5596 8.95958 13.5596H11.0431C11.433 13.5596 11.749 13.8756 11.749 14.2655V16.349C11.749 16.7389 11.433 17.0549 11.0431 17.0549Z" fill="url(#paint5_linear_98_119)"/>
<path d="M11.0431 13.5597C11.4329 13.5597 11.749 13.8757 11.749 14.2656V16.3491C11.749 16.739 11.4329 17.055 11.0431 17.055H8.95956C8.56967 17.055 8.25364 16.739 8.25364 16.3491V14.2656C8.25364 13.8757 8.56967 13.5597 8.95956 13.5597H11.0431ZM11.0431 12.9398H8.95956C8.2285 12.9398 7.63379 13.5345 7.63379 14.2656V16.3491C7.63379 17.0801 8.2285 17.6749 8.95956 17.6749H11.0431C11.7741 17.6749 12.3688 17.0801 12.3688 16.3491V14.2656C12.3688 13.5345 11.7741 12.9398 11.0431 12.9398Z" fill="#42210B"/>
<path d="M11.0431 23.0536H8.95958C8.56969 23.0536 8.25366 22.7375 8.25366 22.3476V20.2641C8.25366 19.8743 8.56969 19.5582 8.95958 19.5582H11.0431C11.433 19.5582 11.749 19.8743 11.749 20.2641V22.3476C11.749 22.7375 11.433 23.0536 11.0431 23.0536Z" fill="url(#paint6_linear_98_119)"/>
<path d="M11.0431 19.5583C11.4329 19.5583 11.749 19.8744 11.749 20.2643V22.3477C11.749 22.7376 11.4329 23.0537 11.0431 23.0537H8.95956C8.56967 23.0537 8.25364 22.7376 8.25364 22.3477V20.2643C8.25364 19.8744 8.56967 19.5583 8.95956 19.5583H11.0431ZM11.0431 18.9385H8.95956C8.2285 18.9385 7.63379 19.5332 7.63379 20.2643V22.3477C7.63379 23.0788 8.2285 23.6735 8.95956 23.6735H11.0431C11.7741 23.6735 12.3688 23.0788 12.3688 22.3477V20.2643C12.3688 19.5332 11.7741 18.9385 11.0431 18.9385Z" fill="#42210B"/>
<path d="M22.997 17.0549H14.8977C14.4839 17.0549 14.1484 16.7195 14.1484 16.3057V14.309C14.1484 13.8952 14.4839 13.5597 14.8977 13.5597H22.997C23.4108 13.5597 23.7462 13.8952 23.7462 14.309V16.3057C23.7462 16.7195 23.4108 17.0549 22.997 17.0549Z" fill="url(#paint7_linear_98_119)"/>
<path d="M22.9971 13.5597C23.4109 13.5597 23.7463 13.8951 23.7463 14.3089V16.3056C23.7463 16.7195 23.4109 17.0549 22.9971 17.0549H14.8978C14.484 17.0549 14.1485 16.7195 14.1485 16.3056V14.3089C14.1485 13.8951 14.484 13.5597 14.8978 13.5597H22.9971ZM22.9971 12.9398H14.8978C14.1428 12.9398 13.5287 13.5541 13.5287 14.3089V16.3056C13.5287 17.0606 14.1429 17.6748 14.8978 17.6748H22.9971C23.752 17.6748 24.3662 17.0605 24.3662 16.3056V14.3089C24.3662 13.554 23.752 12.9398 22.9971 12.9398Z" fill="#42210B"/>
<path d="M22.997 23.0536H14.8977C14.4839 23.0536 14.1484 22.7181 14.1484 22.3043V20.3076C14.1484 19.8938 14.4839 19.5583 14.8977 19.5583H22.997C23.4108 19.5583 23.7462 19.8938 23.7462 20.3076V22.3043C23.7462 22.7181 23.4108 23.0536 22.997 23.0536Z" fill="url(#paint8_linear_98_119)"/>
<path d="M22.9971 19.5583C23.4109 19.5583 23.7463 19.8938 23.7463 20.3076V22.3043C23.7463 22.7181 23.4109 23.0536 22.9971 23.0536H14.8978C14.484 23.0536 14.1485 22.7181 14.1485 22.3043V20.3076C14.1485 19.8938 14.484 19.5583 14.8978 19.5583H22.9971ZM22.9971 18.9385H14.8978C14.1428 18.9385 13.5287 19.5527 13.5287 20.3076V22.3043C13.5287 23.0593 14.1429 23.6734 14.8978 23.6734H22.9971C23.752 23.6734 24.3662 23.0592 24.3662 22.3043V20.3076C24.3662 19.5526 23.752 18.9385 22.9971 18.9385Z" fill="#42210B"/>
<defs>
<linearGradient id="paint0_linear_98_119" x1="16" y1="30.2196" x2="16" y2="0.394538" gradientUnits="userSpaceOnUse">
<stop stop-color="#4E2A21"/>
<stop offset="0.2304" stop-color="#522D22"/>
<stop offset="0.4427" stop-color="#5D3527"/>
<stop offset="0.6478" stop-color="#6F422E"/>
<stop offset="0.8472" stop-color="#8A5537"/>
<stop offset="1" stop-color="#A36841"/>
</linearGradient>
<linearGradient id="paint1_linear_98_119" x1="16" y1="30.6142" x2="16" y2="-3.28455e-05" gradientUnits="userSpaceOnUse">
<stop stop-color="#63433B"/>
<stop offset="0.5045" stop-color="#A36841"/>
<stop offset="1" stop-color="#FFC255"/>
</linearGradient>
<linearGradient id="paint2_linear_98_119" x1="16" y1="30.6142" x2="16" y2="-3.28455e-05" gradientUnits="userSpaceOnUse">
<stop stop-color="#63433B"/>
<stop offset="0.5045" stop-color="#A36841"/>
<stop offset="1" stop-color="#FFC255"/>
</linearGradient>
<linearGradient id="paint3_linear_98_119" x1="18.9473" y1="11.0563" x2="18.9473" y2="7.561" gradientUnits="userSpaceOnUse">
<stop stop-color="#F4D6A6"/>
<stop offset="0.216" stop-color="#F6E2BE"/>
<stop offset="0.4219" stop-color="#F7EACD"/>
<stop offset="0.5893" stop-color="#F7EDD2"/>
<stop offset="1" stop-color="white"/>
</linearGradient>
<linearGradient id="paint4_linear_98_119" x1="10.0014" y1="11.0564" x2="10.0014" y2="7.56108" gradientUnits="userSpaceOnUse">
<stop stop-color="#F4D6A6"/>
<stop offset="0.216" stop-color="#F6E2BE"/>
<stop offset="0.4219" stop-color="#F7EACD"/>
<stop offset="0.5893" stop-color="#F7EDD2"/>
<stop offset="1" stop-color="white"/>
</linearGradient>
<linearGradient id="paint5_linear_98_119" x1="10.0014" y1="17.0549" x2="10.0014" y2="13.5596" gradientUnits="userSpaceOnUse">
<stop stop-color="#F4D6A6"/>
<stop offset="0.216" stop-color="#F6E2BE"/>
<stop offset="0.4219" stop-color="#F7EACD"/>
<stop offset="0.5893" stop-color="#F7EDD2"/>
<stop offset="1" stop-color="white"/>
</linearGradient>
<linearGradient id="paint6_linear_98_119" x1="10.0014" y1="23.0536" x2="10.0014" y2="19.5583" gradientUnits="userSpaceOnUse">
<stop stop-color="#F4D6A6"/>
<stop offset="0.216" stop-color="#F6E2BE"/>
<stop offset="0.4219" stop-color="#F7EACD"/>
<stop offset="0.5893" stop-color="#F7EDD2"/>
<stop offset="1" stop-color="white"/>
</linearGradient>
<linearGradient id="paint7_linear_98_119" x1="18.9473" y1="17.0549" x2="18.9473" y2="13.5597" gradientUnits="userSpaceOnUse">
<stop stop-color="#F4D6A6"/>
<stop offset="0.216" stop-color="#F6E2BE"/>
<stop offset="0.4219" stop-color="#F7EACD"/>
<stop offset="0.5893" stop-color="#F7EDD2"/>
<stop offset="1" stop-color="white"/>
</linearGradient>
<linearGradient id="paint8_linear_98_119" x1="18.9473" y1="23.0536" x2="18.9473" y2="19.5583" gradientUnits="userSpaceOnUse">
<stop stop-color="#F4D6A6"/>
<stop offset="0.216" stop-color="#F6E2BE"/>
<stop offset="0.4219" stop-color="#F7EACD"/>
<stop offset="0.5893" stop-color="#F7EDD2"/>
<stop offset="1" stop-color="white"/>
</linearGradient>
</defs>
</svg>
