<svg width="187" height="84" viewBox="0 0 187 84" fill="none" xmlns="http://www.w3.org/2000/svg">
<path d="M93.5 83.0468C145.139 83.0468 187 65.186 187 43.1535C187 21.1211 145.139 3.26025 93.5 3.26025C41.8614 3.26025 0 21.1211 0 43.1535C0 65.186 41.8614 83.0468 93.5 83.0468Z" fill="#603721"/>
<path d="M93.5 81.9287C145.139 81.9287 187 64.0678 187 42.0354C187 20.0029 145.139 2.14209 93.5 2.14209C41.8614 2.14209 0 20.0029 0 42.0354C0 64.0678 41.8614 81.9287 93.5 81.9287Z" fill="#8B5335"/>
<path d="M93.5 79.7866C145.139 79.7866 187 61.9257 187 39.8933C187 17.8608 145.139 0 93.5 0C41.8614 0 0 17.8608 0 39.8933C0 61.9257 41.8614 79.7866 93.5 79.7866Z" fill="#FAB28A"/>
<path d="M15.0471 48.9071C15.0471 49.4985 14.3829 49.9782 13.5629 49.9782C12.7433 49.9782 12.0786 49.499 12.0786 48.9071C12.0786 48.3152 12.7429 47.8359 13.5629 47.8359C14.3824 47.8359 15.0471 48.3157 15.0471 48.9071Z" fill="#F4A075"/>
<path d="M55.4899 68.6533C55.4899 69.3554 54.6038 69.9252 53.5111 69.9252C52.4184 69.9252 51.5322 69.3559 51.5322 68.6533C51.5322 67.9507 52.4184 67.3813 53.5111 67.3813C54.6038 67.3813 55.4899 67.9507 55.4899 68.6533Z" fill="#F4A075"/>
<path d="M99.4574 69.389C100.994 69.389 102.24 68.7897 102.24 68.0505C102.24 67.3112 100.994 66.7119 99.4574 66.7119C97.9206 66.7119 96.6748 67.3112 96.6748 68.0505C96.6748 68.7897 97.9206 69.389 99.4574 69.389Z" fill="#F4A075"/>
<path d="M115.844 66.921C116.528 66.921 117.081 66.7075 117.081 66.4441C117.081 66.1808 116.528 65.9673 115.844 65.9673C115.161 65.9673 114.607 66.1808 114.607 66.4441C114.607 66.7075 115.161 66.921 115.844 66.921Z" fill="#F4A075"/>
<path d="M5.93618 30.8209C6.61933 30.8209 7.17314 30.6074 7.17314 30.3441C7.17314 30.0807 6.61933 29.8672 5.93618 29.8672C5.25302 29.8672 4.69922 30.0807 4.69922 30.3441C4.69922 30.6074 5.25302 30.8209 5.93618 30.8209Z" fill="#F4A075"/>
<path d="M164.491 16.9573C164.491 17.2209 163.937 17.4342 163.254 17.4342C162.571 17.4342 162.017 17.2209 162.017 16.9573C162.017 16.6937 162.571 16.4805 163.254 16.4805C163.937 16.4805 164.491 16.6937 164.491 16.9573Z" fill="#F4A075"/>
<path d="M162.842 38.1976C162.842 38.4612 162.288 38.6744 161.605 38.6744C160.922 38.6744 160.368 38.4612 160.368 38.1976C160.368 37.934 160.921 37.7207 161.605 37.7207C162.288 37.7207 162.842 37.934 162.842 38.1976Z" fill="#F4A075"/>
<path d="M71.568 75.6227C72.2512 75.6227 72.805 75.4092 72.805 75.1458C72.805 74.8824 72.2512 74.6689 71.568 74.6689C70.8849 74.6689 70.3311 74.8824 70.3311 75.1458C70.3311 75.4092 70.8849 75.6227 71.568 75.6227Z" fill="#F4A075"/>
<path d="M91.9334 65.0306C91.9334 65.2942 91.3798 65.5074 90.6964 65.5074C90.0135 65.5074 89.4595 65.2942 89.4595 65.0306C89.4595 64.767 90.013 64.5537 90.6964 64.5537C91.3798 64.5532 91.9334 64.767 91.9334 65.0306Z" fill="#F4A075"/>
<path d="M34.7946 65.984C35.4777 65.984 36.0315 65.7705 36.0315 65.5071C36.0315 65.2438 35.4777 65.0303 34.7946 65.0303C34.1114 65.0303 33.5576 65.2438 33.5576 65.5071C33.5576 65.7705 34.1114 65.984 34.7946 65.984Z" fill="#F4A075"/>
<path d="M117.019 75.2794C118.556 75.2794 119.802 74.77 119.802 74.1417C119.802 73.5133 118.556 73.0039 117.019 73.0039C115.483 73.0039 114.237 73.5133 114.237 74.1417C114.237 74.77 115.483 75.2794 117.019 75.2794Z" fill="#F4A075"/>
<path d="M178.034 53.9047C178.034 54.4515 177.175 54.8948 176.117 54.8948C175.058 54.8948 174.2 54.4515 174.2 53.9047C174.2 53.3579 175.058 52.9146 176.117 52.9146C177.175 52.9146 178.034 53.3579 178.034 53.9047Z" fill="#F4A075"/>
<path d="M20.2208 20.3485C20.2208 20.8954 19.3624 21.3387 18.3037 21.3387C17.2451 21.3387 16.3867 20.8954 16.3867 20.3485C16.3867 19.8017 17.2451 19.3584 18.3037 19.3584C19.3624 19.3584 20.2208 19.8017 20.2208 20.3485Z" fill="#F4A075"/>
<path d="M172.085 30.9243C172.991 30.9243 173.725 30.4248 173.725 29.8086C173.725 29.1924 172.991 28.6929 172.085 28.6929C171.18 28.6929 170.446 29.1924 170.446 29.8086C170.446 30.4248 171.18 30.9243 172.085 30.9243Z" fill="#F4A075"/>
<path d="M126.604 63.0968C127.492 63.0968 128.212 62.7672 128.212 62.3607C128.212 61.9541 127.492 61.6245 126.604 61.6245C125.716 61.6245 124.996 61.9541 124.996 62.3607C124.996 62.7672 125.716 63.0968 126.604 63.0968Z" fill="#F4A075"/>
<path d="M8.08007 46.2521C8.96809 46.2521 9.68798 45.9225 9.68798 45.5159C9.68798 45.1094 8.96809 44.7798 8.08007 44.7798C7.19205 44.7798 6.47217 45.1094 6.47217 45.5159C6.47217 45.9225 7.19205 46.2521 8.08007 46.2521Z" fill="#F4A075"/>
<path d="M21.7671 26.6178C22.6551 26.6178 23.375 26.2882 23.375 25.8817C23.375 25.4751 22.6551 25.1455 21.7671 25.1455C20.8791 25.1455 20.1592 25.4751 20.1592 25.8817C20.1592 26.2882 20.8791 26.6178 21.7671 26.6178Z" fill="#F4A075"/>
<path d="M147.258 54.8642C147.258 55.1968 146.538 55.4666 145.65 55.4666C144.762 55.4666 144.042 55.1968 144.042 54.8642C144.042 54.5315 144.762 54.2617 145.65 54.2617C146.538 54.2617 147.258 54.5315 147.258 54.8642Z" fill="#F4A075"/>
<path d="M153.071 66.3773C153.071 67.1537 151.825 67.783 150.288 67.783C148.751 67.783 147.506 67.1537 147.506 66.3773C147.506 65.6009 148.752 64.9717 150.288 64.9717C151.825 64.9717 153.071 65.6014 153.071 66.3773Z" fill="#F4A075"/>
</svg>
