<svg width="72" height="85" viewBox="0 0 72 85" fill="none" xmlns="http://www.w3.org/2000/svg">
<path d="M47.7858 61.913C49.784 60.0685 51.5389 57.8924 52.9613 55.4069C54.7962 52.2003 55.9068 48.7778 56.3477 45.3278L69.9182 39.3493L65.5847 31.2103L68.6513 28.135L59.9821 20.6877L51.7903 5.30211L45.7494 8.46111L39.3926 3.00024L29.2995 14.5742C19.8384 14.5777 10.6431 19.5087 5.60721 28.309C-0.591368 39.141 1.45632 52.4366 9.77462 60.9349L4.69352 70.6664C4.18834 71.6531 4.59489 72.8623 5.59358 73.3435C6.59583 73.8264 7.79887 73.386 8.25236 72.3701L12.3307 63.2337C13.3908 64.0723 14.5263 64.8432 15.7353 65.535C25.4462 71.0919 37.136 70.0197 45.5752 63.7451L52.3308 81.7347C52.7289 82.7693 53.9009 83.2732 54.9256 82.8503C55.954 82.4258 56.4285 81.2359 55.9742 80.2203L47.7858 61.913Z" fill="white" stroke="white" stroke-width="3" stroke-miterlimit="10"/>
<path d="M68.6515 28.1348L45.7995 51.0502L17.8096 27.7499L39.3928 3L68.6515 28.1348Z" fill="#D6A685"/>
<path d="M69.9185 39.3491L40.3027 52.3963L22.6904 20.5192L51.7907 5.30176L69.9185 39.3491Z" fill="#E2BB9F"/>
<path d="M29.2845 69.1374C44.3506 69.1374 56.5641 56.9239 56.5641 41.8577C56.5641 26.7916 44.3506 14.5781 29.2845 14.5781C14.2184 14.5781 2.00488 26.7916 2.00488 41.8577C2.00488 56.9239 14.2184 69.1374 29.2845 69.1374Z" fill="#24484E"/>
<g opacity="0.4">
<path d="M23.0427 65.0988C14.5373 63.0893 10.3634 58.2232 8.34035 54.3571C5.9895 49.8646 5.97317 45.8077 5.97364 45.6372C5.97495 45.1407 6.37842 44.7394 6.87492 44.7407C7.37068 44.7419 7.7721 45.145 7.77135 45.6408C7.77144 45.6929 7.80289 49.4937 9.96973 53.5929C12.8601 59.0606 18.0055 62.4669 25.2653 63.7175C25.7532 63.801 26.0828 64.2666 25.9984 64.756C25.9143 65.2451 25.4494 65.5735 24.9601 65.4892C24.2979 65.375 23.6583 65.2443 23.0427 65.0988Z" fill="#1B373A"/>
</g>
<g opacity="0.2">
<path d="M46.6364 26.6839C46.4043 26.6839 46.1768 26.5705 46.0401 26.3619C42.878 21.5357 38.873 20.6241 38.8329 20.6154C38.4494 20.5327 38.2037 20.1551 38.2851 19.7713C38.3665 19.3875 38.7425 19.1419 39.1258 19.2215C39.3121 19.2604 43.7275 20.2334 47.2314 25.5813C47.447 25.9102 47.3549 26.3517 47.026 26.5672C46.9056 26.6461 46.7702 26.6839 46.6364 26.6839Z" fill="white"/>
</g>
<g opacity="0.2">
<path d="M49.9035 31.6925C49.6356 31.6925 49.379 31.5407 49.258 31.282C48.5028 29.6681 47.8532 29.1278 47.8466 29.1225C47.5341 28.8838 47.4784 28.4404 47.717 28.1278C47.9554 27.8153 48.4067 27.7585 48.7196 27.9972C48.8109 28.067 49.6386 28.7348 50.548 30.6784C50.7146 31.0345 50.5609 31.4585 50.2048 31.6252C50.1073 31.6709 50.0045 31.6925 49.9035 31.6925Z" fill="white"/>
</g>
<path d="M8.25259 72.3699L21.8974 41.8021L20.1932 40.981L4.69384 70.6662C4.18866 71.6531 4.59521 72.8622 5.59391 73.3434C6.59606 73.8263 7.7992 73.3858 8.25259 72.3699Z" fill="#E2E2E2"/>
<path d="M29.1851 39.5738C31.38 35.0186 30.5127 30.0506 27.2478 28.4774C23.9829 26.9042 19.5569 29.3216 17.362 33.8768C15.167 38.432 16.0344 43.4001 19.2993 44.9732C22.5641 46.5464 26.9901 44.129 29.1851 39.5738Z" fill="#F2F2F2"/>
<g opacity="0.2">
<path d="M19.6045 44.2797C18.0346 43.758 17.416 42.598 17.1746 41.6959C16.9083 40.7008 17.0413 39.8227 17.0471 39.7858C17.0805 39.5726 17.2804 39.4269 17.4936 39.4603C17.707 39.4937 17.8521 39.6932 17.8192 39.9061C17.8008 40.0264 17.3974 42.8619 20.0375 43.5948C20.2467 43.6528 20.3673 43.8679 20.3095 44.0759C20.2518 44.2838 20.0364 44.4056 19.8284 44.3478C19.7517 44.3265 19.6771 44.3038 19.6045 44.2797Z" fill="#B3B3B3"/>
</g>
<path opacity="0.2" d="M26.9919 38.5975C28.5876 35.286 28.1899 31.7866 26.1036 30.7814C24.0174 29.7761 21.0327 31.6457 19.437 34.9572C17.8414 38.2686 18.2391 41.768 20.3253 42.7733C22.4115 43.7785 25.3963 41.909 26.9919 38.5975Z" fill="#B3B3B3"/>
<path d="M55.9741 80.2202L42.3062 49.6626L40.5576 50.3843L52.3307 81.7346C52.7288 82.7692 53.9007 83.2731 54.9255 82.8502C55.9538 82.4258 56.4283 81.2357 55.9741 80.2202Z" fill="#E2E2E2"/>
<path d="M40.3683 37.646L42.9297 43.8523C43.1064 44.2805 42.9026 44.771 42.4744 44.9478C42.0462 45.1245 41.5557 44.9206 41.379 44.4924L38.4849 37.4798C38.3765 37.217 38.1154 37.0501 37.8313 37.0619C37.3641 37.0813 37.0584 37.5593 37.2368 37.9916L40.1836 45.1318C40.3319 45.4911 40.1608 45.9027 39.8015 46.051L39.5269 46.1643C39.1815 46.3069 38.7858 46.1424 38.6432 45.797L35.7315 38.7418C35.5366 38.2696 34.9232 38.1491 34.5642 38.5126C34.3625 38.7167 34.3026 39.0218 34.412 39.2872L37.3443 46.3923C37.4753 46.7097 37.3241 47.0734 37.0067 47.2044L36.6056 47.3699C36.2882 47.5009 35.9247 47.3497 35.7936 47.0323L33.2354 40.8337C33.1315 40.5821 32.7684 40.6093 32.7003 40.8729C32.1796 42.8909 32.3543 45.3596 33.3479 47.7669C35.2769 52.4408 39.5562 55.1089 42.9062 53.7265C46.2561 52.3439 47.4081 47.4342 45.4791 42.7603C44.4343 40.2287 42.6998 38.2876 40.797 37.2582C40.5437 37.121 40.2585 37.3798 40.3683 37.646Z" fill="#F2F2F2"/>
<g opacity="0.2">
<path d="M42.2982 52.8574C40.8623 53.6788 39.5854 53.3658 38.7524 52.9437C37.8334 52.4783 37.268 51.7934 37.2444 51.7645C37.1079 51.5974 37.1327 51.3512 37.2999 51.2147C37.4671 51.078 37.7126 51.103 37.8492 51.2696C37.9267 51.3635 39.7697 53.5557 42.077 52.078C42.2598 51.9609 42.5004 52.0146 42.6169 52.1963C42.7332 52.3781 42.6802 52.6198 42.4985 52.7361C42.4315 52.7791 42.3647 52.8195 42.2982 52.8574Z" fill="#B3B3B3"/>
</g>
</svg>
