<svg width="32" height="35" viewBox="0 0 32 35" fill="none" xmlns="http://www.w3.org/2000/svg">
<path opacity="0.3" d="M16 34.3572C24.8366 34.3572 32 27.0762 32 18.0946C32 9.11304 24.8366 1.83203 16 1.83203C7.16344 1.83203 0 9.11304 0 18.0946C0 27.0762 7.16344 34.3572 16 34.3572Z" fill="#1A1A1A"/>
<path d="M16 32.6614C24.8366 32.6614 32 25.3804 32 16.3988C32 7.41723 24.8366 0.13623 16 0.13623C7.16344 0.13623 0 7.41723 0 16.3988C0 25.3804 7.16344 32.6614 16 32.6614Z" fill="#42210B"/>
<path d="M16 30.2197C24.236 30.2197 30.9125 23.5431 30.9125 15.3071C30.9125 7.07112 24.236 0.394531 16 0.394531C7.76399 0.394531 1.0874 7.07112 1.0874 15.3071C1.0874 23.5431 7.76399 30.2197 16 30.2197Z" fill="url(#paint0_linear_15_10979)"/>
<path d="M25.0287 17.8543L31.1397 17.5668C31.2488 16.8292 31.307 16.075 31.307 15.307C31.307 14.2293 31.1943 13.178 30.9824 12.1633L24.1484 11.4514L30.6716 10.9409C29.929 8.44203 28.5676 6.21024 26.7621 4.42462L15.2644 3.44766H25.676C23.0388 1.29339 19.6708 0 16 0C9.06218 0 3.20571 4.617 1.32712 10.945L8.70133 11.5715L1.01175 12.1881C0.803257 13.1951 0.692871 14.2381 0.692871 15.307C0.692871 16.0912 0.752416 16.8614 0.866218 17.6139L4.77958 18.0945L1.16402 19.0858C1.99773 22.3686 3.89365 25.2255 6.46262 27.2754L7.82101 26.1783L7.52776 28.0551C8.04992 28.4029 8.5955 28.7179 9.1602 29.0005L10.3022 27.4588V29.5139C12.0639 30.2211 13.9855 30.6142 16.0001 30.6142C18.7154 30.6142 21.2638 29.9041 23.4748 28.6641L23.1454 26.8185L24.4021 28.1001C27.6386 25.9702 30.0164 22.6462 30.9126 18.7542L25.0287 17.8543Z" fill="url(#paint1_linear_15_10979)"/>
<path d="M25.0287 17.8543L31.1397 17.5668C31.2488 16.8292 31.307 16.075 31.307 15.307C31.307 14.2293 31.1943 13.178 30.9824 12.1633L24.1484 11.4514L30.6716 10.9409C29.929 8.44203 28.5676 6.21024 26.7621 4.42462L15.2644 3.44766H25.676C23.0388 1.29339 19.6708 0 16 0C9.06218 0 3.20571 4.617 1.32712 10.945L8.70133 11.5715L1.01175 12.1881C0.803257 13.1951 0.692871 14.2381 0.692871 15.307C0.692871 16.0912 0.752416 16.8614 0.866218 17.6139L4.77958 18.0945L1.16402 19.0858C1.99773 22.3686 3.89365 25.2255 6.46262 27.2754L7.82101 26.1783L7.52776 28.0551C8.04992 28.4029 8.5955 28.7179 9.1602 29.0005L10.3022 27.4588V29.5139C12.0639 30.2211 13.9855 30.6142 16.0001 30.6142C18.7154 30.6142 21.2638 29.9041 23.4748 28.6641L23.1454 26.8185L24.4021 28.1001C27.6386 25.9702 30.0164 22.6462 30.9126 18.7542L25.0287 17.8543Z" fill="url(#paint2_linear_15_10979)"/>
<path d="M15.2646 3.44775C19.0972 3.91346 22.9298 4.37916 26.7624 4.84486C28.4679 6.53156 29.7701 8.61961 30.5358 10.9515L30.6719 10.9409C29.9293 8.44204 28.5679 6.21024 26.7624 4.42463L20.2098 3.8679C18.5614 3.72782 16.913 3.58775 15.2646 3.44775Z" fill="#FFCF83"/>
<path d="M24.1484 11.4512C26.4264 11.8285 28.7044 12.2059 30.9824 12.5833C31.1827 13.5424 31.2908 14.535 31.3024 15.5508C31.3037 15.4695 31.307 15.3885 31.307 15.3069C31.307 14.2291 31.1943 13.1779 30.9824 12.1631L26.4517 11.6911C25.6839 11.6112 24.9162 11.5312 24.1484 11.4512Z" fill="#FFCF83"/>
<path d="M3.72124 18.3845L1.16406 19.0856C1.19741 19.2169 1.23532 19.3463 1.27201 19.4762C2.44119 19.0156 3.61045 18.5549 4.77962 18.0942C4.42683 18.191 4.07403 18.2878 3.72124 18.3845Z" fill="#B7724B"/>
<path d="M25.0288 17.8545C26.9555 18.2892 28.8821 18.7239 30.8088 19.1587C30.8437 19.0241 30.881 18.8904 30.9124 18.7543L27.1296 18.1758C26.4294 18.0687 25.7291 17.9616 25.0288 17.8545Z" fill="#B7724B"/>
<path d="M16 0.420147C19.4252 0.420147 22.5861 1.54695 25.1362 3.44766H25.676C23.0388 1.29339 19.6708 0 16 0C9.06221 0 3.20574 4.617 1.32715 10.945L1.45771 10.9561C3.46336 4.83964 9.21294 0.420147 16 0.420147Z" fill="#FFCF83"/>
<path d="M1.01183 12.6081C3.57502 12.2625 6.13822 11.9169 8.70141 11.5713C7.8533 11.6393 7.0052 11.7073 6.15701 11.7753L1.01175 12.1879C0.803257 13.1949 0.692871 14.238 0.692871 15.3068C0.692871 15.3879 0.696206 15.4682 0.697426 15.549C0.709222 14.5427 0.814971 13.559 1.01183 12.6081Z" fill="#FFCF83"/>
<path d="M25.0702 13.3966H22.99C22.828 12.8025 22.5922 12.2392 22.2932 11.7163L23.7646 10.2448C24.061 9.94837 24.061 9.46778 23.7646 9.17136L22.1359 7.54266C21.8395 7.24624 21.3589 7.24624 21.0625 7.54266L19.591 9.01412C19.0681 8.71509 18.5049 8.47927 17.9108 8.31723V6.23706C17.9108 5.81789 17.571 5.47803 17.1517 5.47803H14.8484C14.4293 5.47803 14.0894 5.81781 14.0894 6.23706V8.31723C13.4952 8.47927 12.932 8.71509 12.4091 9.01412L10.9377 7.54266C10.6412 7.24624 10.1606 7.24624 9.86423 7.54266L8.23553 9.17136C7.9391 9.46778 7.9391 9.94837 8.23553 10.2448L9.70698 11.7163C9.40796 12.2392 9.17214 12.8025 9.0101 13.3966H6.92993C6.51076 13.3966 6.1709 13.7364 6.1709 14.1556V16.4589C6.1709 16.8781 6.51076 17.218 6.92993 17.218H9.0101C9.17214 17.8121 9.40796 18.3753 9.70698 18.8982L8.23553 20.3697C7.9391 20.6661 7.9391 21.1467 8.23553 21.4431L9.86423 23.0718C10.1606 23.3683 10.6412 23.3683 10.9377 23.0718L12.4091 21.6004C12.932 21.8994 13.4952 22.1352 14.0894 22.2973V24.3773C14.0894 24.7965 14.4292 25.1364 14.8484 25.1364H17.1517C17.5709 25.1364 17.9108 24.7965 17.9108 24.3773V22.2973C18.5049 22.1352 19.0681 21.8994 19.591 21.6004L21.0625 23.0718C21.3589 23.3683 21.8395 23.3683 22.1359 23.0718L23.7646 21.4431C24.061 21.1467 24.061 20.6661 23.7646 20.3697L22.2932 18.8982C22.5922 18.3753 22.828 17.8121 22.99 17.218H25.0702C25.4894 17.218 25.8292 16.8782 25.8292 16.4589V14.1556C25.8292 13.7365 25.4894 13.3966 25.0702 13.3966ZM16.0002 19.3085C13.7904 19.3085 11.9989 17.5172 11.9989 15.3072C11.9989 13.0974 13.7903 11.3059 16.0002 11.3059C18.21 11.3059 20.0015 13.0974 20.0015 15.3072C20.0015 17.5171 18.21 19.3085 16.0002 19.3085Z" fill="url(#paint3_linear_15_10979)"/>
<path d="M17.1519 5.47776C17.571 5.47776 17.9109 5.81754 17.9109 6.2368V8.31696C18.505 8.479 19.0683 8.71483 19.5912 9.01385L21.0626 7.54239C21.2108 7.39418 21.4051 7.32007 21.5993 7.32007C21.7936 7.32007 21.9879 7.39418 22.1361 7.54239L23.7648 9.17109C24.0612 9.46751 24.0612 9.9481 23.7648 10.2445L22.2933 11.7161C22.5923 12.239 22.8281 12.8022 22.9902 13.3963H25.0704C25.4895 13.3963 25.8294 13.7361 25.8294 14.1554V16.4587C25.8294 16.8778 25.4895 17.2177 25.0704 17.2177H22.9902C22.8281 17.8118 22.5923 18.3751 22.2933 18.898L23.7648 20.3694C24.0612 20.6659 24.0612 21.1464 23.7648 21.4429L22.1361 23.0716C21.9879 23.2198 21.7936 23.2939 21.5993 23.2939C21.4051 23.2939 21.2108 23.2198 21.0626 23.0716L19.5912 21.6001C19.0683 21.8991 18.505 22.135 17.9109 22.297V24.3772C17.9109 24.7963 17.5711 25.1362 17.1519 25.1362H14.8486C14.4294 25.1362 14.0895 24.7963 14.0895 24.3772V22.297C13.4954 22.135 12.9321 21.8991 12.4093 21.6001L10.9378 23.0716C10.7896 23.2198 10.5953 23.2939 10.4011 23.2939C10.2068 23.2939 10.0126 23.2198 9.86437 23.0716L8.23567 21.4429C7.93925 21.1464 7.93925 20.6659 8.23567 20.3694L9.70721 18.898C9.40818 18.3751 9.17236 17.8118 9.01032 17.2177H6.93016C6.51098 17.2177 6.17112 16.8779 6.17112 16.4587V14.1554C6.17112 13.7362 6.51098 13.3963 6.93016 13.3963H9.01032C9.17236 12.8022 9.40818 12.239 9.70721 11.7161L8.23567 10.2445C7.93925 9.9481 7.93925 9.46751 8.23567 9.17109L9.86437 7.54239C10.0126 7.39418 10.2068 7.32007 10.4011 7.32007C10.5953 7.32007 10.7896 7.39418 10.9378 7.54239L12.4093 9.01385C12.9321 8.71483 13.4954 8.479 14.0895 8.31696V6.2368C14.0895 5.81762 14.4293 5.47776 14.8486 5.47776H17.1519ZM16.0002 19.3081C18.21 19.3081 20.0015 17.5167 20.0015 15.3068C20.0015 13.097 18.21 11.3056 16.0002 11.3056C13.7903 11.3056 11.9989 13.097 11.9989 15.3068C11.999 17.5167 13.7903 19.3081 16.0002 19.3081ZM17.1519 4.85791H14.8486C14.0882 4.85791 13.4697 5.47646 13.4697 6.2368V7.85866C13.1463 7.96856 12.8301 8.09969 12.5233 8.25124L11.3761 7.10402C11.1156 6.84355 10.7693 6.70014 10.4011 6.70014C10.0328 6.70014 9.68647 6.84355 9.42608 7.10402L7.79738 8.73272C7.25977 9.27033 7.25977 10.1451 7.79738 10.6827L8.94468 11.83C8.79321 12.1369 8.662 12.4531 8.5521 12.7763H6.93016C6.16982 12.7763 5.55127 13.3949 5.55127 14.1552V16.4585C5.55127 17.2188 6.16982 17.8374 6.93016 17.8374H8.5521C8.662 18.1607 8.79321 18.4769 8.94468 18.7838L7.79738 19.9311C7.25977 20.4687 7.25977 21.3435 7.79738 21.8811L9.42608 23.5098C9.68647 23.7702 10.0328 23.9137 10.4011 23.9137C10.7694 23.9137 11.1157 23.7702 11.3761 23.5098L12.5233 22.3625C12.8301 22.5139 13.1463 22.6451 13.4697 22.755V24.3769C13.4697 25.1373 14.0882 25.7558 14.8486 25.7558H17.1519C17.9122 25.7558 18.5307 25.1373 18.5307 24.3769V22.755C18.8541 22.6451 19.1703 22.514 19.4771 22.3625L20.6243 23.5097C20.8848 23.7702 21.2311 23.9136 21.5994 23.9136C21.9678 23.9136 22.314 23.7702 22.5744 23.5097L24.2031 21.881C24.7407 21.3434 24.7407 20.4686 24.2031 19.931L23.0558 18.7837C23.2073 18.4768 23.3385 18.1607 23.4484 17.8373H25.0703C25.8306 17.8373 26.4492 17.2188 26.4492 16.4584V14.1551C26.4492 13.3948 25.8306 12.7762 25.0703 12.7762H23.4484C23.3385 12.453 23.2073 12.1367 23.0558 11.8299L24.2031 10.6826C24.7407 10.145 24.7407 9.27025 24.2031 8.73264L22.5744 7.10394C22.314 6.84347 21.9678 6.70006 21.5994 6.70006C21.2311 6.70006 20.8848 6.84347 20.6244 7.10394L19.4771 8.25124C19.1703 8.09977 18.8541 7.96856 18.5307 7.85866V6.2368C18.5307 5.47646 17.9121 4.85791 17.1519 4.85791ZM16.0002 18.6883C14.1357 18.6883 12.6188 17.1714 12.6188 15.3069C12.6188 13.4424 14.1357 11.9255 16.0002 11.9255C17.8647 11.9255 19.3815 13.4425 19.3815 15.3069C19.3816 17.1713 17.8647 18.6883 16.0002 18.6883Z" fill="#42210B"/>
<defs>
<linearGradient id="paint0_linear_15_10979" x1="16" y1="30.2197" x2="16" y2="0.394588" gradientUnits="userSpaceOnUse">
<stop stop-color="#4E2A21"/>
<stop offset="0.2304" stop-color="#522D22"/>
<stop offset="0.4427" stop-color="#5D3527"/>
<stop offset="0.6478" stop-color="#6F422E"/>
<stop offset="0.8472" stop-color="#8A5537"/>
<stop offset="1" stop-color="#A36841"/>
</linearGradient>
<linearGradient id="paint1_linear_15_10979" x1="15.9998" y1="30.6142" x2="15.9998" y2="-7.299e-05" gradientUnits="userSpaceOnUse">
<stop stop-color="#63433B"/>
<stop offset="0.5045" stop-color="#A36841"/>
<stop offset="1" stop-color="#FFC255"/>
</linearGradient>
<linearGradient id="paint2_linear_15_10979" x1="15.9998" y1="30.6142" x2="15.9998" y2="-7.299e-05" gradientUnits="userSpaceOnUse">
<stop stop-color="#63433B"/>
<stop offset="0.5045" stop-color="#A36841"/>
<stop offset="1" stop-color="#FFC255"/>
</linearGradient>
<linearGradient id="paint3_linear_15_10979" x1="16.0002" y1="25.1363" x2="16.0002" y2="5.47822" gradientUnits="userSpaceOnUse">
<stop stop-color="#F4D6A6"/>
<stop offset="0.216" stop-color="#F6E2BE"/>
<stop offset="0.4219" stop-color="#F7EACD"/>
<stop offset="0.5893" stop-color="#F7EDD2"/>
<stop offset="1" stop-color="white"/>
</linearGradient>
</defs>
</svg>
