<svg width="24" height="22" viewBox="0 0 24 22" fill="none" xmlns="http://www.w3.org/2000/svg">
<path fill-rule="evenodd" clip-rule="evenodd" d="M24 11.0091C24 15.3209 20.576 18.8717 16.1691 19.3473C15.6618 19.4107 15.1863 18.9985 15.1863 18.4913C15.1863 18.0791 15.535 17.6987 15.9789 17.667C19.498 17.2865 22.2246 14.4332 22.2246 11.0091C22.2246 7.55337 19.498 4.70001 15.9789 4.31956C15.535 4.28785 15.1863 3.90739 15.1863 3.49524C15.1863 2.98797 15.6618 2.57581 16.1691 2.63922C20.576 3.11478 24 6.66565 24 11.0091ZM15.1863 14.9404V14.8136C15.1863 14.4015 15.4716 14.0527 15.8838 13.9893C17.3104 13.6723 18.3884 12.4358 18.3884 11.0091C18.3884 9.55073 17.3738 8.37767 15.9789 8.02892C15.5033 7.90211 15.1863 7.52166 15.1863 7.0461C15.1863 6.60224 15.6301 6.2218 16.1057 6.31691C18.4201 6.72907 20.1638 8.66301 20.1638 11.0091C20.1638 13.3235 18.4201 15.2575 16.1057 15.6696C15.6301 15.7647 15.1863 15.3843 15.1863 14.9404ZM13.0621 0.927212C13.0621 0.958916 13.0621 20.7423 13.0621 20.774C12.9353 21.2178 12.5548 21.6617 12.0158 21.6934C11.7622 21.7251 11.4452 21.6617 11.0964 21.4715C11.0964 21.4715 5.04095 16.6842 4.78731 16.4622H1.45838C0.665779 16.4622 0 15.8599 0 15.099V6.79247C0 6.03157 0.665779 5.4292 1.45838 5.4292H4.78731C5.04095 5.17557 11.0964 0.229717 11.0964 0.229717C11.4452 0.0394928 11.7622 -0.0239193 12.0158 0.00778478C12.5548 0.0394889 12.9353 0.483354 13.0621 0.927212Z" fill="white"/>
</svg>
