<svg width="24" height="22" viewBox="0 0 24 22" fill="none" xmlns="http://www.w3.org/2000/svg">
<path d="M13.0433 0.920328C12.9481 0.476031 12.5673 0.0634711 12.0278 0C11.7422 0 11.4565 0.0634769 11.0757 0.25389C11.0757 0.25389 5.01421 5.20463 4.76033 5.45852H1.4281C0.634711 5.45852 0 6.06148 0 6.7914V15.1379C0 15.8678 0.634711 16.4707 1.4281 16.4707H4.76033C5.01421 16.7246 11.0757 21.485 11.0757 21.485C11.4565 21.7071 11.7422 21.7706 12.0278 21.7388C12.5673 21.6754 12.9481 21.2628 13.0433 20.8185C13.0433 20.7868 13.0433 0.9838 13.0433 0.920328Z" fill="white"/>
<path d="M13.0433 0.920328C12.9481 0.476031 12.5673 0.0634711 12.0278 0C11.7422 0 11.4565 0.0634769 11.0757 0.25389C11.0757 0.25389 5.01421 5.20463 4.76033 5.45852H1.4281C0.634711 5.45852 0 6.06148 0 6.7914V15.1379C0 15.8678 0.634711 16.4707 1.4281 16.4707H4.76033C5.01421 16.7246 11.0757 21.485 11.0757 21.485C11.4565 21.7071 11.7422 21.7706 12.0278 21.7388C12.5673 21.6754 12.9481 21.2628 13.0433 20.8185C13.0433 20.7868 13.0433 0.9838 13.0433 0.920328Z" fill="white"/>
<path d="M21.5485 10.8854L23.643 8.75911C24.119 8.31481 24.119 7.58489 23.643 7.1406C23.1987 6.6963 22.4688 6.6963 22.0245 7.1406L19.9299 9.26688L17.8037 7.1406C17.3594 6.6963 16.6294 6.6963 16.1852 7.1406C15.7409 7.58489 15.7409 8.31481 16.1852 8.75911L18.3114 10.8854L16.1852 12.9799C15.7409 13.4242 15.7409 14.1541 16.1852 14.5984C16.6294 15.0745 17.3594 15.0745 17.8037 14.5984L19.9299 12.5039L22.0245 14.5984C22.4688 15.0745 23.1987 15.0745 23.643 14.5984C24.119 14.1541 24.119 13.4242 23.643 12.9799L21.5485 10.8854Z" fill="white"/>
</svg>
