<svg width="70" height="48" viewBox="0 0 70 48" fill="none" xmlns="http://www.w3.org/2000/svg">
<path d="M34.9672 47.3926C54.279 47.3926 69.9344 39.2555 69.9344 29.218C69.9344 19.1805 54.279 11.0435 34.9672 11.0435C15.6553 11.0435 0 19.1805 0 29.218C0 39.2555 15.6553 47.3926 34.9672 47.3926Z" fill="#ACB4C3"/>
<path d="M34.9672 46.5859C54.279 46.5859 69.9344 38.4489 69.9344 28.4114C69.9344 18.3738 54.279 10.2368 34.9672 10.2368C15.6553 10.2368 0 18.3738 0 28.4114C0 38.4489 15.6553 46.5859 34.9672 46.5859Z" fill="#F0E2C3"/>
<path d="M34.967 45.2947C52.9068 45.2947 67.4499 37.7357 67.4499 28.4113C67.4499 19.0868 52.9068 11.5278 34.967 11.5278C17.0272 11.5278 2.48413 19.0868 2.48413 28.4113C2.48413 37.7357 17.0272 45.2947 34.967 45.2947Z" fill="white"/>
<path d="M34.967 42.3014C49.7264 42.3014 61.6912 36.0826 61.6912 28.4112C61.6912 20.7399 49.7264 14.521 34.967 14.521C20.2077 14.521 8.24292 20.7399 8.24292 28.4112C8.24292 36.0826 20.2077 42.3014 34.967 42.3014Z" fill="#F0E2C3"/>
<path d="M34.967 41.4395C48.8103 41.4395 60.0324 35.6066 60.0324 28.4114C60.0324 21.2162 48.8103 15.3833 34.967 15.3833C21.1238 15.3833 9.90161 21.2162 9.90161 28.4114C9.90161 35.6066 21.1238 41.4395 34.967 41.4395Z" fill="white"/>
<path d="M34.967 40.7997C47.1123 40.7997 56.958 35.2945 56.958 28.5034C56.958 21.7123 47.1123 16.207 34.967 16.207C22.8218 16.207 12.9761 21.7123 12.9761 28.5034C12.9761 35.2945 22.8218 40.7997 34.967 40.7997Z" fill="url(#paint0_radial_81_7271)"/>
<path d="M61.1939 11.1548H34.9671H8.74023C8.74023 11.1548 7.63852 19.9487 13.9669 28.3723C20.9451 37.6608 34.9671 37.2956 34.9671 37.2956C34.9671 37.2956 48.989 37.6608 55.9673 28.3723C62.2956 19.9487 61.1939 11.1548 61.1939 11.1548Z" fill="#D7CBAE"/>
<path d="M61.194 11.1548H47.3112C46.415 20.2456 44.6617 33.0898 28.7148 36.6731C32.3005 37.3649 34.9671 37.2956 34.9671 37.2956C34.9671 37.2956 48.9891 37.6608 55.9673 28.3723C62.2957 19.9487 61.194 11.1548 61.194 11.1548Z" fill="#C5B28A"/>
<path d="M34.9671 22.3094C49.4518 22.3094 61.1939 17.3153 61.1939 11.1547C61.1939 4.99413 49.4518 0 34.9671 0C20.4824 0 8.74023 4.99413 8.74023 11.1547C8.74023 17.3153 20.4824 22.3094 34.9671 22.3094Z" fill="white"/>
<path d="M34.9672 21.6665C48.617 21.6665 59.6824 16.9602 59.6824 11.1548C59.6824 5.34931 48.617 0.643066 34.9672 0.643066C21.3173 0.643066 10.252 5.34931 10.252 11.1548C10.252 16.9602 21.3173 21.6665 34.9672 21.6665Z" fill="#D7CBAE"/>
<path d="M34.967 5.83545C23.4242 5.83545 13.731 9.20135 11.0132 13.7509C13.7313 18.3007 23.4242 21.6663 34.967 21.6663C46.5097 21.6663 56.203 18.3004 58.9208 13.7509C56.203 9.20101 46.5097 5.83545 34.967 5.83545Z" fill="#DCDA3B"/>
<path d="M40.2115 7.78556C40.1692 8.01799 40.0043 8.20741 39.8361 8.37294C39.3531 8.84734 38.7835 9.2337 38.164 9.50673C37.891 9.62721 37.6036 9.72858 37.3722 9.91664C37.1596 10.0893 37.0087 10.3238 36.8394 10.5392C35.9442 11.6808 34.5275 12.302 33.108 12.6027C32.5892 12.7126 32.0612 12.7863 31.5547 12.9429C31.2411 13.0399 30.938 13.1682 30.6295 13.2808C29.8097 13.5805 28.9496 13.7706 28.08 13.8447C27.8421 13.8648 27.5929 13.8747 27.3755 13.7761C27.1581 13.6774 26.9868 13.4375 27.0441 13.2061C27.0841 13.0447 27.2192 12.9276 27.3472 12.8214C27.8192 12.43 28.2912 12.0382 28.7633 11.6467C28.8844 11.546 29.0066 11.445 29.1448 11.3699C29.324 11.2726 29.524 11.2225 29.7179 11.159C31.5223 10.5699 32.7384 8.88659 34.3995 7.96816C35.6091 7.29921 37.0039 7.06337 38.3712 6.85893C38.7712 6.79921 39.1896 6.74255 39.5726 6.87395C39.9548 7.00535 40.2838 7.3876 40.2115 7.78556Z" fill="#F6E9D1"/>
<path d="M39.836 8.37335C40.0046 8.20782 40.1695 8.0184 40.2115 7.78597C40.2838 7.38802 39.9548 7.00542 39.5722 6.87402C39.4603 6.83579 39.3452 6.81463 39.2285 6.80371C39.2094 6.85764 39.1841 6.90917 39.1507 6.95354C39.0005 7.15423 38.7589 7.26037 38.5285 7.35798C37.9039 7.62283 37.279 7.88768 36.6544 8.15253C37.2992 8.04434 37.9439 7.93614 38.5886 7.82795C38.4179 8.20065 38.0459 8.44127 37.665 8.59281C37.2845 8.74434 36.878 8.82796 36.5056 8.99895C35.4473 9.48496 34.709 10.6488 33.5534 10.7935C33.6305 10.929 33.5708 11.1095 33.4582 11.2174C33.3455 11.3253 33.1923 11.3782 33.0445 11.4276C31.8117 11.841 30.5786 12.2539 29.3458 12.6669C28.912 12.8123 28.4759 12.9584 28.0243 13.0311C27.7202 13.0802 27.411 13.0925 27.1038 13.0741C27.0779 13.115 27.0557 13.1584 27.0441 13.2062C26.9868 13.4379 27.1584 13.6778 27.3755 13.7761C27.5929 13.8748 27.8421 13.8649 28.08 13.8447C28.9499 13.7707 29.8097 13.5806 30.6295 13.2809C30.938 13.1683 31.2411 13.0399 31.5547 12.943C32.0612 12.7864 32.5892 12.7126 33.108 12.6027C34.5275 12.3017 35.9442 11.6809 36.8394 10.5392C37.0084 10.3239 37.1596 10.0894 37.3722 9.91671C37.6036 9.72865 37.8913 9.62694 38.164 9.5068C38.7835 9.23377 39.3531 8.84776 39.836 8.37335Z" fill="#F1E0C1"/>
<path d="M37.8788 6.66642C37.8368 6.89884 37.672 7.08827 37.5034 7.2538C37.0204 7.7282 36.4508 8.11455 35.8314 8.38759C35.5583 8.50807 35.2709 8.60944 35.0395 8.7975C34.8273 8.97019 34.6761 9.20467 34.5068 9.42003C33.6115 10.5617 32.1948 11.1828 30.7753 11.4835C30.2566 11.5934 29.7286 11.6671 29.2221 11.8238C28.9084 11.9207 28.6054 12.0491 28.2968 12.1617C27.477 12.4613 26.6169 12.6515 25.747 12.7255C25.5091 12.7457 25.2599 12.7555 25.0425 12.6569C24.8251 12.5583 24.6538 12.3183 24.7111 12.0869C24.7511 11.9255 24.8862 11.8084 25.0142 11.7023C25.4862 11.3108 25.9582 10.919 26.4303 10.5275C26.5514 10.4269 26.6736 10.3258 26.8118 10.2508C26.991 10.1535 27.191 10.103 27.3849 10.0398C29.1893 9.45074 30.4054 7.76745 32.0665 6.84902C33.276 6.18007 34.6709 5.94423 36.0382 5.73979C36.4382 5.68006 36.8566 5.62341 37.2396 5.75481C37.6222 5.88621 37.9512 6.26846 37.8788 6.66642Z" fill="#F6E9D1"/>
<path d="M37.5032 7.25372C37.6718 7.08819 37.8366 6.89877 37.8786 6.66634C37.951 6.26839 37.6219 5.88579 37.2393 5.75439C37.1274 5.71616 37.0124 5.695 36.8957 5.68408C36.8765 5.73801 36.8513 5.78954 36.8178 5.83425C36.6677 6.03494 36.426 6.14108 36.1957 6.23869C35.5711 6.50354 34.9462 6.76839 34.3216 7.03324C34.9663 6.92505 35.611 6.81686 36.2557 6.70866C36.0851 7.08136 35.7131 7.32198 35.3322 7.47352C34.9516 7.62505 34.5451 7.70867 34.1728 7.87966C33.1147 8.36567 32.3762 9.52951 31.2205 9.67422C31.2977 9.80971 31.2379 9.99026 31.1256 10.0981C31.013 10.206 30.8598 10.2585 30.712 10.3084C29.4792 10.7213 28.2461 11.1346 27.0133 11.5476C26.5795 11.693 26.1433 11.8387 25.6918 11.9118C25.3877 11.9609 25.0785 11.9732 24.7713 11.9548C24.7454 11.9957 24.7232 12.0391 24.7116 12.0869C24.6543 12.3186 24.8259 12.5582 25.043 12.6568C25.2604 12.7555 25.5096 12.7456 25.7474 12.7254C26.6174 12.6514 27.4771 12.4613 28.297 12.1616C28.6055 12.049 28.9086 11.9207 29.2222 11.8237C29.7287 11.6671 30.2567 11.5933 30.7755 11.4834C32.1949 11.1824 33.6117 10.5616 34.5069 9.41995C34.6758 9.20459 34.827 8.97012 35.0397 8.79742C35.2711 8.60936 35.5588 8.50765 35.8315 8.38752C36.4509 8.11448 37.0202 7.72847 37.5032 7.25372Z" fill="#F1E0C1"/>
<path d="M51.5868 9.88224C51.5445 10.1147 51.3797 10.3041 51.2114 10.4696C50.7285 10.944 50.1588 11.3304 49.5394 11.6034C49.2663 11.7239 48.979 11.8253 48.7476 12.0133C48.5353 12.186 48.3837 12.4205 48.2148 12.6358C47.3196 13.7775 45.9025 14.3987 44.4833 14.6993C43.9646 14.8092 43.4366 14.883 42.9301 15.0396C42.6164 15.1366 42.3134 15.2649 42.0048 15.3775C41.185 15.6772 40.325 15.8673 39.455 15.9413C39.2171 15.9615 38.9679 15.9714 38.7505 15.8727C38.5331 15.7741 38.3618 15.5342 38.4191 15.3028C38.4591 15.1413 38.5942 15.0243 38.7222 14.9181C39.1942 14.5266 39.6662 14.1348 40.1386 13.7434C40.2598 13.6427 40.3819 13.5417 40.5202 13.4666C40.6994 13.3693 40.8994 13.3191 41.0932 13.2556C42.8977 12.6666 44.1137 10.9833 45.7748 10.0648C46.9844 9.39589 48.3793 9.16005 49.7465 8.95561C50.1465 8.89588 50.565 8.83923 50.9479 8.97063C51.3302 9.10169 51.6588 9.48429 51.5868 9.88224Z" fill="#F6E9D1"/>
<path d="M51.2109 10.4695C51.3795 10.304 51.5443 10.1146 51.5863 9.88217C51.6583 9.48421 51.3297 9.10161 50.9471 8.97021C50.8351 8.93198 50.7201 8.91082 50.6034 8.8999C50.5843 8.95383 50.559 9.00537 50.5256 9.04973C50.3754 9.25042 50.1337 9.35656 49.9034 9.45417C49.2788 9.71902 48.6539 9.98387 48.0293 10.2487C48.674 10.1405 49.3187 10.0323 49.9634 9.92414C49.7928 10.2968 49.4208 10.5375 49.0399 10.689C48.6593 10.8405 48.2528 10.9242 47.8805 11.0951C46.8225 11.5812 46.0839 12.745 44.9282 12.8897C45.0054 13.0252 44.9456 13.2057 44.833 13.3136C44.7204 13.4214 44.5671 13.4743 44.4194 13.5238C43.1866 13.9371 41.9535 14.3501 40.7207 14.7631C40.2869 14.9085 39.8507 15.0546 39.3992 15.1273C39.0951 15.1764 38.7859 15.1887 38.4787 15.1703C38.4528 15.2112 38.4306 15.2546 38.4186 15.3023C38.3613 15.5341 38.533 15.774 38.75 15.8723C38.9674 15.971 39.2166 15.9611 39.4545 15.9409C40.3244 15.8669 41.1842 15.6768 42.0043 15.3771C42.3129 15.2645 42.6159 15.1361 42.9296 15.0392C43.4364 14.8825 43.9641 14.8088 44.4828 14.6989C45.9023 14.3979 47.319 13.7771 48.2143 12.6354C48.3832 12.4201 48.5344 12.1856 48.747 12.0129C48.9784 11.8248 49.2662 11.7231 49.5389 11.603C50.1587 11.3303 50.7279 10.9439 51.2109 10.4695Z" fill="#F1E0C1"/>
<path d="M16.2115 10.0729C16.4299 9.98316 16.6784 10.02 16.9088 10.0729C17.5688 10.2241 18.2009 10.4961 18.7647 10.8709C19.0132 11.0361 19.2535 11.2234 19.5368 11.3173C19.7968 11.4033 20.0757 11.4043 20.348 11.4306C21.7924 11.5699 23.0788 12.4289 24.0965 13.4627C24.4685 13.8405 24.815 14.2456 25.2201 14.588C25.4709 14.7999 25.7423 14.9863 26.0034 15.1852C26.6976 15.7146 27.3208 16.3368 27.8519 17.0296C27.9969 17.2191 28.1396 17.4238 28.1734 17.66C28.2075 17.8962 28.0976 18.1699 27.8716 18.2464C27.7143 18.2996 27.5426 18.2488 27.3843 18.1982C26.8 18.0116 26.216 17.8249 25.6317 17.6378C25.4819 17.59 25.3307 17.5416 25.1928 17.4655C25.0143 17.3668 24.8641 17.2255 24.7064 17.0962C23.2382 15.8931 21.1648 15.7757 19.4962 14.8709C18.2811 14.2122 17.3309 13.1637 16.4221 12.1224C16.1562 11.8176 15.8832 11.4955 15.7876 11.1023C15.692 10.7094 15.8371 10.2265 16.2115 10.0729Z" fill="#F6E9D1"/>
<path d="M16.9081 10.0729C16.6778 10.02 16.4296 9.98316 16.2109 10.0729C15.8365 10.2265 15.6917 10.7098 15.787 11.1026C15.815 11.2176 15.8593 11.3258 15.9129 11.4299C15.9685 11.417 16.0255 11.4108 16.0812 11.4149C16.331 11.4333 16.5505 11.5798 16.7573 11.7214C17.317 12.105 17.8767 12.4886 18.4361 12.8723C17.9976 12.3873 17.5593 11.9026 17.1208 11.4176C17.5266 11.3606 17.93 11.5446 18.2628 11.7835C18.5955 12.0224 18.8849 12.32 19.2297 12.5415C20.2092 13.1712 21.5874 13.1665 22.3317 14.062C22.4044 13.9241 22.5884 13.877 22.7399 13.9139C22.8915 13.9504 23.0184 14.0515 23.1399 14.1491C24.1522 14.9651 25.1642 15.7815 26.1765 16.5975C26.5325 16.8846 26.8905 17.1737 27.1953 17.515C27.4004 17.7447 27.5772 17.9986 27.7273 18.2675C27.7758 18.2675 27.8243 18.2627 27.871 18.2467C28.097 18.1703 28.2069 17.8965 28.1727 17.6604C28.139 17.4242 27.9963 17.2194 27.8512 17.03C27.3202 16.3371 26.697 15.7149 26.0028 15.1856C25.7417 14.9866 25.4703 14.8003 25.2195 14.5883C24.8143 14.246 24.4679 13.8409 24.0959 13.463C23.0778 12.4293 21.7915 11.5702 20.3474 11.4309C20.0747 11.4047 19.7959 11.4036 19.5361 11.3176C19.2529 11.2241 19.0126 11.0364 18.7641 10.8712C18.2003 10.4958 17.5682 10.2241 16.9081 10.0729Z" fill="#F1E0C1"/>
<path d="M33.885 15.8344C33.7171 16.0006 33.4737 16.0614 33.2406 16.1006C32.573 16.2129 31.885 16.203 31.2204 16.072C30.928 16.0143 30.6341 15.9327 30.3365 15.9542C30.0634 15.974 29.8051 16.0795 29.5433 16.1593C28.1552 16.5822 26.6385 16.2795 25.3026 15.7129C24.8146 15.5058 24.3395 15.2638 23.8344 15.102C23.5217 15.0017 23.1999 14.933 22.8825 14.8487C22.0388 14.6245 21.2251 14.2877 20.4698 13.8501C20.2634 13.7303 20.0535 13.5955 19.932 13.3904C19.8105 13.1853 19.8074 12.8904 19.9869 12.7334C20.1122 12.6242 20.29 12.6054 20.4555 12.5917C21.0668 12.5412 21.678 12.4907 22.2893 12.4402C22.4463 12.4272 22.6043 12.4143 22.7606 12.432C22.9634 12.4549 23.1562 12.5283 23.3511 12.5876C25.1675 13.1385 27.1286 12.4556 29.0163 12.6545C30.3911 12.7992 31.6693 13.4054 32.9068 14.0208C33.2689 14.201 33.6444 14.3941 33.8829 14.7211C34.1218 15.0477 34.172 15.5494 33.885 15.8344Z" fill="#F6E9D1"/>
<path d="M33.2405 16.1008C33.4736 16.0616 33.7169 16.0008 33.8848 15.8346C34.1722 15.5496 34.1217 15.0479 33.8831 14.721C33.8135 14.6254 33.7312 14.5425 33.6418 14.4667C33.5954 14.4998 33.5449 14.5275 33.492 14.5449C33.2541 14.6234 32.9954 14.5718 32.7503 14.5199C32.0865 14.379 31.4227 14.2384 30.7592 14.0974C31.3497 14.378 31.9401 14.6589 32.5302 14.9394C32.177 15.1469 31.734 15.1312 31.335 15.0374C30.936 14.9435 30.5551 14.779 30.152 14.706C29.0063 14.4981 27.7343 15.0288 26.7042 14.4855C26.6895 14.6408 26.5377 14.7544 26.3834 14.7783C26.2291 14.8022 26.0735 14.7578 25.924 14.7135C24.6769 14.3459 23.4298 13.978 22.1823 13.61C21.7434 13.4807 21.3025 13.3503 20.8905 13.1513C20.6134 13.0172 20.353 12.8503 20.1113 12.6592C20.0666 12.678 20.0236 12.7005 19.9864 12.7332C19.8069 12.8902 19.81 13.1851 19.9315 13.3902C20.053 13.5957 20.2629 13.7305 20.4694 13.85C21.2247 14.2875 22.0383 14.6244 22.882 14.8486C23.1994 14.9329 23.5213 15.0015 23.8339 15.1015C24.339 15.2633 24.8138 15.5053 25.3022 15.7124C26.638 16.279 28.1547 16.5817 29.5428 16.1589C29.8046 16.079 30.063 15.9735 30.336 15.9537C30.6336 15.9322 30.9275 16.0138 31.22 16.0715C31.8848 16.2032 32.5729 16.2128 33.2405 16.1008Z" fill="#F1E0C1"/>
<path d="M46.6649 16.4925C46.5536 16.701 46.339 16.8307 46.1277 16.9369C45.5229 17.241 44.8625 17.4345 44.1891 17.5051C43.8925 17.5362 43.5878 17.5451 43.3096 17.6533C43.0546 17.7526 42.8389 17.9297 42.612 18.083C41.4103 18.8963 39.8717 19.054 38.4283 18.9065C37.9007 18.8526 37.3754 18.7611 36.8454 18.7557C36.517 18.7522 36.1894 18.7816 35.8611 18.7946C34.9887 18.829 34.1119 18.7471 33.261 18.5516C33.0286 18.498 32.7883 18.4311 32.6116 18.2707C32.4348 18.1103 32.345 17.8297 32.4703 17.6266C32.5576 17.4853 32.7221 17.415 32.8764 17.3533C33.4457 17.1249 34.0146 16.8963 34.5839 16.6679C34.73 16.6092 34.8774 16.5502 35.032 16.5212C35.2324 16.4833 35.4382 16.4966 35.6423 16.4956C37.5403 16.4867 39.213 15.2556 41.0754 14.8894C42.4318 14.6225 43.8318 14.8246 45.196 15.0478C45.5953 15.1133 46.011 15.1874 46.3352 15.4293C46.6595 15.671 46.8557 16.1358 46.6649 16.4925Z" fill="#F6E9D1"/>
<path d="M46.128 16.9367C46.3389 16.8306 46.5539 16.7009 46.6652 16.4923C46.8557 16.1353 46.6594 15.6708 46.3355 15.4289C46.2406 15.3582 46.1376 15.3029 46.0297 15.2568C45.9952 15.3022 45.9553 15.3435 45.9096 15.376C45.7055 15.521 45.443 15.5483 45.1935 15.5708C44.5177 15.6319 43.842 15.693 43.1662 15.7541C43.813 15.8483 44.4601 15.9422 45.1068 16.0364C44.8304 16.3388 44.4024 16.4541 43.9939 16.4821C43.585 16.5101 43.1727 16.4654 42.7659 16.5142C41.6099 16.6531 40.5508 17.5354 39.4064 17.32C39.4382 17.4726 39.3266 17.6261 39.1863 17.6944C39.046 17.7627 38.8843 17.7661 38.7283 17.7681C37.4283 17.7845 36.1279 17.8005 34.8279 17.8169C34.3706 17.8227 33.9105 17.8282 33.4583 17.7596C33.1538 17.7132 32.8559 17.6306 32.5688 17.519C32.5316 17.55 32.4975 17.5845 32.4712 17.6265C32.346 17.8296 32.4357 18.1104 32.6125 18.2705C32.7893 18.4309 33.0296 18.4978 33.262 18.5514C34.1129 18.747 34.9897 18.8289 35.862 18.7944C36.19 18.7814 36.518 18.7521 36.8464 18.7555C37.3767 18.7613 37.9017 18.8524 38.4293 18.9064C39.8727 19.0541 41.4116 18.8961 42.613 18.0828C42.8396 17.9292 43.0553 17.7524 43.3106 17.6531C43.5884 17.5449 43.8932 17.536 44.1901 17.505C44.8625 17.4343 45.5229 17.2408 46.128 16.9367Z" fill="#F1E0C1"/>
<path d="M35.5702 9.99488C35.4177 9.68737 35.1583 9.60307 34.9235 9.57611C34.3187 9.50648 33.7122 9.67133 33.1664 10.0536C33.0995 10.1007 33.0299 10.1556 32.9917 10.2567C33.5596 10.1864 34.1391 10.1174 34.7013 10.3454C34.8272 10.3963 34.9617 10.4744 35.0354 10.6533C35.2869 11.2621 34.7651 11.4116 34.7675 11.8468C35.0054 11.8352 35.1736 11.6772 35.3846 11.5113C35.4634 11.4485 35.5433 11.3823 35.6016 11.2758C35.6989 11.0986 35.7211 10.8362 35.7061 10.5908C35.6934 10.3788 35.6538 10.1631 35.5702 9.99488Z" fill="#954121"/>
<path d="M33.5095 9.84804C33.8931 9.91732 34.2826 9.89718 34.6682 9.93712C34.8607 9.95691 35.0788 10.0153 35.1955 10.2774C35.2259 10.3453 35.2505 10.4282 35.2969 10.4617C35.3368 10.4904 35.3826 10.4743 35.4235 10.4986C35.4723 10.5276 35.5044 10.6078 35.5232 10.6876C35.5829 10.9388 35.5481 11.216 35.4652 11.4405C35.5153 11.3951 35.5635 11.345 35.6017 11.2757C35.699 11.0986 35.7211 10.8361 35.7061 10.5907C35.6932 10.3788 35.6536 10.1631 35.5699 9.99479C35.4174 9.68728 35.158 9.60298 34.9232 9.57602C34.4426 9.52039 33.9614 9.61561 33.5095 9.84804Z" fill="#B1725B"/>
<path d="M40.4023 8.65254C39.3863 8.73309 38.344 8.8952 37.3381 8.78496C36.3709 8.67882 35.4101 8.55868 34.4722 8.94879C33.6183 9.30408 32.9446 9.53173 31.9886 9.60135C29.7483 9.76552 27.494 9.43821 25.2595 9.73139C24.0425 9.89078 22.8558 10.2331 21.7015 10.6502C20.5325 11.0727 19.3919 11.573 18.2895 12.1468C17.8284 12.3867 17.3622 12.6495 17.0335 13.0522C16.7049 13.4553 16.5407 14.0324 16.755 14.5062C17.1339 15.3437 18.3957 15.4147 18.867 16.2038C19.1291 16.6424 19.0789 17.1949 19.2192 17.6861C19.5564 18.8666 20.911 19.454 22.1363 19.5287C23.3616 19.6031 24.6002 19.3291 25.8131 19.5168C26.5626 19.6328 27.2722 19.9209 27.9879 20.1724C31.9596 21.5683 36.3122 21.8629 40.4354 21.0144C40.9573 20.9073 41.4822 20.7793 41.9501 20.5247C42.4211 20.2683 42.815 19.8939 43.2467 19.5762C46.3894 17.2618 50.9611 18.2219 54.4028 16.3813C54.7011 16.2219 54.9963 16.0349 55.1919 15.7587C55.6994 15.042 55.3598 14.0509 54.955 13.2713C54.7543 12.8847 54.5144 12.4795 54.1164 12.3017C53.8028 12.1618 53.4441 12.1874 53.1007 12.2021C50.6628 12.3072 48.1983 11.6986 46.0894 10.471C44.9235 9.79248 43.8208 8.91227 42.4942 8.66824C41.8068 8.54264 41.1 8.59725 40.4023 8.65254Z" fill="#DCDA3B"/>
<path d="M48.6581 11.8206C47.828 14.2561 46.0509 13.551 44.1065 12.7179C42.1621 11.8848 40.443 11.1483 41.6167 8.80354C42.2642 7.51001 44.2239 7.07315 46.1683 7.90626C48.113 8.73903 49.125 10.451 48.6581 11.8206Z" fill="#CE6A1E"/>
<path d="M48.4013 12.4194C47.832 13.748 45.7941 14.1498 43.8497 13.3166C41.9053 12.4835 40.7907 10.731 41.3599 9.40228C41.9292 8.0736 43.9671 7.67189 45.9115 8.505C47.8562 9.33811 48.9709 11.0907 48.4013 12.4194Z" fill="#D67927"/>
<path d="M46.9932 11.8161C46.6516 12.6134 45.429 12.8543 44.2621 12.3543C43.0952 11.8543 42.4266 10.8028 42.7683 10.0055C43.1099 9.20822 44.3324 8.96727 45.499 9.46693C46.6656 9.96659 47.3348 11.0188 46.9932 11.8161Z" fill="#D68940"/>
<path d="M22.0899 10.7828C22.2455 10.9992 22.5353 11.0661 22.8005 11.093C23.4831 11.1616 24.1817 11.0695 24.823 10.8255C24.9019 10.7954 24.9838 10.7603 25.0333 10.692C24.3841 10.7207 23.722 10.748 23.0967 10.5722C22.9568 10.533 22.8083 10.4746 22.7346 10.349C22.4838 9.92205 23.0845 9.83706 23.1066 9.53809C22.8357 9.53809 22.6357 9.64048 22.3868 9.7473C22.294 9.78758 22.1991 9.83058 22.1268 9.90157C22.0063 10.02 21.966 10.1995 21.9694 10.3685C21.9718 10.5145 22.0046 10.664 22.0899 10.7828Z" fill="#954121"/>
<path d="M24.4217 10.9539C23.9899 10.8932 23.5466 10.8935 23.1107 10.8529C22.893 10.8328 22.6486 10.785 22.5312 10.601C22.5008 10.5536 22.4773 10.4956 22.4264 10.471C22.3827 10.4498 22.3298 10.4594 22.2848 10.4413C22.2309 10.4198 22.1995 10.3635 22.1824 10.3078C22.1288 10.1331 22.1841 9.94402 22.2909 9.79248C22.2312 9.82183 22.1739 9.85494 22.1268 9.90101C22.0063 10.0194 21.966 10.199 21.9694 10.3679C21.9722 10.514 22.0049 10.6635 22.0899 10.7822C22.2455 10.9986 22.5353 11.0655 22.8005 11.0925C23.3432 11.1471 23.8954 11.0983 24.4217 10.9539Z" fill="#B1725B"/>
<path d="M24.2561 10.3695C26.3231 11.902 25.1101 13.3798 23.7241 14.9781C22.338 16.5764 21.1128 17.9894 19.237 16.157C18.2025 15.146 18.3831 13.1464 19.7691 11.5484C21.1551 9.95043 23.0937 9.50776 24.2561 10.3695Z" fill="#CE6A1E"/>
<path d="M24.7482 10.7962C25.8404 11.7433 25.6022 13.8068 24.2162 15.4048C22.8301 17.0028 20.8213 17.5307 19.7291 16.5836C18.6369 15.6365 18.8752 13.5734 20.2612 11.9751C21.6475 10.3768 23.6561 9.84911 24.7482 10.7962Z" fill="#D67927"/>
<path d="M23.7444 11.9542C24.3997 12.5225 24.2567 13.7604 23.4253 14.7195C22.5936 15.6785 21.3884 15.9949 20.7331 15.4266C20.0779 14.8584 20.2209 13.6205 21.0523 12.6614C21.884 11.7024 23.0891 11.386 23.7444 11.9542Z" fill="#D68940"/>
<path d="M37.9846 13.3235C39.5508 15.3648 37.9788 16.4529 36.2071 17.6085C34.4354 18.7645 32.8688 19.7864 31.5688 17.5092C30.8517 16.2529 31.575 14.3798 33.3463 13.2242C35.118 12.0682 37.1037 12.1757 37.9846 13.3235Z" fill="#CE6A1E"/>
<path d="M38.3405 13.8691C39.1303 15.0797 38.3347 16.9985 36.563 18.1541C34.7913 19.3101 32.7149 19.2654 31.9251 18.0548C31.1353 16.8442 31.9309 14.9254 33.7026 13.7698C35.4739 12.6138 37.5504 12.6585 38.3405 13.8691Z" fill="#D67927"/>
<path d="M37.0571 14.7063C37.5312 15.4326 37.0537 16.5838 35.9906 17.2773C34.9274 17.9708 33.6817 17.9442 33.2076 17.2179C32.7335 16.4913 33.2114 15.3404 34.2742 14.6469C35.3373 13.953 36.5834 13.98 37.0571 14.7063Z" fill="#D68940"/>
<path d="M27.2016 18.6492C27.1954 18.4505 27.2097 18.2512 27.2432 18.0553C27.3186 18.2386 27.5067 18.3693 27.7046 18.3765C27.8196 17.7587 27.2019 17.2577 27.037 16.6512C27.0002 16.515 26.9917 16.3549 27.0835 16.2481C27.1644 16.1539 27.2978 16.1297 27.4186 16.1007C27.5934 16.059 27.7691 15.9918 27.8937 15.8625C28.0183 15.7331 28.078 15.5287 27.9981 15.3679C27.9118 15.3662 27.8258 15.3645 27.7394 15.3628C27.7835 15.5239 27.6937 15.699 27.5586 15.7969C27.4234 15.8949 27.2524 15.9283 27.0859 15.9399C26.523 15.9795 25.9708 15.8007 25.435 15.6242C25.1718 15.5375 24.909 15.4508 24.6459 15.3642C24.7009 15.5273 24.7561 15.6904 24.8111 15.8532C24.663 15.8515 24.5152 15.8502 24.3674 15.8485C24.3186 15.8478 24.265 15.8491 24.2288 15.8816C24.1636 15.9399 24.2029 16.0509 24.2647 16.113C24.3264 16.1751 24.4094 16.2246 24.436 16.3079C24.3316 16.3881 24.1425 16.2986 24.0671 16.4068C23.9886 16.5198 24.1524 16.6447 24.2858 16.6785C24.6292 16.7659 24.9869 16.7959 25.3401 16.7676C25.4541 16.8696 25.4073 17.072 25.2879 17.1676C25.1684 17.2631 25.0067 17.2816 24.8544 17.2966C24.5869 17.3225 24.3193 17.3485 24.052 17.3744C24.2319 17.5434 24.4804 17.6369 24.7268 17.628C24.6183 17.8297 24.5681 18.0621 24.5831 18.2908C24.7247 18.2915 24.8664 18.2922 25.008 18.2929C25.0138 18.4509 25.0213 18.6157 25.0978 18.7543C25.1742 18.8929 25.3418 18.9952 25.4913 18.9437C25.6736 18.8813 25.722 18.6529 25.7623 18.4642C25.8466 18.069 26.0193 17.6932 26.2647 17.372C26.3258 17.2922 26.4449 17.2116 26.5132 17.2853C26.5415 17.3157 26.5452 17.3604 26.5473 17.4017C26.5643 17.7048 26.5811 18.0075 26.5981 18.3106C26.7145 18.2512 26.8312 18.1918 26.9476 18.1328C26.9633 18.329 27.0562 18.5174 27.2016 18.6492Z" fill="#7FB041"/>
<path opacity="0.68" d="M24.7618 17.14C24.6912 17.3035 24.4987 17.3703 24.326 17.4147C23.368 17.6605 22.0038 18.1291 21.0871 17.4997C20.6454 17.1963 20.655 16.7847 20.0748 16.6147C19.3662 16.4072 18.5696 16.4427 17.8437 16.2454C17.1058 16.0451 16.3904 15.7625 15.7157 15.4028C14.986 15.0137 14.2129 14.3307 14.3819 13.5212C14.516 12.8795 15.3375 12.4918 15.9181 12.7963C15.5935 13.0277 15.5355 13.5191 15.7153 13.8744C15.8952 14.2301 16.258 14.4615 16.6352 14.5898C17.9253 15.0297 19.3181 14.4352 20.6799 14.3785C21.3574 14.3505 22.0321 14.457 22.7072 14.5208C24.2526 14.6666 25.8195 14.5853 27.3414 14.2802C27.6352 14.2212 27.938 14.1495 28.1755 13.9659C28.4127 13.7826 28.5663 13.4573 28.4622 13.1761C28.294 12.7218 27.6274 12.6737 27.3632 12.2676C28.0881 12.3369 28.825 12.5918 29.3196 13.1266C29.8141 13.6614 30.0028 14.513 29.6349 15.1417C29.3049 15.7055 28.6223 15.9727 27.9714 16.028C27.3206 16.0833 26.6677 15.9679 26.0144 15.9642C25.4851 15.9615 24.8137 16.171 24.7823 16.6997C24.7734 16.8478 24.8205 17.0041 24.7618 17.14Z" fill="#F9F69A"/>
<path opacity="0.68" d="M35.4322 7.99253C35.722 8.07342 35.9094 8.21813 36.2121 8.25601C36.6544 8.3113 37.1288 8.15601 37.5828 8.20072C38.0944 8.25124 38.6507 8.72359 38.4555 9.19936C38.3633 9.42462 38.1299 9.56626 38.0306 9.78845C37.9043 10.0704 38.035 10.4168 38.266 10.6219C38.4971 10.827 38.8063 10.9185 39.1087 10.981C40.7333 11.3161 42.4268 10.9786 44.0719 11.1919C45.0231 11.3154 45.9415 11.6209 46.8876 11.7796C47.8337 11.9383 48.8521 11.9373 49.6965 11.482C49.9115 11.3659 50.1126 11.2219 50.3388 11.1304C50.6924 10.9878 51.0873 10.9816 51.4651 11.0298C51.7481 11.0659 52.0324 11.1332 52.2757 11.2816C52.4972 11.4168 52.6744 11.6124 52.8484 11.8048C53.2559 12.2564 53.6754 12.7291 53.8474 13.3127C54.1665 14.3967 53.503 15.5878 52.5453 16.1871C51.5877 16.7865 50.4081 16.9066 49.2784 16.8964C50.2153 16.6332 51.1976 16.2916 51.8003 15.5274C52.403 14.7632 52.4 13.4523 51.5569 12.9663C50.873 12.5721 50.0225 12.8673 49.246 13.0107C48.5641 13.1366 47.8658 13.1349 47.1723 13.1332C46.6081 13.1315 46.0398 13.1298 45.4873 13.0171C45.0265 12.9233 44.5852 12.754 44.1326 12.627C42.233 12.0936 40.2128 12.3154 38.2473 12.1407C37.7411 12.0956 37.2165 12.0165 36.7985 11.7277C36.3804 11.439 36.1056 10.8833 36.2899 10.41C36.3974 10.1335 36.6442 9.91439 36.6892 9.62121C36.7404 9.28947 36.5043 8.96728 36.208 8.80994C35.9118 8.6526 35.566 8.62428 35.2315 8.59868C34.496 8.54271 33.7609 8.48673 33.0254 8.4311C33.3367 8.45465 33.8868 8.07103 34.2155 7.99765C34.6186 7.90823 35.0206 7.88024 35.4322 7.99253Z" fill="#F9F69A"/>
<path opacity="0.68" d="M28.2905 19.2938C28.1662 19.1456 28.1297 18.9439 28.0369 18.7746C27.6348 18.0422 26.4833 18.2354 25.8345 17.7088C26.9983 17.304 28.2519 17.16 29.4772 17.29C29.4256 17.5337 29.6062 17.7787 29.8314 17.8852C30.0567 17.9917 30.3154 17.9931 30.5645 17.9924C31.2625 17.9903 31.9608 17.988 32.6588 17.9859C34.5052 17.9801 36.3885 17.9688 38.1411 17.3876C38.2503 17.3514 38.3629 17.3108 38.4452 17.2303C38.5189 17.1583 38.5619 17.0613 38.6189 16.9757C38.9776 16.435 39.7636 16.4487 40.4059 16.5412C42.3814 16.8255 44.5268 17.2559 46.2718 16.2876C45.4551 17.0463 44.3319 17.375 43.2356 17.576C42.1394 17.777 41.0121 17.8794 39.9745 18.2873C39.4609 18.4893 38.9783 18.7627 38.4697 18.9774C36.7131 19.718 34.7455 19.7173 32.8393 19.705C31.5748 19.6968 30.3086 19.6886 29.0492 19.5757C28.7727 19.5508 28.4683 19.5064 28.2905 19.2938Z" fill="#F9F69A"/>
<path d="M24.5052 7.99898C24.4178 7.83004 24.3301 7.66075 24.2427 7.49181C24.3796 7.50888 24.5137 7.54915 24.6376 7.61058C24.6434 7.42594 24.6488 7.24164 24.6543 7.05699C25.5076 7.41911 26.3557 7.79352 27.198 8.18021C27.2001 7.93755 27.2018 7.69454 27.2035 7.45188C27.2253 7.56621 27.2997 7.66963 27.4014 7.72663C27.3915 7.43311 27.4321 7.13823 27.5209 6.85836C27.6069 6.97372 27.6629 7.11092 27.6827 7.25358C27.8243 7.09044 27.9659 6.9273 28.1076 6.76416C28.1622 7.03413 28.2164 7.3041 28.2711 7.57441C28.3441 7.50683 28.4168 7.43925 28.4898 7.37133C28.5892 7.71639 28.5919 8.08021 28.6281 8.43721C28.6642 8.79421 28.7403 9.16247 28.9601 9.44644C29.1796 9.7304 29.5765 9.90344 29.9093 9.76931C29.8718 9.95361 29.6441 10.0379 29.4581 10.0092C29.2721 9.98091 29.1066 9.87715 28.926 9.82391C28.5236 9.7048 28.0953 9.84302 27.6987 9.98023C27.2734 10.1273 26.8482 10.2741 26.4229 10.4212C26.4096 10.3266 26.4233 10.2284 26.4618 10.141C26.1714 10.1563 25.8809 10.172 25.5908 10.1874C25.6355 10.0188 25.7335 9.86453 25.8669 9.75258C25.6355 9.74507 25.4055 9.68671 25.1983 9.58295C25.6178 9.25326 26.0919 8.99285 26.5949 8.81537C25.9697 8.52492 25.2478 8.56691 24.5601 8.61435C24.657 8.57612 24.7345 8.49216 24.7652 8.39284C24.5447 8.34267 24.3352 8.24438 24.156 8.10615C24.2659 8.05223 24.3843 8.01605 24.5052 7.99898Z" fill="#7FB041"/>
<path d="M36.5113 17.7306C36.3584 17.617 36.2059 17.5033 36.053 17.3896C36.1837 17.3449 36.3219 17.3224 36.4598 17.3234C36.384 17.1552 36.3079 16.9869 36.2322 16.8187C37.1578 16.7698 38.0841 16.7347 39.011 16.7132C38.9062 16.4941 38.8015 16.275 38.6967 16.0562C38.7666 16.1494 38.8789 16.2098 38.9953 16.2163C38.8578 15.9569 38.7649 15.6739 38.7219 15.3835C38.8496 15.4494 38.9605 15.5483 39.0404 15.6678C39.0963 15.4589 39.152 15.2504 39.208 15.0415C39.3752 15.2603 39.5428 15.479 39.71 15.6978C39.7458 15.605 39.7817 15.5122 39.8179 15.4193C40.0581 15.6859 40.2202 16.0115 40.4093 16.3169C40.5981 16.6221 40.8281 16.9197 41.1499 17.0784C41.4718 17.2371 41.9042 17.219 42.1445 16.9524C42.1916 17.1347 42.024 17.3101 41.8441 17.3661C41.6643 17.4221 41.4701 17.4016 41.2848 17.4326C40.8711 17.5019 40.5465 17.8142 40.2503 18.1112C39.9325 18.4296 39.6148 18.7484 39.297 19.0668C39.2434 18.9876 39.2127 18.8934 39.209 18.7979C38.9547 18.9391 38.7004 19.0801 38.4465 19.2214C38.4127 19.0504 38.4332 18.8688 38.5042 18.7095C38.2926 18.8043 38.0605 18.8525 37.8288 18.8501C38.0615 18.3699 38.3731 17.9282 38.7475 17.548C38.0585 17.561 37.4277 17.9152 36.8305 18.2596C36.9008 18.1828 36.9335 18.0736 36.9178 17.9705C36.6977 18.0224 36.4659 18.0255 36.2444 17.9801C36.3195 17.8835 36.41 17.7989 36.5113 17.7306Z" fill="#7FB041"/>
<path d="M37.361 9.67212C37.732 9.75028 38.1173 9.93902 38.4709 9.8025C38.5614 9.76769 38.6426 9.71308 38.7232 9.65881C38.9143 9.53014 39.1054 9.40113 39.2969 9.27246C39.2102 9.45301 39.1508 9.64687 39.1208 9.84516C39.1907 9.82741 39.2648 9.81001 39.3341 9.83015C39.4034 9.85028 39.4627 9.92332 39.4412 9.99226C39.3761 10.0052 39.3109 10.0182 39.246 10.0312C39.2467 10.0796 39.247 10.1281 39.2477 10.1766C39.2935 10.2059 39.3392 10.2353 39.3846 10.2643C39.4348 10.3366 39.429 10.4424 39.372 10.509C39.3146 10.5755 39.2109 10.5974 39.132 10.5588C39.1317 10.6738 39.1313 10.7885 39.131 10.9035C39.0941 10.9029 39.0573 10.9022 39.0204 10.9015C38.8331 10.5725 38.4788 10.3441 38.1016 10.3093C37.9556 10.2957 37.7941 10.3049 37.6801 10.2127C37.6965 10.409 37.6382 10.6107 37.5194 10.7677C37.4624 10.6824 37.4057 10.5967 37.3491 10.5114C37.3105 10.751 37.0839 10.9455 36.8412 10.9479C36.8586 10.7046 36.8764 10.4612 36.8938 10.2175C36.7641 10.2462 36.6641 10.1121 36.5556 10.0349C36.3651 9.89943 36.1064 9.93561 35.8767 9.97759C36.302 9.67827 36.8528 9.56495 37.361 9.67212Z" fill="#7FB041"/>
<path d="M31.0234 16.4133C30.877 16.23 30.6196 16.184 30.3855 16.1724C29.7828 16.142 29.1735 16.2539 28.621 16.4966C28.5531 16.5263 28.4828 16.5611 28.4421 16.6232C29.0111 16.5693 29.5913 16.516 30.1483 16.643C30.2729 16.6713 30.406 16.716 30.4763 16.8229C30.7155 17.187 30.1913 17.2877 30.1852 17.5515C30.423 17.5396 30.5944 17.441 30.8084 17.3358C30.8882 17.2963 30.9695 17.2546 31.0299 17.1891C31.1306 17.0799 31.1579 16.9201 31.1476 16.772C31.1387 16.6437 31.1036 16.5137 31.0234 16.4133Z" fill="#954121"/>
<path d="M28.9678 16.3652C29.3497 16.3996 29.7388 16.3798 30.1238 16.3962C30.3159 16.4044 30.5326 16.4355 30.6439 16.5921C30.6729 16.6327 30.6958 16.6826 30.7415 16.7017C30.7808 16.7184 30.8268 16.7075 30.8671 16.7215C30.9152 16.7379 30.9456 16.786 30.963 16.8341C31.0176 16.9853 30.9773 17.1539 30.8903 17.2914C30.9412 17.2628 30.9903 17.2317 31.0299 17.1887C31.1306 17.0795 31.1579 16.9198 31.1477 16.7716C31.1388 16.6437 31.1036 16.5136 31.0234 16.4133C30.877 16.23 30.6197 16.1839 30.3855 16.1723C29.9063 16.1481 29.4234 16.2153 28.9678 16.3652Z" fill="#B1725B"/>
<path d="M43.3802 14.3157C43.2338 14.1324 42.9764 14.0863 42.7423 14.0747C42.1396 14.0443 41.5303 14.1563 40.9774 14.3989C40.9095 14.4286 40.8392 14.4634 40.7986 14.5256C41.3675 14.4716 41.9477 14.4184 42.5047 14.5454C42.6293 14.5737 42.7624 14.6184 42.8327 14.7252C43.072 15.0894 42.5477 15.1901 42.5416 15.4539C42.7795 15.4419 42.9508 15.343 43.1648 15.2382C43.2447 15.1986 43.3259 15.157 43.3863 15.0911C43.487 14.9819 43.5143 14.8221 43.5041 14.674C43.4955 14.546 43.4604 14.416 43.3802 14.3157Z" fill="#954121"/>
<path d="M41.3245 14.2675C41.7064 14.302 42.0958 14.2822 42.4804 14.2986C42.6726 14.3067 42.8893 14.3378 43.0006 14.4945C43.0296 14.5351 43.0525 14.5849 43.0982 14.604C43.1374 14.6207 43.1835 14.6098 43.2238 14.6238C43.2719 14.6402 43.3023 14.6883 43.3197 14.7364C43.3743 14.8876 43.334 15.0562 43.247 15.1938C43.2982 15.1651 43.347 15.1341 43.3866 15.091C43.4873 14.9818 43.5146 14.8221 43.5043 14.674C43.4955 14.546 43.4603 14.416 43.3801 14.3156C43.2337 14.1323 42.9764 14.0863 42.7422 14.0747C42.263 14.0504 41.7801 14.1177 41.3245 14.2675Z" fill="#B1725B"/>
<path d="M50.9351 13.4868C51.0231 13.6902 51.1876 13.7533 51.3381 13.7786C51.7259 13.8438 52.1224 13.7578 52.4873 13.5294C52.532 13.5015 52.5788 13.4683 52.6068 13.4042C52.2382 13.4305 51.862 13.4554 51.5071 13.2895C51.4276 13.2523 51.3436 13.1977 51.302 13.0796C51.1603 12.6782 51.5016 12.5994 51.5149 12.3188C51.361 12.3185 51.247 12.4144 51.1057 12.5144C51.0528 12.5523 50.9989 12.5922 50.9579 12.6588C50.8893 12.7697 50.8661 12.9383 50.8675 13.097C50.8685 13.2349 50.8869 13.3755 50.9351 13.4868Z" fill="#954121"/>
<path d="M52.2591 13.6506C52.014 13.5929 51.7621 13.5929 51.5147 13.5544C51.3911 13.5352 51.2526 13.4902 51.186 13.3172C51.1686 13.2724 51.1556 13.2182 51.1266 13.195C51.1021 13.1752 51.0717 13.184 51.0464 13.167C51.016 13.1468 50.998 13.0936 50.9884 13.0417C50.9584 12.8776 50.9901 12.7001 51.0512 12.5581C51.0174 12.5858 50.9847 12.6165 50.9577 12.6598C50.8891 12.7707 50.8659 12.9393 50.8672 13.098C50.8686 13.2352 50.8867 13.3755 50.9348 13.4871C51.0229 13.6905 51.1874 13.7537 51.3379 13.7789C51.6464 13.8308 51.9601 13.7854 52.2591 13.6506Z" fill="#B1725B"/>
<path d="M46.8076 17.1562C46.8957 17.3596 47.0602 17.4228 47.2107 17.448C47.5984 17.5132 47.995 17.4272 48.3599 17.1989C48.4046 17.1709 48.4513 17.1378 48.4793 17.0736C48.1107 17.0999 47.7346 17.1248 47.3796 16.9589C47.3001 16.9217 47.2162 16.8668 47.1745 16.749C47.0329 16.348 47.3742 16.2688 47.3875 15.9883C47.2336 15.9879 47.1196 16.0838 46.9783 16.1838C46.9254 16.2217 46.8714 16.2617 46.8305 16.3282C46.7619 16.4391 46.7387 16.6077 46.74 16.7664C46.7414 16.904 46.7595 17.0446 46.8076 17.1562Z" fill="#954121"/>
<path d="M48.1319 17.3196C47.8868 17.2619 47.6349 17.2619 47.3875 17.2233C47.2639 17.2042 47.1254 17.1591 47.0588 16.9861C47.0418 16.9414 47.0284 16.8871 46.9994 16.8639C46.9749 16.8441 46.9445 16.853 46.9192 16.8359C46.8889 16.8158 46.8708 16.7626 46.8612 16.7107C46.8312 16.5465 46.8629 16.369 46.924 16.2271C46.8902 16.2547 46.8575 16.2854 46.8305 16.3288C46.7619 16.4397 46.7387 16.6083 46.74 16.767C46.7414 16.9038 46.7595 17.0445 46.8076 17.1561C46.8957 17.3595 47.0602 17.4226 47.2107 17.4479C47.5189 17.4998 47.8325 17.4544 48.1319 17.3196Z" fill="#B1725B"/>
<path d="M16.7264 15.7895C16.8144 15.9929 16.9789 16.0561 17.1294 16.0813C17.5171 16.1465 17.9137 16.0605 18.2786 15.8322C18.3233 15.8042 18.3701 15.7711 18.398 15.7069C18.0294 15.7332 17.6533 15.7581 17.2984 15.5922C17.2189 15.555 17.1349 15.5001 17.0933 15.3823C16.9516 14.9813 17.2929 14.9021 17.3059 14.6216C17.152 14.6212 17.0383 14.7171 16.8967 14.8171C16.8438 14.855 16.7898 14.895 16.7489 14.9615C16.6803 15.0724 16.6571 15.241 16.6588 15.3997C16.6601 15.5376 16.6782 15.6782 16.7264 15.7895Z" fill="#954121"/>
<path d="M18.0507 15.9533C17.8056 15.8957 17.5538 15.8957 17.3063 15.8571C17.1828 15.838 17.0442 15.7929 16.9776 15.6199C16.9606 15.5752 16.9473 15.5209 16.9183 15.4977C16.8933 15.4779 16.8633 15.4868 16.8377 15.4697C16.807 15.4496 16.7893 15.3963 16.7797 15.3445C16.7497 15.1803 16.7814 15.0028 16.8422 14.8608C16.8084 14.8885 16.7756 14.9192 16.7486 14.9625C16.68 15.0735 16.6568 15.2421 16.6585 15.4008C16.6599 15.5376 16.678 15.6783 16.7261 15.7899C16.8142 15.9933 16.9787 16.0564 17.1292 16.0817C17.4377 16.1335 17.7517 16.0882 18.0507 15.9533Z" fill="#B1725B"/>
<path opacity="0.68" d="M19.3462 9.48676C19.4175 9.74649 19.7534 9.80656 20.0226 9.81714C20.3861 9.83148 20.7578 9.84479 21.1066 9.74069C21.4735 9.63148 21.7097 9.44478 21.9479 9.15127C22.0564 9.01748 22.1384 8.84307 22.0981 8.6755C22.053 8.48744 21.8626 8.36321 21.6715 8.33454C21.1322 8.25365 20.225 8.64546 19.7534 8.89017C19.5213 9.01065 19.2769 9.23523 19.3462 9.48676Z" fill="#F9F69A"/>
<path opacity="0.68" d="M40.2128 7.32556C40.2937 7.44707 40.4551 7.47915 40.5995 7.50065C40.7548 7.52386 40.9101 7.54707 41.0654 7.57028C41.2916 7.60406 41.5309 7.63649 41.7432 7.55082C41.9555 7.46516 42.1193 7.21498 42.0278 7.00508C41.9691 6.87027 41.8271 6.79211 41.6886 6.74228C41.3432 6.61805 40.9568 6.61088 40.6067 6.7218C40.4732 6.76413 40.3404 6.82658 40.2527 6.9358C40.1654 7.04467 40.1353 7.20918 40.2128 7.32556Z" fill="#F9F69A"/>
<path opacity="0.68" d="M47.5248 19.6396C47.7146 19.642 47.9095 19.6433 48.0876 19.5782C48.2658 19.5126 48.4265 19.3645 48.4504 19.1761C48.474 18.988 48.3542 18.8037 48.1934 18.7037C48.0327 18.6037 47.8378 18.5747 47.6487 18.5665C47.1484 18.545 46.6432 18.6584 46.1999 18.8911C46.0419 19.0638 46.1412 19.3642 46.3361 19.4939C46.5309 19.6235 46.7798 19.6307 47.0135 19.6334C47.1839 19.6355 47.3545 19.6375 47.5248 19.6396Z" fill="#F9F69A"/>
<path opacity="0.68" d="M53.6278 10.706C53.5025 10.6183 53.339 10.6091 53.1868 10.6217C52.8909 10.646 52.6015 10.7415 52.3489 10.8975C52.3308 10.9088 52.3127 10.9204 52.2984 10.9361C52.266 10.9716 52.2568 11.0231 52.2602 11.0709C52.2711 11.2364 52.4121 11.3699 52.568 11.4262C52.724 11.4825 52.8943 11.4781 53.0602 11.4774C53.2824 11.4764 53.5319 11.4719 53.6861 11.3122C53.8459 11.1463 53.8162 10.8385 53.6278 10.706Z" fill="#F9F69A"/>
<path d="M64.5345 34.4586L64.3839 33.3504C64.3839 33.3504 59.6446 35.8787 54.6432 37.8142C51.0422 39.2081 47.4114 40.0361 45.4459 40.5566C46.98 39.9272 49.4432 38.8695 51.5852 38.0207C55.2026 36.5869 62.4058 32.1541 62.4058 32.1541L61.1686 31.0664C61.1686 31.0664 55.1569 34.9187 49.4889 37.3641C43.8206 39.8091 31.5308 42.7358 31.5308 42.7358L31.7963 44.6884C31.7963 44.6884 38.4578 42.9453 45.5875 41.9761C52.7173 41.0068 63.3204 41.5539 63.3204 41.5539L65.3754 40.6467C65.3754 40.6467 61.4317 39.9269 57.7969 39.8979C54.162 39.8689 50.7886 40.1774 50.7886 40.1774C50.7886 40.1774 57.3675 38.076 59.3153 37.2136C61.6436 36.1825 64.5345 34.4586 64.5345 34.4586Z" fill="#698B38"/>
<path d="M49.4891 37.3639C45.6451 39.0223 38.7559 40.9018 34.7197 41.9397C35.5307 42.3445 37.032 42.6145 38.6505 42.3943C41.1758 42.051 46.5331 39.1906 49.5192 37.8066C50.6144 37.2987 51.3649 36.7533 51.8776 36.2656C51.0861 36.6496 50.2844 37.0209 49.4891 37.3639Z" fill="#90AF45"/>
<path d="M55.0092 41.4079C51.5617 40.8796 47.9808 41.141 43.1729 41.5717C40.2224 41.8363 38.5572 41.5264 37.638 41.1704C34.2076 42.0987 31.5315 42.7359 31.5315 42.7359L31.797 44.6885C31.797 44.6885 38.4585 42.9455 45.5883 41.9762C48.4702 41.5844 51.9207 41.4404 55.0092 41.4079Z" fill="#B5D469"/>
<path d="M60.7592 35.9747C60.1704 36.43 58.2864 37.2771 55.6523 38.0768C53.0799 38.8577 49.1126 39.9802 45.858 40.4498C45.8222 40.4591 45.7891 40.4679 45.7539 40.4768C46.3952 40.4403 49.2754 40.2751 50.8062 40.1717C51.1649 40.057 57.4236 38.0512 59.3155 37.2136C59.6257 37.0761 59.9462 36.9263 60.2684 36.7699C60.7479 36.2054 61.0916 35.7177 60.7592 35.9747Z" fill="#90AF45"/>
<path d="M60.7731 37.7973L60.8748 36.6836C60.8748 36.6836 55.6891 38.0843 50.3812 38.8491C46.5593 39.3997 42.8354 39.3925 40.8033 39.4587C42.4395 39.1894 45.0771 38.7113 47.3549 38.3645C51.2017 37.7785 59.2157 35.0744 59.2157 35.0744L58.2543 33.7368C58.2543 33.7368 51.5317 36.1426 45.4597 37.2543C39.3876 38.3659 26.7544 38.4614 26.7544 38.4614L26.5752 40.4236C26.5752 40.4236 33.4578 40.2191 40.6231 40.8737C47.7887 41.5283 57.999 44.4396 57.999 44.4396L60.2052 44.0164C60.2052 44.0164 56.5232 42.4304 52.9877 41.5867C49.4522 40.743 46.0955 40.287 46.0955 40.287C46.0955 40.287 52.9778 39.715 55.0696 39.3113C57.5693 38.8287 60.7731 37.7973 60.7731 37.7973Z" fill="#698B38"/>
<path d="M45.4593 37.2537C41.3412 38.0076 34.2063 38.294 30.04 38.4005C30.7394 38.9766 32.1421 39.5766 33.7684 39.7251C36.3066 39.9568 42.1688 38.3711 45.3893 37.6919C46.5706 37.4428 47.4245 37.0793 48.033 36.7192C47.176 36.9158 46.3115 37.0977 45.4593 37.2537Z" fill="#90AF45"/>
<path d="M49.9318 42.4329C46.6908 41.1448 43.1423 40.5963 38.36 39.938C35.4255 39.5339 33.8723 38.8584 33.0562 38.3052C29.505 38.4403 26.7541 38.4612 26.7541 38.4612L26.575 40.4233C26.575 40.4233 33.4576 40.2188 40.6229 40.8735C43.5201 41.1383 46.9151 41.7718 49.9318 42.4329Z" fill="#B5D469"/>
<path d="M56.7539 38.4278C56.0778 38.7394 54.0522 39.1424 51.3057 39.3308C48.6238 39.5148 44.5057 39.7189 41.2288 39.4465C41.192 39.4476 41.1575 39.4486 41.1213 39.4496C41.7544 39.5578 44.5985 40.0428 46.1135 40.2854C46.489 40.254 53.0378 39.7032 55.0692 39.3114C55.4023 39.2472 55.7484 39.1728 56.0972 39.0926C56.6914 38.6503 57.1355 38.252 56.7539 38.4278Z" fill="#90AF45"/>
<defs>
<radialGradient id="paint0_radial_81_7271" cx="0" cy="0" r="1" gradientUnits="userSpaceOnUse" gradientTransform="translate(34.9671 28.5028) scale(21.6999 11.5899)">
<stop offset="0.7473" stop-color="#919395" stop-opacity="0.7374"/>
<stop offset="0.7876" stop-color="#9B9C9E" stop-opacity="0.6199"/>
<stop offset="0.8549" stop-color="#B4B6B7" stop-opacity="0.4235"/>
<stop offset="0.9404" stop-color="#DEDEDF" stop-opacity="0.174"/>
<stop offset="1" stop-color="white" stop-opacity="0"/>
</radialGradient>
</defs>
</svg>
