<svg width="32" height="32" viewBox="0 0 32 32" fill="none" xmlns="http://www.w3.org/2000/svg">
<path d="M13.2665 28C12.6665 28 12.0943 27.8722 11.5499 27.6167C11.0054 27.3611 10.5443 27 10.1665 26.5334L1.5332 15.9L2.39987 15.0667C2.82209 14.6445 3.32209 14.4 3.89987 14.3334C4.47765 14.2667 4.99987 14.4 5.46654 14.7334L9.3332 17.4334V4.00002C9.3332 3.62224 9.46098 3.30558 9.71654 3.05002C9.97209 2.79446 10.2888 2.66669 10.6665 2.66669C11.0443 2.66669 11.361 2.79446 11.6165 3.05002C11.8721 3.30558 11.9999 3.62224 11.9999 4.00002V22.5667L8.29987 19.9667L12.2332 24.8334C12.3665 24.9889 12.5221 25.1111 12.6999 25.2C12.8776 25.2889 13.0665 25.3334 13.2665 25.3334H22.6665C23.3999 25.3334 24.0276 25.0722 24.5499 24.55C25.0721 24.0278 25.3332 23.4 25.3332 22.6667V13.3334C25.3332 12.9556 25.461 12.6389 25.7165 12.3834C25.9721 12.1278 26.2888 12 26.6665 12C27.0443 12 27.361 12.1278 27.6165 12.3834C27.8721 12.6389 27.9999 12.9556 27.9999 13.3334V22.6667C27.9999 24.1334 27.4776 25.3889 26.4332 26.4334C25.3888 27.4778 24.1332 28 22.6665 28H13.2665ZM14.6665 17.3334V9.33335C14.6665 8.95558 14.7943 8.63891 15.0499 8.38335C15.3054 8.1278 15.6221 8.00002 15.9999 8.00002C16.3776 8.00002 16.6943 8.1278 16.9499 8.38335C17.2054 8.63891 17.3332 8.95558 17.3332 9.33335V17.3334H14.6665ZM19.9999 17.3334V10.6667C19.9999 10.2889 20.1276 9.97224 20.3832 9.71669C20.6388 9.46113 20.9554 9.33335 21.3332 9.33335C21.711 9.33335 22.0276 9.46113 22.2832 9.71669C22.5388 9.97224 22.6665 10.2889 22.6665 10.6667V17.3334H19.9999Z" fill="white"/>
</svg>
