<svg width="47" height="66" viewBox="0 0 47 66" fill="none" xmlns="http://www.w3.org/2000/svg">
<g opacity="0.6">
<path d="M18.9101 15.0962C10.1423 19.9595 7.01991 26.5883 5.91125 34.9553C5.71616 36.4281 5.63021 37.9373 5.15607 39.3325C4.49826 41.2681 2.48581 44.1538 1.76387 46.062C-0.671914 52.4997 0.223914 55.2848 0 61.4734C7.05548 60.0285 9.70133 67.2527 26.0172 65.8079C40.987 64.4823 43.215 60.5102 46.0524 58.0828C43.215 55.2125 44.7807 40.3523 41.5384 32.3044C39.7518 27.8697 36.5459 24.3343 33.4095 20.9078C31.1018 18.3868 28.7942 15.8656 26.4865 13.3445L18.9101 15.0962Z" fill="#404042"/>
<path d="M41.5384 32.3035C39.7518 27.8688 36.5459 24.3334 33.4095 20.9069C31.7028 19.0423 29.996 17.1777 28.2892 15.313C26.7281 15.7138 24.7105 16.6007 25.4104 17.3516C28.6631 20.8406 31.3089 23.4867 32.6317 30.1018C34.3109 38.4983 30.2162 44.6776 26.1752 46.9494C28.917 46.2173 31.6588 45.4852 34.4006 44.7531C36.0297 48.306 32.846 52.2672 29.418 54.1443C23.8936 57.1694 17.049 57.6701 11.1432 55.4811C7.16428 54.0062 3.6593 51.3265 1.11636 47.9327C-0.498288 53.1043 0.20089 55.9187 0 61.4725C7.05548 60.0276 9.70124 67.2518 26.0172 65.807C40.987 64.4813 43.215 60.5092 46.0524 58.0818C43.2151 55.2117 44.7807 40.3514 41.5384 32.3035Z" fill="#323232"/>
<path d="M1.13454 47.875C-0.504173 53.0847 0.201669 55.8988 0 61.4739C4.55124 60.542 7.26866 63.2167 13.003 64.8454C6.96001 61.4082 2.79005 54.8153 1.13454 47.875Z" fill="#221E20"/>
<path d="M46.0559 58.0813C43.9098 55.9102 44.2823 46.8795 43.1882 39.1255C42.9985 42.2269 42.7776 49.9465 40.5728 54.7976C38.6304 59.071 38.3679 60.0896 34.6543 63.0722C34.0299 63.5736 33.6048 64.2768 33.04 64.8381C41.825 63.0783 43.7379 60.0645 46.0559 58.0813Z" fill="#221E20"/>
<path d="M29.4868 27.6955C29.9811 23.7902 27.801 20.1004 25.7059 16.7679C28.7611 18.0609 31.639 19.7696 34.2423 21.826C33.9632 21.5189 33.6838 21.2126 33.4048 20.9078C31.0972 18.3867 28.7895 15.8656 26.4818 13.3445L18.9054 15.0962C18.3992 15.377 17.9137 15.6644 17.4443 15.957C17.804 16.7114 17.8581 18.5571 18.5161 19.0775C20.006 20.2561 22.4632 20.0381 22.9258 18.1956C23.5817 22.0068 23.737 24.7361 22.0908 28.2355C22.8699 28.6406 23.8785 28.2881 24.4576 27.628C25.0368 26.9679 25.2702 26.0763 25.4056 25.2086C25.7884 22.7551 25.5218 20.2033 24.64 17.8821C26.7765 21.3529 27.7498 25.5262 27.3691 29.5841C28.3246 30.1944 29.3445 28.8204 29.4868 27.6955Z" fill="#221E20"/>
<path d="M18.9163 15.4259C18.9163 15.4259 14.6661 0.848275 16.9674 0.0761585C19.2688 -0.695958 20.4306 4.67545 22.732 3.90333C25.0333 3.13121 28.6783 2.54832 31.5588 3.50239C34.4392 4.45636 33.2922 6.76163 33.2922 6.76163L33.682 9.83158L37.327 9.24877L38.8712 13.8519C38.8712 13.8519 29.4579 8.68829 26.3994 14.8357C26.3994 14.8357 21.9898 16.9553 18.9163 15.4259Z" fill="#404042"/>
<path d="M37.327 9.24878L33.6819 9.83159L33.2922 6.76165C33.2922 6.76165 34.4391 4.45638 31.5587 3.5024C28.6783 2.54842 25.0332 3.13123 22.7319 3.90334C20.4306 4.67546 19.2687 -0.696029 16.9674 0.0761737C16.5696 0.209649 16.3677 0.755842 16.3057 1.5676C16.9348 3.94455 18.1956 5.91093 20.7371 6.12612C21.1147 5.90175 21.4925 5.6774 21.8702 5.45304C21.2016 8.09433 20.9459 10.8396 21.1151 13.559C21.1828 14.6467 22.0686 16.1141 22.9552 15.4805C22.7625 11.9639 22.8584 8.43157 23.2416 4.93064C25.0193 6.9146 28.2107 6.31049 30.762 5.54487C28.498 8.2452 26.9069 11.5026 26.1546 14.9447C26.3107 14.8778 26.3993 14.8355 26.3993 14.8355C29.4578 8.68822 38.8711 13.8517 38.8711 13.8517L37.327 9.24878Z" fill="#221E20"/>
<path d="M22.4797 17.2933C20.364 17.2933 18.5601 16.5498 18.4668 16.5108C17.8678 16.2597 17.5858 15.5707 17.8368 14.9717C18.0874 14.3736 18.7747 14.0912 19.3731 14.3406C19.3951 14.3497 21.5882 15.2424 23.5791 14.8381C25.424 14.4637 27.3219 13.5169 27.3278 13.511C27.3237 13.5151 27.3709 13.5108 27.4529 13.5006C27.4815 13.4971 27.51 13.4944 27.5384 13.4925C28.6771 13.4174 29.3313 14.7777 28.6007 15.6545L28.4948 15.7817C28.334 15.9747 26.7056 16.6033 24.0467 17.1428C23.5194 17.2499 22.9903 17.2933 22.4797 17.2933Z" fill="#898787"/>
<g opacity="0.52">
<path d="M16.3203 21.2833C12.3516 20.4012 6.61899 39.3645 10.5877 39.8055C12.9479 40.0678 20.56 22.2255 16.3203 21.2833Z" fill="#787679"/>
</g>
<g opacity="0.52">
<path d="M9.70023 42.8906C6.61347 42.4496 6.61347 48.1827 8.37734 48.6237C10.1412 49.0647 12.7871 43.3317 9.70023 42.8906Z" fill="#787679"/>
</g>
</g>
</svg>
